<svg width="83" height="71" viewBox="0 0 83 71" fill="none" xmlns="http://www.w3.org/2000/svg">
<g filter="url(#filter0_d_928_1179)">
<path d="M11.8195 54.9393L8.69525 40.2664L4.14188 33.9549L5.78477 25.0252L11.9116 20.4956L19.4838 21.022L25.8317 17.1812L35.5382 12.511L46.8014 10.3331L51.6584 5.28272L59.3274 4.07507L66.4444 8.26877L68.1965 18.1963L72.2986 23.2304L75.9493 32.5605L72.3219 44.5928L55.7046 55.5048L39.6503 61.7866L21.7085 62.7491L11.8195 54.9393Z" fill="#AFD157" stroke="#AFD157" stroke-width="7.80951"/>
<path d="M11.8196 54.9388L8.69532 40.2659L4.14194 33.9544L5.78483 25.0247L11.9117 20.4951L19.4838 21.0215L25.8318 17.1807L35.5383 12.5105L46.8015 10.3326L51.6584 5.28223L59.3274 4.07458L66.4445 8.26828L68.1966 18.1958L72.2987 23.2299L75.9493 32.56L72.322 44.5924L55.7047 55.5043L39.6503 61.7861L21.7085 62.7487L11.8196 54.9388Z" fill="#5BB42B"/>
<g filter="url(#filter1_d_928_1179)">
<path d="M49.2805 14.6735L59.6117 14.4055L59.8475 17.8001L49.6715 18.1067L49.2805 14.6735Z" fill="#123041"/>
</g>
<g filter="url(#filter2_d_928_1179)">
<path d="M20.287 25.9916L12.5173 32.8062L14.648 35.4593L22.3298 28.7785L20.287 25.9916Z" fill="#123041"/>
</g>
<g filter="url(#filter3_d_928_1179)">
<path d="M29.0711 32.1468L29.0747 33.89L34.9841 32.644L38.3573 29.8703L43.9359 29.1413L48.0235 26.0881L46.5891 25.147L43.3439 27.6284L38.3628 28.0266L37.4382 28.3884L34.3921 31.131L29.0711 32.1468Z" fill="#4B890D"/>
</g>
<g filter="url(#filter4_d_928_1179)">
<path d="M54.0145 23.0692L61.8415 20.3173L63.2818 23.9985L55.5603 27.0198L54.0145 23.0692Z" fill="#A1DC3C"/>
</g>
<g filter="url(#filter5_d_928_1179)">
<path d="M13.7009 38.8429L21.4225 35.8216L22.6723 39.3703L15.2467 42.7934L13.7009 38.8429Z" fill="#A1DC3C"/>
</g>
</g>
<defs>
<filter id="filter0_d_928_1179" x="0" y="0" width="82.0775" height="68.7273" filterUnits="userSpaceOnUse" color-interpolation-filters="sRGB">
<feFlood flood-opacity="0" result="BackgroundImageFix"/>
<feColorMatrix in="SourceAlpha" type="matrix" values="0 0 0 0 0 0 0 0 0 0 0 0 0 0 0 0 0 0 127 0" result="hardAlpha"/>
<feOffset dx="2" dy="2"/>
<feComposite in2="hardAlpha" operator="out"/>
<feColorMatrix type="matrix" values="0 0 0 0 0.290196 0 0 0 0 0.568627 0 0 0 0 0.137255 0 0 0 1 0"/>
<feBlend mode="normal" in2="BackgroundImageFix" result="effect1_dropShadow_928_1179"/>
<feBlend mode="normal" in="SourceGraphic" in2="effect1_dropShadow_928_1179" result="shape"/>
</filter>
<filter id="filter1_d_928_1179" x="49.0877" y="14.4055" width="10.9526" height="4.27965" filterUnits="userSpaceOnUse" color-interpolation-filters="sRGB">
<feFlood flood-opacity="0" result="BackgroundImageFix"/>
<feColorMatrix in="SourceAlpha" type="matrix" values="0 0 0 0 0 0 0 0 0 0 0 0 0 0 0 0 0 0 127 0" result="hardAlpha"/>
<feOffset dy="0.385655"/>
<feGaussianBlur stdDeviation="0.0964137"/>
<feComposite in2="hardAlpha" operator="out"/>
<feColorMatrix type="matrix" values="0 0 0 0 0 0 0 0 0 0 0 0 0 0 0 0 0 0 0.25 0"/>
<feBlend mode="normal" in2="BackgroundImageFix" result="effect1_dropShadow_928_1179"/>
<feBlend mode="normal" in="SourceGraphic" in2="effect1_dropShadow_928_1179" result="shape"/>
</filter>
<filter id="filter2_d_928_1179" x="12.3245" y="25.9916" width="10.1982" height="10.0461" filterUnits="userSpaceOnUse" color-interpolation-filters="sRGB">
<feFlood flood-opacity="0" result="BackgroundImageFix"/>
<feColorMatrix in="SourceAlpha" type="matrix" values="0 0 0 0 0 0 0 0 0 0 0 0 0 0 0 0 0 0 127 0" result="hardAlpha"/>
<feOffset dy="0.385655"/>
<feGaussianBlur stdDeviation="0.0964137"/>
<feComposite in2="hardAlpha" operator="out"/>
<feColorMatrix type="matrix" values="0 0 0 0 0 0 0 0 0 0 0 0 0 0 0 0 0 0 0.25 0"/>
<feBlend mode="normal" in2="BackgroundImageFix" result="effect1_dropShadow_928_1179"/>
<feBlend mode="normal" in="SourceGraphic" in2="effect1_dropShadow_928_1179" result="shape"/>
</filter>
<filter id="filter3_d_928_1179" x="28.8783" y="25.147" width="19.338" height="9.32146" filterUnits="userSpaceOnUse" color-interpolation-filters="sRGB">
<feFlood flood-opacity="0" result="BackgroundImageFix"/>
<feColorMatrix in="SourceAlpha" type="matrix" values="0 0 0 0 0 0 0 0 0 0 0 0 0 0 0 0 0 0 127 0" result="hardAlpha"/>
<feOffset dy="0.385655"/>
<feGaussianBlur stdDeviation="0.0964137"/>
<feComposite in2="hardAlpha" operator="out"/>
<feColorMatrix type="matrix" values="0 0 0 0 0 0 0 0 0 0 0 0 0 0 0 0 0 0 0.25 0"/>
<feBlend mode="normal" in2="BackgroundImageFix" result="effect1_dropShadow_928_1179"/>
<feBlend mode="normal" in="SourceGraphic" in2="effect1_dropShadow_928_1179" result="shape"/>
</filter>
<filter id="filter4_d_928_1179" x="53.8217" y="20.3173" width="9.65299" height="7.28094" filterUnits="userSpaceOnUse" color-interpolation-filters="sRGB">
<feFlood flood-opacity="0" result="BackgroundImageFix"/>
<feColorMatrix in="SourceAlpha" type="matrix" values="0 0 0 0 0 0 0 0 0 0 0 0 0 0 0 0 0 0 127 0" result="hardAlpha"/>
<feOffset dy="0.385655"/>
<feGaussianBlur stdDeviation="0.0964137"/>
<feComposite in2="hardAlpha" operator="out"/>
<feColorMatrix type="matrix" values="0 0 0 0 0 0 0 0 0 0 0 0 0 0 0 0 0 0 0.25 0"/>
<feBlend mode="normal" in2="BackgroundImageFix" result="effect1_dropShadow_928_1179"/>
<feBlend mode="normal" in="SourceGraphic" in2="effect1_dropShadow_928_1179" result="shape"/>
</filter>
<filter id="filter5_d_928_1179" x="13.5081" y="35.8216" width="9.35703" height="7.55034" filterUnits="userSpaceOnUse" color-interpolation-filters="sRGB">
<feFlood flood-opacity="0" result="BackgroundImageFix"/>
<feColorMatrix in="SourceAlpha" type="matrix" values="0 0 0 0 0 0 0 0 0 0 0 0 0 0 0 0 0 0 127 0" result="hardAlpha"/>
<feOffset dy="0.385655"/>
<feGaussianBlur stdDeviation="0.0964137"/>
<feComposite in2="hardAlpha" operator="out"/>
<feColorMatrix type="matrix" values="0 0 0 0 0 0 0 0 0 0 0 0 0 0 0 0 0 0 0.25 0"/>
<feBlend mode="normal" in2="BackgroundImageFix" result="effect1_dropShadow_928_1179"/>
<feBlend mode="normal" in="SourceGraphic" in2="effect1_dropShadow_928_1179" result="shape"/>
</filter>
</defs>
</svg>
