<svg width="76" height="76" viewBox="0 0 76 76" fill="none" xmlns="http://www.w3.org/2000/svg">
<path d="M18.7636 9.39719C21.3562 -0.0146164 33.115 -3.16537 40.066 3.68923L40.3184 3.93818C43.5255 7.10031 48.1592 8.34208 52.5175 7.20695L52.8609 7.11749C62.3081 4.65688 70.916 13.2648 68.4552 22.712L68.3658 23.0551C67.2306 27.4134 68.4723 32.0476 71.6346 35.2543L71.8835 35.5066C78.7383 42.458 75.5876 54.2164 66.1758 56.8092L65.8336 56.9033C61.4917 58.0995 58.0997 61.4919 56.9032 65.8337L56.8091 66.1755C54.2167 75.5874 42.458 78.7381 35.5067 71.8835L35.2543 71.6345C32.0475 68.4725 27.4134 67.2307 23.0551 68.3657L22.712 68.4552C13.2648 70.9158 4.65698 62.308 7.1175 52.8606L7.20691 52.5177C8.34208 48.1595 7.10036 43.5253 3.93815 40.3185L3.6892 40.066C-3.16532 33.1148 -0.0146172 21.3562 9.39719 18.7636L9.73902 18.6694C14.081 17.4733 17.4733 14.081 18.6694 9.73901L18.7636 9.39719Z" fill="#FFE6EE"/>
</svg>
