<svg width="109" height="109" viewBox="0 0 109 109" fill="none" xmlns="http://www.w3.org/2000/svg">
<path d="M54.5 0.5C62.1378 0.5 68.864 4.39518 72.8066 10.3037C79.7722 8.91326 87.2824 10.9155 92.6836 16.3164C98.0841 21.7172 100.085 29.2269 98.6953 36.1924C104.605 40.1346 108.5 46.8614 108.5 54.5C108.5 62.1381 104.604 68.8641 98.6953 72.8066C100.086 79.7723 98.0843 87.2823 92.6836 92.6836C87.2823 98.0843 79.7723 100.086 72.8066 98.6953C68.8641 104.604 62.1381 108.5 54.5 108.5C46.8614 108.5 40.1347 104.605 36.1924 98.6953C29.2269 100.085 21.7172 98.0841 16.3164 92.6836C10.9155 87.2824 8.91326 79.7722 10.3037 72.8066C4.39517 68.864 0.499999 62.1378 0.5 54.5C0.5 46.8618 4.39488 40.1347 10.3037 36.1924C8.91368 29.227 10.9157 21.7171 16.3164 16.3164C21.7171 10.9157 29.227 8.91373 36.1924 10.3037C40.1347 4.3949 46.8618 0.5 54.5 0.5Z" fill="#005271" stroke="#005271"/>
</svg>
