<svg width="50" height="50" viewBox="0 0 50 50" fill="none" xmlns="http://www.w3.org/2000/svg">
<path d="M15.0578 25.3014V18.1276L0 33.1724L3.55815 36.8002L15.0578 25.3014ZM49.3689 20.8183C48.25 15.1884 44.0376 10.9817 43.5527 10.5127L33.2007 0L27.2854 5.91042L26.8647 6.33042V13.5034L33.1711 7.20253L39.0584 13.1806L39.9564 14.0924L40.0208 14.1549C40.0318 14.1659 40.416 14.5403 40.9568 15.1867C42.0631 16.5101 43.8244 18.9743 44.388 21.8053C45.2276 26.0341 45.65 30.9634 40.9568 36.9693V44.3839C41.3995 44.0011 41.6771 43.7264 41.777 43.6259C45.9758 39.5078 48.5065 35.3433 49.512 30.8957C50.3846 27.0388 49.9292 23.6366 49.3689 20.8183ZM18.021 42.9591L17.8619 42.8814L17.7848 42.8569C17.6731 42.8036 17.2542 42.5856 16.478 42.0253C16.0946 41.7473 15.6224 41.3856 15.0578 40.9183C14.2038 40.2101 13.1374 39.2602 11.8365 37.9935L8.92585 35.0256L5.33469 38.6112L8.22844 41.5605L8.26737 41.6002C12.7472 45.9709 15.0494 47.2191 15.8974 47.5664C18.9689 49.0385 21.8559 49.7366 24.4839 49.9369C25.9422 50.0484 27.3209 50.0061 28.6066 49.8574C28.7166 49.8447 28.8266 49.8312 28.9358 49.8169V44.6763C25.8626 45.2036 22.1538 44.9594 18.021 42.9591Z" fill="white"/>
<path d="M24.3264 8.86736V39.4901H17.5978V15.5907L18.274 14.9147L18.6363 14.5538L20.6693 12.5223L22.0472 11.1448L22.4957 10.6969L23.8745 9.31862L24.3264 8.86736Z" fill="white"/>
<path d="M38.4173 15.716V46.2771C38.3877 46.2965 38.358 46.3159 38.3276 46.3354C38.0186 46.534 37.6894 46.7351 37.3424 46.9345C37.2281 47.0004 37.1122 47.0664 36.9928 47.1323C36.6805 47.3055 36.3547 47.4771 36.0153 47.6452C35.7021 47.8007 35.3771 47.9537 35.0411 48.1016C34.8583 48.1819 34.6729 48.2604 34.4833 48.339C34.2396 48.4388 33.9874 48.5368 33.7275 48.6323C33.5252 48.7075 33.3187 48.7793 33.1071 48.8503C32.6907 48.9914 32.2565 49.1233 31.8037 49.2458C31.6954 49.2754 31.5854 49.3033 31.4745 49.3311V15.716H38.4173Z" fill="white"/>
<path d="M31.4752 23.7844H24.3259V30.7174H31.4752V23.7844Z" fill="white"/>
</svg>
