<svg width="107" height="107" viewBox="0 0 107 107" fill="none" xmlns="http://www.w3.org/2000/svg">
<path d="M53.5 0.5C60.9067 0.5 67.4181 4.33543 71.1562 10.1309L71.3438 10.4219L71.6816 10.3486C78.4225 8.89374 85.7388 10.786 90.9766 16.0234C96.2138 21.261 98.106 28.5773 96.6514 35.3184L96.5791 35.6562L96.8691 35.8438C102.665 39.5816 106.5 46.0931 106.5 53.5C106.5 60.9067 102.665 67.4181 96.8691 71.1562L96.5791 71.3438L96.6514 71.6816C98.106 78.4225 96.2138 85.7388 90.9766 90.9766C85.7388 96.2138 78.4225 98.106 71.6816 96.6514L71.3438 96.5791L71.1562 96.8691C67.4181 102.665 60.9067 106.5 53.5 106.5C46.0931 106.5 39.5817 102.665 35.8438 96.8691L35.6562 96.5791L35.3184 96.6514C28.5773 98.106 21.261 96.2138 16.0234 90.9766C10.786 85.7388 8.89374 78.4225 10.3486 71.6816L10.4219 71.3438L10.1309 71.1562C4.33543 67.4181 0.499999 60.9067 0.5 53.5C0.500001 46.0931 4.33545 39.5816 10.1309 35.8438L10.4219 35.6562L10.3486 35.3184C8.89373 28.5773 10.786 21.2609 16.0234 16.0234C21.261 10.786 28.5773 8.89378 35.3184 10.3486L35.6562 10.4219L35.8438 10.1309C39.5816 4.33549 46.0931 0.500001 53.5 0.5Z" fill="#FCBAC1" stroke="#005271"/>
</svg>
