<svg width="621" height="640" viewBox="0 0 621 640" fill="none" xmlns="http://www.w3.org/2000/svg">
<g clip-path="url(#clip0_344_710)">
<path d="M108.929 241.704C143.841 242.791 139.983 255.039 139.508 270.28C139.033 285.522 141.413 297.964 107.21 296.898C89.8466 296.358 76.1558 283.563 76.6306 268.322C77.1053 253.08 91.5657 241.163 108.929 241.704Z" fill="#EAF3F7"/>
<path d="M142.469 218.601C150.459 233.116 145.444 235.989 139.199 239.427C132.953 242.865 127.843 245.566 119.853 231.052C111.862 216.537 112.315 200.955 116.693 198.545C121.07 196.135 134.478 204.087 142.469 218.601Z" fill="#6A5B3D"/>
<path d="M287.414 156.384C293.676 171.724 288.362 173.999 281.762 176.693C275.162 179.387 269.774 181.481 263.513 166.14C257.251 150.8 259.5 135.375 264.126 133.486C268.752 131.598 281.153 141.044 287.414 156.384Z" fill="#9C8866"/>
<path d="M290.097 160.975C272.344 191.056 284.756 194.346 297.888 202.097C311.02 209.848 320.26 218.513 337.653 189.044C346.483 174.083 342.995 155.673 329.863 147.922C316.731 140.171 298.927 146.015 290.097 160.975Z" fill="#1F0D2D"/>
<path d="M304.882 169.731C296.033 184.723 300.953 185.616 305.935 188.557C310.918 191.497 314.256 195.069 322.925 180.381C327.326 172.924 326.855 164.496 321.872 161.555C316.889 158.614 309.283 162.275 304.882 169.731Z" fill="#FFC0C1"/>
<path d="M108.962 258.997C126.363 259.539 124.486 264.173 124.306 269.956C124.125 275.739 125.357 280.469 108.31 279.938C99.6561 279.669 92.7866 274.762 92.9668 268.98C93.1469 263.197 100.308 258.727 108.962 258.997Z" fill="#FFAAAB"/>
<path d="M437.08 290.353C402.323 272.578 344.108 304.021 322.36 315.109C321.514 317.403 320.695 323.353 324.18 328.805C328.536 335.621 414.829 343.29 435.505 343.02C463.867 342.651 471.145 307.774 437.08 290.353Z" fill="url(#paint0_linear_344_710)"/>
<path d="M281.924 480.796C252.091 477.805 212.622 373.752 227.305 350.415C241.989 327.078 283.163 299.427 315.435 306.574C347.707 313.721 412.064 357.253 415.439 405.638C417.564 436.105 311.757 483.786 281.924 480.796Z" fill="#F3FAFD"/>
<path d="M282.699 319.25C289.348 317.474 296.511 316.337 304.197 315.993C347.789 314.042 416.548 351.693 415.648 401.975C415.588 405.355 414.397 409.093 412.289 413.07C408.869 408.326 402.646 389.675 392.634 374.071C372.416 342.56 362.33 338.481 329.79 330.661C308.786 325.614 284.539 321.852 282.699 319.25Z" fill="white"/>
<path d="M222.608 353.002C238.047 329.248 269.176 304.655 313.819 307.464C334.266 308.75 335.452 310.422 366.043 333.089C326.822 319.793 251.719 351.06 246.923 382.024C242.75 408.963 251.476 429.608 276.611 443.102C299.157 455.206 308.594 475.588 293.516 480.12C289.005 480.86 285.076 481.112 281.924 480.796C261.607 478.759 236.821 429.852 227.714 391.486C226.233 392.635 224.735 393.803 223.219 394.992C223.026 395.143 222.834 395.291 222.644 395.436C218.32 376.953 217.59 360.722 222.608 353.002Z" fill="url(#paint1_linear_344_710)"/>
<path d="M241.626 432.135C248.608 431.5 255.398 432.527 260.64 436.575C274.433 447.226 288.551 442.452 306.815 437.954C325.079 433.457 334.577 434.162 347.96 441.311C352.019 443.48 355.624 447.078 358.586 450.807C324.84 466.788 289.068 477.713 272.63 472.546C259.32 468.361 248.906 452.299 241.626 432.135Z" fill="#1F0D2D"/>
<path d="M325.22 534.583C294.999 527.811 260.57 485.656 249.803 450.614L343.032 439.338C376.341 458.281 385.495 475.637 375.32 507.002C370.413 522.128 339.346 537.748 325.22 534.583Z" fill="#1F0D2D"/>
<path d="M256.694 449.781C270.44 461.046 286.247 471.555 322.39 480.684C312.577 493.302 309.339 529.932 344.772 531.701C337.405 534.458 330.242 535.709 325.221 534.583C294.999 527.811 260.571 485.656 249.804 450.614L256.694 449.781Z" fill="url(#paint2_linear_344_710)"/>
<path d="M256.694 449.781C270.44 461.046 286.247 471.555 322.39 480.684C312.577 493.302 309.339 529.932 344.772 531.701C337.405 534.458 330.242 535.709 325.221 534.583C294.999 527.811 260.571 485.656 249.804 450.614L256.694 449.781Z" fill="url(#paint3_linear_344_710)" fill-opacity="0.2"/>
<path d="M266.828 400.45C275.17 413.412 298.511 406.672 324.832 394.517C351.153 382.363 370.487 369.397 362.145 356.435C351.179 339.395 323.634 339.603 297.313 351.757C270.992 363.911 255.862 383.41 266.828 400.45Z" fill="#FFAAAB"/>
<path d="M225.517 356.239C225.373 356.318 225.217 356.378 225.057 356.417C224.897 356.457 224.737 356.474 224.586 356.467L217.337 356.109C217.056 356.079 216.833 355.966 216.71 355.792C216.588 355.618 216.576 355.397 216.677 355.173C216.777 354.948 216.983 354.737 217.254 354.581C217.524 354.425 217.839 354.336 218.135 354.331L225.368 354.65C225.52 354.656 225.66 354.686 225.78 354.737C225.9 354.788 225.998 354.86 226.068 354.948C226.137 355.036 226.178 355.139 226.187 355.25C226.196 355.361 226.173 355.479 226.119 355.597C226.073 355.717 225.996 355.836 225.893 355.946C225.789 356.057 225.661 356.156 225.517 356.239Z" fill="#FF8D8D"/>
<path d="M220.698 358.854C220.556 358.932 220.401 358.992 220.242 359.031C220.084 359.069 219.925 359.086 219.774 359.079C219.623 359.073 219.484 359.043 219.365 358.992C219.246 358.941 219.148 358.869 219.079 358.781C219.009 358.693 218.968 358.591 218.959 358.48C218.95 358.369 218.973 358.252 219.025 358.135L221.511 352.551C221.562 352.434 221.643 352.319 221.749 352.214C221.854 352.108 221.982 352.014 222.126 351.936C222.269 351.858 222.425 351.799 222.584 351.76C222.743 351.722 222.902 351.707 223.053 351.714C223.354 351.729 223.601 351.836 223.74 352.012C223.88 352.188 223.9 352.418 223.796 352.652L221.305 358.248C221.201 358.481 220.982 358.699 220.698 358.854Z" fill="#FF8D8D"/>
<path d="M359.849 235.006C379.177 282.636 347.522 306.27 287.018 339.578C226.514 372.886 163.152 394.412 139.216 348.45C101.149 275.35 117.845 208.769 198.894 173.614C262.257 146.13 325.043 149.229 359.849 235.006Z" fill="white"/>
<path d="M135.234 223.462C135.456 226.874 135.366 231.093 134.907 236.19C123.31 364.72 190.52 361.502 285.476 323.86C311.219 313.655 328.253 308.572 338.394 307.202C325.301 317.763 307.874 328.096 287.018 339.577C225.916 373.215 166.626 395.259 136.788 349.663C108.066 305.772 110.019 259.705 135.234 223.462Z" fill="#EAF3F7"/>
<path d="M135.234 223.462C135.456 226.874 135.366 231.093 134.907 236.19C123.31 364.72 190.52 361.502 285.476 323.86C311.219 313.655 328.253 308.572 338.394 307.202C325.301 317.763 307.874 328.096 287.018 339.577C225.916 373.215 166.626 395.259 136.788 349.663C108.066 305.772 110.019 259.705 135.234 223.462Z" fill="url(#paint4_linear_344_710)" fill-opacity="0.2"/>
<path d="M197.3 174.482C251.27 149.636 307.22 145.874 345.602 206.345C318.511 223.278 301.475 204.475 287.508 201.025C273.055 197.454 255.79 213.202 233.411 209.192C219.459 206.693 205.753 188.814 197.3 174.482Z" fill="#1F0D2D"/>
<path d="M304.594 245.229L309.721 260.266" stroke="#123041" stroke-width="14.8939" stroke-linecap="round"/>
<path d="M189.207 296.067L194.334 311.104" stroke="#123041" stroke-width="14.8939" stroke-linecap="round"/>
<path d="M316.859 292.308C309.024 273.473 287.403 264.556 268.568 272.392L251.517 279.485C232.682 287.32 223.765 308.941 231.6 327.776C236.824 340.333 251.237 346.277 263.794 341.054L303.582 324.502C316.138 319.278 322.083 304.865 316.859 292.308Z" fill="#FFC0C1"/>
<path d="M315.254 288.45C308.305 271.746 289.131 263.838 272.427 270.787L251.517 279.485C232.682 287.32 223.765 308.941 231.6 327.776C236.824 340.333 251.237 346.277 263.794 341.054L299.723 326.107C314.411 319.997 321.364 303.137 315.254 288.45Z" fill="#FFC0C1"/>
<path d="M296.889 296.114L301.085 306.199" stroke="#123041" stroke-width="9.92928" stroke-linecap="round"/>
<path d="M260.219 311.37L264.414 321.454" stroke="#123041" stroke-width="9.92927" stroke-linecap="round"/>
<path d="M359.148 262.843L345.704 269.253" stroke="#FFC0C1" stroke-width="19.8586" stroke-linecap="round"/>
<path d="M189.599 342.456L176.155 348.866" stroke="#FFAAAB" stroke-width="19.8586" stroke-linecap="round"/>
<path d="M476.937 426.827C483.515 387.992 412.256 355.307 398.585 363.142C384.914 370.978 382.314 419.363 382.314 419.363C401.04 440.647 404.849 466.328 425.819 472.256C447.721 478.447 471.193 460.737 476.937 426.827Z" fill="white"/>
<path d="M391.3 371.459C404.535 387.306 416.739 392.527 446.063 397.87C419.896 415.234 417.65 438.913 423.236 455.366C426.115 463.848 431.353 469.595 436.567 473.41C432.998 473.638 429.387 473.264 425.818 472.255C410.335 467.878 395.846 453.631 381.786 437.908C379.445 432.38 377.738 426.64 376.849 420.942C375.535 412.508 376.417 404.558 378.262 397.598L390.142 372.951C390.865 371.977 391.3 371.459 391.3 371.459Z" fill="url(#paint5_linear_344_710)"/>
<path d="M161.561 467.337C147.755 419.327 189.944 382.197 211.935 367.015C215.189 365.703 223.399 363.55 230.208 365.428C238.719 367.776 243.813 444.096 235.886 466.325C229.4 484.514 172.782 506.358 161.561 467.337Z" fill="white"/>
<path d="M170.777 399.323C180.641 384.202 194.315 373.332 205.641 367.821C221.487 360.11 231.115 364.571 232.473 367.029C233.368 368.648 234.279 371.811 235.144 376.067C230.423 373.457 222.678 366.106 215.472 368.06C197.898 372.826 180.106 401.199 176.073 413.781C168.437 437.598 181.067 477.445 218.009 482.512C198.316 492.238 169.097 493.723 160.999 465.935C154.228 442.699 158.158 422.416 166.738 406.177C168.01 403.827 169.362 401.542 170.777 399.323Z" fill="url(#paint6_linear_344_710)"/>
<path d="M170.777 399.323C180.641 384.202 194.315 373.332 205.641 367.821C221.487 360.11 231.115 364.571 232.473 367.029C233.368 368.648 234.279 371.811 235.144 376.067C230.423 373.457 222.678 366.106 215.472 368.06C197.898 372.826 180.106 401.199 176.073 413.781C168.437 437.598 181.067 477.445 218.009 482.512C198.316 492.238 169.097 493.723 160.999 465.935C154.228 442.699 158.158 422.416 166.738 406.177C168.01 403.827 169.362 401.542 170.777 399.323Z" fill="url(#paint7_linear_344_710)" fill-opacity="0.2"/>
<path d="M184.436 382.959C193.357 373.518 203.417 366.995 212.618 364.781C219.418 363.145 224.354 362.677 230.347 364.781C233.267 365.807 235.792 375.861 237.502 389.446C221.313 370.334 205.889 370.157 184.436 382.959Z" fill="#DAEAF1"/>
<path d="M229.476 320.83C228.895 317.939 230.41 314.759 233.359 314.767C235.763 314.775 238.143 315.826 239.768 317.843L247.714 327.703C249.245 329.602 251.551 330.732 253.99 330.67C278.453 330.044 297.875 321.598 314.628 307.574C316.203 306.256 318.053 307.921 317.377 309.86C315.152 316.249 310.319 321.699 303.581 324.502L263.793 341.054C251.237 346.277 236.824 340.333 231.6 327.776C230.65 325.492 229.946 323.167 229.476 320.83Z" fill="#FFAAAB"/>
</g>
<defs>
<linearGradient id="paint0_linear_344_710" x1="422.324" y1="297.814" x2="285.058" y2="286.858" gradientUnits="userSpaceOnUse">
<stop stop-color="#EAF3F7"/>
<stop offset="1" stop-color="#D7E9F1"/>
</linearGradient>
<linearGradient id="paint1_linear_344_710" x1="271.753" y1="312.278" x2="384.378" y2="322.768" gradientUnits="userSpaceOnUse">
<stop stop-color="#DBEBF1"/>
<stop offset="1" stop-color="white"/>
</linearGradient>
<linearGradient id="paint2_linear_344_710" x1="285.668" y1="504.322" x2="305.094" y2="464.153" gradientUnits="userSpaceOnUse">
<stop stop-color="#1F1E60"/>
<stop offset="1" stop-color="#1F0D2D"/>
</linearGradient>
<linearGradient id="paint3_linear_344_710" x1="280.176" y1="481.788" x2="268.555" y2="513.342" gradientUnits="userSpaceOnUse">
<stop stop-color="#1F0D2D"/>
<stop offset="1" stop-color="#56BBD8"/>
</linearGradient>
<linearGradient id="paint4_linear_344_710" x1="147.406" y1="319.908" x2="134.785" y2="347.495" gradientUnits="userSpaceOnUse">
<stop stop-color="white"/>
<stop offset="1" stop-color="#56BBD8"/>
</linearGradient>
<linearGradient id="paint5_linear_344_710" x1="397.614" y1="466.293" x2="446.61" y2="379.838" gradientUnits="userSpaceOnUse">
<stop stop-color="#DBEBF1"/>
<stop offset="1" stop-color="white"/>
</linearGradient>
<linearGradient id="paint6_linear_344_710" x1="165.856" y1="476.73" x2="189.287" y2="376.195" gradientUnits="userSpaceOnUse">
<stop stop-color="#EAF3F7"/>
<stop offset="1" stop-color="white"/>
</linearGradient>
<linearGradient id="paint7_linear_344_710" x1="173.164" y1="427.857" x2="160.234" y2="451.586" gradientUnits="userSpaceOnUse">
<stop stop-color="white"/>
<stop offset="1" stop-color="#56BBD8"/>
</linearGradient>
<clipPath id="clip0_344_710">
<rect width="440.177" height="487.303" fill="white" transform="translate(0 212.28) rotate(-28.8331)"/>
</clipPath>
</defs>
</svg>
