<svg width="94" height="70" viewBox="0 0 94 70" fill="none" xmlns="http://www.w3.org/2000/svg">
<g filter="url(#filter0_d_928_1283)">
<path d="M67.7241 10.0405L67.7251 10.0406L69.915 17.8979L69.5174 19.1957L71.0731 20.2429L76.94 17.1946L83.9987 18.2665L84.0001 18.2707L87.4406 23.5384L84.9957 30.9941L76.282 34.1661L76.2421 34.813L76.6457 45.7367L71.9145 56.9365L62.2235 62.8888L33.9606 60.1122L15.7385 53.4059L10.8993 41.7119L10.8997 41.709L10.8991 41.7069L14.7864 26.0861L14.7879 26.0824L6.67776 19.9594L6.52226 12.0071L6.63871 11.9102L6.62753 11.3139L11.6491 7.17813L18.9058 8.28009L24.482 14.9448L26.2154 14.4968L26.0315 11.233L30.5053 4.3886L32.6767 4.71834L34.782 12.2674L41.4949 10.4974L49.4747 11.7092L55.5862 12.4881L61.7728 13.9827L62.4557 14.442L65.552 9.70866L67.7234 10.0384L67.7241 10.0405Z" fill="url(#paint0_linear_928_1283)"/>
<path d="M67.7241 10.0405L63.8763 11.2855L64.6458 13.6636L67.1169 14.0388L67.7241 10.0405ZM67.7251 10.0406L71.6207 8.95486L70.9184 6.43503L68.3322 6.0423L67.7251 10.0406ZM69.915 17.8979L73.7817 19.0825L74.1282 17.9516L73.8106 16.8121L69.915 17.8979ZM69.5174 19.1957L65.6506 18.0111L64.7726 20.8769L67.2591 22.5506L69.5174 19.1957ZM71.0731 20.2429L68.8148 23.5978L70.8068 24.9387L72.9377 23.8316L71.0731 20.2429ZM76.94 17.1946L77.5472 13.1963L76.2446 12.9985L75.0755 13.606L76.94 17.1946ZM83.9987 18.2665L87.8465 17.0215L87.077 14.6435L84.6059 14.2682L83.9987 18.2665ZM84.0001 18.2707L80.1523 19.5157L80.3187 20.0298L80.6141 20.4822L84.0001 18.2707ZM87.4406 23.5384L91.2834 24.7985L91.8886 22.953L90.8265 21.3269L87.4406 23.5384ZM84.9957 30.9941L86.3791 34.7943L88.226 34.1219L88.8385 32.2542L84.9957 30.9941ZM76.282 34.1661L74.8986 30.366L72.4089 31.2723L72.2455 33.9169L76.282 34.1661ZM76.2421 34.813L72.2056 34.5637L72.1933 34.7629L72.2007 34.9623L76.2421 34.813ZM76.6457 45.7367L80.3711 47.3104L80.7202 46.4839L80.6871 45.5873L76.6457 45.7367ZM71.9145 56.9365L74.0311 60.3825L75.1355 59.7042L75.6399 58.5102L71.9145 56.9365ZM62.2235 62.8888L61.8281 66.9136L63.1814 67.0466L64.3401 66.3349L62.2235 62.8888ZM33.9606 60.1122L32.5639 63.9075L33.0499 64.0864L33.5652 64.137L33.9606 60.1122ZM15.7385 53.4059L12.0017 54.9523L12.6791 56.5893L14.3417 57.2012L15.7385 53.4059ZM10.8993 41.7119L6.90096 41.1047L6.73192 42.2179L7.16244 43.2582L10.8993 41.7119ZM10.8997 41.709L14.898 42.3161L15.0414 41.3723L14.7475 40.4639L10.8997 41.709ZM10.8991 41.7069L6.97458 40.7303L6.69542 41.8521L7.05131 42.9519L10.8991 41.7069ZM14.7864 26.0861L11.0547 24.5273L10.9362 24.8111L10.8619 25.1095L14.7864 26.0861ZM14.7879 26.0824L18.5196 27.6412L19.7291 24.7456L17.2247 22.8548L14.7879 26.0824ZM6.67776 19.9594L2.63437 20.0385L2.67279 22.0031L4.241 23.1871L6.67776 19.9594ZM6.52226 12.0071L3.93559 8.89834L2.44086 10.142L2.47887 12.0862L6.52226 12.0071ZM6.63871 11.9102L9.22538 15.019L10.7186 13.7765L10.6822 11.8344L6.63871 11.9102ZM6.62753 11.3139L4.05651 8.19216L2.54742 9.43503L2.58408 11.3897L6.62753 11.3139ZM11.6491 7.17813L12.2563 3.17981L10.4715 2.90879L9.07809 4.05642L11.6491 7.17813ZM18.9058 8.28009L22.0074 5.68494L21.0256 4.51148L19.5129 4.28177L18.9058 8.28009ZM24.482 14.9448L21.3804 17.5399L23.02 19.4996L25.4939 18.8603L24.482 14.9448ZM26.2154 14.4968L27.2273 18.4123L30.4399 17.5821L30.2532 14.2692L26.2154 14.4968ZM26.0315 11.233L22.6463 9.0203L21.9189 10.1332L21.9937 11.4606L26.0315 11.233ZM30.5053 4.3886L31.1124 0.390276L28.5424 3.12208e-07L27.1201 2.17591L30.5053 4.3886ZM32.6767 4.71834L36.5722 3.63194L35.8696 1.11267L33.2838 0.720014L32.6767 4.71834ZM34.782 12.2674L30.8865 13.3538L31.9576 17.1946L35.8131 16.178L34.782 12.2674ZM41.4949 10.4974L42.1021 6.49908L41.2739 6.37331L40.4638 6.5869L41.4949 10.4974ZM49.4747 11.7092L48.8676 15.7075L48.9154 15.7148L48.9634 15.7209L49.4747 11.7092ZM55.5862 12.4881L56.5359 8.55702L56.319 8.50461L56.0975 8.47639L55.5862 12.4881ZM61.7728 13.9827L64.0297 10.6269L63.4277 10.222L62.7225 10.0516L61.7728 13.9827ZM62.4557 14.442L60.1988 17.7978L63.5977 20.0837L65.8401 16.6559L62.4557 14.442ZM65.552 9.70866L66.1592 5.71034L63.5901 5.32021L62.1677 7.49477L65.552 9.70866ZM67.7234 10.0384L71.5712 8.79336L70.8017 6.41532L68.3306 6.04007L67.7234 10.0384ZM67.7241 10.0405L67.1169 14.0388L67.1179 14.0389L67.7251 10.0406L68.3322 6.0423L68.3313 6.04215L67.7241 10.0405ZM67.7251 10.0406L63.8294 11.1264L66.0193 18.9837L69.915 17.8979L73.8106 16.8121L71.6207 8.95486L67.7251 10.0406ZM69.915 17.8979L66.0482 16.7133L65.6506 18.0111L69.5174 19.1957L73.3841 20.3803L73.7817 19.0825L69.915 17.8979ZM69.5174 19.1957L67.2591 22.5506L68.8148 23.5978L71.0731 20.2429L73.3314 16.888L71.7756 15.8408L69.5174 19.1957ZM71.0731 20.2429L72.9377 23.8316L78.8046 20.7833L76.94 17.1946L75.0755 13.606L69.2085 16.6542L71.0731 20.2429ZM76.94 17.1946L76.3328 21.193L83.3916 22.2649L83.9987 18.2665L84.6059 14.2682L77.5472 13.1963L76.94 17.1946ZM83.9987 18.2665L80.151 19.5116L80.1523 19.5157L84.0001 18.2707L87.8478 17.0257L87.8465 17.0215L83.9987 18.2665ZM84.0001 18.2707L80.6141 20.4822L84.0547 25.7498L87.4406 23.5384L90.8265 21.3269L87.386 16.0592L84.0001 18.2707ZM87.4406 23.5384L83.5978 22.2782L81.1529 29.7339L84.9957 30.9941L88.8385 32.2542L91.2834 24.7985L87.4406 23.5384ZM84.9957 30.9941L83.6123 27.1939L74.8986 30.366L76.282 34.1661L77.6654 37.9663L86.3791 34.7943L84.9957 30.9941ZM76.282 34.1661L72.2455 33.9169L72.2056 34.5637L76.2421 34.813L80.2785 35.0623L80.3185 34.4154L76.282 34.1661ZM76.2421 34.813L72.2007 34.9623L72.6043 45.886L76.6457 45.7367L80.6871 45.5873L80.2835 34.6637L76.2421 34.813ZM76.6457 45.7367L72.9203 44.1629L68.1891 55.3627L71.9145 56.9365L75.6399 58.5102L80.3711 47.3104L76.6457 45.7367ZM71.9145 56.9365L69.7979 53.4904L60.1069 59.4428L62.2235 62.8888L64.3401 66.3349L74.0311 60.3825L71.9145 56.9365ZM62.2235 62.8888L62.6189 58.8641L34.3561 56.0874L33.9606 60.1122L33.5652 64.137L61.8281 66.9136L62.2235 62.8888ZM33.9606 60.1122L35.3574 56.3169L17.1353 49.6106L15.7385 53.4059L14.3417 57.2012L32.5639 63.9075L33.9606 60.1122ZM15.7385 53.4059L19.4753 51.8595L14.6361 40.1655L10.8993 41.7119L7.16244 43.2582L12.0017 54.9523L15.7385 53.4059ZM10.8993 41.7119L14.8976 42.319L14.898 42.3161L10.8997 41.709L6.9014 41.1018L6.90096 41.1047L10.8993 41.7119ZM10.8997 41.709L14.7475 40.4639L14.7468 40.4618L10.8991 41.7069L7.05131 42.9519L7.05198 42.954L10.8997 41.709ZM10.8991 41.7069L14.8235 42.6835L18.7108 27.0627L14.7864 26.0861L10.8619 25.1095L6.97458 40.7303L10.8991 41.7069ZM14.7864 26.0861L18.5181 27.6449L18.5196 27.6412L14.7879 26.0824L11.0562 24.5236L11.0547 24.5273L14.7864 26.0861ZM14.7879 26.0824L17.2247 22.8548L9.11452 16.7318L6.67776 19.9594L4.241 23.1871L12.3512 29.31L14.7879 26.0824ZM6.67776 19.9594L10.7212 19.8804L10.5657 11.928L6.52226 12.0071L2.47887 12.0862L2.63437 20.0385L6.67776 19.9594ZM6.52226 12.0071L9.10893 15.1159L9.22538 15.019L6.63871 11.9102L4.05204 8.80144L3.93559 8.89834L6.52226 12.0071ZM6.63871 11.9102L10.6822 11.8344L10.671 11.238L6.62753 11.3139L2.58408 11.3897L2.59526 11.986L6.63871 11.9102ZM6.62753 11.3139L9.19855 14.4356L14.2201 10.2998L11.6491 7.17813L9.07809 4.05642L4.05651 8.19216L6.62753 11.3139ZM11.6491 7.17813L11.0419 11.1765L18.2986 12.2784L18.9058 8.28009L19.5129 4.28177L12.2563 3.17981L11.6491 7.17813ZM18.9058 8.28009L15.8041 10.8752L21.3804 17.5399L24.482 14.9448L27.5837 12.3496L22.0074 5.68494L18.9058 8.28009ZM24.482 14.9448L25.4939 18.8603L27.2273 18.4123L26.2154 14.4968L25.2035 10.5813L23.4701 11.0293L24.482 14.9448ZM26.2154 14.4968L30.2532 14.2692L30.0692 11.0054L26.0315 11.233L21.9937 11.4606L22.1777 14.7244L26.2154 14.4968ZM26.0315 11.233L29.4166 13.4457L33.8904 6.60129L30.5053 4.3886L27.1201 2.17591L22.6463 9.0203L26.0315 11.233ZM30.5053 4.3886L29.8981 8.38693L32.0695 8.71666L32.6767 4.71834L33.2838 0.720014L31.1124 0.390276L30.5053 4.3886ZM32.6767 4.71834L28.7812 5.80474L30.8865 13.3538L34.782 12.2674L38.6775 11.181L36.5722 3.63194L32.6767 4.71834ZM34.782 12.2674L35.8131 16.178L42.526 14.4079L41.4949 10.4974L40.4638 6.5869L33.7509 8.35694L34.782 12.2674ZM41.4949 10.4974L40.8878 14.4957L48.8676 15.7075L49.4747 11.7092L50.0819 7.71086L42.1021 6.49908L41.4949 10.4974ZM49.4747 11.7092L48.9634 15.7209L55.0749 16.4998L55.5862 12.4881L56.0975 8.47639L49.986 7.69747L49.4747 11.7092ZM55.5862 12.4881L54.6365 16.4192L60.8231 17.9138L61.7728 13.9827L62.7225 10.0516L56.5359 8.55702L55.5862 12.4881ZM61.7728 13.9827L59.5158 17.3385L60.1988 17.7978L62.4557 14.442L64.7126 11.0862L64.0297 10.6269L61.7728 13.9827ZM62.4557 14.442L65.8401 16.6559L68.9364 11.9226L65.552 9.70866L62.1677 7.49477L59.0713 12.2281L62.4557 14.442ZM65.552 9.70866L64.9449 13.707L67.1163 14.0367L67.7234 10.0384L68.3306 6.04007L66.1592 5.71034L65.552 9.70866ZM67.7234 10.0384L63.8757 11.2834L63.8763 11.2855L67.7241 10.0405L71.5718 8.79544L71.5712 8.79336L67.7234 10.0384Z" fill="url(#paint1_linear_928_1283)"/>
<path d="M69.9141 17.8941L68.4091 22.8166L68.2817 23.6558L61.4203 22.6138L61.0783 16.5524L65.5518 9.70717L67.7237 10.037L69.9141 17.8941Z" fill="#6A5B3D"/>
<path d="M25.7753 15.9068L25.4968 16.1571L18.9042 8.27796L11.648 7.17606L6.6264 11.312L6.78233 19.2642L15.0735 25.5228L25.4968 16.1571L26.2133 17.0134L25.7753 15.9068Z" fill="white"/>
<path d="M13.3128 17.8321L17.4049 19.817L18.1453 19.9295L20.7132 16.9864L20.9244 16.261L17.3671 12.0847L14.2572 11.6125L11.9692 14.0426L13.3128 17.8321Z" fill="#FFC0C1"/>
<path d="M48.6683 41.079L38.9933 39.6098L34.9464 41.3181L31.2619 45.9601L31.1303 50.4851L33.886 54.2871L49.4844 56.6558L53.2445 53.8433L54.4621 49.4832L52.2231 43.9416L48.6683 41.079Z" fill="#FFC0C1"/>
<rect x="36.7565" y="45.0278" width="3.09554" height="5.09264" transform="rotate(8.6347 36.7565 45.0278)" fill="#123041"/>
<rect x="46.4307" y="46.4953" width="3.09554" height="5.09264" transform="rotate(8.6347 46.4307 46.4953)" fill="#123041"/>
<rect x="58.009" y="50.0743" width="8.58762" height="4.39365" transform="rotate(8.6347 58.009 50.0743)" fill="#FFC0C1"/>
<rect x="19.2102" y="44.1788" width="8.58762" height="4.39365" transform="rotate(8.6347 19.2102 44.1788)" fill="#FFC0C1"/>
<path d="M55.7395 45.3849L54.4329 43.0148L59.2771 41.3771L63.4661 44.3865L61.2187 46.2169L58.7674 44.7337L55.7395 45.3849Z" fill="#123041"/>
<path d="M31.5046 41.7064L33.456 39.831L29.3163 36.829L24.4227 38.4592L26.0255 40.8743L28.8066 40.1857L31.5046 41.7064Z" fill="#123041"/>
<path d="M69.9155 17.8887L68.4105 22.8112L68.283 23.6503L61.4217 22.6084L61.0796 16.5469L65.5532 9.70174L67.7251 10.0316L69.9155 17.8887Z" fill="#6A5B3D"/>
<path d="M34.8688 12.5678L33.3638 17.4903L33.2364 18.3294L26.3751 17.2875L26.033 11.226L30.5065 4.38081L32.6785 4.71063L34.8688 12.5678Z" fill="#6A5B3D"/>
<path d="M23.1428 15.2821L32.867 12.7693L41.4946 10.4939L53.8351 12.3679L67.3711 18.0089L76.0524 29.6798L76.6455 45.7279L71.9147 56.9276L62.2238 62.8795L33.9612 60.1027L15.739 53.3965L10.8991 41.703L14.7862 26.0827L23.1428 15.2821Z" fill="white"/>
<g filter="url(#filter1_d_928_1283)">
<path d="M50.8368 25.7999L49.3334 12.0881L49.3934 11.6932L55.5862 12.4821L61.7727 13.9771L71.0736 20.2375L76.94 17.1893L83.9988 18.2612L87.4406 23.5309L84.9953 30.9871L76.2822 34.1585L76.5756 42.5356L69.8523 40.2521L62.705 30.7837L50.8368 25.7999Z" fill="#123041"/>
</g>
<path d="M25.6707 16.593L25.3922 16.8433L18.7996 8.96417L11.5434 7.86228L6.52179 11.9982L6.67771 19.9505L14.9689 26.209L25.3922 16.8433L26.1087 17.6996L25.6707 16.593Z" fill="white"/>
<g filter="url(#filter2_d_928_1283)">
<path d="M81.0379 28.1141L76.541 28.7947L75.8006 28.6822L74.2221 25.1095L74.2358 24.3541L78.8726 21.4222L81.9824 21.8945L83.4459 24.8942L81.0379 28.1141Z" fill="#FFC0C1"/>
</g>
<g filter="url(#filter3_d_928_1283)">
<path d="M11.697 18.4928L15.7891 20.4777L16.5295 20.5901L19.0975 17.6471L19.3086 16.9216L15.7513 12.7454L12.6415 12.2732L10.3534 14.7032L11.697 18.4928Z" fill="#FFC0C1"/>
</g>
<g filter="url(#filter4_d_928_1283)">
<path d="M48.6683 41.0736L38.9933 39.6044L34.9464 41.3126L31.2619 45.9547L31.1303 50.4797L33.886 54.2817L49.4844 56.6504L53.2445 53.8378L54.4621 49.4777L52.2231 43.9362L48.6683 41.0736Z" fill="#FFC0C1"/>
</g>
<path d="M37.1301 45.2305L39.8181 45.4871L39.0536 50.5221L35.9931 50.0573L37.1301 45.2305Z" fill="#123041"/>
<path d="M46.4319 46.4935L49.4923 46.9583L48.7877 51.5983L45.6673 51.5284L46.4319 46.4935Z" fill="#123041"/>
<g filter="url(#filter5_d_928_1283)">
<path d="M58.009 50.0688L66.4543 51.6543L65.8397 55.702L57.3494 54.4127L58.009 50.0688Z" fill="#FFC0C1"/>
</g>
<g filter="url(#filter6_d_928_1283)">
<path d="M19.2102 44.1771L27.7005 45.4664L26.9835 49.2965L18.5506 48.5209L19.2102 44.1771Z" fill="#FFC0C1"/>
</g>
<g filter="url(#filter7_d_928_1283)">
<path d="M55.7407 45.3795L54.4341 43.0093L59.2783 41.3716L63.4674 44.3811L61.2199 46.2115L58.7686 44.7283L55.7407 45.3795Z" fill="#123041"/>
</g>
<g filter="url(#filter8_d_928_1283)">
<path d="M31.5046 41.7009L33.456 39.8256L29.3163 36.8236L24.4227 38.4538L26.0255 40.8689L28.8066 40.1802L31.5046 41.7009Z" fill="#123041"/>
</g>
</g>
<defs>
<filter id="filter0_d_928_1283" x="2.44086" y="0" width="91.4478" height="69.0466" filterUnits="userSpaceOnUse" color-interpolation-filters="sRGB">
<feFlood flood-opacity="0" result="BackgroundImageFix"/>
<feColorMatrix in="SourceAlpha" type="matrix" values="0 0 0 0 0 0 0 0 0 0 0 0 0 0 0 0 0 0 127 0" result="hardAlpha"/>
<feOffset dx="2" dy="2"/>
<feComposite in2="hardAlpha" operator="out"/>
<feColorMatrix type="matrix" values="0 0 0 0 0.0884437 0 0 0 0 0.740479 0 0 0 0 0.823718 0 0 0 1 0"/>
<feBlend mode="normal" in2="BackgroundImageFix" result="effect1_dropShadow_928_1283"/>
<feBlend mode="normal" in="SourceGraphic" in2="effect1_dropShadow_928_1283" result="shape"/>
</filter>
<filter id="filter1_d_928_1283" x="49.1338" y="11.6932" width="38.5065" height="31.4415" filterUnits="userSpaceOnUse" color-interpolation-filters="sRGB">
<feFlood flood-opacity="0" result="BackgroundImageFix"/>
<feColorMatrix in="SourceAlpha" type="matrix" values="0 0 0 0 0 0 0 0 0 0 0 0 0 0 0 0 0 0 127 0" result="hardAlpha"/>
<feOffset dy="0.399423"/>
<feGaussianBlur stdDeviation="0.0998559"/>
<feComposite in2="hardAlpha" operator="out"/>
<feColorMatrix type="matrix" values="0 0 0 0 0 0 0 0 0 0 0 0 0 0 0 0 0 0 0.25 0"/>
<feBlend mode="normal" in2="BackgroundImageFix" result="effect1_dropShadow_928_1283"/>
<feBlend mode="normal" in="SourceGraphic" in2="effect1_dropShadow_928_1283" result="shape"/>
</filter>
<filter id="filter2_d_928_1283" x="74.0223" y="21.4222" width="9.6233" height="7.97163" filterUnits="userSpaceOnUse" color-interpolation-filters="sRGB">
<feFlood flood-opacity="0" result="BackgroundImageFix"/>
<feColorMatrix in="SourceAlpha" type="matrix" values="0 0 0 0 0 0 0 0 0 0 0 0 0 0 0 0 0 0 127 0" result="hardAlpha"/>
<feOffset dy="0.399423"/>
<feGaussianBlur stdDeviation="0.0998559"/>
<feComposite in2="hardAlpha" operator="out"/>
<feColorMatrix type="matrix" values="0 0 0 0 0 0 0 0 0 0 0 0 0 0 0 0 0 0 0.25 0"/>
<feBlend mode="normal" in2="BackgroundImageFix" result="effect1_dropShadow_928_1283"/>
<feBlend mode="normal" in="SourceGraphic" in2="effect1_dropShadow_928_1283" result="shape"/>
</filter>
<filter id="filter3_d_928_1283" x="10.1537" y="12.2731" width="9.35462" height="8.91609" filterUnits="userSpaceOnUse" color-interpolation-filters="sRGB">
<feFlood flood-opacity="0" result="BackgroundImageFix"/>
<feColorMatrix in="SourceAlpha" type="matrix" values="0 0 0 0 0 0 0 0 0 0 0 0 0 0 0 0 0 0 127 0" result="hardAlpha"/>
<feOffset dy="0.399423"/>
<feGaussianBlur stdDeviation="0.0998559"/>
<feComposite in2="hardAlpha" operator="out"/>
<feColorMatrix type="matrix" values="0 0 0 0 0 0 0 0 0 0 0 0 0 0 0 0 0 0 0.25 0"/>
<feBlend mode="normal" in2="BackgroundImageFix" result="effect1_dropShadow_928_1283"/>
<feBlend mode="normal" in="SourceGraphic" in2="effect1_dropShadow_928_1283" result="shape"/>
</filter>
<filter id="filter4_d_928_1283" x="30.9305" y="39.6044" width="23.7313" height="17.6452" filterUnits="userSpaceOnUse" color-interpolation-filters="sRGB">
<feFlood flood-opacity="0" result="BackgroundImageFix"/>
<feColorMatrix in="SourceAlpha" type="matrix" values="0 0 0 0 0 0 0 0 0 0 0 0 0 0 0 0 0 0 127 0" result="hardAlpha"/>
<feOffset dy="0.399423"/>
<feGaussianBlur stdDeviation="0.0998559"/>
<feComposite in2="hardAlpha" operator="out"/>
<feColorMatrix type="matrix" values="0 0 0 0 0 0 0 0 0 0 0 0 0 0 0 0 0 0 0.25 0"/>
<feBlend mode="normal" in2="BackgroundImageFix" result="effect1_dropShadow_928_1283"/>
<feBlend mode="normal" in="SourceGraphic" in2="effect1_dropShadow_928_1283" result="shape"/>
</filter>
<filter id="filter5_d_928_1283" x="57.1497" y="50.0688" width="9.5044" height="6.23225" filterUnits="userSpaceOnUse" color-interpolation-filters="sRGB">
<feFlood flood-opacity="0" result="BackgroundImageFix"/>
<feColorMatrix in="SourceAlpha" type="matrix" values="0 0 0 0 0 0 0 0 0 0 0 0 0 0 0 0 0 0 127 0" result="hardAlpha"/>
<feOffset dy="0.399423"/>
<feGaussianBlur stdDeviation="0.0998559"/>
<feComposite in2="hardAlpha" operator="out"/>
<feColorMatrix type="matrix" values="0 0 0 0 0 0 0 0 0 0 0 0 0 0 0 0 0 0 0.25 0"/>
<feBlend mode="normal" in2="BackgroundImageFix" result="effect1_dropShadow_928_1283"/>
<feBlend mode="normal" in="SourceGraphic" in2="effect1_dropShadow_928_1283" result="shape"/>
</filter>
<filter id="filter6_d_928_1283" x="18.3509" y="44.1771" width="9.54933" height="5.71858" filterUnits="userSpaceOnUse" color-interpolation-filters="sRGB">
<feFlood flood-opacity="0" result="BackgroundImageFix"/>
<feColorMatrix in="SourceAlpha" type="matrix" values="0 0 0 0 0 0 0 0 0 0 0 0 0 0 0 0 0 0 127 0" result="hardAlpha"/>
<feOffset dy="0.399423"/>
<feGaussianBlur stdDeviation="0.0998559"/>
<feComposite in2="hardAlpha" operator="out"/>
<feColorMatrix type="matrix" values="0 0 0 0 0 0 0 0 0 0 0 0 0 0 0 0 0 0 0.25 0"/>
<feBlend mode="normal" in2="BackgroundImageFix" result="effect1_dropShadow_928_1283"/>
<feBlend mode="normal" in="SourceGraphic" in2="effect1_dropShadow_928_1283" result="shape"/>
</filter>
<filter id="filter7_d_928_1283" x="54.3342" y="41.3716" width="9.23304" height="5.23927" filterUnits="userSpaceOnUse" color-interpolation-filters="sRGB">
<feFlood flood-opacity="0" result="BackgroundImageFix"/>
<feColorMatrix in="SourceAlpha" type="matrix" values="0 0 0 0 0 0 0 0 0 0 0 0 0 0 0 0 0 0 127 0" result="hardAlpha"/>
<feOffset dy="0.299568"/>
<feGaussianBlur stdDeviation="0.0499279"/>
<feComposite in2="hardAlpha" operator="out"/>
<feColorMatrix type="matrix" values="0 0 0 0 0 0 0 0 0 0 0 0 0 0 0 0 0 0 0.25 0"/>
<feBlend mode="normal" in2="BackgroundImageFix" result="effect1_dropShadow_928_1283"/>
<feBlend mode="normal" in="SourceGraphic" in2="effect1_dropShadow_928_1283" result="shape"/>
</filter>
<filter id="filter8_d_928_1283" x="24.3228" y="36.8236" width="9.23298" height="5.27674" filterUnits="userSpaceOnUse" color-interpolation-filters="sRGB">
<feFlood flood-opacity="0" result="BackgroundImageFix"/>
<feColorMatrix in="SourceAlpha" type="matrix" values="0 0 0 0 0 0 0 0 0 0 0 0 0 0 0 0 0 0 127 0" result="hardAlpha"/>
<feOffset dy="0.299568"/>
<feGaussianBlur stdDeviation="0.0499279"/>
<feComposite in2="hardAlpha" operator="out"/>
<feColorMatrix type="matrix" values="0 0 0 0 0 0 0 0 0 0 0 0 0 0 0 0 0 0 0.25 0"/>
<feBlend mode="normal" in2="BackgroundImageFix" result="effect1_dropShadow_928_1283"/>
<feBlend mode="normal" in="SourceGraphic" in2="effect1_dropShadow_928_1283" result="shape"/>
</filter>
<linearGradient id="paint0_linear_928_1283" x1="48.597" y1="7.13395" x2="40.4034" y2="61.0906" gradientUnits="userSpaceOnUse">
<stop stop-color="#9EE7E5"/>
<stop offset="1" stop-color="#9EE7E5"/>
</linearGradient>
<linearGradient id="paint1_linear_928_1283" x1="48.597" y1="7.13395" x2="40.4034" y2="61.0906" gradientUnits="userSpaceOnUse">
<stop stop-color="#9EE7E5"/>
<stop offset="1" stop-color="#9EE7E5"/>
</linearGradient>
</defs>
</svg>
