<svg
  width="190"
  height="190"
  viewBox="0 0 190 190"
  fill="none"
  xmlns="http://www.w3.org/2000/svg"
>
  <g clip-path="url(#clip0_332_862)">
    <circle
      cx="94.9276"
      cy="94.931"
      r="94.9286"
      fill="url(#paint0_linear_332_862)"
    />
    <mask
      id="mask0_332_862"
      style="mask-type: alpha"
      maskUnits="userSpaceOnUse"
      x="-1"
      y="0"
      width="191"
      height="190"
    >
      <circle
        cx="94.9271"
        cy="94.932"
        r="94.9286"
        fill="url(#paint1_linear_332_862)"
      />
    </mask>
    <g mask="url(#mask0_332_862)">
      <path
        d="M33.1742 138.992C33.2521 138.936 33.3422 138.9 33.4376 138.885C33.533 138.871 33.6311 138.879 33.724 138.91C33.817 138.94 33.9024 138.991 33.9736 139.06C34.0447 139.128 34.0996 139.212 34.1341 139.304L34.7245 140.889C35.2544 142.321 35.3132 143.874 34.8918 145.314C34.4704 146.753 33.5918 148.002 32.3892 148.869L32.383 148.874C32.1503 149.042 31.8805 149.151 31.595 149.194C31.3096 149.237 31.0162 149.212 30.7379 149.122C30.4597 149.031 30.2043 148.877 29.9918 148.671C29.7793 148.466 29.6154 148.215 29.5132 147.938C28.9871 146.514 28.927 144.97 29.3419 143.537C29.7568 142.104 30.6243 140.858 31.8145 139.988L33.1742 138.992Z"
        fill="#009056"
      />
      <path
        d="M79.6959 166.405C79.7244 166.314 79.7744 166.23 79.842 166.161C79.9095 166.092 79.9928 166.04 80.0853 166.008C80.1777 165.976 80.2769 165.966 80.3749 165.978C80.473 165.99 80.5673 166.024 80.6504 166.077L82.0757 166.988C83.3601 167.812 84.3415 169.017 84.8713 170.421C85.4011 171.824 85.4505 173.35 85.012 174.766L85.0097 174.774C84.9247 175.048 84.7753 175.298 84.5732 175.504C84.3711 175.71 84.1218 175.867 83.845 175.962C83.5681 176.057 83.2714 176.087 82.978 176.051C82.6846 176.015 82.4027 175.913 82.1544 175.753C80.8776 174.932 79.9005 173.735 79.3695 172.341C78.8385 170.947 78.7822 169.43 79.2089 168.018L79.6959 166.405Z"
        fill="#009056"
      />
      <path
        d="M66.0548 174.371C66.0176 174.282 66.0019 174.186 66.0091 174.09C66.0163 173.994 66.0461 173.9 66.0962 173.816C66.1464 173.732 66.2154 173.66 66.298 173.606C66.3806 173.552 66.4745 173.517 66.5723 173.504L68.2488 173.28C69.7619 173.081 71.2893 173.368 72.5997 174.099C73.9102 174.829 74.9324 175.963 75.5115 177.328L75.5144 177.335C75.6263 177.599 75.6735 177.887 75.6521 178.174C75.6307 178.462 75.5413 178.743 75.3911 178.994C75.2409 179.245 75.0339 179.46 74.7864 179.622C74.5389 179.783 74.2577 179.887 73.9649 179.925C72.4601 180.123 70.9412 179.839 69.6358 179.116C68.3304 178.393 67.3087 177.271 66.7238 175.917L66.0548 174.371Z"
        fill="#009056"
      />
      <rect
        x="131.633"
        y="56.9609"
        width="98.7257"
        height="46.8314"
        rx="12.6571"
        fill="#52B49E"
      />
      <path
        d="M148.571 48.0601C148.571 48.0601 148.45 54.1143 152.02 57.0333C155.591 59.9524 161.5 58.6307 161.5 58.6307C161.5 58.6307 161.677 52.5082 158.106 49.5892C154.536 46.6701 148.571 48.0601 148.571 48.0601Z"
        fill="#52B49E"
      />
      <path
        d="M169.639 49.6365C169.639 49.6365 165.702 48.9078 163.414 50.9239C161.127 52.94 161.355 56.9374 161.355 56.9374C161.355 56.9374 165.33 57.7099 167.618 55.6937C169.906 53.6776 169.639 49.6365 169.639 49.6365Z"
        fill="#52B49E"
      />
      <path
        d="M33.3133 120.206C33.3133 120.206 33.4342 126.26 29.8638 129.179C26.2935 132.098 20.384 130.776 20.384 130.776C20.384 130.776 20.2073 124.654 23.7777 121.735C27.348 118.816 33.3133 120.206 33.3133 120.206Z"
        fill="#037D52"
      />
      <path
        d="M12.2448 121.782C12.2448 121.782 16.1819 121.053 18.4696 123.069C20.7573 125.086 20.5293 129.083 20.5293 129.083C20.5293 129.083 16.5537 129.855 14.266 127.839C11.9783 125.823 12.2448 121.782 12.2448 121.782Z"
        fill="#037D52"
      />
    </g>
    <path
      d="M72.5986 100.412V84.501L39.2363 117.878L47.1182 125.927L72.5986 100.412ZM148.62 90.4678C146.148 78.0369 136.805 68.7138 135.732 67.6105L112.801 44.3027L99.6959 57.4018L98.763 58.334V74.2455L112.755 60.2608L125.798 73.5152L127.788 75.5352L127.928 75.675C127.928 75.675 128.799 76.5297 129.996 77.9592C133.667 82.1763 136.274 87.2116 137.598 92.6431C139.463 101.966 140.396 112.952 129.996 126.284V142.724C130.975 141.869 131.55 141.263 131.814 141.046C141.142 131.909 146.723 122.679 148.915 112.812C150.432 105.431 150.337 97.809 148.636 90.4678H148.62ZM79.1591 139.585L78.8171 139.414H78.6462C77.63 138.884 76.6624 138.265 75.7546 137.565C74.8995 136.959 73.8579 136.151 72.6453 135.11C70.7487 133.556 68.3855 131.443 65.5094 128.63L59.0579 122.042L51.0982 129.998L57.5188 136.54V136.633C67.4529 146.329 72.5521 149.064 74.4332 149.856C80.3897 152.788 86.8447 154.575 93.4618 155.124C96.5025 155.361 99.5591 155.298 102.587 154.937L103.318 154.859V143.454C95.0634 144.761 86.6068 143.406 79.1747 139.585H79.1591Z"
      fill="white"
    />
    <path
      d="M93.1549 63.9609V131.895H78.2461V78.8779L79.7385 77.3862L80.5469 76.5782L85.0554 72.0721L88.1024 69.0265L89.0974 68.032L92.16 64.9709L93.1549 63.9609Z"
      fill="white"
    />
    <path
      d="M124.372 79.1392V146.918L124.185 147.058C123.501 147.493 122.771 147.944 121.993 148.379C121.745 148.534 121.48 148.674 121.216 148.814C120.532 149.202 119.801 149.591 119.055 149.964C118.309 150.337 117.64 150.648 116.894 150.974L115.666 151.502L113.987 152.155L112.619 152.636C111.686 152.947 110.722 153.242 109.727 153.507L108.997 153.693V79.1392H124.372Z"
      fill="white"
    />
    <path d="M108.99 97.0571H93.1479V112.44H108.99V97.0571Z" fill="white" />
    <mask
      id="mask1_332_862"
      style="mask-type: alpha"
      maskUnits="userSpaceOnUse"
      x="-1"
      y="0"
      width="191"
      height="190"
    >
      <circle
        cx="94.9271"
        cy="94.932"
        r="94.9286"
        fill="url(#paint2_linear_332_862)"
      />
    </mask>
    <g mask="url(#mask1_332_862)">
      <path
        d="M113.829 171.224H107.781V168.964C107.781 164.396 105.967 160.016 102.738 156.786C99.5081 153.556 95.1279 151.741 90.5603 151.741H73.1588V146.326C73.159 144.064 72.7138 141.825 71.8484 139.735C70.9831 137.646 69.7146 135.747 68.1154 134.148C66.5162 132.549 64.6177 131.28 62.5282 130.415C60.4387 129.549 58.1992 129.104 55.9376 129.104H-4.43843C-8.15706 129.105 -11.7758 130.308 -14.7543 132.534C-17.7327 134.761 -19.9109 137.891 -20.9636 141.458H-45.5669V199.629H131.058V188.448C131.058 186.185 130.613 183.945 129.747 181.855C128.881 179.765 127.612 177.866 126.012 176.267C124.412 174.667 122.512 173.399 120.422 172.534C118.332 171.669 116.091 171.224 113.829 171.224ZM36.226 188.448V186.651H36.3192C36.2571 187.248 36.226 187.847 36.226 188.448Z"
        fill="#037D52"
      />
      <path
        d="M113.829 171.224H107.781V168.964C107.781 164.396 105.967 160.016 102.738 156.786C99.5081 153.556 95.1279 151.741 90.5603 151.741H73.1588V146.326C73.159 144.064 72.7138 141.825 71.8484 139.735C70.9831 137.646 69.7146 135.747 68.1154 134.148C66.5162 132.549 64.6177 131.28 62.5282 130.415C60.4387 129.549 58.1992 129.104 55.9376 129.104H34.8281C37.5933 129.104 40.3315 129.649 42.8862 130.707C45.441 131.765 47.7623 133.316 49.7175 135.271C51.6728 137.226 53.2238 139.548 54.2818 142.102C55.3399 144.657 55.8844 147.395 55.8841 150.16V156.781H77.1562C82.7408 156.782 88.0965 159.001 92.0452 162.95C95.9939 166.899 98.2122 172.255 98.2122 177.839V180.603H105.606C110.841 180.604 115.887 182.554 119.762 186.073C123.637 189.592 126.062 194.429 126.565 199.639H131.058V188.457C131.06 186.194 130.615 183.953 129.75 181.862C128.884 179.771 127.615 177.871 126.015 176.27C124.415 174.67 122.515 173.4 120.424 172.535C118.333 171.669 116.092 171.224 113.829 171.224Z"
        fill="#009056"
      />
    </g>
    <path
      d="M59.9466 37.7109L59.4596 36.3053L63.2843 29.7971C64.7601 27.2756 65.1307 25.5487 64.6213 24.0782C63.992 22.2617 62.1111 21.7265 60.5325 22.2733C58.8025 22.8727 57.892 24.2296 57.3551 25.9657L55.8286 25.4046C56.4544 23.2259 57.7375 21.5462 60.073 20.7371C62.6464 19.8456 65.4007 20.8049 66.3221 23.4647C67.0189 25.4758 66.5785 27.4207 64.8191 30.4522L62.0953 35.1742L69.6424 32.5597L70.1968 34.1599L59.9466 37.7109Z"
      fill="#005271"
    />
    <path
      d="M84.3688 31.664C80.5354 31.9601 77.5838 28.8138 77.2154 24.0449C76.8488 19.2988 79.2823 15.7365 83.1157 15.4404C86.9263 15.1461 89.8779 18.2924 90.2445 23.0385C90.6128 27.8074 88.1794 31.3696 84.3688 31.664ZM84.2419 30.0211C87.0029 29.8078 88.7344 26.9655 88.4418 23.1777C88.1493 19.39 86.0035 16.8701 83.2426 17.0833C80.4816 17.2966 78.7255 20.1179 79.0181 23.9056C79.3106 27.6934 81.4809 30.2343 84.2419 30.0211Z"
      fill="#005271"
    />
    <path
      d="M98.7591 30.8972L99.0222 29.4331L105.542 25.6284C108.063 24.1513 109.231 22.8265 109.506 21.2948C109.846 19.4027 108.468 18.0157 106.823 17.7203C105.021 17.3966 103.563 18.1345 102.246 19.3859L101.189 18.1497C102.801 16.5558 104.741 15.7186 107.174 16.1557C109.855 16.6372 111.787 18.8214 111.29 21.592C110.913 23.6868 109.578 25.1676 106.56 26.9507L101.874 29.7362L109.736 31.1485L109.436 32.8154L98.7591 30.8972Z"
      fill="#005271"
    />
    <path
      d="M117.072 34.5116L117.698 33.162L124.97 31.1352C127.783 30.3457 129.249 29.3604 129.903 27.9486C130.712 26.2045 129.73 24.5133 128.215 23.8105C126.554 23.0403 124.956 23.3844 123.364 24.2607L122.655 22.7969C124.619 21.6639 126.708 21.3463 128.951 22.386C131.421 23.5316 132.737 26.1345 131.553 28.6883C130.658 30.6193 128.99 31.7128 125.619 32.6724L120.38 34.1785L127.626 37.5383L126.914 39.0747L117.072 34.5116Z"
      fill="#005271"
    />
    <path
      opacity="0.5"
      d="M245.207 103.791V417.103H169.605V103.791H245.207Z"
      fill="#005271"
    />
  </g>
  <defs>
    <linearGradient
      id="paint0_linear_332_862"
      x1="182.262"
      y1="44.3024"
      x2="17.2803"
      y2="92.688"
      gradientUnits="userSpaceOnUse"
    >
      <stop stop-color="#9EE1DB" />
      <stop offset="1" stop-color="#3CD4EB" />
    </linearGradient>
    <linearGradient
      id="paint1_linear_332_862"
      x1="182.261"
      y1="44.3034"
      x2="17.2798"
      y2="92.6889"
      gradientUnits="userSpaceOnUse"
    >
      <stop stop-color="#9EE1DB" />
      <stop offset="1" stop-color="#3CD4EB" />
    </linearGradient>
    <linearGradient
      id="paint2_linear_332_862"
      x1="182.261"
      y1="44.3034"
      x2="17.2798"
      y2="92.6889"
      gradientUnits="userSpaceOnUse"
    >
      <stop stop-color="#9EE1DB" />
      <stop offset="1" stop-color="#3CD4EB" />
    </linearGradient>
    <clipPath id="clip0_332_862">
      <rect width="189.857" height="189.857" rx="94.9286" fill="white" />
    </clipPath>
  </defs>
</svg>
