<svg width="190" height="190" viewBox="0 0 190 190" fill="none" xmlns="http://www.w3.org/2000/svg">
<g clip-path="url(#clip0_332_943)">
<circle cx="94.9286" cy="94.931" r="94.9286" fill="#8DA94B"/>
<mask id="mask0_332_943" style="mask-type:alpha" maskUnits="userSpaceOnUse" x="0" y="0" width="190" height="190">
<circle cx="94.9286" cy="94.932" r="94.9286" fill="#8DA94B"/>
</mask>
<g mask="url(#mask0_332_943)">
<g filter="url(#filter0_d_332_943)">
<rect x="21.5166" y="76.2715" width="133.315" height="133.315" transform="rotate(-15 21.5166 76.2715)" fill="white"/>
</g>
<rect x="35.0144" y="82.4072" width="111.51" height="89.0375" transform="rotate(-15 35.0144 82.4072)" fill="#4DB7D9"/>
<path d="M83.7985 107.309V96.1595L60.0234 119.547L65.6403 125.187L83.7985 107.309ZM137.974 100.341C136.212 91.6301 129.554 85.0973 128.789 84.3242L112.448 67.9922L103.109 77.1708L102.444 77.8241V88.9734L112.415 79.1742L121.71 88.4617L123.128 89.8771L123.228 89.9751C123.228 89.9751 123.848 90.5739 124.701 91.5756C127.318 94.5306 129.176 98.0589 130.119 101.865C131.448 108.398 132.113 116.095 124.701 125.437V136.957C125.399 136.358 125.809 135.933 125.997 135.781C132.645 129.379 136.622 122.911 138.184 115.997C139.265 110.825 139.197 105.485 137.985 100.341H137.974ZM88.4737 134.758L88.23 134.638H88.1081C87.384 134.266 86.6945 133.832 86.0475 133.342C85.4381 132.917 84.6959 132.351 83.8317 131.622C82.4801 130.533 80.796 129.052 78.7465 127.081L74.1489 122.465L68.4766 128.04L73.0521 132.623V132.689C80.1314 139.483 83.7653 141.399 85.1058 141.954C89.3506 144.009 93.9506 145.261 98.6662 145.646C100.833 145.812 103.011 145.768 105.169 145.515L105.69 145.46V137.469C99.8076 138.384 93.7811 137.435 88.4848 134.758H88.4737Z" fill="white"/>
<path d="M98.4443 81.7666L98.4443 129.369H87.8198L87.8198 92.2191L88.8833 91.1738L89.4595 90.6077L92.6723 87.4501L94.8437 85.3161L95.5528 84.6193L97.7353 82.4743L98.4443 81.7666Z" fill="white"/>
<path d="M120.694 92.4019L120.694 139.895L120.562 139.993C120.074 140.298 119.553 140.614 118.999 140.919C118.822 141.028 118.634 141.126 118.445 141.224C117.958 141.496 117.437 141.768 116.905 142.029C116.374 142.291 115.897 142.509 115.366 142.737L114.49 143.107L113.294 143.565L112.319 143.902C111.654 144.12 110.967 144.327 110.258 144.512L109.738 144.643L109.738 92.4019H120.694Z" fill="white"/>
<path d="M109.729 104.955H98.4399V115.734H109.729V104.955Z" fill="white"/>
<path d="M22.7828 139.232L17.72 132.903" stroke="#648F56" stroke-width="2.53143" stroke-linecap="round"/>
</g>
<path d="M63.583 38.0498L63.0409 36.6365L66.7137 29.8902C68.1305 27.2766 68.4498 25.5079 67.8827 24.0294C67.1821 22.203 65.2514 21.7214 63.6642 22.3302C61.9248 22.9974 61.044 24.4077 60.5559 26.1913L58.9847 25.6715C59.5485 23.435 60.7974 21.6839 63.1456 20.7832C65.733 19.7907 68.5662 20.6744 69.592 23.3488C70.3676 25.3709 69.9846 27.3635 68.2964 30.5052L65.6837 35.3983L73.272 32.4877L73.8892 34.0967L63.583 38.0498Z" fill="white"/>
<path d="M88.0022 31.4693C84.1005 31.7563 81.1088 28.5439 80.7517 23.6899C80.3963 18.8592 82.8856 15.2435 86.7874 14.9564C90.6659 14.6711 93.6576 17.8835 94.013 22.7143C94.3701 27.5683 91.8808 31.1839 88.0022 31.4693ZM87.8792 29.7971C90.6894 29.5904 92.4619 26.7046 92.1783 22.8493C91.8946 18.994 89.7206 16.4219 86.9104 16.6286C84.1002 16.8354 82.3028 19.6996 82.5864 23.555C82.8701 27.4103 85.069 30.0039 87.8792 29.7971Z" fill="white"/>
<path d="M100.81 29.8014L101.073 28.3108L107.695 24.4189C110.256 22.908 111.44 21.5563 111.715 19.9968C112.055 18.0704 110.648 16.6634 108.974 16.368C107.14 16.0442 105.658 16.7996 104.322 18.0771L103.242 16.8226C104.877 15.1957 106.85 14.3377 109.326 14.7748C112.055 15.2564 114.029 17.4728 113.531 20.2936C113.155 22.4264 111.8 23.9373 108.736 25.7611L103.976 28.6102L111.98 30.0227L111.68 31.7197L100.81 29.8014Z" fill="white"/>
<path d="M124.867 36.6326L126.413 33.0637L119.083 29.8899L119.47 28.4083L130.968 21.8401L132.891 22.6728L128.736 32.2681L130.938 33.2212L130.281 34.7385L128.079 33.7854L126.534 37.3543L124.867 36.6326ZM121.428 29.1036L127.07 31.5464L130.354 23.9599L121.428 29.1036Z" fill="white"/>
<path d="M29.1114 63.288L25.3142 58.2251" stroke="#648F56" stroke-width="2.53143" stroke-linecap="round"/>
<path d="M32.9086 58.2252L30.3772 49.3652" stroke="#648F56" stroke-width="2.53143" stroke-linecap="round"/>
<path d="M39.2371 62.0225L37.9714 54.4282" stroke="#648F56" stroke-width="2.53143" stroke-linecap="round"/>
<path d="M173.402 93.8724L177.2 83.5396" stroke="#648F56" stroke-width="2.53143" stroke-linecap="round"/>
<path d="M179.154 93.7452L184.794 88.6025" stroke="#648F56" stroke-width="2.53143" stroke-linecap="round"/>
</g>
<defs>
<filter id="filter0_d_332_943" x="17.0416" y="41.7671" width="167.752" height="174.713" filterUnits="userSpaceOnUse" color-interpolation-filters="sRGB">
<feFlood flood-opacity="0" result="BackgroundImageFix"/>
<feColorMatrix in="SourceAlpha" type="matrix" values="0 0 0 0 0 0 0 0 0 0 0 0 0 0 0 0 0 0 127 0" result="hardAlpha"/>
<feOffset dx="-4.47496" dy="11.436"/>
<feComposite in2="hardAlpha" operator="out"/>
<feColorMatrix type="matrix" values="0 0 0 0 0 0 0 0 0 0 0 0 0 0 0 0 0 0 0.25 0"/>
<feBlend mode="normal" in2="BackgroundImageFix" result="effect1_dropShadow_332_943"/>
<feBlend mode="normal" in="SourceGraphic" in2="effect1_dropShadow_332_943" result="shape"/>
</filter>
<clipPath id="clip0_332_943">
<rect width="189.857" height="189.857" rx="94.9286" fill="white"/>
</clipPath>
</defs>
</svg>
