<svg width="190" height="190" viewBox="0 0 190 190" fill="none" xmlns="http://www.w3.org/2000/svg">
<g clip-path="url(#clip0_332_968)">
<rect width="189.857" height="189.857" rx="94.9286" fill="white"/>
<g clip-path="url(#clip1_332_968)">
<rect width="260.737" height="260.737" transform="translate(-16.4541 -59.4873)" fill="#E5C28E"/>
<path d="M6.96313 192.128C6.96313 194.795 4.80136 196.957 2.13467 196.957H-3.68188C-5.35573 196.957 -6.71265 198.313 -6.71265 199.987C-6.71265 201.661 -8.06956 203.018 -9.74341 203.018H-10.4563C-12.4343 203.018 -14.0378 204.622 -14.0378 206.6V208.96C-14.0378 209.634 -14.5846 210.181 -15.259 210.181C-15.9335 210.181 -16.4802 209.634 -16.4802 208.96V206.6C-16.4802 204.622 -18.0837 203.018 -20.0618 203.018H-30.4574C-33.1241 203.018 -35.2859 200.856 -35.2859 198.19V191.868C-35.2859 189.201 -33.1241 187.04 -30.4574 187.04H-21.5538C-18.8871 187.04 -16.7253 184.878 -16.7253 182.211V170.103C-16.7253 167.437 -14.5636 165.275 -11.8969 165.275H2.13467C4.80136 165.275 6.96313 167.437 6.96313 170.103V192.128Z" fill="#7FB732"/>
<path d="M-195.484 159.113C-195.484 162.286 -198.056 164.858 -201.229 164.858H-210.36C-215.625 164.858 -219.893 169.126 -219.893 174.391V176.691C-219.893 181.956 -215.625 186.224 -210.36 186.224H-175.396C-173.579 186.224 -172.106 184.751 -172.106 182.934C-172.106 181.117 -170.633 179.645 -168.816 179.645H-164.546C-161.29 179.645 -158.651 182.284 -158.651 185.54V188.323C-158.651 190.042 -157.258 191.435 -155.54 191.435C-153.821 191.435 -152.428 190.042 -152.428 188.323V185.54C-152.428 182.284 -149.789 179.645 -146.533 179.645H-88.9062C-86.6003 179.645 -84.731 181.514 -84.731 183.82C-84.731 186.126 -82.8616 187.995 -80.5557 187.995H-64.2656C-61.9597 187.995 -60.0903 186.126 -60.0903 183.82C-60.0903 181.514 -58.221 179.645 -55.915 179.645H-7.39851C-2.1337 179.645 2.13428 175.377 2.13428 170.112V162.901C2.13428 157.636 -2.13369 153.368 -7.3985 153.368H-189.739C-192.912 153.368 -195.484 155.94 -195.484 159.113Z" fill="#AFD157"/>
<path d="M60.9525 39.536L60.3962 38.1563L63.8921 31.4659C65.2406 28.874 65.5247 27.1308 64.9427 25.6875C64.2238 23.9045 62.3187 23.4636 60.7692 24.0884C59.0712 24.7731 58.2294 26.1736 57.7796 27.9343L56.227 27.4499C56.7436 25.2428 57.9415 23.5013 60.2338 22.577C62.7596 21.5585 65.5582 22.3794 66.611 24.9901C67.4069 26.964 67.0639 28.9284 65.4577 32.0437L62.9723 36.8955L70.3799 33.9084L71.0133 35.4791L60.9525 39.536Z" fill="#876A41"/>
<path d="M85.0452 32.2793C81.2313 32.7658 78.1267 29.7704 77.5214 25.0257C76.919 20.3038 79.1721 16.6248 82.986 16.1383C86.7772 15.6546 89.8818 18.65 90.4842 23.372C91.0895 28.1167 88.8364 31.7956 85.0452 32.2793ZM84.8367 30.6447C87.5836 30.2943 89.1715 27.3693 88.6907 23.6008C88.21 19.8323 85.9415 17.4223 83.1945 17.7728C80.4476 18.1232 78.8341 21.0284 79.3149 24.7969C79.7957 28.5654 82.0898 30.9952 84.8367 30.6447Z" fill="#876A41"/>
<path d="M99.3778 30.8021L99.5677 29.3267L105.89 25.2021C108.334 23.6014 109.435 22.2201 109.633 20.6766C109.879 18.7699 108.433 17.4532 106.776 17.24C104.96 17.0064 103.541 17.816 102.287 19.1315L101.17 17.9494C102.7 16.2773 104.597 15.3445 107.048 15.6599C109.75 16.0074 111.789 18.0927 111.43 20.8846C111.158 22.9956 109.898 24.541 106.973 26.4721L102.431 29.4874L110.353 30.5066L110.137 32.1863L99.3778 30.8021Z" fill="#876A41"/>
<path d="M122.796 35.7907C120.547 34.881 119.235 33.2398 118.597 31.4014L120.168 30.6298C120.794 32.3151 121.847 33.6791 123.46 34.3313C125.475 35.1465 127.463 34.3212 128.21 32.4754C128.965 30.6084 128.037 28.7519 126 27.9281C124.749 27.4218 123.486 27.4297 122.3 27.7396L121.33 26.6564L124.572 19.2529L133.186 22.737L132.551 24.307L125.549 21.4751L123.418 26.3159C124.418 26.1031 125.595 26.0608 126.932 26.6015C129.563 27.6656 131.079 30.2043 129.912 33.0897C128.745 35.9751 125.787 37.0006 122.796 35.7907Z" fill="#876A41"/>
<g filter="url(#filter0_d_332_968)">
<path d="M37.0049 63.3344C40.5033 65.6305 38.2586 71.0687 34.1591 70.2287L26.4518 68.6494C24.4905 68.2475 22.5542 69.4374 22.0266 71.3687L19.9535 78.9581C18.8508 82.9949 12.9851 82.5405 12.5172 78.3821L11.6375 70.5639C11.4136 68.5745 9.68361 67.1006 7.68387 67.1957L-0.174725 67.5692C-4.3547 67.7679 -5.73517 62.049 -1.92484 60.3189L5.23879 57.0663C7.0617 56.2387 7.92884 54.1379 7.22047 52.2654L4.43675 44.9068C2.9561 40.9928 7.96855 37.9127 10.7914 41.0019L16.0985 46.8098C17.4489 48.2877 19.7149 48.4632 21.2768 47.2109L27.415 42.2895C30.6799 39.6719 35.1582 43.4872 33.0925 47.1265L29.2088 53.9685C28.2206 55.7096 28.7538 57.9189 30.4276 59.0174L37.0049 63.3344Z" fill="#FF7E7E"/>
</g>
<g filter="url(#filter1_d_332_968)">
<path d="M191.22 110.404C193.765 109.163 196.151 112.348 194.245 114.442L190.663 118.377C189.751 119.379 189.774 120.916 190.715 121.89L194.411 125.719C196.377 127.756 194.085 131.009 191.506 129.844L186.656 127.653C185.421 127.096 183.966 127.592 183.331 128.788L180.831 133.486C179.502 135.986 175.699 134.812 176.011 131.998L176.595 126.708C176.744 125.362 175.822 124.132 174.489 123.896L169.248 122.972C166.46 122.48 166.402 118.5 169.174 117.927L174.385 116.848C175.711 116.574 176.597 115.317 176.409 113.976L175.669 108.706C175.275 105.902 179.041 104.617 180.444 107.076L183.08 111.7C183.75 112.876 185.219 113.33 186.437 112.736L191.22 110.404Z" fill="#FF9494"/>
</g>
</g>
<path d="M187.303 212.107L184.944 212.985L-35.4169 215.834C-40.3693 215.898 -45.1697 214.124 -48.8905 210.855C-53.1498 207.113 -55.6231 201.741 -55.6964 196.072L-56.9523 98.9069C-52.2891 99.9301 -48.3926 103.114 -46.4613 107.481L-45.0961 110.567C-42.0701 117.408 -35.3575 121.879 -27.8786 122.035L-22.3984 122.149C-17.9783 122.241 -14.0428 124.971 -12.4077 129.079C-10.7726 133.186 -6.83715 135.916 -2.41695 136.008L70.3638 137.525C73.4187 137.589 75.8435 140.117 75.7799 143.172C75.7162 146.226 78.1411 148.755 81.1959 148.818L91.2184 149.027C95.8101 149.123 100.125 151.242 103.007 154.818L110.861 164.563C112.794 166.962 115.71 168.357 118.791 168.357C121.354 168.357 123.824 167.39 125.706 165.649L126.892 164.552C129.536 162.107 133.006 160.748 136.608 160.748L160.014 160.748C166.704 160.748 171.804 166.74 170.734 173.344C170.587 174.255 170.556 175.181 170.642 176.1L170.658 176.264C171.237 182.407 176.413 187.142 182.582 187.27C196.713 187.565 200.549 207.172 187.303 212.107Z" fill="#DFAF67"/>
<path d="M15.6637 154.951L15.7095 152.756L-54.617 151.29L-55.9491 215.206L134.112 219.167L134.572 197.13L71.5332 195.816L72.3603 156.133L15.6637 154.951Z" fill="#4DB7D9"/>
<path d="M-40.4445 374.002C-40.6323 383.014 -33.4786 390.471 -24.4668 390.659L4.6489 391.266L5.15006 367.219C-12.6613 365.133 -26.3035 349.807 -25.9222 331.51L-24.217 249.693C-23.8356 231.397 -9.56678 216.652 8.31607 215.31L9.56006 155.622L-35.8734 154.675L-40.4445 374.002Z" fill="url(#paint0_linear_332_968)"/>
<path d="M-82.2827 152.059C-82.2827 152.06 -82.2818 152.061 -82.2808 152.061C-82.2797 152.061 -82.2788 152.062 -82.2789 152.063L-82.2931 152.745C-82.301 153.123 -82.0009 153.436 -81.6229 153.444L-39.9699 154.312C-37.044 154.373 -34.7216 156.794 -34.7826 159.72C-34.8436 162.646 -32.5212 165.067 -29.5953 165.128L11.7233 165.989C11.7322 165.989 11.7393 165.997 11.7391 166.006C11.7389 166.015 11.7316 166.022 11.7227 166.021L-1.13929 165.753C-1.8667 165.738 -2.46868 166.316 -2.48384 167.043C-2.499 167.77 -1.9216 168.372 -1.19419 168.388L9.04919 168.601C10.5043 168.631 11.6593 169.835 11.629 171.291C11.5986 172.746 10.3945 173.901 8.93937 173.87L3.53966 173.758C1.60008 173.717 -0.00503911 175.257 -0.0454628 177.197C-0.0858865 179.136 1.45369 180.741 3.39328 180.782L21.0559 181.15C24.5223 181.222 27.2738 184.091 27.2016 187.557C27.1294 191.023 29.8809 193.892 33.3473 193.964L47.5131 194.26C50.4408 194.321 52.7648 196.743 52.7037 199.671C52.6427 202.599 54.9666 205.022 57.8944 205.083L93.0913 205.816C94.7715 205.851 96.1052 207.242 96.0702 208.922C96.0352 210.602 94.6447 211.936 92.9645 211.901L78.9534 211.609C77.185 211.572 75.7216 212.976 75.6847 214.744C75.6478 216.513 77.0515 217.976 78.8199 218.013L169.909 219.911C171.677 219.948 173.14 218.544 173.177 216.776C173.214 215.008 171.81 213.544 170.042 213.507L168.7 213.479C166.19 213.427 164.198 211.35 164.251 208.841L164.301 206.441C164.38 202.625 161.351 199.467 157.535 199.387L151.939 199.271C151.214 199.255 150.638 198.655 150.653 197.93C150.668 197.204 150.092 196.604 149.367 196.588L111.673 195.803C110.947 195.788 110.347 196.364 110.332 197.089C110.316 197.815 109.716 198.391 108.991 198.375L96.2955 198.111L82.0738 196.094C80.9228 195.931 80.075 194.934 80.0992 193.771C80.1257 192.503 79.1186 191.453 77.8499 191.426L68.9801 191.241C66.4703 191.189 64.4781 189.112 64.5304 186.602L64.5383 186.221C64.5862 183.922 66.4892 182.097 68.7887 182.145L69.4405 182.158C71.38 182.199 72.9852 180.659 73.0256 178.719C73.066 176.78 71.5264 175.175 69.5868 175.134L58.6571 174.907C54.2298 174.814 50.7156 171.15 50.8078 166.723C50.9001 162.296 47.3859 158.632 42.9586 158.54L21.0751 158.084C20.5203 158.072 20.0799 157.613 20.0914 157.058C20.103 156.503 19.6626 156.044 19.1077 156.032L-3.57244 155.56C-5.51823 155.519 -7.06272 153.909 -7.02217 151.963C-6.98162 150.017 -8.52611 148.407 -10.4719 148.367L-21.8469 148.13C-24.5295 148.074 -26.6589 145.854 -26.603 143.171C-26.5471 140.488 -28.6765 138.268 -31.3591 138.212L-45.4181 137.919C-47.1007 137.884 -48.4363 136.492 -48.4013 134.809C-48.3662 133.127 -49.7018 131.734 -51.3845 131.699L-71.3469 131.283C-77.1449 131.162 -81.9431 135.764 -82.0639 141.562L-82.2827 152.059Z" fill="#5FC6E7"/>
<path d="M-46.6612 151.264C-46.6613 151.264 -46.6615 151.264 -46.6617 151.264C-46.662 151.264 -46.6622 151.265 -46.6622 151.265L-46.7446 155.215C-46.79 157.397 -45.0581 159.203 -42.8761 159.248L-10.4581 159.924C-7.87074 159.978 -6.67634 163.164 -8.59055 164.905C-10.5048 166.647 -9.31035 169.833 -6.72302 169.887L36.3229 170.784C39.4292 170.849 42.3079 172.427 44.0331 175.011L45.0015 176.462C46.1198 178.137 47.9859 179.16 49.9995 179.202L55.2472 179.311C55.7524 179.322 56.1535 179.74 56.1429 180.245C56.1324 180.75 55.7143 181.151 55.209 181.141L44.6791 180.921C41.5969 180.857 39.0462 183.304 38.982 186.386C38.9177 189.468 41.3643 192.019 44.4465 192.083L52.8304 192.258C55.0412 192.304 56.7961 194.133 56.75 196.344C56.7039 198.555 58.4588 200.384 60.6696 200.431L86.6576 200.972C88.0782 201.002 89.2058 202.177 89.1762 203.598C89.1466 205.019 87.971 206.146 86.5504 206.117L78.703 205.953C77.3986 205.926 76.3192 206.961 76.292 208.266C76.2648 209.57 77.3002 210.649 78.6045 210.677L150.361 212.172C152.187 212.21 153.636 213.721 153.598 215.547C153.56 217.373 152.049 218.823 150.223 218.785L122.938 218.216C120.126 218.158 117.798 220.39 117.74 223.202C117.681 226.015 119.913 228.342 122.726 228.401L189.589 229.794C192.401 229.853 194.729 227.62 194.787 224.808L194.817 223.407C194.859 221.369 193.241 219.681 191.202 219.639C189.163 219.596 187.545 217.909 187.587 215.87L187.729 209.077C187.739 208.607 187.365 208.218 186.895 208.208C186.424 208.198 186.051 207.809 186.061 207.338L186.095 205.694C186.124 204.315 185.029 203.174 183.65 203.145L164.566 202.747L143.219 204.412C142.456 204.472 142.247 205.493 142.926 205.847C143.64 206.219 143.363 207.301 142.558 207.284L110.844 206.623C108.466 206.573 106.579 204.605 106.628 202.227C106.678 199.849 104.79 197.882 102.413 197.832L98.3841 197.748C96.6079 197.711 95.198 196.241 95.235 194.465C95.272 192.689 96.7419 191.279 98.5181 191.316L103.51 191.42C106.592 191.484 109.143 189.038 109.207 185.955C109.272 182.873 106.825 180.322 103.743 180.258L91.702 180.007C87.5449 179.921 84.2451 176.48 84.3317 172.323C84.4183 168.166 81.1185 164.726 76.9614 164.639L47.9114 164.034C43.4269 163.94 39.0628 162.565 35.3347 160.071L28.3875 155.424C27.6896 154.957 26.8354 154.784 26.0109 154.944C24.0185 155.329 22.1783 153.779 22.2205 151.75L22.2926 148.292C22.3614 144.991 19.7408 142.258 16.4393 142.19L-41.2521 140.987C-44.12 140.927 -46.4933 143.204 -46.553 146.072L-46.6612 151.264Z" fill="#98E0F7"/>
<path d="M131.086 218.091C129.685 219.106 127.919 219.715 125.87 219.672C125.484 219.664 125.164 219.971 125.156 220.357L125.139 221.182C125.122 222.023 125.79 222.72 126.632 222.737L220.328 224.69C224.836 224.784 228.958 223.061 231.998 220.194L131.086 218.091ZM-17.6895 141.312C-21.4731 141.233 -24.8765 142.941 -27.1005 145.659L-16.7557 145.388C-13.0265 145.291 -9.97308 148.389 -10.0507 152.118C-10.1242 155.663 -7.31119 158.653 -3.76613 158.727L13.5309 159.088C17.2179 159.165 21.0408 164.672 24.7279 164.749L46.5708 165.204C49.5483 165.267 51.9127 167.731 51.8508 170.709C51.822 172.094 52.7162 173.817 54.1013 173.845L61.4503 173.999C64.3488 174.059 66.6501 176.458 66.5898 179.357C66.5588 180.852 67.6067 183.049 69.1023 183.049L80.7454 183.049C82.9897 183.05 84.809 184.87 84.8091 187.114L84.8096 187.322C84.8098 189.452 86.5363 191.178 88.6657 191.178C90.6539 191.178 92.2543 192.813 92.213 194.8L92.2021 195.323C92.1516 197.759 94.0853 199.775 96.5213 199.826L119.59 200.307C120.744 200.331 121.699 201.127 121.978 202.191L125.829 201.989C127.264 201.913 128.606 202.486 129.842 203.256L136.243 203.39C137.277 203.411 138.133 202.59 138.154 201.556C138.176 200.522 139.032 199.701 140.066 199.722L169.97 200.346C173.389 200.418 173.818 205.346 170.462 206.007C167.55 206.581 167.67 210.788 170.611 211.193L232.473 219.728C235.306 216.834 237.087 212.898 237.178 208.529C237.368 199.413 230.132 191.869 221.016 191.679L211.271 191.476C203.678 191.317 197.155 186.039 195.415 178.646C193.645 171.128 186.936 165.815 179.212 165.815L135.705 165.815C133.111 165.815 131.007 167.917 131.007 170.512C131.006 173.106 128.903 175.21 126.309 175.21L107.584 175.209C104.443 175.209 102.337 171.213 102.402 168.073C102.541 161.386 97.2335 155.853 90.5466 155.713L53.8446 154.948C51.7464 154.905 49.6316 153.388 49.6748 151.29L49.7433 148.005C49.8041 145.087 47.4877 142.672 44.5694 142.611L31.5068 142.338L-17.6895 141.312Z" fill="white"/>
<path d="M188.026 209.836C186.808 209.81 185.801 210.777 185.775 211.994C185.75 213.212 186.716 214.219 187.934 214.245L194.883 214.39C196.101 214.415 197.109 213.449 197.134 212.231C197.159 211.014 196.193 210.006 194.975 209.981L188.026 209.836ZM162.359 193.877C160.077 193.834 158.192 195.65 158.149 197.932C158.106 200.214 159.921 202.099 162.203 202.143L167.273 202.238C169.108 202.272 170.567 203.788 170.533 205.623C170.498 207.457 171.958 208.972 173.792 209.007L196.566 209.435C199.894 209.498 200.899 204.944 197.855 203.599C196.732 203.102 196.017 201.98 196.04 200.753L196.064 199.479C196.115 196.738 193.935 194.474 191.193 194.422L162.359 193.877ZM93.6015 180.842C92.3221 180.816 91.2631 181.832 91.2364 183.111C91.2097 184.39 92.2255 185.449 93.505 185.476L110.325 185.827C111.604 185.853 112.663 184.838 112.69 183.558C112.716 182.279 111.701 181.22 110.421 181.193L93.6015 180.842ZM139.736 170.954C137.223 170.901 135.143 172.896 135.091 175.409C135.064 176.726 134.104 178.599 132.787 178.571L129.056 178.494C128.027 178.472 127.176 179.289 127.154 180.318C127.132 181.347 127.949 182.199 128.978 182.22L154.362 182.749C155.391 182.771 156.243 181.954 156.265 180.924C156.285 179.941 156.102 178.518 156.503 177.62C156.744 177.082 156.883 176.489 156.896 175.863C156.948 173.351 154.954 171.271 152.442 171.219L139.736 170.954ZM78.2971 161.316C76.036 161.269 74.165 163.063 74.1179 165.325C74.0708 167.586 75.8653 169.457 78.1264 169.504C80.8063 169.56 82.5974 172.504 79.9827 173.095C79.6659 173.166 79.3354 173.201 78.996 173.194L73.7638 173.085C72.3534 173.055 71.1868 174.175 71.1574 175.585C71.128 176.996 72.247 178.163 73.6573 178.193L91.503 178.565C92.9134 178.594 94.08 177.474 94.1094 176.064C94.1388 174.653 93.0198 173.486 91.6095 173.456L91.1467 173.447C89.481 173.412 88.1589 172.034 88.1936 170.368C88.2011 170.007 88.5001 169.72 88.8614 169.727L92.0931 169.795C94.3541 169.842 96.2251 168.047 96.2723 165.786C96.3194 163.525 94.5248 161.654 92.2638 161.607L78.2971 161.316ZM60.1137 164.628C58.4422 164.594 57.0591 165.92 57.024 167.592C56.9891 169.264 58.3158 170.648 59.9876 170.683L65.2843 170.793C66.956 170.828 68.3402 169.5 68.375 167.829C68.4096 166.157 67.082 164.774 65.4104 164.739L60.1137 164.628Z" fill="#98E0F7" fill-opacity="0.5"/>
<path d="M-10.9707 165.496C-10.3177 165.503 -9.79462 166.039 -9.80239 166.692C-9.81025 167.345 -10.3461 167.868 -10.9991 167.861L-33.2817 167.592C-33.9346 167.584 -34.4569 167.049 -34.449 166.396C-34.4411 165.743 -33.9061 165.22 -33.2533 165.227L-10.9707 165.496ZM6.98527 149.132C8.68329 149.153 10.0437 150.546 10.0232 152.244C10.0027 153.942 8.60923 155.302 6.91129 155.281L-3.60738 155.155C-6.01321 155.126 -7.49648 157.857 -5.09064 157.886L8.81362 158.053C9.87285 158.066 10.7211 158.935 10.7084 159.994C10.6954 161.053 9.82656 161.902 8.76748 161.889L-23.9333 161.496C-24.9922 161.483 -25.8405 160.614 -25.828 159.555C-25.8153 158.496 -24.9462 157.647 -23.8871 157.66L-19.2644 157.715C-16.8582 157.744 -18.275 154.978 -20.6813 154.949L-35.0144 154.777C-36.7123 154.756 -38.0727 153.364 -38.0524 151.666C-38.0319 149.968 -36.6384 148.607 -34.9404 148.628L6.98527 149.132ZM42.3026 153.485C43.7624 153.503 44.9318 154.701 44.9142 156.161C44.8964 157.621 43.6987 158.79 42.239 158.773L17.7769 158.479C16.3171 158.461 15.148 157.263 15.1654 155.803C15.1829 154.343 16.3806 153.173 17.8405 153.191L42.3026 153.485Z" fill="#98E0F7" fill-opacity="0.5"/>
<path d="M-49.8266 229.565C-49.8442 230.41 -49.1736 231.109 -48.3287 231.127C-47.4839 231.144 -46.7847 230.474 -46.7671 229.629L-48.2968 229.597L-49.8266 229.565ZM-48.2968 229.597L-46.7671 229.629L-46.6348 223.282L-48.1646 223.25L-49.6943 223.218L-49.8266 229.565L-48.2968 229.597ZM-14.8497 191.296L-14.8816 192.825L5.48887 193.25L5.52075 191.72L5.55263 190.19L-14.8178 189.766L-14.8497 191.296ZM-48.1646 223.25L-46.6348 223.282C-46.2768 206.103 -32.0604 192.467 -14.8816 192.825L-14.8497 191.296L-14.8178 189.766C-33.6863 189.373 -49.3011 204.35 -49.6943 223.218L-48.1646 223.25Z" fill="#98E0F7"/>
<rect x="21.1011" y="188.726" width="29.1114" height="27.8457" transform="rotate(-51.9279 21.1011 188.726)" fill="#98E0F7"/>
<g filter="url(#filter2_i_332_968)">
<path d="M71.332 97.8792V81.9678L37.9697 115.345L45.8516 123.393L71.332 97.8792ZM147.353 87.9346C144.882 75.5037 135.538 66.1806 134.466 65.0773L111.535 41.7695L98.4293 54.8686L97.4964 55.8008V71.7123L111.488 57.7276L124.531 70.982L126.521 73.002L126.661 73.1418C126.661 73.1418 127.532 73.9965 128.729 75.426C132.401 79.6431 135.008 84.6784 136.331 90.1099C138.197 99.4331 139.129 110.419 128.729 123.751V140.191C129.708 139.336 130.284 138.73 130.548 138.512C139.876 129.376 145.457 120.146 147.649 110.279C149.166 102.898 149.07 95.2757 147.369 87.9346H147.353ZM77.8925 137.052L77.5505 136.881H77.3796C76.3634 136.35 75.3958 135.732 74.488 135.032C73.6329 134.426 72.5913 133.618 71.3787 132.577C69.4821 131.023 67.1189 128.91 64.2428 126.097L57.7913 119.509L49.8316 127.465L56.2522 134.006V134.1C66.1863 143.796 71.2855 146.53 73.1666 147.323C79.1231 150.255 85.5781 152.042 92.1952 152.59C95.2359 152.828 98.2925 152.765 101.321 152.404L102.052 152.326V140.921C93.7968 142.228 85.3402 140.873 77.9081 137.052H77.8925Z" fill="#B48E57"/>
<path d="M91.8883 61.4277V129.362H76.9795V76.3447L78.4719 74.853L79.2803 74.045L83.7888 69.5389L86.8358 66.4933L87.8308 65.4988L90.8934 62.4377L91.8883 61.4277Z" fill="#B48E57"/>
<path d="M123.105 76.6064V144.386L122.919 144.525C122.235 144.96 121.504 145.411 120.727 145.846C120.478 146.002 120.214 146.141 119.949 146.281C119.265 146.67 118.535 147.058 117.788 147.431C117.042 147.804 116.374 148.115 115.627 148.441L114.399 148.969L112.72 149.622L111.352 150.104C110.419 150.414 109.456 150.71 108.461 150.974L107.73 151.16V76.6064H123.105Z" fill="#B48E57"/>
<path d="M107.723 94.5244H91.8813V109.908H107.723V94.5244Z" fill="#B48E57"/>
</g>
</g>
<defs>
<filter id="filter0_d_332_968" x="-4.15894" y="39.7402" width="42.8936" height="44.7736" filterUnits="userSpaceOnUse" color-interpolation-filters="sRGB">
<feFlood flood-opacity="0" result="BackgroundImageFix"/>
<feColorMatrix in="SourceAlpha" type="matrix" values="0 0 0 0 0 0 0 0 0 0 0 0 0 0 0 0 0 0 127 0" result="hardAlpha"/>
<feOffset dy="2.75847"/>
<feComposite in2="hardAlpha" operator="out"/>
<feColorMatrix type="matrix" values="0 0 0 0 0.85098 0 0 0 0 0.643137 0 0 0 0 0.462745 0 0 0 1 0"/>
<feBlend mode="normal" in2="BackgroundImageFix" result="effect1_dropShadow_332_968"/>
<feBlend mode="normal" in="SourceGraphic" in2="effect1_dropShadow_332_968" result="shape"/>
</filter>
<filter id="filter1_d_332_968" x="167.125" y="105.772" width="28.0254" height="30.95" filterUnits="userSpaceOnUse" color-interpolation-filters="sRGB">
<feFlood flood-opacity="0" result="BackgroundImageFix"/>
<feColorMatrix in="SourceAlpha" type="matrix" values="0 0 0 0 0 0 0 0 0 0 0 0 0 0 0 0 0 0 127 0" result="hardAlpha"/>
<feOffset dy="1.86597"/>
<feComposite in2="hardAlpha" operator="out"/>
<feColorMatrix type="matrix" values="0 0 0 0 0.85098 0 0 0 0 0.643137 0 0 0 0 0.462745 0 0 0 1 0"/>
<feBlend mode="normal" in2="BackgroundImageFix" result="effect1_dropShadow_332_968"/>
<feBlend mode="normal" in="SourceGraphic" in2="effect1_dropShadow_332_968" result="shape"/>
</filter>
<filter id="filter2_i_332_968" x="37.9697" y="41.7695" width="110.75" height="113.493" filterUnits="userSpaceOnUse" color-interpolation-filters="sRGB">
<feFlood flood-opacity="0" result="BackgroundImageFix"/>
<feBlend mode="normal" in="SourceGraphic" in2="BackgroundImageFix" result="shape"/>
<feColorMatrix in="SourceAlpha" type="matrix" values="0 0 0 0 0 0 0 0 0 0 0 0 0 0 0 0 0 0 127 0" result="hardAlpha"/>
<feOffset dy="6.32857"/>
<feGaussianBlur stdDeviation="1.26571"/>
<feComposite in2="hardAlpha" operator="arithmetic" k2="-1" k3="1"/>
<feColorMatrix type="matrix" values="0 0 0 0 0.459936 0 0 0 0 0.282669 0 0 0 0 0.105402 0 0 0 0.25 0"/>
<feBlend mode="normal" in2="shape" result="effect1_innerShadow_332_968"/>
</filter>
<linearGradient id="paint0_linear_332_968" x1="-13.1567" y1="155.148" x2="49.8987" y2="480.54" gradientUnits="userSpaceOnUse">
<stop offset="0.264586" stop-color="#4DB7D9"/>
<stop offset="0.519416" stop-color="#116C96"/>
</linearGradient>
<clipPath id="clip0_332_968">
<rect width="189.857" height="189.857" rx="94.9286" fill="white"/>
</clipPath>
<clipPath id="clip1_332_968">
<rect width="260.737" height="260.737" fill="white" transform="translate(-16.4541 -59.4873)"/>
</clipPath>
</defs>
</svg>
