<svg width="1238" height="354" viewBox="0 0 1238 354" fill="none" xmlns="http://www.w3.org/2000/svg">
<path d="M121.44 24.99H155.25V183H121.44V117.68H49.45V183H15.64V24.99H49.45V87.09H121.44V24.99ZM243.378 61.33C274.428 61.33 295.588 80.88 295.588 111.93V183H263.158V171.04C254.648 180.7 241.078 185.76 228.198 185.76C202.898 185.76 183.348 170.58 183.348 147.81C183.348 124.35 205.198 108.25 232.798 108.25C242.458 108.25 253.038 110.32 263.158 114.23V111.93C263.158 99.28 255.338 88.24 235.788 88.24C224.748 88.24 214.398 91.92 204.968 96.75L193.698 74.44C210.488 65.93 226.818 61.33 243.378 61.33ZM235.788 162.53C248.668 162.53 260.858 156.55 263.158 145.51V134.47C255.568 131.71 246.828 130.1 237.628 130.1C225.438 130.1 215.778 137.23 215.778 146.89C215.778 156.55 224.288 162.53 235.788 162.53ZM386.68 185.76C351.49 185.76 321.82 157.24 321.82 123.43C321.82 89.62 351.72 61.33 386.91 61.33C406.23 61.33 422.1 69.15 433.6 81.57L411.29 100.66C405.31 93.99 395.88 89.62 386.68 89.62C369.2 89.62 354.48 105.03 354.48 123.2C354.48 141.83 369.2 157.47 386.91 157.47C396.11 157.47 405.77 152.87 411.98 145.97L434.29 164.83C422.56 177.71 406.46 185.76 386.68 185.76ZM574.786 64.09L528.556 116.76L574.326 183H535.686L506.246 138.38L491.986 153.79V183H458.406V22.23H491.986V115.38L536.146 64.09H574.786ZM597.393 183V24.99H653.973C707.103 24.99 744.823 57.65 744.823 103.88C744.823 150.11 707.103 183 653.973 183H597.393ZM631.203 152.18H658.343C688.473 152.18 709.863 132.17 709.863 103.88C709.863 75.82 688.473 55.81 658.343 55.81H631.203V152.18ZM827.793 61.33C858.843 61.33 880.003 80.88 880.003 111.93V183H847.573V171.04C839.063 180.7 825.493 185.76 812.613 185.76C787.313 185.76 767.763 170.58 767.763 147.81C767.763 124.35 789.613 108.25 817.213 108.25C826.873 108.25 837.453 110.32 847.573 114.23V111.93C847.573 99.28 839.753 88.24 820.203 88.24C809.163 88.24 798.813 91.92 789.383 96.75L778.113 74.44C794.903 65.93 811.233 61.33 827.793 61.33ZM820.203 162.53C833.083 162.53 845.273 156.55 847.573 145.51V134.47C839.983 131.71 831.243 130.1 822.043 130.1C809.853 130.1 800.193 137.23 800.193 146.89C800.193 156.55 808.703 162.53 820.203 162.53ZM952.696 183L901.176 64.09H936.366L968.336 144.36L999.616 64.09H1034.58L983.746 183H952.696ZM1073.78 47.76C1063.43 47.76 1055.38 39.48 1055.38 29.36C1055.38 19.93 1063.43 11.42 1073.78 11.42C1083.67 11.42 1091.72 19.93 1091.72 29.36C1091.72 39.48 1083.67 47.76 1073.78 47.76ZM1056.76 183V64.09H1090.34V183H1056.76ZM1168.87 185.76C1149.78 185.76 1129.54 179.32 1115.28 167.82L1129.77 144.59C1140.35 152.18 1153.69 157.93 1169.56 157.93C1178.53 157.93 1184.97 154.25 1184.97 148.96C1184.97 141.6 1176.23 139.3 1164.04 136.08C1139.66 130.1 1120.8 123.43 1120.57 99.97C1120.34 77.43 1138.97 61.33 1167.03 61.33C1184.05 61.33 1200.84 67.31 1213.95 76.05L1200.38 99.97C1189.57 93.3 1177.15 89.39 1167.03 89.39C1158.75 89.39 1153 92.38 1153 96.52C1153 102.96 1157.83 104.8 1173.93 109.17C1194.4 114.46 1217.17 121.36 1217.17 147.35C1217.17 170.81 1198.08 185.76 1168.87 185.76Z" fill="white"/>
<path d="M6.64 336.2L34.32 268.2H41.36L13.6 336.2H6.64ZM56.2087 336.2L83.8888 268.2H90.9288L63.1687 336.2H56.2087ZM123.777 329.96C120.204 329.96 117.004 329.133 114.177 327.48C111.404 325.827 109.191 323.453 107.537 320.36C105.884 317.213 105.057 313.48 105.057 309.16C105.057 304.84 105.884 301.133 107.537 298.04C109.191 294.893 111.431 292.493 114.257 290.84C117.137 289.187 120.311 288.36 123.777 288.36C128.684 288.36 132.604 289.587 135.537 292.04C138.471 294.493 140.338 297.773 141.137 301.88H134.257C133.617 299.693 132.391 297.96 130.577 296.68C128.764 295.347 126.471 294.68 123.697 294.68C121.671 294.68 119.751 295.213 117.937 296.28C116.124 297.347 114.657 298.947 113.537 301.08C112.417 303.213 111.857 305.907 111.857 309.16C111.857 312.413 112.417 315.133 113.537 317.32C114.657 319.453 116.124 321.053 117.937 322.12C119.751 323.187 121.671 323.72 123.697 323.72C126.631 323.72 128.951 323.053 130.657 321.72C132.417 320.387 133.617 318.627 134.257 316.44H141.137C140.124 320.653 138.124 323.96 135.137 326.36C132.204 328.76 128.417 329.96 123.777 329.96ZM155.426 329V323.24H165.586V297.08C165.586 295.747 164.946 295.08 163.666 295.08H156.466V289.32H166.146C167.906 289.32 169.32 289.8 170.386 290.76C171.453 291.72 171.986 293.133 171.986 295V296.68H172.306C172.946 294.013 174.146 291.96 175.906 290.52C177.72 289.08 180.226 288.36 183.426 288.36H190.706V295.48H182.466C179.213 295.48 176.706 296.573 174.946 298.76C173.186 300.893 172.306 303.64 172.306 307V323.24H184.786V329H155.426ZM222.675 329.96C218.942 329.96 215.635 329.107 212.755 327.4C209.928 325.64 207.688 323.213 206.035 320.12C204.382 316.973 203.555 313.32 203.555 309.16C203.555 305 204.355 301.373 205.955 298.28C207.608 295.133 209.875 292.707 212.755 291C215.635 289.24 218.995 288.36 222.835 288.36C226.675 288.36 229.955 289.24 232.675 291C235.395 292.707 237.475 294.973 238.915 297.8C240.355 300.627 241.075 303.667 241.075 306.92C241.075 307.507 241.048 308.093 240.995 308.68C240.995 309.267 240.995 309.933 240.995 310.68H210.195C210.355 313.613 211.022 316.067 212.195 318.04C213.422 319.96 214.942 321.4 216.755 322.36C218.622 323.32 220.595 323.8 222.675 323.8C225.608 323.8 227.902 323.187 229.555 321.96C231.208 320.733 232.462 319.027 233.315 316.84H239.955C239.048 320.52 237.155 323.64 234.275 326.2C231.395 328.707 227.528 329.96 222.675 329.96ZM222.675 294.36C219.582 294.36 216.862 295.293 214.515 297.16C212.222 299.027 210.808 301.64 210.275 305H234.435C234.222 301.693 233.022 299.107 230.835 297.24C228.702 295.32 225.982 294.36 222.675 294.36ZM268.484 329.96C265.337 329.96 262.724 329.4 260.644 328.28C258.564 327.16 257.017 325.693 256.004 323.88C254.99 322.013 254.484 319.987 254.484 317.8C254.484 313.747 255.95 310.68 258.884 308.6C261.87 306.467 265.844 305.4 270.804 305.4H281.684V304.6C281.684 297.667 278.51 294.2 272.164 294.2C269.604 294.2 267.444 294.76 265.684 295.88C263.977 297 262.884 298.76 262.404 301.16H255.524C255.79 298.493 256.67 296.2 258.164 294.28C259.71 292.36 261.684 290.893 264.084 289.88C266.484 288.867 269.177 288.36 272.164 288.36C277.817 288.36 281.924 289.853 284.484 292.84C287.097 295.773 288.404 299.693 288.404 304.6V329H282.644L282.084 322.84H281.524C280.35 324.76 278.777 326.44 276.804 327.88C274.884 329.267 272.11 329.96 268.484 329.96ZM269.684 324.04C272.244 324.04 274.404 323.427 276.164 322.2C277.977 320.973 279.337 319.347 280.244 317.32C281.204 315.293 281.684 313.08 281.684 310.68H271.364C267.737 310.68 265.177 311.293 263.684 312.52C262.244 313.747 261.524 315.373 261.524 317.4C261.524 319.48 262.217 321.107 263.604 322.28C264.99 323.453 267.017 324.04 269.684 324.04ZM325.573 329C321.946 329 319.093 328.12 317.013 326.36C314.933 324.6 313.893 321.427 313.893 316.84V295.08H303.813V289.32H309.813C312.533 289.32 314.106 287.987 314.533 285.32L315.653 279.16H320.613V289.32H336.453V295.08H320.613V316.84C320.613 319.08 321.119 320.653 322.133 321.56C323.199 322.467 325.013 322.92 327.573 322.92H336.453V329H325.573ZM371.381 329.96C367.648 329.96 364.341 329.107 361.461 327.4C358.635 325.64 356.395 323.213 354.741 320.12C353.088 316.973 352.261 313.32 352.261 309.16C352.261 305 353.061 301.373 354.661 298.28C356.315 295.133 358.581 292.707 361.461 291C364.341 289.24 367.701 288.36 371.541 288.36C375.381 288.36 378.661 289.24 381.381 291C384.101 292.707 386.181 294.973 387.621 297.8C389.061 300.627 389.781 303.667 389.781 306.92C389.781 307.507 389.755 308.093 389.701 308.68C389.701 309.267 389.701 309.933 389.701 310.68H358.901C359.061 313.613 359.728 316.067 360.901 318.04C362.128 319.96 363.648 321.4 365.461 322.36C367.328 323.32 369.301 323.8 371.381 323.8C374.315 323.8 376.608 323.187 378.261 321.96C379.915 320.733 381.168 319.027 382.021 316.84H388.661C387.755 320.52 385.861 323.64 382.981 326.2C380.101 328.707 376.235 329.96 371.381 329.96ZM371.381 294.36C368.288 294.36 365.568 295.293 363.221 297.16C360.928 299.027 359.515 301.64 358.981 305H383.141C382.928 301.693 381.728 299.107 379.541 297.24C377.408 295.32 374.688 294.36 371.381 294.36ZM453.479 346.6V340.44H458.359C460.385 340.44 461.825 340.04 462.679 339.24C463.532 338.44 463.959 337.027 463.959 335V295.08H454.119V289.32H463.959V283C463.959 278.893 464.945 275.933 466.919 274.12C468.892 272.307 471.879 271.4 475.879 271.4H485.399V277.48H476.279C474.305 277.48 472.865 277.907 471.959 278.76C471.105 279.56 470.679 280.973 470.679 283V289.32H485.399V295.08H470.679V335C470.679 339.107 469.692 342.067 467.719 343.88C465.745 345.693 462.785 346.6 458.839 346.6H453.479ZM519.688 329.96C515.954 329.96 512.648 329.107 509.768 327.4C506.888 325.693 504.621 323.293 502.968 320.2C501.314 317.053 500.488 313.373 500.488 309.16C500.488 304.947 501.314 301.293 502.968 298.2C504.621 295.053 506.888 292.627 509.768 290.92C512.648 289.213 515.954 288.36 519.688 288.36C523.421 288.36 526.728 289.213 529.608 290.92C532.488 292.627 534.754 295.053 536.408 298.2C538.061 301.293 538.888 304.947 538.888 309.16C538.888 313.373 538.061 317.053 536.408 320.2C534.754 323.293 532.488 325.693 529.608 327.4C526.728 329.107 523.421 329.96 519.688 329.96ZM519.688 323.56C521.981 323.56 524.061 323.053 525.928 322.04C527.794 321.027 529.261 319.453 530.328 317.32C531.448 315.187 532.008 312.467 532.008 309.16C532.008 305.853 531.448 303.133 530.328 301C529.261 298.867 527.794 297.293 525.928 296.28C524.061 295.267 521.981 294.76 519.688 294.76C517.448 294.76 515.394 295.267 513.528 296.28C511.661 297.293 510.168 298.867 509.048 301C507.928 303.133 507.368 305.853 507.368 309.16C507.368 314.12 508.568 317.773 510.968 320.12C513.368 322.413 516.274 323.56 519.688 323.56ZM551.976 329V323.24H562.136V297.08C562.136 295.747 561.496 295.08 560.216 295.08H553.016V289.32H562.696C564.456 289.32 565.87 289.8 566.936 290.76C568.003 291.72 568.536 293.133 568.536 295V296.68H568.856C569.496 294.013 570.696 291.96 572.456 290.52C574.27 289.08 576.776 288.36 579.976 288.36H587.256V295.48H579.016C575.763 295.48 573.256 296.573 571.496 298.76C569.736 300.893 568.856 303.64 568.856 307V323.24H581.336V329H551.976ZM668.794 329.96C663.727 329.96 659.62 328.787 656.474 326.44C653.38 324.04 651.647 320.76 651.274 316.6H658.234C658.554 318.787 659.62 320.573 661.434 321.96C663.3 323.347 665.807 324.04 668.954 324.04C671.94 324.04 674.154 323.4 675.594 322.12C677.087 320.84 677.834 319.373 677.834 317.72C677.834 315.48 676.954 313.96 675.194 313.16C673.434 312.307 670.794 311.667 667.274 311.24C663.06 310.76 659.567 309.613 656.794 307.8C654.02 305.987 652.634 303.267 652.634 299.64C652.634 296.387 653.994 293.693 656.714 291.56C659.434 289.427 663.14 288.36 667.834 288.36C672.474 288.36 676.127 289.427 678.794 291.56C681.46 293.64 682.98 296.627 683.354 300.52H676.714C676.554 298.6 675.62 297.08 673.914 295.96C672.26 294.787 670.18 294.2 667.674 294.2C665.06 294.2 663.034 294.707 661.594 295.72C660.154 296.68 659.434 297.96 659.434 299.56C659.434 301.16 660.234 302.493 661.834 303.56C663.487 304.573 666.074 305.24 669.594 305.56C672.367 305.88 674.9 306.413 677.194 307.16C679.487 307.907 681.3 309.08 682.634 310.68C684.02 312.28 684.714 314.52 684.714 317.4C684.767 319.8 684.1 321.96 682.714 323.88C681.38 325.747 679.514 327.24 677.114 328.36C674.714 329.427 671.94 329.96 668.794 329.96ZM717.963 329.96C714.229 329.96 710.923 329.107 708.043 327.4C705.163 325.693 702.896 323.293 701.243 320.2C699.589 317.053 698.763 313.373 698.763 309.16C698.763 304.947 699.589 301.293 701.243 298.2C702.896 295.053 705.163 292.627 708.043 290.92C710.923 289.213 714.229 288.36 717.963 288.36C721.696 288.36 725.003 289.213 727.883 290.92C730.763 292.627 733.029 295.053 734.683 298.2C736.336 301.293 737.163 304.947 737.163 309.16C737.163 313.373 736.336 317.053 734.683 320.2C733.029 323.293 730.763 325.693 727.883 327.4C725.003 329.107 721.696 329.96 717.963 329.96ZM717.963 323.56C720.256 323.56 722.336 323.053 724.203 322.04C726.069 321.027 727.536 319.453 728.603 317.32C729.723 315.187 730.283 312.467 730.283 309.16C730.283 305.853 729.723 303.133 728.603 301C727.536 298.867 726.069 297.293 724.203 296.28C722.336 295.267 720.256 294.76 717.963 294.76C715.723 294.76 713.669 295.267 711.803 296.28C709.936 297.293 708.443 298.867 707.323 301C706.203 303.133 705.643 305.853 705.643 309.16C705.643 314.12 706.843 317.773 709.243 320.12C711.643 322.413 714.549 323.56 717.963 323.56ZM768.171 329.96C764.598 329.96 761.398 329.133 758.571 327.48C755.798 325.827 753.585 323.453 751.931 320.36C750.278 317.213 749.451 313.48 749.451 309.16C749.451 304.84 750.278 301.133 751.931 298.04C753.585 294.893 755.825 292.493 758.651 290.84C761.531 289.187 764.705 288.36 768.171 288.36C773.078 288.36 776.998 289.587 779.931 292.04C782.865 294.493 784.731 297.773 785.531 301.88H778.651C778.011 299.693 776.785 297.96 774.971 296.68C773.158 295.347 770.865 294.68 768.091 294.68C766.065 294.68 764.145 295.213 762.331 296.28C760.518 297.347 759.051 298.947 757.931 301.08C756.811 303.213 756.251 305.907 756.251 309.16C756.251 312.413 756.811 315.133 757.931 317.32C759.051 319.453 760.518 321.053 762.331 322.12C764.145 323.187 766.065 323.72 768.091 323.72C771.025 323.72 773.345 323.053 775.051 321.72C776.811 320.387 778.011 318.627 778.651 316.44H785.531C784.518 320.653 782.518 323.96 779.531 326.36C776.598 328.76 772.811 329.96 768.171 329.96ZM816.62 282.28C815.02 282.28 813.687 281.747 812.62 280.68C811.553 279.613 811.02 278.333 811.02 276.84C811.02 275.293 811.553 274.013 812.62 273C813.687 271.933 815.02 271.4 816.62 271.4C818.167 271.4 819.473 271.933 820.54 273C821.66 274.013 822.22 275.293 822.22 276.84C822.22 278.333 821.66 279.613 820.54 280.68C819.473 281.747 818.167 282.28 816.62 282.28ZM801.1 329V323.24H813.74V297.08C813.74 295.747 813.073 295.08 811.74 295.08H802.46V289.32H813.34C818.087 289.32 820.46 291.693 820.46 296.44V323.24H833.1V329H801.1ZM863.309 329.96C860.162 329.96 857.549 329.4 855.469 328.28C853.389 327.16 851.842 325.693 850.829 323.88C849.815 322.013 849.309 319.987 849.309 317.8C849.309 313.747 850.775 310.68 853.709 308.6C856.695 306.467 860.669 305.4 865.629 305.4H876.509V304.6C876.509 297.667 873.335 294.2 866.989 294.2C864.429 294.2 862.269 294.76 860.509 295.88C858.802 297 857.709 298.76 857.229 301.16H850.349C850.615 298.493 851.495 296.2 852.989 294.28C854.535 292.36 856.509 290.893 858.909 289.88C861.309 288.867 864.002 288.36 866.989 288.36C872.642 288.36 876.749 289.853 879.309 292.84C881.922 295.773 883.229 299.693 883.229 304.6V329H877.469L876.909 322.84H876.349C875.175 324.76 873.602 326.44 871.629 327.88C869.709 329.267 866.935 329.96 863.309 329.96ZM864.509 324.04C867.069 324.04 869.229 323.427 870.989 322.2C872.802 320.973 874.162 319.347 875.069 317.32C876.029 315.293 876.509 313.08 876.509 310.68H866.189C862.562 310.68 860.002 311.293 858.509 312.52C857.069 313.747 856.349 315.373 856.349 317.4C856.349 319.48 857.042 321.107 858.429 322.28C859.815 323.453 861.842 324.04 864.509 324.04ZM898.237 329V323.24H911.757V279.16C911.757 277.827 911.091 277.16 909.757 277.16H899.677V271.4H911.357C913.651 271.4 915.411 272.013 916.637 273.24C917.864 274.467 918.477 276.227 918.477 278.52V323.24H931.997V329H898.237ZM1014.66 317.32C1011.88 317.32 1009.4 316.813 1007.22 315.8L1004.5 319.08C1003.91 319.88 1003.75 320.68 1004.02 321.48C1004.34 322.227 1005.11 322.6 1006.34 322.6H1016.82C1021.56 322.6 1025.4 323.533 1028.34 325.4C1031.27 327.213 1032.74 330.12 1032.74 334.12C1032.74 336.52 1032.12 338.733 1030.9 340.76C1029.67 342.787 1027.72 344.413 1025.06 345.64C1022.44 346.92 1019 347.56 1014.74 347.56C1009.19 347.56 1004.74 346.52 1001.38 344.44C998.015 342.36 996.335 339.187 996.335 334.92C996.335 333.373 996.708 331.933 997.455 330.6C998.255 329.32 999.242 328.173 1000.42 327.16C998.868 326.2 997.908 324.76 997.535 322.84C997.215 320.92 997.802 319.027 999.295 317.16L1002.9 312.68C1000.34 310.013 999.055 306.733 999.055 302.84C999.055 300.28 999.668 297.907 1000.9 295.72C1002.12 293.48 1003.88 291.693 1006.18 290.36C1008.52 289.027 1011.35 288.36 1014.66 288.36C1016.79 288.36 1018.76 288.68 1020.58 289.32H1035.45V294.36L1028.02 294.6V295.16C1029.4 297.453 1030.1 300.013 1030.1 302.84C1030.1 305.4 1029.48 307.8 1028.26 310.04C1027.08 312.227 1025.32 313.987 1022.98 315.32C1020.68 316.653 1017.91 317.32 1014.66 317.32ZM1014.66 311.56C1017.27 311.56 1019.4 310.787 1021.06 309.24C1022.76 307.693 1023.62 305.56 1023.62 302.84C1023.62 300.12 1022.76 298.013 1021.06 296.52C1019.4 294.973 1017.27 294.2 1014.66 294.2C1011.99 294.2 1009.8 294.973 1008.1 296.52C1006.39 298.013 1005.54 300.12 1005.54 302.84C1005.54 305.56 1006.39 307.693 1008.1 309.24C1009.8 310.787 1011.99 311.56 1014.66 311.56ZM1002.98 334.68C1002.98 337.027 1004.07 338.787 1006.26 339.96C1008.44 341.133 1011.27 341.72 1014.74 341.72C1018.1 341.72 1020.82 341.053 1022.9 339.72C1025.03 338.387 1026.1 336.6 1026.1 334.36C1026.1 332.6 1025.35 331.107 1023.86 329.88C1022.36 328.707 1019.62 328.12 1015.62 328.12H1006.58C1004.18 329.88 1002.98 332.067 1002.98 334.68ZM1064.94 329.96C1061.21 329.96 1057.9 329.107 1055.02 327.4C1052.14 325.693 1049.88 323.293 1048.22 320.2C1046.57 317.053 1045.74 313.373 1045.74 309.16C1045.74 304.947 1046.57 301.293 1048.22 298.2C1049.88 295.053 1052.14 292.627 1055.02 290.92C1057.9 289.213 1061.21 288.36 1064.94 288.36C1068.68 288.36 1071.98 289.213 1074.86 290.92C1077.74 292.627 1080.01 295.053 1081.66 298.2C1083.32 301.293 1084.14 304.947 1084.14 309.16C1084.14 313.373 1083.32 317.053 1081.66 320.2C1080.01 323.293 1077.74 325.693 1074.86 327.4C1071.98 329.107 1068.68 329.96 1064.94 329.96ZM1064.94 323.56C1067.24 323.56 1069.32 323.053 1071.18 322.04C1073.05 321.027 1074.52 319.453 1075.58 317.32C1076.7 315.187 1077.26 312.467 1077.26 309.16C1077.26 305.853 1076.7 303.133 1075.58 301C1074.52 298.867 1073.05 297.293 1071.18 296.28C1069.32 295.267 1067.24 294.76 1064.94 294.76C1062.7 294.76 1060.65 295.267 1058.78 296.28C1056.92 297.293 1055.42 298.867 1054.3 301C1053.18 303.133 1052.62 305.853 1052.62 309.16C1052.62 314.12 1053.82 317.773 1056.22 320.12C1058.62 322.413 1061.53 323.56 1064.94 323.56ZM1114.51 329.96C1110.78 329.96 1107.47 329.107 1104.59 327.4C1101.71 325.693 1099.45 323.293 1097.79 320.2C1096.14 317.053 1095.31 313.373 1095.31 309.16C1095.31 304.947 1096.14 301.293 1097.79 298.2C1099.45 295.053 1101.71 292.627 1104.59 290.92C1107.47 289.213 1110.78 288.36 1114.51 288.36C1118.25 288.36 1121.55 289.213 1124.43 290.92C1127.31 292.627 1129.58 295.053 1131.23 298.2C1132.89 301.293 1133.71 304.947 1133.71 309.16C1133.71 313.373 1132.89 317.053 1131.23 320.2C1129.58 323.293 1127.31 325.693 1124.43 327.4C1121.55 329.107 1118.25 329.96 1114.51 329.96ZM1114.51 323.56C1116.81 323.56 1118.89 323.053 1120.75 322.04C1122.62 321.027 1124.09 319.453 1125.15 317.32C1126.27 315.187 1126.83 312.467 1126.83 309.16C1126.83 305.853 1126.27 303.133 1125.15 301C1124.09 298.867 1122.62 297.293 1120.75 296.28C1118.89 295.267 1116.81 294.76 1114.51 294.76C1112.27 294.76 1110.22 295.267 1108.35 296.28C1106.49 297.293 1104.99 298.867 1103.87 301C1102.75 303.133 1102.19 305.853 1102.19 309.16C1102.19 314.12 1103.39 317.773 1105.79 320.12C1108.19 322.413 1111.1 323.56 1114.51 323.56ZM1162.72 329.96C1159.36 329.96 1156.35 329.16 1153.68 327.56C1151.07 325.96 1149.01 323.613 1147.52 320.52C1146.03 317.373 1145.28 313.56 1145.28 309.08C1145.28 304.653 1146.03 300.893 1147.52 297.8C1149.01 294.707 1151.07 292.36 1153.68 290.76C1156.35 289.16 1159.36 288.36 1162.72 288.36C1165.87 288.36 1168.45 288.973 1170.48 290.2C1172.56 291.427 1174.11 293.027 1175.12 295V271.4H1181.84V329H1176.32L1175.6 322.84H1175.12C1174.05 325.027 1172.48 326.76 1170.4 328.04C1168.32 329.32 1165.76 329.96 1162.72 329.96ZM1163.6 323.56C1166.96 323.56 1169.73 322.387 1171.92 320.04C1174.11 317.64 1175.2 314.013 1175.2 309.16C1175.2 304.307 1174.11 300.707 1171.92 298.36C1169.73 295.96 1166.96 294.76 1163.6 294.76C1160.24 294.76 1157.47 295.96 1155.28 298.36C1153.15 300.707 1152.08 304.307 1152.08 309.16C1152.08 314.013 1153.15 317.64 1155.28 320.04C1157.47 322.387 1160.24 323.56 1163.6 323.56ZM1195.65 335.16V329H1231.65V335.16H1195.65Z" fill="white"/>
</svg>
