<svg xmlns="http://www.w3.org/2000/svg" width="226" height="72" viewBox="0 0 226 72" fill="none">
  <path d="M29.6159 33.6098L29.6159 2.17015L22.8755 2.17015L22.8755 14.5198L8.02765 14.5198L8.02765 2.17015L1.33435 2.17015L1.33435 33.6098L8.02765 33.6098L8.02765 20.4118L22.8755 20.4118L22.8755 33.6098L29.6159 33.6098Z" fill="white"/>
  <path d="M55.326 33.6098L55.326 18.9034C55.326 12.3515 50.5652 10.2775 45.3803 10.2775C41.798 10.2775 38.2156 11.4088 35.4346 13.8599L37.6971 17.8664C39.6297 16.0752 41.8922 15.1797 44.3433 15.1797C47.36 15.1797 49.3397 16.688 49.3397 18.9977L49.3397 22.1558C47.8314 20.3175 45.1446 19.3748 42.1279 19.3748C38.4985 19.3748 34.2091 21.3073 34.2091 26.6337C34.2091 31.7244 38.4985 34.1754 42.1279 34.1754C45.0975 34.1754 47.7842 33.0913 49.3397 31.253L49.3397 33.6098L55.326 33.6098ZM49.3397 28.142C48.3499 29.4618 46.4644 30.1218 44.5318 30.1218C42.1751 30.1218 40.2425 28.8962 40.2425 26.7751C40.2425 24.6069 42.1751 23.3342 44.5318 23.3342C46.4644 23.3342 48.3499 23.9941 49.3397 25.3139L49.3397 28.142Z" fill="white"/>
  <path d="M59.8024 22.2029C59.8024 29.2262 64.846 34.1754 71.8692 34.1754C76.5357 34.1754 79.3638 32.1486 80.8722 30.0275L76.9599 26.398C75.8758 27.9064 74.226 28.8491 72.152 28.8491C68.5226 28.8491 65.9772 26.1623 65.9772 22.2029C65.9772 18.2435 68.5226 15.6039 72.152 15.6039C74.226 15.6039 75.8758 16.4995 76.9599 18.055L80.8722 14.4255C79.3638 12.3044 76.5357 10.2775 71.8692 10.2775C64.846 10.2775 59.8024 15.2268 59.8024 22.2029Z" fill="white"/>
  <path d="M107.034 33.6098L97.7479 21.1659L106.751 10.8432L99.3977 10.8432L90.7718 20.9774L90.7718 2.17015L84.7856 2.17015L84.7856 33.6098L90.7718 33.6098L90.7718 27.765L93.5057 24.8425L99.5391 33.6098L107.034 33.6098Z" fill="white"/>
  <path d="M122.549 33.6098C132.4 33.6098 139.235 27.3879 139.235 17.9135C139.235 8.43923 132.4 2.17015 122.549 2.17015L110.152 2.17015L110.152 33.6098L122.549 33.6098ZM116.845 8.06214L122.549 8.06214C129.006 8.06214 132.4 12.3515 132.4 17.9135C132.4 23.2399 128.771 27.7178 122.549 27.7178L116.845 27.7178L116.845 8.06214Z" fill="white"/>
  <path d="M163.499 33.6098L163.499 18.9034C163.499 12.3515 158.739 10.2775 153.554 10.2775C149.971 10.2775 146.389 11.4088 143.608 13.8599L145.87 17.8664C147.803 16.0753 150.065 15.1797 152.517 15.1797C155.533 15.1797 157.513 16.688 157.513 18.9977L157.513 22.1558C156.005 20.3175 153.318 19.3748 150.301 19.3748C146.672 19.3748 142.382 21.3073 142.382 26.6337C142.382 31.7244 146.672 34.1754 150.301 34.1754C153.271 34.1754 155.957 33.0913 157.513 31.253L157.513 33.6098L163.499 33.6098ZM157.513 28.142C156.523 29.4619 154.638 30.1218 152.705 30.1218C150.348 30.1218 148.416 28.8962 148.416 26.7751C148.416 24.6069 150.348 23.3342 152.705 23.3342C154.638 23.3342 156.523 23.9941 157.513 25.3139L157.513 28.142Z" fill="white"/>
  <path d="M181.786 33.6098L190.931 10.8432L184.473 10.8432L178.534 26.6808L172.595 10.8432L166.184 10.8432L175.329 33.6098L181.786 33.6098Z" fill="white"/>
  <path d="M196.573 7.49651C198.553 7.49651 200.155 5.89389 200.155 3.91418C200.155 1.93447 198.553 0.33185 196.573 0.33185C194.64 0.33185 192.99 1.93447 192.99 3.91418C192.99 5.89389 194.64 7.49651 196.573 7.49651ZM199.59 33.6098L199.59 10.8432L193.603 10.8432L193.603 33.6098L199.59 33.6098Z" fill="white"/>
  <path d="M203.546 30.6402C205.95 32.8556 209.768 34.1754 213.727 34.1754C220.043 34.1754 223.578 31.0645 223.578 26.8694C223.578 21.2131 218.346 20.1761 214.434 19.4219C211.889 18.9034 210.098 18.3849 210.098 16.9708C210.098 15.651 211.512 14.8497 213.68 14.8497C216.461 14.8497 219.053 16.0281 220.42 17.4893L222.777 13.3885C220.562 11.5973 217.498 10.2775 213.633 10.2775C207.646 10.2775 204.3 13.6242 204.3 17.4422C204.3 22.8628 209.343 23.8055 213.256 24.5597C215.848 25.0782 217.828 25.6438 217.828 27.2465C217.828 28.6605 216.602 29.5561 214.01 29.5561C211.182 29.5561 207.788 28.0006 206.138 26.4452L203.546 30.6402Z" fill="white"/>
  <path d="M-0.00570689 70.8761L5.42966 56.4592L6.85478 56.4592L1.41942 70.8761L-0.00570689 70.8761Z" fill="white"/>
  <path d="M9.93055 70.8761L15.3659 56.4592L16.791 56.4592L11.3557 70.8761L9.93055 70.8761Z" fill="white"/>
  <path d="M24.0428 68.4236C23.4131 68.4236 22.822 68.3297 22.2696 68.1419C21.7283 67.9541 21.2588 67.6779 20.8611 67.3133C20.4634 66.9488 20.1485 66.5069 19.9165 65.9876C19.6956 65.4573 19.5851 64.8553 19.5851 64.1814C19.5851 63.5075 19.7066 62.9054 19.9497 62.3751C20.1927 61.8448 20.5241 61.3974 20.9439 61.0328C21.3637 60.6683 21.8443 60.3921 22.3856 60.2043C22.938 60.0165 23.5235 59.9226 24.1422 59.9226C24.805 59.9226 25.385 60.0386 25.8822 60.2706C26.3793 60.4915 26.7936 60.7622 27.125 61.0825L26.3296 62.1265C26.0092 61.8614 25.6778 61.657 25.3353 61.5134C24.9928 61.3587 24.6228 61.2814 24.225 61.2814C23.7942 61.2814 23.3965 61.3532 23.0319 61.4968C22.6674 61.6294 22.3525 61.8227 22.0874 62.0768C21.8333 62.3309 21.6344 62.6402 21.4908 63.0048C21.3472 63.3583 21.2754 63.7505 21.2754 64.1814C21.2754 64.6122 21.3417 65.0099 21.4742 65.3745C21.6178 65.728 21.8167 66.0318 22.0708 66.2859C22.3359 66.54 22.6453 66.7389 22.9988 66.8825C23.3523 67.015 23.7445 67.0813 24.1753 67.0813C24.6725 67.0813 25.1144 66.9874 25.501 66.7996C25.8987 66.6118 26.2578 66.3853 26.5782 66.1202L27.2907 67.1808C26.8267 67.5785 26.3185 67.8878 25.7662 68.1087C25.2138 68.3186 24.6393 68.4236 24.0428 68.4236Z" fill="white"/>
  <path d="M33.2333 68.4236C32.703 68.4236 32.1949 68.3297 31.7088 68.1419C31.2227 67.9541 30.7918 67.6779 30.4162 67.3133C30.0406 66.9488 29.7423 66.5069 29.5214 65.9876C29.3004 65.4573 29.1899 64.8553 29.1899 64.1814C29.1899 63.5075 29.3004 62.9054 29.5214 62.3751C29.7423 61.8448 30.0406 61.3974 30.4162 61.0328C30.7918 60.6683 31.2227 60.3921 31.7088 60.2043C32.1949 60.0165 32.703 59.9226 33.2333 59.9226C33.7636 59.9226 34.2718 60.0165 34.7579 60.2043C35.244 60.3921 35.6748 60.6683 36.0504 61.0328C36.426 61.3974 36.7243 61.8448 36.9453 62.3751C37.1662 62.9054 37.2767 63.5075 37.2767 64.1814C37.2767 64.8553 37.1662 65.4573 36.9453 65.9876C36.7243 66.5069 36.426 66.9488 36.0504 67.3133C35.6748 67.6779 35.244 67.9541 34.7579 68.1419C34.2718 68.3297 33.7636 68.4236 33.2333 68.4236ZM33.2333 67.0813C33.9625 67.0813 34.5369 66.8162 34.9567 66.2859C35.3765 65.7556 35.5864 65.0541 35.5864 64.1814C35.5864 63.3086 35.3765 62.6071 34.9567 62.0768C34.5369 61.5465 33.9625 61.2814 33.2333 61.2814C32.5042 61.2814 31.9297 61.5465 31.5099 62.0768C31.0901 62.6071 30.8802 63.3086 30.8802 64.1814C30.8802 65.0541 31.0901 65.7556 31.5099 66.2859C31.9297 66.8162 32.5042 67.0813 33.2333 67.0813Z" fill="white"/>
  <path d="M42.6227 68.4236C42.0924 68.4236 41.6119 68.3297 41.181 68.1419C40.7612 67.9541 40.3967 67.6779 40.0873 67.3133C39.778 66.9488 39.5405 66.5069 39.3748 65.9876C39.2091 65.4573 39.1262 64.8553 39.1262 64.1814C39.1262 63.5185 39.2256 62.9275 39.4245 62.4082C39.6344 61.878 39.905 61.4305 40.2365 61.066C40.5789 60.7014 40.9656 60.4197 41.3965 60.2208C41.8384 60.022 42.2913 59.9226 42.7553 59.9226C43.2303 59.9226 43.6501 60.0109 44.0147 60.1877C44.3903 60.3645 44.7438 60.613 45.0753 60.9334L45.125 60.9334L45.0421 59.4917L45.0421 56.4757L46.6827 56.4757L46.6827 68.2247L45.3404 68.2247L45.2078 67.2305L45.1581 67.2305C44.8377 67.5508 44.4566 67.8326 44.0147 68.0756C43.5728 68.3076 43.1088 68.4236 42.6227 68.4236ZM43.0039 67.0648C43.733 67.0648 44.4124 66.7002 45.0421 65.9711L45.0421 62.1265C44.7218 61.8172 44.4014 61.6018 44.081 61.4802C43.7606 61.3587 43.4402 61.298 43.1199 61.298C42.7995 61.298 42.5012 61.3643 42.225 61.4968C41.9488 61.6294 41.7058 61.8227 41.4959 62.0768C41.286 62.3199 41.1203 62.6181 40.9987 62.9717C40.8772 63.3252 40.8165 63.7229 40.8165 64.1648C40.8165 65.1038 41.0043 65.8219 41.3799 66.319C41.7665 66.8162 42.3079 67.0648 43.0039 67.0648Z" fill="white"/>
  <path d="M53.603 68.4236C52.9843 68.4236 52.4098 68.3297 51.8796 68.1419C51.3493 67.9541 50.8853 67.6779 50.4876 67.3133C50.0899 66.9488 49.775 66.5013 49.543 65.9711C49.3221 65.4408 49.2116 64.8387 49.2116 64.1648C49.2116 63.5019 49.3276 62.9109 49.5596 62.3917C49.7916 61.8614 50.0954 61.414 50.471 61.0494C50.8577 60.6848 51.2996 60.4086 51.7967 60.2208C52.2938 60.022 52.8131 59.9226 53.3544 59.9226C53.951 59.9226 54.4812 60.0165 54.9452 60.2043C55.4092 60.3921 55.7959 60.6572 56.1052 60.9997C56.4256 61.3311 56.6687 61.7343 56.8344 62.2094C57.0001 62.6734 57.0829 63.1871 57.0829 63.7505C57.0829 63.9273 57.0774 64.093 57.0664 64.2476C57.0553 64.4023 57.0387 64.5349 57.0166 64.6454L50.8522 64.6454C50.9405 65.485 51.2554 66.1091 51.7967 66.5179C52.3491 66.9267 53.023 67.131 53.8184 67.131C54.2713 67.131 54.6856 67.0703 55.0612 66.9488C55.4369 66.8162 55.8069 66.6394 56.1715 66.4185L56.7515 67.4625C56.3317 67.7386 55.8567 67.9706 55.3264 68.1585C54.8072 68.3352 54.2327 68.4236 53.603 68.4236ZM53.4041 61.2151C53.0948 61.2151 52.802 61.2648 52.5258 61.3643C52.2497 61.4526 52.0011 61.5907 51.7801 61.7785C51.5592 61.9663 51.3714 62.1983 51.2167 62.4745C51.0621 62.7507 50.9516 63.0711 50.8853 63.4357L55.6081 63.4357C55.5529 62.6955 55.3264 62.1431 54.9287 61.7785C54.542 61.4029 54.0338 61.2151 53.4041 61.2151Z" fill="white"/>
  <path d="M71.9012 68.2247L71.9012 61.4471L69.631 61.4471L69.631 60.2043L71.9012 60.1214L71.9012 59.558C71.9012 59.0719 71.9675 58.63 72.1001 58.2323C72.2327 57.8235 72.437 57.4755 72.7132 57.1883C72.9894 56.9011 73.3374 56.6801 73.7572 56.5255C74.177 56.3597 74.6741 56.2769 75.2486 56.2769C76.0551 56.2769 76.845 56.4316 77.6183 56.7409L77.2537 57.9506C76.9444 57.818 76.6461 57.7241 76.3589 57.6689C76.0827 57.6136 75.7734 57.586 75.4309 57.586C74.757 57.586 74.2709 57.7572 73.9726 58.0997C73.6744 58.4311 73.5252 58.9062 73.5252 59.5248L73.5252 60.1214L76.7566 60.1214L76.7566 61.4471L73.5252 61.4471L73.5252 68.2247L71.9012 68.2247Z" fill="white"/>
  <path d="M82.9146 68.4236C82.3843 68.4236 81.8762 68.3297 81.3901 68.1419C80.904 67.9541 80.4731 67.6779 80.0975 67.3133C79.7219 66.9488 79.4236 66.5069 79.2027 65.9876C78.9817 65.4573 78.8712 64.8553 78.8712 64.1814C78.8712 63.5075 78.9817 62.9054 79.2027 62.3751C79.4236 61.8448 79.7219 61.3974 80.0975 61.0328C80.4731 60.6683 80.904 60.3921 81.3901 60.2043C81.8762 60.0165 82.3843 59.9226 82.9146 59.9226C83.4449 59.9226 83.9531 60.0165 84.4392 60.2043C84.9253 60.3921 85.3561 60.6683 85.7317 61.0328C86.1073 61.3974 86.4056 61.8448 86.6266 62.3751C86.8475 62.9054 86.958 63.5075 86.958 64.1814C86.958 64.8553 86.8475 65.4573 86.6266 65.9876C86.4056 66.5069 86.1073 66.9488 85.7317 67.3133C85.3561 67.6779 84.9253 67.9541 84.4392 68.1419C83.9531 68.3297 83.4449 68.4236 82.9146 68.4236ZM82.9146 67.0813C83.6438 67.0813 84.2182 66.8162 84.638 66.2859C85.0578 65.7556 85.2677 65.0541 85.2677 64.1814C85.2677 63.3086 85.0578 62.6071 84.638 62.0768C84.2182 61.5465 83.6438 61.2814 82.9146 61.2814C82.1855 61.2814 81.611 61.5465 81.1912 62.0768C80.7714 62.6071 80.5615 63.3086 80.5615 64.1814C80.5615 65.0541 80.7714 65.7556 81.1912 66.2859C81.611 66.8162 82.1855 67.0813 82.9146 67.0813Z" fill="white"/>
  <path d="M90.1663 68.2247L90.1663 60.1214L91.5252 60.1214L91.6578 62.0105L91.7075 62.0105C92.1273 61.3477 92.6355 60.834 93.232 60.4694C93.8396 60.1048 94.508 59.9226 95.2371 59.9226C95.5575 59.9226 95.8392 59.9502 96.0823 60.0054C96.3253 60.0496 96.5739 60.1325 96.828 60.254L96.4634 61.6625C96.1872 61.5742 95.9497 61.5079 95.7508 61.4637C95.552 61.4195 95.2979 61.3974 94.9886 61.3974C94.403 61.3974 93.8396 61.5631 93.2983 61.8945C92.757 62.226 92.2598 62.8004 91.8069 63.6179L91.8069 68.2247L90.1663 68.2247Z" fill="white"/>
  <path d="M112.823 68.4236C112.049 68.4236 111.32 68.3021 110.635 68.059C109.95 67.8049 109.359 67.5067 108.862 67.1642L109.591 66.1036C110.066 66.435 110.58 66.6947 111.133 66.8825C111.696 67.0703 112.331 67.1642 113.038 67.1642C113.668 67.1642 114.132 67.0592 114.43 66.8493C114.729 66.6284 114.878 66.3632 114.878 66.0539C114.878 65.9103 114.85 65.7777 114.795 65.6562C114.74 65.5347 114.624 65.4242 114.447 65.3248C114.281 65.2143 114.044 65.1093 113.734 65.0099C113.425 64.9105 113.016 64.8055 112.508 64.6951C111.436 64.4741 110.641 64.1758 110.122 63.8002C109.614 63.4136 109.359 62.9109 109.359 62.2922C109.359 61.9498 109.431 61.6349 109.575 61.3477C109.73 61.0604 109.95 60.8119 110.238 60.602C110.536 60.3921 110.901 60.2264 111.331 60.1048C111.762 59.9833 112.259 59.9226 112.823 59.9226C113.464 59.9226 114.071 60.033 114.646 60.254C115.231 60.4639 115.728 60.7069 116.137 60.9831L115.375 62.0105C114.988 61.7564 114.563 61.5576 114.099 61.414C113.646 61.2593 113.171 61.182 112.674 61.182C112.055 61.182 111.619 61.2814 111.365 61.4802C111.122 61.6791 111 61.9221 111 62.2094C111 62.5298 111.171 62.7728 111.514 62.9385C111.856 63.1042 112.425 63.2699 113.221 63.4357C113.883 63.5793 114.425 63.7339 114.845 63.8996C115.275 64.0654 115.612 64.2476 115.855 64.4465C116.109 64.6454 116.286 64.8718 116.386 65.1259C116.485 65.369 116.535 65.6451 116.535 65.9545C116.535 66.297 116.452 66.6173 116.286 66.9156C116.12 67.2139 115.877 67.479 115.557 67.711C115.248 67.932 114.861 68.1032 114.397 68.2247C113.944 68.3573 113.419 68.4236 112.823 68.4236Z" fill="white"/>
  <path d="M122.66 68.4236C122.129 68.4236 121.621 68.3297 121.135 68.1419C120.649 67.9541 120.218 67.6779 119.843 67.3133C119.467 66.9488 119.169 66.5069 118.948 65.9876C118.727 65.4573 118.616 64.8553 118.616 64.1814C118.616 63.5075 118.727 62.9054 118.948 62.3751C119.169 61.8448 119.467 61.3974 119.843 61.0328C120.218 60.6683 120.649 60.3921 121.135 60.2043C121.621 60.0165 122.129 59.9226 122.66 59.9226C123.19 59.9226 123.698 60.0165 124.184 60.2043C124.67 60.3921 125.101 60.6683 125.477 61.0328C125.852 61.3974 126.151 61.8448 126.372 62.3751C126.593 62.9054 126.703 63.5075 126.703 64.1814C126.703 64.8553 126.593 65.4573 126.372 65.9876C126.151 66.5069 125.852 66.9488 125.477 67.3133C125.101 67.6779 124.67 67.9541 124.184 68.1419C123.698 68.3297 123.19 68.4236 122.66 68.4236ZM122.66 67.0813C123.389 67.0813 123.963 66.8162 124.383 66.2859C124.803 65.7556 125.013 65.0541 125.013 64.1814C125.013 63.3086 124.803 62.6071 124.383 62.0768C123.963 61.5465 123.389 61.2814 122.66 61.2814C121.931 61.2814 121.356 61.5465 120.936 62.0768C120.516 62.6071 120.307 63.3086 120.307 64.1814C120.307 65.0541 120.516 65.7556 120.936 66.2859C121.356 66.8162 121.931 67.0813 122.66 67.0813Z" fill="white"/>
  <path d="M133.342 68.4236C132.712 68.4236 132.121 68.3297 131.568 68.1419C131.027 67.9541 130.558 67.6779 130.16 67.3133C129.762 66.9488 129.447 66.5069 129.215 65.9876C128.994 65.4573 128.884 64.8553 128.884 64.1814C128.884 63.5075 129.005 62.9054 129.249 62.3751C129.492 61.8448 129.823 61.3974 130.243 61.0328C130.663 60.6683 131.143 60.3921 131.684 60.2043C132.237 60.0165 132.822 59.9226 133.441 59.9226C134.104 59.9226 134.684 60.0386 135.181 60.2706C135.678 60.4915 136.092 60.7622 136.424 61.0825L135.628 62.1265C135.308 61.8614 134.977 61.657 134.634 61.5134C134.292 61.3587 133.922 61.2814 133.524 61.2814C133.093 61.2814 132.695 61.3532 132.331 61.4968C131.966 61.6294 131.651 61.8227 131.386 62.0768C131.132 62.3309 130.933 62.6402 130.79 63.0048C130.646 63.3583 130.574 63.7505 130.574 64.1814C130.574 64.6122 130.641 65.0099 130.773 65.3745C130.917 65.728 131.116 66.0318 131.37 66.2859C131.635 66.54 131.944 66.7388 132.298 66.8825C132.651 67.015 133.043 67.0813 133.474 67.0813C133.971 67.0813 134.413 66.9874 134.8 66.7996C135.198 66.6118 135.557 66.3853 135.877 66.1202L136.59 67.1808C136.126 67.5785 135.617 67.8878 135.065 68.1087C134.513 68.3186 133.938 68.4236 133.342 68.4236Z" fill="white"/>
  <path d="M142.632 68.2247L142.632 61.4471L139.003 61.4471L139.003 60.1214L144.272 60.1214L144.272 68.2247L142.632 68.2247ZM143.311 58.5471C142.958 58.5471 142.665 58.4422 142.433 58.2323C142.201 58.0113 142.085 57.7241 142.085 57.3706C142.085 57.0171 142.201 56.7354 142.433 56.5255C142.665 56.3045 142.958 56.194 143.311 56.194C143.665 56.194 143.957 56.3045 144.189 56.5255C144.421 56.7354 144.537 57.0171 144.537 57.3706C144.537 57.7241 144.421 58.0113 144.189 58.2323C143.957 58.4422 143.665 58.5471 143.311 58.5471Z" fill="white"/>
  <path d="M151.491 68.4236C151.104 68.4236 150.74 68.3684 150.397 68.2579C150.066 68.1474 149.778 67.9927 149.535 67.7939C149.292 67.584 149.099 67.3354 148.955 67.0482C148.823 66.7609 148.757 66.4406 148.757 66.087C148.757 65.6341 148.861 65.2364 149.071 64.8939C149.292 64.5514 149.629 64.2587 150.082 64.0156C150.546 63.7726 151.137 63.5737 151.855 63.4191C152.584 63.2644 153.457 63.1484 154.474 63.0711C154.451 62.574 154.286 62.1486 153.976 61.7951C153.678 61.4416 153.17 61.2648 152.452 61.2648C151.955 61.2648 151.469 61.3587 150.994 61.5465C150.53 61.7343 150.099 61.9442 149.701 62.1762L149.088 61.066C149.309 60.9334 149.557 60.8008 149.834 60.6683C150.11 60.5246 150.403 60.3976 150.712 60.2871C151.032 60.1766 151.358 60.0883 151.69 60.022C152.032 59.9557 152.38 59.9226 152.734 59.9226C153.86 59.9226 154.706 60.2264 155.269 60.834C155.832 61.4416 156.114 62.2812 156.114 63.3528L156.114 68.2247L154.772 68.2247L154.639 67.1808L154.59 67.1808C154.159 67.5122 153.673 67.8049 153.131 68.059C152.601 68.3021 152.054 68.4236 151.491 68.4236ZM151.955 67.1145C152.386 67.1145 152.805 67.0206 153.214 66.8328C153.634 66.6449 154.054 66.3798 154.474 66.0373L154.474 64.1151C153.678 64.1814 153.015 64.2697 152.485 64.3802C151.955 64.4796 151.529 64.6122 151.209 64.7779C150.9 64.9326 150.679 65.1093 150.546 65.3082C150.414 65.5071 150.347 65.728 150.347 65.9711C150.347 66.3798 150.502 66.6726 150.811 66.8493C151.132 67.0261 151.513 67.1145 151.955 67.1145Z" fill="white"/>
  <path d="M164.128 68.4236C163.222 68.4236 162.532 68.164 162.057 67.6447C161.582 67.1255 161.344 66.3743 161.344 65.3911L161.344 57.7849L158.56 57.7849L158.56 56.4757L162.985 56.4757L162.985 65.4905C162.985 66.0539 163.123 66.4627 163.399 66.7168C163.686 66.9598 164.056 67.0813 164.509 67.0813C164.929 67.0813 165.415 66.9653 165.968 66.7333L166.365 67.9596C165.979 68.1143 165.62 68.2303 165.288 68.3076C164.968 68.3849 164.581 68.4236 164.128 68.4236Z" fill="white"/>
  <path d="M182.128 71.887C180.968 71.887 180.057 71.6992 179.394 71.3236C178.742 70.9479 178.416 70.4011 178.416 69.683C178.416 68.9981 178.853 68.4125 179.725 67.9265L179.725 67.8602C179.504 67.7386 179.311 67.5729 179.145 67.363C178.98 67.1421 178.897 66.8604 178.897 66.5179C178.897 66.2528 178.98 65.9876 179.145 65.7225C179.322 65.4463 179.56 65.2033 179.858 64.9933L179.858 64.9271C179.571 64.7172 179.328 64.441 179.129 64.0985C178.941 63.745 178.847 63.3252 178.847 62.8391C178.847 62.3861 178.935 61.9829 179.112 61.6294C179.289 61.2648 179.526 60.9555 179.825 60.7014C180.123 60.4473 180.465 60.254 180.852 60.1214C181.25 59.9888 181.67 59.9226 182.112 59.9226C182.564 59.9226 182.973 59.9888 183.338 60.1214L186.669 60.1214L186.669 61.414L184.697 61.414C184.851 61.5907 184.989 61.8117 185.111 62.0768C185.232 62.3309 185.293 62.6016 185.293 62.8888C185.293 63.3307 185.21 63.7229 185.045 64.0654C184.879 64.4078 184.652 64.7006 184.365 64.9436C184.078 65.1756 183.741 65.3524 183.354 65.4739C182.968 65.5954 182.553 65.6562 182.112 65.6562C181.913 65.6562 181.697 65.6341 181.465 65.5899C181.244 65.5457 181.023 65.4794 180.802 65.3911C180.427 65.6341 180.239 65.9158 180.239 66.2362C180.239 66.7996 180.775 67.0813 181.846 67.0813L183.57 67.0813C184.63 67.0813 185.42 67.2305 185.939 67.5287C186.459 67.827 186.718 68.3242 186.718 69.0202C186.718 69.4179 186.608 69.788 186.387 70.1304C186.177 70.4839 185.873 70.7878 185.475 71.0418C185.078 71.307 184.592 71.5114 184.017 71.655C183.454 71.8096 182.824 71.887 182.128 71.887ZM182.112 64.5956C182.576 64.5956 182.973 64.441 183.305 64.1316C183.636 63.8223 183.802 63.3915 183.802 62.8391C183.802 62.3088 183.636 61.8835 183.305 61.5631C182.973 61.2427 182.576 61.0825 182.112 61.0825C181.648 61.0825 181.244 61.2427 180.902 61.5631C180.57 61.8835 180.405 62.3088 180.405 62.8391C180.405 63.3915 180.57 63.8223 180.902 64.1316C181.244 64.441 181.648 64.5956 182.112 64.5956ZM182.294 70.7436C182.725 70.7436 183.111 70.6994 183.454 70.611C183.807 70.5337 184.106 70.4287 184.349 70.2961C184.592 70.1636 184.779 70.0089 184.912 69.8321C185.045 69.6664 185.111 69.4897 185.111 69.3019C185.111 68.9483 184.967 68.7108 184.68 68.5893C184.393 68.4678 183.962 68.407 183.387 68.407L181.946 68.407C181.692 68.407 181.465 68.396 181.266 68.3739C181.068 68.3628 180.885 68.3297 180.72 68.2745C180.377 68.4623 180.134 68.6556 179.99 68.8544C179.858 69.0643 179.792 69.2742 179.792 69.4842C179.792 69.8708 180.007 70.1746 180.438 70.3956C180.869 70.6276 181.487 70.7436 182.294 70.7436Z" fill="white"/>
  <path d="M192.213 68.4236C191.683 68.4236 191.175 68.3297 190.689 68.1419C190.203 67.9541 189.772 67.6779 189.396 67.3133C189.021 66.9488 188.722 66.5069 188.502 65.9876C188.281 65.4573 188.17 64.8553 188.17 64.1814C188.17 63.5075 188.281 62.9054 188.502 62.3751C188.722 61.8448 189.021 61.3974 189.396 61.0328C189.772 60.6683 190.203 60.3921 190.689 60.2043C191.175 60.0165 191.683 59.9226 192.213 59.9226C192.744 59.9226 193.252 60.0165 193.738 60.2043C194.224 60.3921 194.655 60.6683 195.031 61.0328C195.406 61.3974 195.704 61.8448 195.925 62.3751C196.146 62.9054 196.257 63.5075 196.257 64.1814C196.257 64.8553 196.146 65.4573 195.925 65.9876C195.704 66.5069 195.406 66.9488 195.031 67.3133C194.655 67.6779 194.224 67.9541 193.738 68.1419C193.252 68.3297 192.744 68.4236 192.213 68.4236ZM192.213 67.0813C192.943 67.0813 193.517 66.8162 193.937 66.2859C194.357 65.7556 194.567 65.0541 194.567 64.1814C194.567 63.3086 194.357 62.6071 193.937 62.0768C193.517 61.5465 192.943 61.2814 192.213 61.2814C191.484 61.2814 190.91 61.5465 190.49 62.0768C190.07 62.6071 189.86 63.3086 189.86 64.1814C189.86 65.0541 190.07 65.7556 190.49 66.2859C190.91 66.8162 191.484 67.0813 192.213 67.0813Z" fill="white"/>
  <path d="M202.15 68.4236C201.619 68.4236 201.111 68.3297 200.625 68.1419C200.139 67.9541 199.708 67.6779 199.333 67.3133C198.957 66.9488 198.659 66.5069 198.438 65.9876C198.217 65.4573 198.106 64.8553 198.106 64.1814C198.106 63.5075 198.217 62.9054 198.438 62.3751C198.659 61.8448 198.957 61.3974 199.333 61.0328C199.708 60.6683 200.139 60.3921 200.625 60.2043C201.111 60.0165 201.619 59.9226 202.15 59.9226C202.68 59.9226 203.188 60.0165 203.674 60.2043C204.16 60.3921 204.591 60.6683 204.967 61.0328C205.342 61.3974 205.641 61.8448 205.862 62.3751C206.083 62.9054 206.193 63.5075 206.193 64.1814C206.193 64.8553 206.083 65.4573 205.862 65.9876C205.641 66.5069 205.342 66.9488 204.967 67.3133C204.591 67.6779 204.16 67.9541 203.674 68.1419C203.188 68.3297 202.68 68.4236 202.15 68.4236ZM202.15 67.0813C202.879 67.0813 203.453 66.8162 203.873 66.2859C204.293 65.7556 204.503 65.0541 204.503 64.1814C204.503 63.3086 204.293 62.6071 203.873 62.0768C203.453 61.5465 202.879 61.2814 202.15 61.2814C201.421 61.2814 200.846 61.5465 200.426 62.0768C200.007 62.6071 199.797 63.3086 199.797 64.1814C199.797 65.0541 200.007 65.7556 200.426 66.2859C200.846 66.8162 201.421 67.0813 202.15 67.0813Z" fill="white"/>
  <path d="M211.539 68.4236C211.009 68.4236 210.528 68.3297 210.097 68.1419C209.678 67.9541 209.313 67.6779 209.004 67.3133C208.694 66.9488 208.457 66.5069 208.291 65.9876C208.125 65.4573 208.043 64.8553 208.043 64.1814C208.043 63.5185 208.142 62.9275 208.341 62.4082C208.551 61.878 208.821 61.4305 209.153 61.066C209.495 60.7014 209.882 60.4197 210.313 60.2208C210.755 60.022 211.208 59.9226 211.672 59.9226C212.147 59.9226 212.567 60.0109 212.931 60.1877C213.307 60.3645 213.66 60.613 213.992 60.9334L214.041 60.9334L213.959 59.4917L213.959 56.4757L215.599 56.4757L215.599 68.2247L214.257 68.2247L214.124 67.2305L214.075 67.2305C213.754 67.5508 213.373 67.8325 212.931 68.0756C212.489 68.3076 212.025 68.4236 211.539 68.4236ZM211.92 67.0648C212.649 67.0648 213.329 66.7002 213.959 65.9711L213.959 62.1265C213.638 61.8172 213.318 61.6018 212.997 61.4802C212.677 61.3587 212.357 61.298 212.036 61.298C211.716 61.298 211.418 61.3643 211.141 61.4968C210.865 61.6294 210.622 61.8227 210.412 62.0768C210.202 62.3199 210.037 62.6181 209.915 62.9717C209.794 63.3252 209.733 63.7229 209.733 64.1648C209.733 65.1038 209.921 65.8219 210.296 66.319C210.683 66.8162 211.224 67.0648 211.92 67.0648Z" fill="white"/>
  <path d="M218.045 70.6441L218.045 69.3019L225.999 69.3019L225.999 70.6441L218.045 70.6441Z" fill="white"/>
</svg>