<svg width="181" height="228" viewBox="0 0 181 228" fill="none" xmlns="http://www.w3.org/2000/svg">
<path d="M12.3064 59.3263C10.6309 56.8867 11.7106 53.5219 14.4927 52.5124L110.699 17.6055L170.818 124.895L85.0308 165.222L12.3064 59.3263Z" fill="#51700E"/>
<path d="M9.42822 65.8209C8.83937 65.0383 9.1411 63.9108 10.0421 63.5269L111.323 20.3729L170.457 131.744L91.2056 174.505L9.42822 65.8209Z" fill="#8DACB9"/>
<path d="M7.99413 74.6932C7.36867 73.9374 7.62001 72.795 8.50494 72.3715L111.213 23.2167L167.698 138.667L95.6558 180.625L7.99413 74.6932Z" fill="#A1C1CF"/>
<path d="M11.1147 97.6862C10.5687 97.0026 10.7077 95.9878 11.4281 95.4915L111.083 26.8369L165.099 138.446L97.8176 206.234C63.9012 163.773 44.7371 139.78 11.1147 97.6862Z" fill="#BDD8E4"/>
<path d="M10.8455 107.722C10.294 107.07 10.393 106.09 11.064 105.562L111.083 26.8369L165.098 138.446L96.3768 208.798L10.8455 107.722Z" fill="#D6EAF3"/>
<path d="M14.1305 123.928C12.5947 122.069 12.7875 119.331 14.5688 117.705L111.227 29.4859L171.36 136.823L97.1116 216.376C95.2484 218.372 92.0549 218.275 90.316 216.17L14.1305 123.928Z" fill="#97BF41"/>
<path d="M110.958 29.7289C111.852 31.2638 112.703 32.81 113.519 34.3413C120.459 47.3591 121.924 61.1094 111.362 71.6343C99.5301 83.4254 80.3906 79.5241 66.4421 70.357L110.958 29.7289Z" fill="url(#paint0_radial_331_221)"/>
<path d="M111.115 29.6975L110.822 17.7633L170.819 124.904L171.329 136.814L111.115 29.6975Z" fill="#AFD157"/>
<path d="M58.6189 59.0711C56.2169 62.5992 55.023 64.3925 55.1526 65.4373L51.1503 67.9372C53.2543 32.8395 57.1516 23.8321 61.6499 17.9363C77.675 -3.0674 100.547 18.6647 107.151 17.9366C103.388 24.9349 99.6511 29.436 102.888 38.432C103.751 40.8288 104.998 51.7249 93.9463 56.2496C85.8118 59.58 79.7217 53.8023 73.8848 53.4377C68.048 53.0731 62.1826 53.8366 58.6189 59.0711Z" fill="#C45EAB"/>
<defs>
<radialGradient id="paint0_radial_331_221" cx="0" cy="0" r="1" gradientTransform="matrix(17.3004 24.5003 -27.9643 20.7879 90.7978 44.0157)" gradientUnits="userSpaceOnUse">
<stop stop-color="#E96BCA"/>
<stop offset="0.485577" stop-color="#D6A396"/>
<stop offset="1" stop-color="#97BF41"/>
</radialGradient>
</defs>
</svg>
