<svg width="67" height="45" viewBox="0 0 67 45" fill="none" xmlns="http://www.w3.org/2000/svg">
<path d="M11.137 6.10829C17.178 10.1394 15.3118 12.149 13.751 15.1228C12.1902 18.0965 11.4033 20.8264 5.48494 16.8771C2.4805 14.8723 1.31019 10.8364 2.87097 7.86265C4.43175 4.88892 8.13259 4.10347 11.137 6.10829Z" fill="white"/>
<path d="M19.9915 6.79821C19.9915 10.5528 18.83 10.575 17.3973 10.575C15.9646 10.575 14.8032 10.5528 14.8032 6.79821C14.8032 3.04366 16.3932 0 17.3973 0C18.4015 0 19.9915 3.04366 19.9915 6.79821Z" fill="#FFC145"/>
<path d="M51.322 6.79821C51.322 10.5528 50.1606 10.575 48.7279 10.575C47.2952 10.575 46.1338 10.5528 46.1338 6.79821C46.1338 3.04366 47.7237 0 48.7279 0C49.7321 0 51.322 3.04366 51.322 6.79821Z" fill="#FFC145"/>
<path d="M55.5563 6.10829C49.5154 10.1394 51.3816 12.149 52.9424 15.1228C54.5031 18.0965 55.29 20.8264 61.2084 16.8771C64.2129 14.8723 65.3832 10.8364 63.8224 7.86265C62.2616 4.88892 58.5608 4.10347 55.5563 6.10829Z" fill="black"/>
<path d="M57.0494 9.54566C54.0385 11.5548 54.8181 12.2696 55.4103 13.3978C56.0025 14.5261 56.2441 15.5999 59.1939 13.6315C60.6914 12.6323 61.4252 10.9076 60.833 9.77933C60.2408 8.65105 58.5469 8.54643 57.0494 9.54566Z" fill="#FFCACA"/>
<path d="M9.46572 9.54566C12.4766 11.5548 11.697 12.2696 11.1048 13.3978C10.5127 14.5261 10.271 15.5999 7.32123 13.6315C5.82378 12.6323 5.08992 10.9076 5.68211 9.77933C6.27429 8.65105 7.96827 8.54643 9.46572 9.54566Z" fill="#FFCACA"/>
<path d="M58.3047 29.3636C58.3047 41.1065 46.8844 45.0006 33.0042 45.0006C19.124 45.0006 7.61963 41.1065 7.61963 29.3636C7.61963 9.34061 19.124 2.47559 33.0042 2.47559C46.8844 2.47559 58.3047 8.38713 58.3047 29.3636Z" fill="white"/>
<path fill-rule="evenodd" clip-rule="evenodd" d="M34.769 2.50781C34.8856 6.25476 35.5796 11.1695 37.7571 13.1571C39.6719 14.9048 41.8816 15.3499 43.8562 15.7477C45.5438 16.0876 47.0596 16.3929 48.0727 17.4473C48.6109 18.0076 49.0884 18.785 49.6055 19.6271C51.1637 22.1643 53.0823 25.2884 58.111 24.8272C56.6237 8.31983 46.7998 2.9673 34.769 2.50781Z" fill="black"/>
<path d="M46.333 27.2246V30.8246" stroke="black" stroke-width="3.375" stroke-linecap="round"/>
<path d="M19.5923 27.2246V30.8246" stroke="black" stroke-width="3.375" stroke-linecap="round"/>
<path d="M42.3408 35.5946C42.3408 30.972 38.5934 27.2246 33.9708 27.2246H32.1529C27.5303 27.2246 23.7829 30.972 23.7829 35.5946C23.7829 38.6764 26.2812 41.1746 29.3629 41.1746H36.7608C39.8426 41.1746 42.3408 38.6764 42.3408 35.5946Z" fill="#FFCACA"/>
<path d="M36.9541 33.5254V36.0004" stroke="black" stroke-width="2.25" stroke-linecap="round"/>
<path d="M28.9712 33.5254L28.9712 36.0004" stroke="black" stroke-width="2.25" stroke-linecap="round"/>
<path d="M52.3174 36H49.3242" stroke="#FFD2D2" stroke-width="4.5" stroke-linecap="round"/>
<path d="M16.6001 36H13.6069" stroke="#FFD2D2" stroke-width="4.5" stroke-linecap="round"/>
</svg>
