<svg width="363" height="216" viewBox="0 0 363 216" fill="none" xmlns="http://www.w3.org/2000/svg">
<g clip-path="url(#clip0_3405_2051)">
<path d="M116.562 49.3116C131.861 58.3653 127.135 62.879 123.182 69.558C119.229 76.237 117.236 82.3683 102.248 73.4983C94.6397 68.9955 91.6759 59.9308 95.6285 53.2519C99.5812 46.5729 108.953 44.8088 116.562 49.3116Z" fill="white"/>
<path d="M138.987 50.8595C138.987 59.2922 136.045 59.3422 132.417 59.3422C128.789 59.3422 125.848 59.2922 125.848 50.8595C125.848 42.4269 129.874 35.5908 132.417 35.5908C134.96 35.5908 138.987 42.4269 138.987 50.8595Z" fill="#6A5B3D"/>
<path d="M218.326 50.8595C218.326 59.2922 215.385 59.3422 211.757 59.3422C208.128 59.3422 205.187 59.2922 205.187 50.8595C205.187 42.4269 209.213 35.5908 211.757 35.5908C214.3 35.5908 218.326 42.4269 218.326 50.8595Z" fill="#6A5B3D"/>
<path d="M229.056 49.3116C213.757 58.3653 218.483 62.879 222.436 69.558C226.388 76.237 228.381 82.3683 243.369 73.4983C250.978 68.9955 253.942 59.9308 249.989 53.2519C246.037 46.5729 236.664 44.8088 229.056 49.3116Z" fill="#123041"/>
<path d="M232.831 57.0303C225.206 61.5428 227.18 63.1482 228.68 65.6823C230.18 68.2164 230.792 70.628 238.262 66.2071C242.054 63.9629 243.913 60.0893 242.413 57.5552C240.913 55.021 236.623 54.7861 232.831 57.0303Z" fill="#FFCACA"/>
<path d="M112.333 57.0303C119.958 61.5428 117.984 63.1482 116.484 65.6823C114.984 68.2164 114.372 70.628 106.902 66.2071C103.11 63.9629 101.251 60.0893 102.751 57.5552C104.251 55.021 108.541 54.7861 112.333 57.0303Z" fill="#FFCACA"/>
<path d="M224.894 162.54C225.118 149.482 208.74 135.129 200.524 129.585C199.403 129.585 196.714 130.017 194.921 131.741C192.68 133.897 201.924 163.772 205.286 170.24C208.647 176.708 224.614 178.864 224.894 162.54Z" fill="#E7EAEE"/>
<path d="M201.688 206.125C205.312 204.643 208.842 184.897 208.126 175.067L173.313 180.623C172.597 188.601 172.55 204.871 174.266 206.125C176.413 207.692 197.158 207.977 201.688 206.125Z" fill="#E7EAEE"/>
<path d="M204.409 184.254C215.244 177.049 200.597 132.103 190.014 126.442C179.431 120.78 162.218 121.638 154.659 126.442C147.099 131.245 128.419 176.877 139.254 184.254C150.089 191.63 193.574 191.459 204.409 184.254Z" fill="white"/>
<path fill-rule="evenodd" clip-rule="evenodd" d="M140.15 154.111C142.901 155.314 145.282 157.155 146.315 159.908C148.74 166.376 157.096 169.172 160.97 169.761C161.012 169.776 170.649 173.184 173.604 178.353C175.453 181.588 175.539 187.011 175.454 189.671C160.735 190.048 145.154 188.27 139.254 184.253C133.799 180.539 135.827 167.127 140.15 154.111Z" fill="#123041"/>
<path d="M142.486 206.125C138.861 204.643 135.332 184.897 136.048 175.067L170.861 180.623C171.577 188.601 171.624 204.871 169.907 206.125C167.761 207.692 147.016 207.977 142.486 206.125Z" fill="#123041"/>
<path d="M200.639 167.95C200.639 181.431 189.1 184.668 174.866 184.668C160.633 184.668 149.094 181.431 149.094 167.95C149.094 150.229 160.633 140.198 174.866 140.198C189.1 140.198 200.639 150.229 200.639 167.95Z" fill="#FFC0C1"/>
<path d="M174.649 180.12C174.753 180.121 174.856 180.101 174.952 180.062C175.048 180.023 175.135 179.966 175.209 179.893L178.719 176.362C178.849 176.212 178.916 176.019 178.909 175.821C178.901 175.624 178.819 175.436 178.678 175.297C178.538 175.157 178.349 175.075 178.151 175.067C177.952 175.06 177.758 175.127 177.607 175.256L174.089 178.747C174.015 178.82 173.956 178.907 173.916 179.003C173.876 179.098 173.856 179.201 173.856 179.304C173.856 179.408 173.876 179.51 173.916 179.606C173.956 179.702 174.015 179.788 174.089 179.861C174.16 179.94 174.246 180.003 174.343 180.048C174.439 180.092 174.543 180.117 174.649 180.12Z" fill="#FF8D8D"/>
<path d="M178.122 180.12C178.225 180.121 178.327 180.101 178.422 180.062C178.518 180.023 178.605 179.966 178.678 179.893C178.751 179.821 178.809 179.734 178.849 179.639C178.889 179.543 178.909 179.441 178.909 179.338C178.909 179.234 178.889 179.132 178.849 179.037C178.809 178.941 178.751 178.855 178.678 178.782L175.195 175.298C175.122 175.225 175.035 175.167 174.94 175.127C174.845 175.087 174.742 175.067 174.639 175.067C174.536 175.067 174.433 175.087 174.338 175.127C174.243 175.167 174.156 175.225 174.083 175.298C173.938 175.445 173.856 175.643 173.856 175.85C173.856 176.057 173.938 176.256 174.083 176.402L177.574 179.893C177.72 180.038 177.917 180.119 178.122 180.12Z" fill="#FF8D8D"/>
<path d="M211.251 136.155C206.804 132.314 201.818 130.175 199.881 129.585L196.596 131.607L198.618 145.504L206.198 159.654C206.787 157.716 210.493 154.095 212.262 152.326C215.041 149.547 218.326 148.031 221.106 146.767C219.674 144.83 215.698 139.996 211.251 136.155Z" fill="#7FC7C5"/>
<path d="M221.106 146.768C218.326 148.031 215.042 149.547 212.262 152.326C210.494 154.095 208.556 157.464 207.967 159.401" stroke="#DEDEDE" stroke-width="2.52674" stroke-linecap="round"/>
<path d="M136.207 190.227C135.197 183.152 135.786 177.846 136.207 176.078L208.219 175.067C208.556 176.836 209.129 181.232 208.724 184.668C208.32 188.105 206.198 197.639 205.187 201.598C202.66 202.608 195.838 203.619 190.532 203.619C183.71 203.619 173.35 202.861 173.097 202.608C172.845 202.356 172.592 190.48 172.087 190.48C171.581 190.48 171.581 202.103 171.329 202.608C171.076 203.114 160.969 203.619 155.41 203.619C150.963 203.619 142.777 202.945 139.239 202.608C138.65 201.429 137.218 197.302 136.207 190.227Z" fill="#9EE7E5"/>
<path d="M139.239 202.608C142.777 202.945 150.963 203.619 155.41 203.619C160.969 203.619 170.571 203.114 170.823 202.608M173.856 202.608C174.108 202.861 184.468 203.619 191.29 203.619C196.596 203.619 202.913 202.608 205.44 201.598" stroke="#EEEEEE" stroke-width="2.52674" stroke-linecap="round"/>
<path d="M153.894 184.416C145.202 183.81 138.987 181.384 135.196 178.857C135.196 174.056 135.954 162.383 136.965 155.106C137.976 147.829 140.924 135.903 142.777 129.838C145.388 132.365 152.025 138.177 157.684 141.209C163.344 144.241 172.003 146.178 175.624 146.768V184.416C172.003 184.669 162.586 185.022 153.894 184.416Z" fill="#9EE7E5"/>
<path d="M135.197 178.857C138.987 181.384 145.203 183.809 153.895 184.416C162.587 185.022 172.003 184.668 175.625 184.416" stroke="#EEEEEE" stroke-width="4.04278" stroke-linecap="round" stroke-linejoin="round"/>
<path d="M191.543 139.692C188.511 141.714 174.867 148.199 170.824 149.799L171.834 184.416C175.54 184.163 188.359 183.405 193.817 182.394C199.275 181.384 205.608 179.446 208.219 178.604C208.641 176.92 209.878 172.641 208.977 166.223C206.956 151.821 201.06 141.966 197.354 133.881C196.681 134.976 194.575 137.671 191.543 139.692Z" fill="#9EE7E5"/>
<path d="M176.13 147.02C180.173 145.42 186.449 142.506 189.269 140.198C192.048 137.924 195.67 135.229 196.344 134.134M208.219 178.604C205.609 179.447 199.275 181.384 193.817 182.394C188.359 183.405 175.035 184.416 171.329 184.669" stroke="#EEEEEE" stroke-width="4.04278" stroke-linecap="round" stroke-linejoin="round"/>
<path d="M120.796 162.54C120.572 149.482 136.95 135.129 145.166 129.585C146.287 129.585 148.976 130.017 150.769 131.741C153.01 133.897 143.766 163.772 140.404 170.24C137.043 176.708 121.076 178.864 120.796 162.54Z" fill="white"/>
<path d="M134.186 153.59C129.335 150.154 123.658 150.895 122.058 151.316C127.532 144.915 137.291 128.832 147.072 133.881C154.905 137.924 147.999 154.685 143.788 163.697C142.777 161.002 139.037 157.027 134.186 153.59Z" fill="#9EE7E5"/>
<path d="M175.624 146.768C172.003 146.178 163.345 144.241 157.685 141.209C152.025 138.177 145.388 132.365 142.777 129.838" stroke="#EEEEEE" stroke-width="4.04278" stroke-linecap="round" stroke-linejoin="round"/>
<path d="M123.321 151.193C124.772 150.76 129.921 149.996 134.321 153.536C138.721 157.077 142.113 161.172 143.029 163.949" stroke="#EEEEEE" stroke-width="2.52674" stroke-linecap="round" stroke-linejoin="round"/>
<path d="M236.014 101.54C236.014 127.915 207.092 136.661 171.941 136.661C136.79 136.661 107.655 127.915 107.655 101.54C107.655 56.5687 136.79 41.1499 171.941 41.1499C207.092 41.1499 236.014 54.4272 236.014 101.54Z" fill="white"/>
<path d="M176.409 41.2246C206.875 42.2569 231.751 54.2761 235.518 91.3496C218.558 92.7282 215.568 79.8247 210.098 74.7754C204.531 69.6364 192.968 72.42 183.974 65.1396C178.461 60.6761 176.704 49.6397 176.409 41.2246Z" fill="#123041"/>
<path d="M141.008 96.7378V104.823" stroke="#123041" stroke-width="7.58021" stroke-linecap="round"/>
<path d="M208.725 96.7378V104.823" stroke="#123041" stroke-width="7.58021" stroke-linecap="round"/>
<path d="M151.115 115.537C151.115 105.154 159.532 96.7378 169.914 96.7378H179.314C189.696 96.7378 198.113 105.154 198.113 115.537C198.113 122.458 192.502 128.069 185.58 128.069H163.648C156.726 128.069 151.115 122.458 151.115 115.537Z" fill="#FFC0C1"/>
<path d="M164.759 110.888V116.447" stroke="#123041" stroke-width="5.05348" stroke-linecap="round"/>
<path d="M184.973 110.888L184.973 116.447" stroke="#123041" stroke-width="5.05348" stroke-linecap="round"/>
<path d="M125.848 116.446H133.428" stroke="#FFC0C1" stroke-width="10.107" stroke-linecap="round"/>
<path d="M216.305 116.446H223.885" stroke="#FFC0C1" stroke-width="10.107" stroke-linecap="round"/>
<circle cx="177.393" cy="156.369" r="2.02139" fill="white"/>
<circle cx="178.404" cy="177.088" r="2.02139" fill="white"/>
<circle cx="177.898" cy="165.465" r="2.02139" fill="white"/>
<circle cx="208.472" cy="100.526" r="10.865" fill="#337A37"/>
<circle cx="208.472" cy="100.526" r="9.85428" fill="#B3D875"/>
<circle cx="208.472" cy="100.526" r="8.84358" fill="#D9EC9C"/>
<path d="M203.699 102.432C204.87 102.432 206.918 101.421 207.503 100.916C206.918 100.41 204.87 99.3996 203.699 99.3996C202.822 99.3996 201.944 99.6522 201.944 100.916C201.944 102.179 202.822 102.432 203.699 102.432Z" fill="white"/>
<path d="M205.583 96.8062C205.945 97.9192 207.539 99.5547 208.201 99.955C208.5 99.2423 208.829 96.9823 208.467 95.8693C208.196 95.0345 207.684 94.2778 206.483 94.6682C205.281 95.0586 205.312 95.9715 205.583 96.8062Z" fill="white"/>
<path d="M211.517 96.8629C210.57 97.5507 209.507 99.5722 209.331 100.325C210.101 100.39 212.352 100.004 213.299 99.3159C214.009 98.8 214.571 98.0796 213.828 97.0576C213.086 96.0355 212.227 96.347 211.517 96.8629Z" fill="white"/>
<path d="M213.3 102.521C212.353 101.833 210.102 101.447 209.331 101.512C209.508 102.265 210.571 104.286 211.517 104.974C212.227 105.49 213.086 105.801 213.829 104.779C214.571 103.757 214.01 103.037 213.3 102.521Z" fill="white"/>
<path d="M208.468 105.966C208.829 104.853 208.501 102.593 208.201 101.88C207.54 102.28 205.946 103.916 205.584 105.029C205.313 105.864 205.282 106.776 206.483 107.167C207.685 107.557 208.197 106.801 208.468 105.966Z" fill="white"/>
<circle cx="141.261" cy="100.024" r="10.865" fill="#337A37"/>
<circle cx="141.261" cy="100.024" r="9.85428" fill="#B3D875"/>
<circle cx="141.261" cy="100.024" r="8.84358" fill="#D9EC9C"/>
<path d="M136.7 101.434C137.87 101.434 139.918 100.423 140.503 99.9176C139.918 99.4122 137.87 98.4015 136.7 98.4015C135.822 98.4015 134.944 98.6542 134.944 99.9176C134.944 101.181 135.822 101.434 136.7 101.434Z" fill="white"/>
<path d="M138.584 95.8082C138.946 96.9212 140.54 98.5566 141.201 98.9569C141.501 98.2443 141.829 95.9842 141.468 94.8712C141.196 94.0365 140.685 93.2798 139.483 93.6702C138.282 94.0606 138.313 94.9734 138.584 95.8082Z" fill="white"/>
<path d="M144.517 95.8648C143.571 96.5527 142.508 98.5741 142.331 99.3269C143.102 99.3918 145.353 99.0057 146.3 98.3178C147.01 97.8019 147.571 97.0816 146.829 96.0595C146.086 95.0374 145.227 95.3489 144.517 95.8648Z" fill="white"/>
<path d="M146.3 101.523C145.353 100.835 143.102 100.449 142.332 100.514C142.508 101.267 143.571 103.288 144.518 103.976C145.228 104.492 146.087 104.803 146.829 103.781C147.572 102.759 147.01 102.039 146.3 101.523Z" fill="white"/>
<path d="M141.468 104.968C141.83 103.855 141.502 101.595 141.202 100.882C140.54 101.282 138.946 102.918 138.585 104.031C138.313 104.865 138.282 105.778 139.484 106.169C140.685 106.559 141.197 105.802 141.468 104.968Z" fill="white"/>
</g>
<path d="M312.062 32.5345C312.384 31.6639 313.616 31.6639 313.938 32.5345L317.972 43.437C318.073 43.7108 318.289 43.9266 318.563 44.0278L329.465 48.0621C330.336 48.3843 330.336 49.6157 329.465 49.9379L318.563 53.9722C318.289 54.0734 318.073 54.2892 317.972 54.563L313.938 65.4655C313.616 66.3361 312.384 66.3361 312.062 65.4655L308.028 54.563C307.927 54.2892 307.711 54.0734 307.437 53.9722L296.535 49.9379C295.664 49.6157 295.664 48.3843 296.535 48.0621L307.437 44.0278C307.711 43.9266 307.927 43.7108 308.028 43.437L312.062 32.5345Z" fill="white"/>
<path d="M284 49L292 49" stroke="white" stroke-width="2" stroke-linecap="round"/>
<path d="M278 49L279 49" stroke="white" stroke-width="2" stroke-linecap="round"/>
<path d="M334 49L342 49" stroke="white" stroke-width="2" stroke-linecap="round"/>
<path d="M347 49L348 49" stroke="white" stroke-width="2" stroke-linecap="round"/>
<path d="M313 20L313 28" stroke="white" stroke-width="2" stroke-linecap="round"/>
<path d="M313 14L313 15" stroke="white" stroke-width="2" stroke-linecap="round"/>
<path d="M313 71L313 78" stroke="white" stroke-width="2" stroke-linecap="round"/>
<path d="M313 83L313 85" stroke="white" stroke-width="2" stroke-linecap="round"/>
<circle cx="312.773" cy="49.2344" r="21.3743" transform="rotate(-45 312.773 49.2344)" stroke="white" stroke-width="2" stroke-linecap="round" stroke-linejoin="round" stroke-dasharray="50 50"/>
<path d="M49.0621 143.535C49.3843 142.664 50.6157 142.664 50.9379 143.535L53.0815 149.328C53.1828 149.601 53.3986 149.817 53.6723 149.918L59.4655 152.062C60.3361 152.384 60.3361 153.616 59.4655 153.938L53.6723 156.082C53.3986 156.183 53.1828 156.399 53.0815 156.672L50.9379 162.465C50.6157 163.336 49.3843 163.336 49.0621 162.465L46.9185 156.672C46.8172 156.399 46.6014 156.183 46.3277 156.082L40.5345 153.938C39.6639 153.616 39.6639 152.384 40.5345 152.062L46.3277 149.918C46.6014 149.817 46.8172 149.601 46.9185 149.328L49.0621 143.535Z" fill="white"/>
<path d="M56 153H66" stroke="white" stroke-width="2" stroke-linecap="round"/>
<path d="M34 153H42" stroke="white" stroke-width="2" stroke-linecap="round"/>
<path d="M50 159L50 169" stroke="white" stroke-width="2" stroke-linecap="round"/>
<path d="M50 137L50 147" stroke="white" stroke-width="2" stroke-linecap="round"/>
<ellipse cx="50.5" cy="152.5" rx="11.5" ry="11.5" transform="rotate(-90 50.5 152.5)" stroke="white" stroke-width="2" stroke-linecap="round" stroke-linejoin="round"/>
<path d="M351.34 113.287C352.221 113.287 352.935 114.001 352.935 114.882V121.083C352.935 121.964 352.221 122.678 351.34 122.678C350.459 122.678 349.745 121.964 349.745 121.083V114.882C349.745 114.001 350.459 113.287 351.34 113.287ZM347.796 109.92C348.677 109.92 349.391 110.634 349.391 111.515C349.39 112.395 348.676 113.109 347.796 113.109H341.595C340.714 113.109 340 112.395 340 111.515C340 110.634 340.714 109.92 341.595 109.92H347.796ZM361.085 109.92C361.966 109.92 362.679 110.634 362.68 111.515C362.68 112.395 361.966 113.109 361.085 113.109H354.884C354.003 113.109 353.289 112.395 353.289 111.515C353.289 110.634 354.003 109.92 354.884 109.92H361.085ZM351.34 100C352.22 100 352.935 100.714 352.935 101.595V107.796C352.935 108.677 352.22 109.391 351.34 109.391C350.459 109.391 349.745 108.677 349.745 107.796V101.595C349.745 100.714 350.459 100 351.34 100Z" fill="white"/>
<defs>
<clipPath id="clip0_3405_2051">
<rect width="159.184" height="189" fill="white" transform="translate(93 27)"/>
</clipPath>
</defs>
</svg>
