<svg width="188" height="189" viewBox="0 0 188 189" fill="none" xmlns="http://www.w3.org/2000/svg">
<g clip-path="url(#clip0_2486_253)">
<path d="M67.342 104.978C69.9763 105.11 81.8329 93.9663 88.0027 87.9666C89.7323 82.0009 79.9866 70.0679 75.8757 70.8522C71.7648 71.6364 64.8229 87.9919 64.1992 90.8448C63.628 93.4572 64.2685 104.824 67.342 104.978Z" fill="#FFDB40"/>
<path d="M78.2102 97.8602C80.9937 97.826 113.554 76.5587 115.032 73.8096C116.51 71.0605 114.291 58.5957 111.02 56.4512C107.749 54.3066 89.4987 50.7077 71.5233 63.5189C53.5479 76.3301 75.4268 97.8944 78.2102 97.8602Z" fill="#FFDB40"/>
<path d="M123.984 12.4336C102.361 12.4336 84.4394 21.9182 84.4394 49.5817C84.4394 52.6126 82.4614 54.8796 83.4418 59.2896C87.3674 76.9478 106.269 71.1856 123.853 71.1856C141.436 71.1856 160.469 76.9478 164.395 59.2896C165.375 54.8796 163.397 52.6126 163.397 49.5817C163.397 20.6009 145.606 12.4336 123.984 12.4336Z" fill="#FFDB40"/>
<path d="M98.4274 57.5098C98.4274 57.5098 99.752 56.9921 100.695 56.8415C101.738 56.6748 103.39 56.8415 103.39 56.8415" stroke="#FFA052" stroke-width="6.21715" stroke-linecap="round"/>
<path d="M151.9 56.8398C151.9 56.8398 153.408 56.6703 154.35 56.8398C155.145 56.9832 156.31 57.5081 156.31 57.5081" stroke="#FFA052" stroke-width="6.21715" stroke-linecap="round"/>
<path d="M134.487 53.4676C134.487 56.3004 130.938 57.5088 126.56 57.5088C122.182 57.5088 118.633 56.3004 118.633 53.4676C118.633 50.6349 122.182 47.2505 126.56 47.2505C130.938 47.2505 134.487 50.6349 134.487 53.4676Z" fill="#FFB132"/>
<path d="M118.093 1.62353C122.809 5.80521 125.518 10.495 126.319 14.7634L118.021 13.8785C114.604 13.5141 111.33 9.48626 111.481 4.59729C111.633 -0.291688 115.695 -0.502998 118.093 1.62353Z" fill="#FFDB40"/>
<path d="M66.2366 62.8804C68.7043 64.8483 70.1818 67.1228 70.6943 69.2365L66.5209 69.011C64.8025 68.9182 63.0601 66.9895 63.0077 64.5406C62.9554 62.0916 64.9816 61.8797 66.2366 62.8804Z" fill="#FFDB40"/>
<path d="M62.9438 67.4384C65.209 67.5367 67.0292 68.2319 68.2211 69.2421L65.7029 70.8771C64.666 71.5504 62.8384 71.1679 61.7718 69.7684C60.7052 68.3688 61.7918 67.3884 62.9438 67.4384Z" fill="#FFDB40"/>
<path d="M126.754 8.23006C125.286 9.66362 124.915 12.7877 124.913 14.1705C127.757 13.9077 132.529 13.0333 133.385 11.2121C134.241 9.39081 133.707 7.12651 132.665 6.58679C131.623 6.04708 128.589 6.43811 126.754 8.23006Z" fill="#FFDB40"/>
<path d="M143.813 49.1152L146.299 49.737" stroke="#123041" stroke-width="4.66286" stroke-linecap="round"/>
<path d="M111.172 49.1152L108.686 49.737" stroke="#123041" stroke-width="4.66286" stroke-linecap="round"/>
</g>
<path d="M16.2972 161.831C19.2371 164.771 44.8807 164.281 58.4374 163.791C66.7674 158.646 67.9924 134.391 62.3574 130.961C56.7224 127.531 31.313 139.31 27.5672 141.986C24.1372 144.436 12.8671 158.401 16.2972 161.831Z" fill="#E7EAEE"/>
<path d="M0.641975 173.46C3.58186 176.399 29.2254 175.91 42.7821 175.42C51.1121 170.275 52.3371 146.02 46.7021 142.59C41.0671 139.16 15.6577 150.939 11.912 153.615C8.48198 156.065 -2.78814 170.029 0.641975 173.46Z" fill="white"/>
<path d="M37.3066 174.635C41.0094 176.989 102.312 176.989 106.632 174.635C110.952 172.281 118.769 153.918 116.3 148.269C113.832 142.619 92.8492 122.138 58.0836 123.55C23.3181 124.963 33.6038 172.281 37.3066 174.635Z" fill="white"/>
<path d="M173.716 157.261C161.794 152.99 143.516 163.561 135.867 169.381C135.519 170.41 135.077 173.014 136.103 175.197C137.385 177.926 167.697 178.737 174.683 177.664C181.669 176.59 188.619 162.599 173.716 157.261Z" fill="#E7EAEE"/>
<path d="M149.14 56.3516C129.344 56.3516 127.988 78.2382 129.785 89.1816L139.095 86.4866C143.341 92.9382 154.922 103.833 167.27 95.7966C182.705 85.7516 173.885 56.3516 149.14 56.3516Z" fill="#EFEFEF"/>
<path d="M181.79 142.345C181.79 167.919 153.747 176.399 119.663 176.399C85.5792 176.399 57.3297 167.919 57.3297 142.345C57.3297 98.7396 85.5792 83.7891 119.663 83.7891C153.747 83.7891 181.79 96.6631 181.79 142.345Z" fill="white"/>
<path d="M151.9 141.609L155.819 142.589" stroke="#123041" stroke-width="7.35" stroke-linecap="round"/>
<path d="M100.45 141.609L96.5302 142.589" stroke="#123041" stroke-width="7.35" stroke-linecap="round"/>
<path d="M81.8297 153.859H89.1797" stroke="#FFC0C1" stroke-width="9.8" stroke-linecap="round"/>
<path d="M163.17 153.859H170.52" stroke="#FFC0C1" stroke-width="9.8" stroke-linecap="round"/>
<path d="M124.171 135.73C125.133 135.73 125.574 136.131 126.175 136.532C126.776 136.131 127.217 135.73 128.178 135.73C129.381 135.73 130.079 136.991 129.781 137.735C129.38 138.737 127.911 139.74 126.175 140.14C124.438 139.74 122.969 138.737 122.568 137.735C122.27 136.991 122.969 135.73 124.171 135.73Z" fill="#FFC0C1"/>
<path d="M99.2356 157.261C87.3135 152.99 69.0355 163.561 61.3869 169.381C61.0381 170.41 60.5969 173.014 61.6227 175.197C62.9049 177.926 93.2167 178.737 100.202 177.664C107.188 176.59 114.138 162.599 99.2356 157.261Z" fill="#E7EAEE"/>
<circle cx="8.085" cy="8.085" r="8.085" transform="matrix(-1 0 0 1 51.6017 115.148)" fill="white"/>
<mask id="mask0_2486_253" style="mask-type:alpha" maskUnits="userSpaceOnUse" x="57" y="83" width="125" height="94">
<path d="M181.79 142.346C181.79 167.92 153.747 176.4 119.663 176.4C85.5792 176.4 57.3297 167.92 57.3297 142.346C57.3297 98.7405 85.5792 83.79 119.663 83.79C153.747 83.79 181.79 96.6641 181.79 142.346Z" fill="white"/>
</mask>
<g mask="url(#mask0_2486_253)">
<path d="M149.14 55.6152C144.047 55.6153 140.088 57.0267 137.063 59.3594C134.045 61.6859 132.007 64.8902 130.678 68.4014C128.027 75.4036 128.149 83.7534 129.06 89.2998L129.369 91.1875L130.403 89.5781L134.972 82.4639C135.19 82.6223 135.531 82.9314 136.026 83.5127C136.629 84.2203 137.428 85.2911 138.481 86.8896C140.653 90.1894 144.698 94.6296 149.812 97.2285C154.962 99.8459 161.231 100.603 167.671 96.4121C175.766 91.1442 177.412 80.8636 173.957 72.0381C170.488 63.1765 161.841 55.6152 149.14 55.6152Z" stroke="#DCDCDC" stroke-width="1.47"/>
<path d="M108.535 55.6152C103.51 55.6153 99.9358 56.5205 97.4615 58.1396C94.9618 59.7755 93.6656 62.088 93.1041 64.7109C92.5484 67.3073 92.7083 70.2212 93.1022 73.125C93.4928 76.0051 94.1407 79.0309 94.5797 81.7051L94.6041 81.8564L94.6881 81.9863L97.8737 86.8857L97.8756 86.8896C100.048 90.1894 104.093 94.6296 109.207 97.2285C114.357 99.8459 120.626 100.603 127.066 96.4121C135.161 91.1442 136.807 80.8636 133.352 72.0381C129.883 63.1765 121.237 55.6152 108.535 55.6152Z" stroke="#DCDCDC" stroke-width="1.47"/>
</g>
<path d="M149.14 56.3516C129.344 56.3516 127.988 78.2382 129.785 89.1816L134.505 81.8316C134.505 81.8316 134.848 80.0349 139.095 86.4866C143.341 92.9382 154.922 103.833 167.27 95.7966C182.705 85.7516 173.885 56.3516 149.14 56.3516Z" fill="#E7EAEE"/>
<path d="M108.535 56.3516C88.739 56.3516 87.3834 78.2382 89.18 89.1816L98.4897 86.4866C102.737 92.9382 114.317 103.833 126.665 95.7966C142.1 85.7516 133.28 56.3516 108.535 56.3516Z" fill="white"/>
<path d="M92.9544 81.6583C85.9726 77.6834 86.9995 71.5798 88.7354 66.083C89.0866 65.49 90.1578 64.2019 91.6327 63.7937C93.4762 63.2835 100.807 69.8875 103.176 73.694C105.546 77.5006 101.682 86.6271 92.9544 81.6583Z" fill="#FFDB40"/>
<defs>
<clipPath id="clip0_2486_253">
<rect width="149.45" height="128.38" fill="white" transform="matrix(-1 0 0 1 187.18 0)"/>
</clipPath>
</defs>
</svg>
