<svg width="196" height="159" viewBox="0 0 196 159" fill="none" xmlns="http://www.w3.org/2000/svg">
<path d="M68.6124 104.978C71.2467 105.11 83.1033 93.9663 89.273 87.9666C91.0027 82.0009 81.257 70.0679 77.1461 70.8522C73.0352 71.6364 66.0933 87.9919 65.4695 90.8448C64.8984 93.4572 65.5389 104.824 68.6124 104.978Z" fill="#FFDB40"/>
<path d="M79.4806 97.8602C82.2641 97.826 114.824 76.5587 116.302 73.8096C117.78 71.0605 115.562 58.5957 112.29 56.4512C109.019 54.3066 90.7691 50.7077 72.7937 63.5189C54.8183 76.3301 76.6972 97.8944 79.4806 97.8602Z" fill="#FFDB40"/>
<path d="M125.254 12.4336C103.631 12.4336 85.7097 21.9182 85.7097 49.5817C85.7097 52.6126 83.7318 54.8796 84.7122 59.2896C88.6378 76.9478 107.54 71.1856 125.123 71.1856C142.706 71.1856 161.739 76.9478 165.665 59.2896C166.645 54.8796 164.667 52.6126 164.667 49.5817C164.667 20.6009 146.877 12.4336 125.254 12.4336Z" fill="#FFDB40"/>
<path d="M99.6978 57.5098C99.6978 57.5098 101.022 56.9921 101.965 56.8415C103.009 56.6748 104.66 56.8415 104.66 56.8415" stroke="#FFA052" stroke-width="6.21715" stroke-linecap="round"/>
<path d="M153.17 56.8398C153.17 56.8398 154.678 56.6703 155.62 56.8398C156.416 56.9832 157.58 57.5081 157.58 57.5081" stroke="#FFA052" stroke-width="6.21715" stroke-linecap="round"/>
<path d="M135.758 53.4676C135.758 56.3004 132.209 57.5088 127.831 57.5088C123.453 57.5088 119.904 56.3004 119.904 53.4676C119.904 50.6349 123.453 47.2505 127.831 47.2505C132.209 47.2505 135.758 50.6349 135.758 53.4676Z" fill="#FFB132"/>
<path d="M119.364 1.62353C124.079 5.80521 126.788 10.495 127.59 14.7634L119.291 13.8785C115.874 13.5141 112.601 9.48626 112.752 4.59729C112.903 -0.291688 116.966 -0.502998 119.364 1.62353Z" fill="#FFDB40"/>
<path d="M67.5069 62.8804C69.9747 64.8483 71.4521 67.1228 71.9646 69.2365L67.7913 69.011C66.0729 68.9182 64.3305 66.9895 64.2781 64.5406C64.2258 62.0916 66.252 61.8797 67.5069 62.8804Z" fill="#FFDB40"/>
<path d="M64.2141 67.4384C66.4794 67.5367 68.2996 68.2319 69.4914 69.2421L66.9733 70.8771C65.9364 71.5504 64.1088 71.1679 63.0422 69.7684C61.9756 68.3688 63.0622 67.3884 64.2141 67.4384Z" fill="#FFDB40"/>
<path d="M128.025 8.23006C126.556 9.66362 126.185 12.7877 126.183 14.1705C129.027 13.9077 133.8 13.0333 134.656 11.2121C135.511 9.39081 134.978 7.12651 133.936 6.58679C132.894 6.04708 129.86 6.43811 128.025 8.23006Z" fill="#FFDB40"/>
<path d="M145.083 49.1152L147.57 49.737" stroke="#123041" stroke-width="4.66286" stroke-linecap="round"/>
<path d="M112.443 49.1152L109.956 49.737" stroke="#123041" stroke-width="4.66286" stroke-linecap="round"/>
<g clip-path="url(#clip0_3400_2050)">
<path d="M30.2757 139.401C33.1162 142.241 57.8926 141.768 70.9908 141.295C79.0391 136.324 80.2227 112.889 74.7783 109.575C69.3338 106.261 44.7837 117.642 41.1646 120.227C37.8506 122.594 26.9616 136.087 30.2757 139.401Z" fill="#5C9A15"/>
<path d="M15.1498 150.638C17.9902 153.478 42.7666 153.005 55.8649 152.532C63.9132 147.56 65.0967 124.126 59.6523 120.812C54.2078 117.498 29.6577 128.879 26.0387 131.464C22.7246 133.831 11.8357 147.324 15.1498 150.638Z" fill="#5BB42B"/>
<path d="M50.5743 151.77C54.1519 154.044 113.381 154.044 117.555 151.77C121.729 149.495 129.282 131.754 126.897 126.295C124.512 120.836 104.239 101.048 70.6487 102.412C37.0588 103.777 46.9967 149.495 50.5743 151.77Z" fill="#5BB42B"/>
<path d="M183.938 134.985C172.419 130.859 154.759 141.073 147.369 146.696C147.032 147.69 146.606 150.205 147.597 152.315C148.836 154.951 178.123 155.735 184.872 154.698C191.622 153.661 198.337 140.143 183.938 134.985Z" fill="#5C9A15"/>
<ellipse cx="90.7069" cy="87.2382" rx="18.9238" ry="20.3928" transform="rotate(-28.6896 90.7069 87.2382)" fill="#5BB42B"/>
<ellipse cx="18.9238" cy="20.3928" rx="18.9238" ry="20.3928" transform="matrix(-0.877234 -0.480064 -0.480064 0.877234 199.314 77.9062)" fill="#5BB42B"/>
<path d="M193.089 119.992C193.089 144.962 165.568 153.242 132.118 153.242C98.6684 153.242 70.9443 144.962 70.9443 119.992C70.9443 84.1213 98.6684 68.7349 132.118 68.7349C165.568 68.7349 193.089 81.2808 193.089 119.992Z" fill="#5BB42B"/>
<path d="M83.7271 111.342H91.7754" stroke="#A1DC3C" stroke-width="9.4686" stroke-linecap="round"/>
<path d="M171.312 111.342H179.36" stroke="#A1DC3C" stroke-width="9.4686" stroke-linecap="round"/>
<path d="M170.908 93.3516L174.695 94.2985" stroke="#123041" stroke-width="7.10145" stroke-linecap="round"/>
<path d="M98 93.8276L94.2129 94.7746" stroke="#123041" stroke-width="7.10145" stroke-linecap="round"/>
<path d="M111.977 134.985C100.458 130.859 82.798 141.073 75.4079 146.696C75.0709 147.69 74.6447 150.205 75.6358 152.315C76.8746 154.951 106.161 155.735 112.911 154.698C119.66 153.661 126.375 140.143 111.977 134.985Z" fill="#5C9A15"/>
<path d="M152.444 95.4804C151.419 96.1906 148.61 97.6109 145.58 97.6109C141.792 97.6109 140.372 94.2969 136.348 94.2969C132.324 94.2969 130.903 97.6109 127.116 97.6109C124.086 97.6109 121.277 96.1906 120.251 95.4804" stroke="#4B890D" stroke-width="2.36715" stroke-linecap="round"/>
</g>
<defs>
<clipPath id="clip0_3400_2050">
<rect width="196" height="94.2126" fill="white" transform="matrix(-1 0 0 1 196 64)"/>
</clipPath>
</defs>
</svg>
