<svg width="1440" height="198" viewBox="0 0 1440 198" fill="none" xmlns="http://www.w3.org/2000/svg">
<path fill-rule="evenodd" clip-rule="evenodd" d="M255 117.215C255 129.799 244.799 140 232.215 140L145.645 140C132.586 140 122 129.414 122 116.355C122 103.296 111.414 92.7102 98.3551 92.7102L-4.13422e-06 92.7102C-22.0914 92.7102 -40 74.8016 -40 52.7102L-40 8.89719C-40 -13.1942 -22.0914 -31.1028 -1.49583e-05 -31.1028L80 -31.1028C102.091 -31.1028 120 -49.0114 120 -71.1028L120 -105.304C120 -112.76 126.044 -118.804 133.5 -118.804C140.956 -118.804 147 -112.76 147 -105.304L147 -98.1681C147 -86.7714 156.239 -77.5325 167.636 -77.5325L239.953 -77.5325C248.263 -77.5325 255 -70.7959 255 -62.4859C255 -54.1759 261.737 -47.4392 270.047 -47.4393L312 -47.4393C334.091 -47.4393 352 -65.3479 352 -87.4392L352 -123.5C352 -130.404 357.596 -136 364.5 -136C371.404 -136 377 -130.404 377 -123.5L377 -100.748C377 -81.2783 392.783 -65.4953 412.252 -65.4953L535.673 -65.4953C543.033 -65.4953 549 -71.4621 549 -78.8224C549 -86.1828 554.967 -92.1495 562.327 -92.1495L826.523 -92.1495C835.071 -92.1495 842 -99.0787 842 -107.626L842 -110.603C842 -117.506 847.596 -123.103 854.5 -123.103C861.404 -123.103 867 -117.506 867 -110.603L867 -100.318C867 -87.7339 877.201 -77.5327 889.785 -77.5327L978.626 -77.5327C994.297 -77.5327 1007 -90.2361 1007 -105.907L1007 -121.78C1007 -128.684 1012.6 -134.28 1019.5 -134.28C1026.4 -134.28 1032 -128.684 1032 -121.78L1032 -99.028C1032 -79.5587 1047.78 -63.7757 1067.25 -63.7757L1086.66 -63.7757C1095.69 -63.7757 1103 -71.0898 1103 -80.1121C1103 -89.1345 1110.31 -96.4486 1119.34 -96.4486L1258.37 -96.4486C1268.11 -96.4486 1276 -88.5571 1276 -78.8224C1276 -69.0878 1283.89 -61.1963 1293.63 -61.1963L1386.6 -61.1963C1407.25 -61.1963 1424 -77.9417 1424 -98.5981L1424 -123.5C1424 -130.404 1429.6 -136 1436.5 -136C1443.4 -136 1449 -130.404 1449 -123.5L1449 -83.1402C1449 -61.0488 1466.91 -43.1402 1489 -43.1402L1503 -43.1402C1525.09 -43.1402 1543 -25.2317 1543 -3.14027L1543 78.5046C1543 100.596 1525.09 118.505 1503 118.505L1401.66 118.505C1385.28 118.505 1372 105.224 1372 88.841C1372 72.4583 1358.72 59.1775 1342.34 59.1775L1294.92 59.1775C1284.47 59.1775 1276 67.6464 1276 78.0934C1276 88.5403 1267.53 97.0093 1257.08 97.0093L1133.95 97.0093C1116.86 97.0093 1103 83.151 1103 66.056C1103 48.961 1089.14 35.1027 1072.05 35.1027L1022.5 35.1028C1010.62 35.1028 1001 25.479 1001 13.6074C1001 1.73589 991.376 -7.88789 979.505 -7.88789L861 -7.8879L851 -7.88788L612.393 -7.88787C593.398 -7.88787 578 7.51017 578 26.5046C578 45.4991 562.602 60.8971 543.607 60.8971L500.766 60.8971C491.507 60.8971 484 68.4037 484 77.6635C484 86.9233 476.493 94.4298 467.234 94.4298L277.785 94.4298C265.201 94.4298 255 104.631 255 117.215Z" fill="#AFD157"/>
<path d="M366 157L356 157C333.909 157 316 139.091 316 117L316 107L326 107C348.091 107 366 124.909 366 147L366 157Z" fill="#AFD157"/>
<path d="M266 157L276 157C298.091 157 316 139.091 316 117L316 107L306 107C283.909 107 266 124.909 266 147L266 157Z" fill="#AFD157"/>
<path d="M549 66L539 66C516.909 66 499 48.0914 499 26L499 16L509 16C531.091 16 549 33.9086 549 56L549 66Z" fill="#7BAD34"/>
<path d="M449 66L459 66C481.091 66 499 48.0914 499 26L499 16L489 16C466.909 16 449 33.9086 449 56L449 66Z" fill="#7BAD34"/>
<path d="M137 113L127 113C104.909 113 87 95.0914 87 73L87 63L97 63C119.091 63 137 80.9086 137 103L137 113Z" fill="#7BAD34"/>
<path d="M1472 198L1462 198C1439.91 198 1422 180.091 1422 158L1422 148L1432 148C1454.09 148 1472 165.909 1472 188L1472 198Z" fill="#7BAD34"/>
<path d="M1372 198L1382 198C1404.09 198 1422 180.091 1422 158L1422 148L1412 148C1389.91 148 1372 165.909 1372 188L1372 198Z" fill="#7BAD34"/>
<path d="M559 155L549 155C526.909 155 509 137.091 509 115L509 105L519 105C541.091 105 559 122.909 559 145L559 155Z" fill="#AFD157"/>
<path fill-rule="evenodd" clip-rule="evenodd" d="M1295.92 154.425C1301.76 160.269 1311.24 160.269 1317.08 154.425C1321.71 149.8 1322.67 142.901 1319.98 137.328C1319.88 137.117 1320.12 136.879 1320.33 136.981C1325.9 139.675 1332.8 138.71 1337.42 134.085C1343.27 128.241 1343.27 118.766 1337.42 112.921C1332.8 108.297 1325.9 107.332 1320.33 110.026C1320.12 110.127 1319.88 109.889 1319.98 109.679C1322.67 104.105 1321.71 97.2068 1317.08 92.5822C1311.24 86.7379 1301.76 86.7379 1295.92 92.5822C1291.3 97.2068 1290.33 104.105 1293.03 109.679C1293.13 109.889 1292.89 110.127 1292.68 110.026C1287.1 107.332 1280.21 108.297 1275.58 112.921C1269.74 118.766 1269.74 128.241 1275.58 134.085C1280.21 138.71 1287.1 139.675 1292.68 136.981C1292.89 136.879 1293.13 137.117 1293.03 137.328C1290.33 142.902 1291.3 149.8 1295.92 154.425Z" fill="#FF686B"/>
<circle cx="1306.51" cy="123.228" r="6.21932" transform="rotate(-135 1306.51 123.228)" fill="#E23636"/>
<path fill-rule="evenodd" clip-rule="evenodd" d="M625.921 144.425C631.766 150.269 641.241 150.269 647.085 144.425C651.71 139.8 652.675 132.901 649.981 127.328C649.879 127.117 650.117 126.879 650.327 126.981C655.901 129.675 662.799 128.71 667.424 124.085C673.268 118.241 673.268 108.766 667.424 102.921C662.799 98.2968 655.901 97.3315 650.328 100.026C650.117 100.127 649.879 99.8893 649.981 99.6787C652.675 94.105 651.71 87.2068 647.086 82.5822C641.241 76.7379 631.766 76.7379 625.922 82.5822C621.297 87.2068 620.332 94.105 623.026 99.6787C623.128 99.8893 622.89 100.127 622.679 100.026C617.106 97.3315 610.208 98.2968 605.583 102.921C599.739 108.766 599.739 118.241 605.583 124.085C610.208 128.71 617.106 129.675 622.679 126.981C622.89 126.879 623.128 127.117 623.026 127.328C620.332 132.902 621.297 139.8 625.921 144.425Z" fill="#FFC53D"/>
<circle cx="636.506" cy="113.228" r="6.21932" transform="rotate(-135 636.506 113.228)" fill="#E98B2D"/>
</svg>
