<svg width="11" height="14" viewBox="0 0 11 14" fill="none" xmlns="http://www.w3.org/2000/svg">
<path fill-rule="evenodd" clip-rule="evenodd" d="M5.5 13.7223C5.5 13.7223 11 10.0556 11 5.77783C11 4.31914 10.4205 2.92019 9.38909 1.88874C8.35764 0.857295 6.95869 0.277832 5.5 0.277832C4.04131 0.277832 2.64236 0.857295 1.61091 1.88874C0.579463 2.92019 0 4.31914 0 5.77783C0 10.0556 5.5 13.7223 5.5 13.7223ZM7.33085 5.77907C7.33085 6.79159 6.51004 7.6124 5.49751 7.6124C4.48499 7.6124 3.66418 6.79159 3.66418 5.77907C3.66418 4.76654 4.48499 3.94573 5.49751 3.94573C6.51004 3.94573 7.33085 4.76654 7.33085 5.77907Z" fill="#52230C"/>
</svg>
