<svg width="369" height="249" viewBox="0 0 369 249" fill="none" xmlns="http://www.w3.org/2000/svg">
<path d="M150.275 66.3262C123.755 62.5042 93.9198 57.9334 82.3172 56.1257C77.1797 65.6806 53.808 89.955 46.6807 108.936C40.9789 124.12 40.2164 151.502 40.5479 163.295C49.9405 163.295 76.4165 165.051 107.18 172.075C145.634 180.855 193.702 199.835 231.659 204.613C262.025 208.435 287.407 208.874 296.302 208.616C296.91 198.889 299.153 176.207 303.264 163.295C307.374 150.383 318.789 112.207 323.982 94.7324C310.999 94.3881 280.158 92.9505 260.665 89.955C236.3 86.2105 183.425 71.1036 150.275 66.3262Z" fill="white"/>
<path d="M296.544 93.4492C307.628 94.1548 317.812 94.568 323.975 94.7314C318.781 112.206 307.367 150.382 303.256 163.294C299.145 176.206 296.903 198.888 296.295 208.615C290.917 208.771 279.514 208.671 264.627 207.724C262.56 194.203 261.967 177.589 266.737 164.415C275.892 139.13 288.214 120.18 296.544 93.4492ZM218.566 80.8564C232.716 84.22 245.815 87.2976 255.696 89.1104C241.064 121.091 218.573 130.634 216.111 166.439C215.167 180.176 215.757 192.378 216.915 202.188C204.725 199.774 191.833 196.333 178.789 192.55C177.947 177.248 178.036 159.43 181.012 146.865C187.03 121.455 209.827 101.784 218.566 80.8564ZM137.772 64.5049C141.963 65.1205 146.155 65.7325 150.268 66.3252C158.166 67.4634 167.183 69.1895 176.668 71.207C174.495 73.3181 172.125 75.589 169.537 78.0146C147.937 98.2645 139.837 109.964 137.137 128.414C135.228 141.458 135.342 161.924 132.87 178.841C123.995 176.28 115.366 173.945 107.173 172.074C101.764 170.839 96.4866 169.769 91.4122 168.841C91.7293 152.662 93.0617 133.152 96.6378 118.065C101.764 96.4394 121.943 79.8296 137.772 64.5049ZM82.3097 56.125C86.6369 56.7992 93.5007 57.8565 101.782 59.1172C100.199 61.5604 98.4774 64.2394 96.6358 67.1514C85.1186 85.3636 74.1366 92.5764 65.8116 116.651C61.234 129.889 59.8655 149.2 59.7501 164.414C51.0748 163.587 44.3798 163.294 40.5401 163.294C40.2086 151.501 40.9711 124.119 46.6729 108.935C53.8002 89.9541 77.1721 65.6799 82.3097 56.125Z" fill="url(#paint0_linear_2790_14823)"/>
<path d="M104.979 88.6466C118.393 60.3655 140.112 42.1633 178.017 60.1418C193.85 67.6515 195.64 84.3697 189.958 104.122C200.338 103.293 215.637 105.444 224.798 109.725C233.9 111.241 246.457 115.598 247.219 118.48C248.332 122.694 245.691 140.978 244.06 142.693C243.012 143.794 233.537 142.773 226.241 141.526C225.613 142.973 224.954 144.421 224.269 145.857C230.365 148.613 236.692 151.953 236.937 153.237C237.379 155.562 229.692 172.362 226.473 175.3C223.998 177.558 207.997 173.311 199.973 169.137C192.856 166.183 183.67 157.919 176.799 150.08C170.806 157.618 161.299 166.717 152.235 166.819C149.366 166.851 147.124 166.319 145.414 165.423C140.196 166.64 134.726 166.113 129.035 163.414C121.63 159.902 115.686 155.879 111.031 151.461C109.67 153.109 107.549 154.947 104.411 157.064C97.8847 161.467 89.4599 160.391 85.5946 154.662C81.7299 148.933 83.8869 140.72 90.413 136.317C93.9848 133.907 96.7205 132.564 98.8876 131.999C98.7629 131.571 98.6449 131.14 98.5341 130.708C97.6044 130.465 96.5079 130.055 95.205 129.437C88.4206 126.219 84.4573 120.37 85.4276 118.324C86.2528 116.585 91.4638 115.869 97.1767 117.672C97.489 108.232 100.364 98.3775 104.979 88.6466Z" fill="black" fill-opacity="0.3"/>
<g clip-path="url(#clip0_2790_14823)">
<path d="M104.671 114.455C111.455 117.673 110.373 120.058 108.989 122.978C107.604 125.897 106.441 128.244 99.6567 125.026C92.8721 121.808 88.9086 115.96 89.8791 113.914C90.8495 111.868 97.8861 111.237 104.671 114.455Z" fill="#6A5B3D"/>
<path d="M134.948 50.6212C141.733 53.8392 140.65 56.2247 139.266 59.1438C137.881 62.063 136.719 64.4104 129.934 61.1924C123.149 57.9744 119.186 52.1262 120.156 50.0801C121.127 48.0341 128.163 47.4032 134.948 50.6212Z" fill="#6A5B3D"/>
<path d="M137.795 41.398C139.242 57.1616 144.677 55.0816 151.559 54.4502C158.441 53.8188 164.134 54.5553 162.717 39.1115C161.998 31.2716 155.836 25.4279 148.954 26.0592C142.072 26.6906 137.076 33.558 137.795 41.398Z" fill="#123041"/>
<path d="M145.446 41.306C146.167 49.1628 148.212 48.187 150.823 47.9474C153.434 47.7078 155.608 48.1358 154.902 40.4385C154.544 36.5309 152.136 33.5575 149.525 33.797C146.914 34.0366 145.088 37.3985 145.446 41.306Z" fill="#FFC0C1"/>
<path d="M201.198 68.5656C208.455 77.6539 204.706 96.6795 201.925 105.056C201.135 105.665 199.004 106.823 196.802 106.581C194.049 106.279 184.328 80.1835 183.183 73.7945C182.037 67.4056 192.126 57.2052 201.198 68.5656Z" fill="#E7EAEE"/>
<path d="M156.689 162.408C168.318 162.277 180.68 147.337 185.407 139.883C185.379 138.886 184.927 136.503 183.346 134.951C181.371 133.011 155.012 141.993 149.34 145.148C143.668 148.304 142.152 162.57 156.689 162.408Z" fill="#E7EAEE"/>
<path d="M251.671 114.069C250.78 110.698 233.751 105.308 224.988 104.807L225.885 136.187C232.847 137.738 247.208 139.654 248.512 138.282C250.143 136.568 252.784 118.283 251.671 114.069Z" fill="#E7EAEE"/>
<path d="M109.434 84.236C122.848 55.9548 144.567 37.7527 182.472 55.731C198.305 63.2406 200.096 79.9586 194.413 99.7108C209.7 98.49 235.656 103.731 236.96 112.723C238.622 124.19 222.165 159.242 212.096 165.144C204.306 169.71 184.841 151.331 175.97 139.109C164.091 156.794 149.683 166.684 133.489 159.003C126.084 155.491 120.141 151.469 115.486 147.051C114.125 148.699 112.003 150.536 108.865 152.653C102.339 157.056 93.9148 155.981 90.0495 150.252C86.1846 144.523 88.3415 136.309 94.8676 131.906C98.4395 129.496 101.175 128.153 103.342 127.588C99.4214 114.113 102.417 99.0314 109.434 84.236Z" fill="white"/>
<path d="M99.4636 138.254C106.004 133.842 106.542 136.043 108.009 138.216C109.475 140.39 111.182 141.803 104.774 146.126C101.522 148.32 97.6959 148.338 96.2293 146.164C94.7628 143.99 96.2108 140.449 99.4636 138.254Z" fill="#FFC0C1"/>
<path d="M188.186 152.92C190.204 151.166 192.594 149.953 195.202 150.173C201.332 150.69 206.77 145.035 208.722 142.142C208.722 142.142 215.158 135.662 220.456 135.256C223.765 135.003 228.162 137.004 230.27 138.087C224.956 150.073 217.58 161.931 212.097 165.145C207.026 168.116 197.009 161.366 188.186 152.92Z" fill="#123041"/>
<path d="M230.927 170.89C228.351 173.241 211.118 168.545 203.482 164.218L221.237 138.329C227.929 140.798 241.037 146.968 241.391 148.828C241.833 151.152 234.146 167.952 230.927 170.89Z" fill="#123041"/>
<path d="M222.404 109.534C233.25 114.679 231.452 125.198 226.02 136.65C220.588 148.102 213.58 156.15 202.734 151.006C188.476 144.243 184.809 131.132 190.24 119.68C195.672 108.228 208.146 102.772 222.404 109.534Z" fill="#FFC0C1"/>
<path d="M222.278 135.089C222.318 135.006 222.341 134.916 222.347 134.823C222.352 134.731 222.339 134.639 222.309 134.552L220.807 130.38C220.736 130.219 220.606 130.091 220.445 130.022C220.283 129.953 220.101 129.947 219.935 130.007C219.769 130.067 219.631 130.187 219.549 130.344C219.467 130.501 219.447 130.682 219.493 130.853L220.96 135.016C220.99 135.103 221.037 135.184 221.099 135.252C221.161 135.321 221.235 135.377 221.319 135.416C221.402 135.456 221.492 135.478 221.585 135.483C221.677 135.487 221.769 135.473 221.856 135.441C221.946 135.414 222.03 135.369 222.103 135.308C222.175 135.248 222.235 135.173 222.278 135.089Z" fill="#FF8D8D"/>
<path d="M223.603 132.295C223.643 132.213 223.666 132.123 223.671 132.031C223.676 131.94 223.663 131.848 223.633 131.761C223.602 131.675 223.555 131.595 223.493 131.526C223.432 131.458 223.357 131.403 223.274 131.363C223.191 131.324 223.101 131.301 223.009 131.297C222.917 131.292 222.825 131.306 222.738 131.337L218.607 132.81C218.52 132.841 218.44 132.888 218.372 132.95C218.303 133.011 218.248 133.086 218.208 133.169C218.169 133.252 218.146 133.342 218.142 133.434C218.138 133.526 218.151 133.618 218.183 133.704C218.245 133.878 218.373 134.019 218.54 134.098C218.706 134.177 218.897 134.187 219.071 134.126L223.212 132.649C223.384 132.587 223.524 132.46 223.603 132.295Z" fill="#FF8D8D"/>
<path d="M111.2 80.6702C123.657 56.5523 142.82 41.1255 174.085 52.2415C168.722 66.4126 157.2 63.8936 151.05 66.3677C144.791 68.8859 142.618 79.2515 133.329 83.7091C127.633 86.4419 118.084 83.6437 111.2 80.6702Z" fill="#123041"/>
<path d="M161.578 119.68C153.225 115.718 149.665 105.734 153.627 97.3809L157.214 89.8185C161.176 81.4652 171.159 77.9054 179.513 81.8674C185.081 84.5087 187.455 91.1644 184.813 96.7332L176.444 114.379C173.803 119.948 167.147 122.321 161.578 119.68Z" fill="#FFC0C1"/>
<path d="M163.044 106.928L167.516 109.05" stroke="black" stroke-width="4.5" stroke-linecap="round"/>
<path d="M170.757 90.665L175.229 92.7863" stroke="black" stroke-width="4.5" stroke-linecap="round"/>
<path d="M149.696 132.968C150.761 130.723 153.445 129.766 155.69 130.831C157.936 131.896 158.893 134.58 157.828 136.825L154.935 142.924C153.87 145.169 151.186 146.126 148.941 145.062C146.696 143.996 145.739 141.313 146.803 139.067L149.696 132.968ZM184.215 60.19C184.695 59.1797 185.502 58.4311 186.449 58.0093C188.881 59.6757 190.864 61.6297 192.44 63.834C192.411 63.9052 192.38 63.9765 192.347 64.0469L189.454 70.1457C188.389 72.3909 185.705 73.3478 183.46 72.2831C181.215 71.218 180.258 68.5342 181.323 66.2888L184.215 60.19Z" fill="#FFC0C1"/>
<path d="M149.959 119.818C149.959 119.818 151.23 121.774 150.051 124.258C148.873 126.743 146.555 126.996 146.555 126.996" stroke="#123041" stroke-width="6.75" stroke-linecap="round"/>
<path d="M175.799 65.3367C175.799 65.3367 177.069 67.292 175.891 69.7766C174.713 72.2612 172.394 72.5143 172.394 72.5143" stroke="#123041" stroke-width="6.75" stroke-linecap="round"/>
</g>
<defs>
<linearGradient id="paint0_linear_2790_14823" x1="182.225" y1="56.125" x2="182.225" y2="208.675" gradientUnits="userSpaceOnUse">
<stop stop-color="#9EE7E5"/>
<stop offset="1" stop-color="#9EE7E5"/>
</linearGradient>
<clipPath id="clip0_2790_14823">
<rect width="141.75" height="168.3" fill="white" transform="translate(67.9248 142.349) rotate(-64.6248)"/>
</clipPath>
</defs>
</svg>
