<svg width="119" height="157" viewBox="0 0 119 157" fill="none" xmlns="http://www.w3.org/2000/svg">
<g filter="url(#filter0_d_708_771)">
<mask id="path-1-outside-1_708_771" maskUnits="userSpaceOnUse" x="7.73828" y="3.84277" width="103" height="149" fill="black">
<rect fill="white" x="7.73828" y="3.84277" width="103" height="149"/>
<path d="M19.8668 40.4254C19.6941 50.4904 32.317 61.5525 38.6501 65.8255C39.5137 65.8255 41.5864 65.4931 42.9681 64.1638C44.6953 62.5021 37.5706 39.4758 34.9798 34.4908C32.389 29.5057 20.0827 27.844 19.8668 40.4254Z"/>
<path d="M37.7528 6.83274C34.9592 7.97474 32.2392 23.194 32.7906 30.7707L59.6232 26.4882C60.1745 20.339 60.2113 7.79905 58.888 6.83275C57.234 5.62487 41.2447 5.40526 37.7528 6.83274Z"/>
<path d="M35.6556 23.6898C27.3044 29.2432 38.5934 63.8854 46.7504 68.2487C54.9073 72.612 68.1742 71.951 74.0007 68.2487C79.8271 64.5465 94.2252 29.3754 85.874 23.6898C77.5229 18.0043 44.0067 18.1365 35.6556 23.6898Z"/>
<path d="M83.3828 6.83275C86.1764 7.97474 88.8964 23.194 88.345 30.7707L61.5124 26.4882C60.9611 20.339 60.9243 7.79905 62.2475 6.83275C63.9016 5.62487 79.8909 5.40526 83.3828 6.83275Z"/>
<path d="M100.1 40.4254C100.273 50.4905 87.65 61.5525 81.317 65.8255C80.4534 65.8255 78.3807 65.4931 76.9989 64.1638C75.2717 62.5021 82.3964 39.4758 84.9872 34.4908C87.578 29.5057 99.8844 27.844 100.1 40.4254Z"/>
<path d="M62.0985 28.8231C62.0185 28.8227 61.9392 28.8379 61.8651 28.868C61.791 28.8981 61.7236 28.9425 61.6668 28.9985L58.9612 31.72C58.8616 31.8357 58.8096 31.9845 58.8155 32.1367C58.8214 32.2889 58.8848 32.4333 58.9931 32.541C59.1014 32.6487 59.2466 32.7118 59.3996 32.7177C59.5526 32.7235 59.7022 32.6718 59.8185 32.5727L62.5302 29.8815C62.5872 29.8252 62.6324 29.7584 62.6633 29.6847C62.6941 29.611 62.71 29.5319 62.71 29.4521C62.71 29.3723 62.6941 29.2932 62.6633 29.2195C62.6324 29.1458 62.5872 29.0789 62.5302 29.0227C62.4754 28.9623 62.409 28.9134 62.3348 28.8791C62.2606 28.8449 62.1803 28.8258 62.0985 28.8231Z"/>
<path d="M59.4218 28.8231C59.3424 28.8227 59.2637 28.8379 59.1902 28.8679C59.1167 28.898 59.0499 28.9422 58.9935 28.9981C58.937 29.0542 58.8921 29.1209 58.8614 29.1944C58.8308 29.2679 58.815 29.3468 58.815 29.4265C58.815 29.5061 58.8308 29.585 58.8614 29.6585C58.8921 29.732 58.937 29.7987 58.9935 29.8548L61.678 32.5396C61.7341 32.5962 61.8008 32.6411 61.8743 32.6717C61.9478 32.7023 62.0267 32.7181 62.1063 32.7181C62.1859 32.7181 62.2648 32.7023 62.3383 32.6717C62.4118 32.6411 62.4785 32.5962 62.5346 32.5396C62.647 32.4266 62.71 32.2737 62.71 32.1143C62.71 31.9549 62.647 31.802 62.5346 31.6889L59.8441 28.9981C59.7317 28.8866 59.5801 28.8238 59.4218 28.8231Z"/>
<path d="M9.73828 88.9997C9.73828 68.6714 32.0296 61.9305 59.1225 61.9305C86.2155 61.9305 108.671 68.6715 108.671 88.9997C108.671 123.662 86.2155 135.546 59.1225 135.546C32.0296 135.546 9.73828 125.312 9.73828 88.9997Z"/>
<path d="M67.3839 84.1319C67.3839 80.5825 62.9371 79.0684 57.4517 79.0684C51.9663 79.0684 47.5195 80.5825 47.5195 84.1319C47.5195 87.6813 51.9663 91.9219 57.4517 91.9219C62.9371 91.9219 67.3839 87.6813 67.3839 84.1319Z"/>
<path d="M66.5047 149.092C60.5961 143.852 57.2018 137.976 56.1975 132.628L66.5956 133.737C70.8771 134.193 74.9785 139.24 74.7892 145.366C74.6 151.492 69.5094 151.756 66.5047 149.092Z"/>
<path d="M55.6529 140.815C57.4926 139.019 57.9575 135.105 57.9601 133.372C54.3964 133.701 48.4165 134.797 47.3442 137.079C46.2718 139.361 46.9408 142.198 48.2463 142.874C49.5518 143.551 53.3533 143.061 55.6529 140.815Z"/>
</mask>
<path d="M19.8668 40.4254C19.6941 50.4904 32.317 61.5525 38.6501 65.8255C39.5137 65.8255 41.5864 65.4931 42.9681 64.1638C44.6953 62.5021 37.5706 39.4758 34.9798 34.4908C32.389 29.5057 20.0827 27.844 19.8668 40.4254Z" fill="#FFC532"/>
<path d="M37.7528 6.83274C34.9592 7.97474 32.2392 23.194 32.7906 30.7707L59.6232 26.4882C60.1745 20.339 60.2113 7.79905 58.888 6.83275C57.234 5.62487 41.2447 5.40526 37.7528 6.83274Z" fill="#FFC532"/>
<path d="M35.6556 23.6898C27.3044 29.2432 38.5934 63.8854 46.7504 68.2487C54.9073 72.612 68.1742 71.951 74.0007 68.2487C79.8271 64.5465 94.2252 29.3754 85.874 23.6898C77.5229 18.0043 44.0067 18.1365 35.6556 23.6898Z" fill="#FFDB40"/>
<path d="M83.3828 6.83275C86.1764 7.97474 88.8964 23.194 88.345 30.7707L61.5124 26.4882C60.9611 20.339 60.9243 7.79905 62.2475 6.83275C63.9016 5.62487 79.8909 5.40526 83.3828 6.83275Z" fill="#FFDB40"/>
<path d="M100.1 40.4254C100.273 50.4905 87.65 61.5525 81.317 65.8255C80.4534 65.8255 78.3807 65.4931 76.9989 64.1638C75.2717 62.5021 82.3964 39.4758 84.9872 34.4908C87.578 29.5057 99.8844 27.844 100.1 40.4254Z" fill="#FFDB40"/>
<path d="M62.0985 28.8231C62.0185 28.8227 61.9392 28.8379 61.8651 28.868C61.791 28.8981 61.7236 28.9425 61.6668 28.9985L58.9612 31.72C58.8616 31.8357 58.8096 31.9845 58.8155 32.1367C58.8214 32.2889 58.8848 32.4333 58.9931 32.541C59.1014 32.6487 59.2466 32.7118 59.3996 32.7177C59.5526 32.7235 59.7022 32.6718 59.8185 32.5727L62.5302 29.8815C62.5872 29.8252 62.6324 29.7584 62.6633 29.6847C62.6941 29.611 62.71 29.5319 62.71 29.4521C62.71 29.3723 62.6941 29.2932 62.6633 29.2195C62.6324 29.1458 62.5872 29.0789 62.5302 29.0227C62.4754 28.9623 62.409 28.9134 62.3348 28.8791C62.2606 28.8449 62.1803 28.8258 62.0985 28.8231Z" fill="#FFBB4D"/>
<path d="M59.4218 28.8231C59.3424 28.8227 59.2637 28.8379 59.1902 28.8679C59.1167 28.898 59.0499 28.9422 58.9935 28.9981C58.937 29.0542 58.8921 29.1209 58.8614 29.1944C58.8308 29.2679 58.815 29.3468 58.815 29.4265C58.815 29.5061 58.8308 29.585 58.8614 29.6585C58.8921 29.732 58.937 29.7987 58.9935 29.8548L61.678 32.5396C61.7341 32.5962 61.8008 32.6411 61.8743 32.6717C61.9478 32.7023 62.0267 32.7181 62.1063 32.7181C62.1859 32.7181 62.2648 32.7023 62.3383 32.6717C62.4118 32.6411 62.4785 32.5962 62.5346 32.5396C62.647 32.4266 62.71 32.2737 62.71 32.1143C62.71 31.9549 62.647 31.802 62.5346 31.6889L59.8441 28.9981C59.7317 28.8866 59.5801 28.8238 59.4218 28.8231Z" fill="#FFBB4D"/>
<path d="M9.73828 88.9997C9.73828 68.6714 32.0296 61.9305 59.1225 61.9305C86.2155 61.9305 108.671 68.6715 108.671 88.9997C108.671 123.662 86.2155 135.546 59.1225 135.546C32.0296 135.546 9.73828 125.312 9.73828 88.9997Z" fill="#FFDB40"/>
<path d="M67.3839 84.1319C67.3839 80.5825 62.9371 79.0684 57.4517 79.0684C51.9663 79.0684 47.5195 80.5825 47.5195 84.1319C47.5195 87.6813 51.9663 91.9219 57.4517 91.9219C62.9371 91.9219 67.3839 87.6813 67.3839 84.1319Z" fill="#FFB132"/>
<path d="M66.5047 149.092C60.5961 143.852 57.2018 137.976 56.1975 132.628L66.5956 133.737C70.8771 134.193 74.9785 139.24 74.7892 145.366C74.6 151.492 69.5094 151.756 66.5047 149.092Z" fill="#FFDB40"/>
<path d="M55.6529 140.815C57.4926 139.019 57.9575 135.105 57.9601 133.372C54.3964 133.701 48.4165 134.797 47.3442 137.079C46.2718 139.361 46.9408 142.198 48.2463 142.874C49.5518 143.551 53.3533 143.061 55.6529 140.815Z" fill="#FFDB40"/>
<path d="M22.202 78.2337C21.741 78.2337 21.3673 78.6074 21.3673 79.0684C21.3673 79.5294 21.741 79.9032 22.202 79.9032V79.0684V78.2337ZM86.8589 78.2337C86.3979 78.2337 86.0241 78.6074 86.0241 79.0684C86.0241 79.5294 86.3979 79.9032 86.8589 79.9032V79.0684V78.2337ZM33.0526 93.0903C33.0526 93.5514 33.4263 93.9251 33.8873 93.9251C34.3483 93.9251 34.722 93.5514 34.722 93.0903H33.8873H33.0526ZM80.1817 93.0903C80.1817 93.5514 80.5554 93.9251 81.0164 93.9251C81.4774 93.9251 81.8511 93.5514 81.8511 93.0903H81.0164H80.1817ZM22.202 79.0684V79.9032H28.0445V79.0684V78.2337H22.202V79.0684ZM86.8589 79.0684V79.9032H92.7013V79.0684V78.2337H86.8589V79.0684ZM33.8873 93.0903H34.722L34.722 86.8584H33.8873H33.0526L33.0526 93.0903H33.8873ZM81.0164 93.0903H81.8511V86.8584H81.0164H80.1817V93.0903H81.0164ZM38.6501 65.8255L37.7164 67.2094L38.1396 67.4949H38.6501V65.8255ZM19.8668 40.4254L18.1976 40.3967V40.3967L19.8668 40.4254ZM42.9681 64.1638L41.8107 62.9607V62.9607L42.9681 64.1638ZM32.7906 30.7707L31.1255 30.8918L31.2575 32.7059L33.0537 32.4193L32.7906 30.7707ZM37.7528 6.83274L37.121 5.28742V5.28742L37.7528 6.83274ZM58.888 6.83275L59.8726 5.4845L59.8726 5.4845L58.888 6.83275ZM59.6232 26.4882L59.8863 28.1368L61.1699 27.9319L61.286 26.6373L59.6232 26.4882ZM46.7504 68.2487L45.9629 69.7208V69.7208L46.7504 68.2487ZM85.874 23.6898L86.8136 22.3098V22.3098L85.874 23.6898ZM74.0007 68.2487L73.1053 66.8396V66.8396L74.0007 68.2487ZM88.345 30.7707L88.0819 32.4193L89.8781 32.7059L90.0101 30.8918L88.345 30.7707ZM83.3828 6.83275L84.0145 5.28742V5.28742L83.3828 6.83275ZM62.2475 6.83275L61.263 5.4845L61.263 5.4845L62.2475 6.83275ZM61.5124 26.4882L59.8496 26.6373L59.9657 27.9319L61.2493 28.1368L61.5124 26.4882ZM81.317 65.8255V67.4949H81.8275L82.2507 67.2094L81.317 65.8255ZM100.1 40.4254L101.769 40.3967L100.1 40.4254ZM76.9989 64.1638L78.1564 62.9607V62.9607L76.9989 64.1638ZM62.0985 28.8231L62.1531 27.1546L62.1306 27.1538L62.1081 27.1537L62.0985 28.8231ZM61.6668 28.9985L60.4943 27.8101L60.4886 27.8158L60.4829 27.8215L61.6668 28.9985ZM58.9612 31.72L57.7773 30.5429L57.7351 30.5854L57.6961 30.6307L58.9612 31.72ZM59.8185 32.5727L60.9011 33.8436L60.9495 33.8024L60.9945 33.7576L59.8185 32.5727ZM62.5302 29.8815L61.3577 28.693L61.3542 28.6965L62.5302 29.8815ZM62.5302 29.0227L61.293 30.1436L61.3244 30.1783L61.3577 30.2112L62.5302 29.0227ZM59.4218 28.8231L59.4121 30.4926L59.4148 30.4926L59.4218 28.8231ZM58.9935 28.9981L60.1692 30.1833L60.1692 30.1833L58.9935 28.9981ZM58.9935 29.8548L60.1741 28.6744L60.1692 28.6696L58.9935 29.8548ZM61.678 32.5396L62.8634 31.3641L62.8585 31.3592L61.678 32.5396ZM62.5346 32.5396L61.3505 31.3627L61.3492 31.3641L62.5346 32.5396ZM62.5346 31.6889L63.7187 30.512L63.7152 30.5085L62.5346 31.6889ZM59.8441 28.9981L61.0247 27.8177L61.0198 27.8129L59.8441 28.9981ZM9.73828 88.9997H8.06882H9.73828ZM108.671 88.9997H107.001H108.671ZM56.1975 132.628L56.3745 130.968L54.1425 130.73L54.5567 132.936L56.1975 132.628ZM66.5047 149.092L67.6123 147.843V147.843L66.5047 149.092ZM74.7892 145.366L73.1206 145.314V145.314L74.7892 145.366ZM66.5956 133.737L66.4185 135.397V135.397L66.5956 133.737ZM57.9601 133.372L59.6295 133.374L59.6322 131.541L57.8064 131.709L57.9601 133.372ZM55.6529 140.815L54.4866 139.621L55.6529 140.815ZM48.2463 142.874L49.0142 141.392V141.392L48.2463 142.874ZM47.3442 137.079L45.8332 136.369L47.3442 137.079ZM38.6501 65.8255L39.5838 64.4415C36.5159 62.3716 31.8952 58.633 28.0837 54.2079C24.2176 49.7194 21.4607 44.8428 21.536 40.454L19.8668 40.4254L18.1976 40.3967C18.1002 46.073 21.5684 51.76 25.5539 56.387C29.594 61.0775 34.4513 65.0064 37.7164 67.2094L38.6501 65.8255ZM19.8668 40.4254L21.536 40.454C21.5854 37.5781 22.3202 35.7089 23.2602 34.5302C24.193 33.3605 25.4375 32.7309 26.7898 32.5202C28.164 32.3061 29.6332 32.5313 30.8912 33.0772C32.1651 33.63 33.0736 34.4431 33.4985 35.2606L34.9798 34.4908L36.4612 33.7209C35.5907 32.0459 33.9894 30.7819 32.2204 30.0142C30.4355 29.2397 28.3289 28.9011 26.2757 29.2211C24.2005 29.5445 22.1661 30.5469 20.6497 32.4484C19.1406 34.3408 18.2562 36.982 18.1976 40.3967L19.8668 40.4254ZM34.9798 34.4908L33.4985 35.2606C34.7071 37.5861 37.0969 44.4379 38.9885 51.0337C39.9268 54.3059 40.7207 57.4395 41.1724 59.8365C41.3997 61.0427 41.5297 62.0075 41.5592 62.6884C41.5741 63.033 41.56 63.2422 41.5433 63.346C41.5157 63.5175 41.5134 63.2467 41.8107 62.9607L42.9681 64.1638L44.1256 65.3669C44.6388 64.8731 44.7833 64.2277 44.8397 63.8769C44.9072 63.4584 44.9146 62.9976 44.895 62.5439C44.8553 61.628 44.6918 60.4823 44.4536 59.2182C43.9742 56.6746 43.1488 53.4286 42.198 50.1133C40.3113 43.5344 37.8434 36.3805 36.4612 33.7209L34.9798 34.4908ZM42.9681 64.1638L41.8107 62.9607C41.3632 63.3912 40.7568 63.7 40.1176 63.8994C39.4764 64.0995 38.9099 64.156 38.6501 64.156V65.8255V67.4949C39.2539 67.4949 40.1555 67.3853 41.1121 67.0868C42.0705 66.7878 43.1914 66.2657 44.1256 65.3669L42.9681 64.1638ZM32.7906 30.7707L34.4556 30.6495C34.1947 27.0642 34.7108 21.5254 35.6555 16.7101C36.1263 14.3108 36.6898 12.1626 37.2846 10.5752C37.5835 9.7777 37.8704 9.17586 38.127 8.76888C38.4184 8.30678 38.5326 8.31754 38.3845 8.37807L37.7528 6.83274L37.121 5.28742C36.2746 5.63345 35.6926 6.36962 35.3027 6.988C34.878 7.66151 34.4984 8.49522 34.1581 9.40352C33.4744 11.2277 32.8686 13.5719 32.3791 16.0673C31.4032 21.0413 30.835 26.9005 31.1255 30.8918L32.7906 30.7707ZM37.7528 6.83274L38.3845 8.37807C38.9855 8.13236 40.3922 7.88775 42.4288 7.72481C44.3854 7.56828 46.7138 7.50039 48.9997 7.51392C51.2868 7.52745 53.4985 7.62227 55.2224 7.78455C56.0876 7.86599 56.7999 7.9617 57.3251 8.06531C57.5884 8.11725 57.7776 8.16595 57.9022 8.2063C58.0549 8.25575 58.0147 8.26218 57.9035 8.18099L58.888 6.83275L59.8726 5.4845C59.5546 5.25232 59.1956 5.11549 58.9307 5.02972C58.6377 4.93485 58.3103 4.85637 57.9713 4.7895C57.2919 4.65548 56.4564 4.54702 55.5354 4.46032C53.6869 4.28632 51.3729 4.18897 49.0195 4.17505C46.6648 4.16112 44.2377 4.2305 42.1626 4.39652C40.1674 4.55614 38.2659 4.81939 37.121 5.28742L37.7528 6.83274ZM58.888 6.83275L57.9035 8.18099C57.6691 8.00985 57.6 7.83684 57.6234 7.88417C57.6331 7.90382 57.6673 7.98325 57.7139 8.15031C57.8064 8.4826 57.8991 8.98285 57.9818 9.65168C58.1458 10.978 58.2464 12.7642 58.2895 14.7531C58.3757 18.7262 58.2297 23.3358 57.9604 26.3391L59.6232 26.4882L61.286 26.6373C61.568 23.4914 61.7161 18.7564 61.6276 14.6807C61.5835 12.6451 61.4796 10.7308 61.2955 9.242C61.2042 8.50324 61.087 7.81723 60.9304 7.25476C60.8524 6.97445 60.7523 6.67938 60.6174 6.40617C60.4962 6.16065 60.2724 5.77643 59.8726 5.4845L58.888 6.83275ZM59.6232 26.4882L59.3601 24.8396L32.5274 29.1221L32.7906 30.7707L33.0537 32.4193L59.8863 28.1368L59.6232 26.4882ZM46.7504 68.2487L47.5378 66.7766C46.8158 66.3904 45.9177 65.58 44.9056 64.2823C43.9114 63.0077 42.8859 61.3656 41.879 59.4499C39.8659 55.6193 37.9913 50.8171 36.619 45.9615C35.2437 41.0952 34.3992 36.268 34.3884 32.3767C34.383 30.4297 34.587 28.7919 34.9905 27.5275C35.3943 26.2621 35.9554 25.4953 36.58 25.08L35.6556 23.6898L34.7312 22.2997C33.268 23.2726 32.355 24.8033 31.8096 26.5124C31.2639 28.2224 31.0435 30.2362 31.0495 32.386C31.0615 36.6883 31.9832 41.8357 33.4059 46.8696C34.8316 51.9141 36.7867 56.9376 38.9234 61.0032C39.9915 63.0355 41.121 64.8591 42.2728 66.3359C43.4067 67.7895 44.6457 69.0162 45.9629 69.7208L46.7504 68.2487ZM35.6556 23.6898L36.58 25.08C38.3463 23.9055 41.695 22.8962 46.1122 22.1964C50.4561 21.5082 55.6009 21.1529 60.7674 21.1447C65.9343 21.1365 71.0775 21.4757 75.4189 22.1594C79.835 22.8549 83.1747 23.8717 84.9345 25.0698L85.874 23.6898L86.8136 22.3098C84.3978 20.6651 80.4163 19.5664 75.9384 18.8612C71.3858 18.1442 66.0621 17.7974 60.7622 17.8058C55.4619 17.8141 50.1398 18.1778 45.5898 18.8986C41.1129 19.6078 37.1405 20.6975 34.7312 22.2997L35.6556 23.6898ZM85.874 23.6898L84.9345 25.0698C85.5335 25.4776 86.0528 26.2306 86.385 27.5058C86.7178 28.7833 86.8223 30.4432 86.6953 32.4233C86.4416 36.3787 85.2888 41.2728 83.6684 46.1905C82.0528 51.0936 80.0022 55.9306 78.0082 59.7517C77.0106 61.6634 76.0407 63.2947 75.1614 64.5428C74.2486 65.8385 73.542 66.5622 73.1053 66.8396L74.0007 68.2487L74.896 69.6578C75.916 69.0097 76.9338 67.8244 77.891 66.4658C78.8817 65.0596 79.9273 63.2914 80.9684 61.2964C83.0518 57.3039 85.1712 52.2986 86.8396 47.2355C88.5031 42.187 89.7481 36.9909 90.0274 32.637C90.1668 30.4623 90.0716 28.4128 89.6161 26.6641C89.16 24.9132 88.3024 23.3234 86.8136 22.3098L85.874 23.6898ZM74.0007 68.2487L73.1053 66.8396C70.5573 68.4587 66.1339 69.5239 61.2222 69.6041C56.3396 69.6837 51.2893 68.7834 47.5378 66.7766L46.7504 68.2487L45.9629 69.7208C50.3684 72.0774 56.0299 73.0282 61.2767 72.9426C66.4943 72.8574 71.6175 71.741 74.896 69.6578L74.0007 68.2487ZM88.345 30.7707L90.0101 30.8918C90.3006 26.9005 89.7323 21.0413 88.7565 16.0673C88.2669 13.5719 87.6611 11.2277 86.9775 9.40352C86.6372 8.49523 86.2576 7.66151 85.8329 6.988C85.443 6.36962 84.861 5.63345 84.0145 5.28742L83.3828 6.83275L82.7511 8.37807C82.603 8.31754 82.7172 8.30679 83.0085 8.76889C83.2652 9.17586 83.5521 9.7777 83.8509 10.5752C84.4458 12.1626 85.0093 14.3108 85.48 16.7101C86.4248 21.5254 86.9409 27.0642 86.68 30.6495L88.345 30.7707ZM83.3828 6.83275L84.0145 5.28742C82.8697 4.81939 80.9682 4.55614 78.973 4.39652C76.8979 4.2305 74.4707 4.16112 72.1161 4.17505C69.7627 4.18897 67.4486 4.28632 65.6002 4.46032C64.6792 4.54702 63.8437 4.65548 63.1643 4.7895C62.8253 4.85637 62.4979 4.93485 62.2049 5.02972C61.94 5.11549 61.5809 5.25232 61.263 5.4845L62.2475 6.83275L63.2321 8.18099C63.1209 8.26218 63.0806 8.25575 63.2334 8.2063C63.358 8.16595 63.5471 8.11725 63.8105 8.06531C64.3357 7.9617 65.048 7.86599 65.9132 7.78455C67.6371 7.62227 69.8488 7.52745 72.1359 7.51392C74.4218 7.5004 76.7501 7.56828 78.7067 7.72481C80.7434 7.88775 82.15 8.13236 82.7511 8.37807L83.3828 6.83275ZM62.2475 6.83275L61.263 5.4845C60.8632 5.77643 60.6394 6.16065 60.5182 6.40617C60.3833 6.67938 60.2832 6.97445 60.2051 7.25476C60.0485 7.81723 59.9314 8.50324 59.84 9.242C59.656 10.7308 59.5521 12.6451 59.5079 14.6807C59.4195 18.7564 59.5675 23.4914 59.8496 26.6373L61.5124 26.4882L63.1752 26.3391C62.9059 23.3358 62.7599 18.7262 62.8461 14.7531C62.8892 12.7642 62.9898 10.978 63.1538 9.65168C63.2364 8.98285 63.3292 8.4826 63.4217 8.15031C63.4682 7.98325 63.5025 7.90382 63.5122 7.88417C63.5355 7.83684 63.4665 8.00985 63.2321 8.18099L62.2475 6.83275ZM61.5124 26.4882L61.2493 28.1368L88.0819 32.4193L88.345 30.7707L88.6081 29.1221L61.7755 24.8396L61.5124 26.4882ZM81.317 65.8255L82.2507 67.2094C85.5158 65.0064 90.3731 61.0775 94.4132 56.387C98.3986 51.76 101.867 46.073 101.769 40.3967L100.1 40.4254L98.4311 40.454C98.5064 44.8428 95.7495 49.7194 91.8834 54.208C88.0719 58.633 83.4512 62.3716 80.3832 64.4415L81.317 65.8255ZM100.1 40.4254L101.769 40.3967C101.711 36.982 100.826 34.3408 99.3174 32.4484C97.801 30.5469 95.7666 29.5445 93.6914 29.2211C91.6382 28.9011 89.5315 29.2397 87.7467 30.0142C85.9777 30.7819 84.3764 32.0459 83.5059 33.7209L84.9872 34.4908L86.4686 35.2606C86.8935 34.4431 87.802 33.63 89.0759 33.0772C90.3339 32.5313 91.803 32.3061 93.1773 32.5202C94.5295 32.7309 95.7741 33.3605 96.7069 34.5302C97.6469 35.7089 98.3817 37.5781 98.4311 40.454L100.1 40.4254ZM84.9872 34.4908L83.5059 33.7209C82.1236 36.3805 79.6558 43.5344 77.7691 50.1133C76.8183 53.4286 75.9929 56.6746 75.5135 59.2182C75.2753 60.4823 75.1118 61.628 75.0721 62.5439C75.0525 62.9976 75.0599 63.4584 75.1273 63.8769C75.1838 64.2277 75.3283 64.8731 75.8415 65.3669L76.9989 64.1638L78.1564 62.9607C78.4537 63.2467 78.4514 63.5175 78.4238 63.346C78.4071 63.2423 78.393 63.033 78.4079 62.6884C78.4374 62.0075 78.5674 61.0427 78.7947 59.8365C79.2464 57.4395 80.0402 54.3059 80.9786 51.0337C82.8702 44.4379 85.26 37.5861 86.4686 35.2606L84.9872 34.4908ZM76.9989 64.1638L75.8415 65.3669C76.7757 66.2657 77.8966 66.7878 78.855 67.0868C79.8115 67.3853 80.7132 67.4949 81.317 67.4949V65.8255V64.156C81.0572 64.156 80.4906 64.0995 79.8495 63.8994C79.2103 63.7 78.6039 63.3912 78.1564 62.9607L76.9989 64.1638ZM62.0985 28.8231L62.1081 27.1537C61.8094 27.152 61.5133 27.209 61.2367 27.3213L61.8651 28.868L62.4935 30.4147C62.365 30.4669 62.2276 30.4934 62.0889 30.4926L62.0985 28.8231ZM61.8651 28.868L61.2367 27.3213C60.9599 27.4338 60.7076 27.5997 60.4943 27.8101L61.6668 28.9985L62.8393 30.1869C62.7397 30.2852 62.6221 30.3625 62.4935 30.4147L61.8651 28.868ZM61.6668 28.9985L60.4829 27.8215L57.7773 30.5429L58.9612 31.72L60.1452 32.897L62.8508 30.1756L61.6668 28.9985ZM58.9612 31.72L57.6961 30.6307C57.3218 31.0655 57.125 31.6264 57.1473 32.2015L58.8155 32.1367L60.4837 32.0719C60.4942 32.3426 60.4015 32.6058 60.2264 32.8092L58.9612 31.72ZM58.8155 32.1367L57.1473 32.2015C57.1696 32.7765 57.4093 33.3202 57.8158 33.7246L58.9931 32.541L60.1705 31.3573C60.3604 31.5463 60.4732 31.8013 60.4837 32.0719L58.8155 32.1367ZM58.9931 32.541L57.8158 33.7246C58.2221 34.1287 58.765 34.364 59.3355 34.3859L59.3996 32.7177L59.4637 31.0494C59.7281 31.0596 59.9807 31.1686 60.1705 31.3573L58.9931 32.541ZM59.3996 32.7177L59.3355 34.3859C59.906 34.4078 60.4652 34.2149 60.9011 33.8436L59.8185 32.5727L58.736 31.3018C58.9393 31.1286 59.1992 31.0393 59.4637 31.0494L59.3996 32.7177ZM59.8185 32.5727L60.9945 33.7576L63.7062 31.0664L62.5302 29.8815L61.3542 28.6965L58.6425 31.3877L59.8185 32.5727ZM62.5302 29.8815L63.7027 31.0699C63.9164 30.859 64.0867 30.6075 64.2031 30.3296L62.6633 29.6847L61.1234 29.0397C61.1781 28.9092 61.2579 28.7915 61.3577 28.693L62.5302 29.8815ZM62.6633 29.6847L64.2031 30.3296C64.3195 30.0518 64.3795 29.7535 64.3795 29.4521H62.71H61.0406C61.0406 29.3103 61.0688 29.1701 61.1234 29.0397L62.6633 29.6847ZM62.71 29.4521H64.3795C64.3795 29.1507 64.3195 28.8524 64.2031 28.5746L62.6633 29.2195L61.1234 29.8645C61.0688 29.734 61.0406 29.5939 61.0406 29.4521H62.71ZM62.6633 29.2195L64.2031 28.5746C64.0867 28.2966 63.9164 28.0452 63.7027 27.8343L62.5302 29.0227L61.3577 30.2112C61.2579 30.1127 61.1781 29.995 61.1234 29.8645L62.6633 29.2195ZM62.5302 29.0227L63.7674 27.9018C63.5619 27.675 63.3129 27.4921 63.0354 27.3638L62.3348 28.8791L61.6342 30.3945C61.5051 30.3348 61.389 30.2496 61.293 30.1436L62.5302 29.0227ZM62.3348 28.8791L63.0354 27.3638C62.7581 27.2356 62.458 27.1645 62.1531 27.1546L62.0985 28.8231L62.044 30.4917C61.9025 30.4871 61.7632 30.4541 61.6342 30.3945L62.3348 28.8791ZM59.4218 28.8231L59.4315 27.1537C59.1322 27.152 58.8356 27.2094 58.5589 27.3224L59.1902 28.8679L59.8215 30.4134C59.6918 30.4664 59.5527 30.4934 59.4121 30.4926L59.4218 28.8231ZM59.1902 28.8679L58.5589 27.3224C58.282 27.4356 58.0301 27.6022 57.8178 27.8129L58.9935 28.9981L60.1692 30.1833C60.0696 30.2821 59.9515 30.3603 59.8215 30.4134L59.1902 28.8679ZM58.9935 28.9981L57.8178 27.8129C57.6049 28.024 57.4358 28.2753 57.3203 28.5525L58.8614 29.1944L60.4025 29.8364C60.3484 29.9665 60.269 30.0844 60.1692 30.1833L58.9935 28.9981ZM58.8614 29.1944L57.3203 28.5525C57.205 28.8295 57.1456 29.1265 57.1456 29.4265H58.815H60.4845C60.4845 29.5671 60.4567 29.7064 60.4025 29.8364L58.8614 29.1944ZM58.815 29.4265H57.1456C57.1456 29.7264 57.205 30.0235 57.3203 30.3005L58.8614 29.6585L60.4025 29.0165C60.4567 29.1465 60.4845 29.2858 60.4845 29.4265H58.815ZM58.8614 29.6585L57.3203 30.3005C57.4357 30.5774 57.6048 30.8288 57.8178 31.0401L58.9935 29.8548L60.1692 28.6696C60.2691 28.7687 60.3484 28.8866 60.4025 29.0165L58.8614 29.6585ZM58.9935 29.8548L57.8129 31.0353L60.4974 33.7201L61.678 32.5396L62.8585 31.3592L60.1741 28.6744L58.9935 29.8548ZM61.678 32.5396L60.4926 33.7152C60.7039 33.9282 60.9552 34.0974 61.2322 34.2127L61.8743 32.6717L62.5164 31.1307C62.6463 31.1848 62.7642 31.2641 62.8634 31.3641L61.678 32.5396ZM61.8743 32.6717L61.2322 34.2127C61.5092 34.3282 61.8063 34.3876 62.1063 34.3876V32.7181V31.0486C62.247 31.0486 62.3864 31.0765 62.5164 31.1307L61.8743 32.6717ZM62.1063 32.7181V34.3876C62.4064 34.3876 62.7034 34.3281 62.9804 34.2127L62.3383 32.6717L61.6962 31.1307C61.8261 31.0765 61.9655 31.0486 62.1063 31.0486V32.7181ZM62.3383 32.6717L62.9804 34.2127C63.2574 34.0973 63.5087 33.9282 63.72 33.7152L62.5346 32.5396L61.3492 31.3641C61.4483 31.2641 61.5662 31.1848 61.6962 31.1307L62.3383 32.6717ZM62.5346 32.5396L63.7187 33.7165C64.1419 33.2907 64.3795 32.7148 64.3795 32.1143H62.71H61.0406C61.0406 31.8326 61.152 31.5624 61.3505 31.3627L62.5346 32.5396ZM62.71 32.1143H64.3795C64.3795 31.5139 64.1419 30.9379 63.7187 30.512L62.5346 31.6889L61.3505 32.8658C61.152 32.6661 61.0406 32.3959 61.0406 32.1143H62.71ZM62.5346 31.6889L63.7152 30.5085L61.0247 27.8177L59.8441 28.9981L58.6635 30.1785L61.354 32.8694L62.5346 31.6889ZM59.8441 28.9981L61.0198 27.8129C60.5965 27.393 60.0251 27.1562 59.4288 27.1537L59.4218 28.8231L59.4148 30.4926C59.135 30.4914 58.8669 30.3803 58.6684 30.1833L59.8441 28.9981ZM9.73828 88.9997H11.4077C11.4077 84.2429 12.7049 80.3566 14.9995 77.1696C17.3065 73.9652 20.6878 71.3779 24.9828 69.3519C33.6112 65.2818 45.6649 63.5999 59.1225 63.5999V61.9305V60.261C45.4872 60.261 32.8488 61.9496 23.5583 66.3321C18.8939 68.5324 15.009 71.4418 12.2898 75.2187C9.55804 79.013 8.06882 83.5924 8.06882 88.9997H9.73828ZM59.1225 61.9305V63.5999C72.5798 63.5999 84.6762 65.2817 93.347 69.3531C97.6635 71.3801 101.065 73.9685 103.387 77.1735C105.696 80.3607 107.001 84.2457 107.001 88.9997H108.671H110.34C110.34 83.5896 108.839 79.0089 106.091 75.2148C103.356 71.4386 99.45 68.5302 94.7661 66.3308C85.436 61.9498 72.7582 60.261 59.1225 60.261V61.9305ZM108.671 88.9997H107.001C107.001 105.944 101.532 117.054 93.0046 123.975C84.4141 130.946 72.4616 133.876 59.1225 133.876V135.546V137.215C72.8764 137.215 85.698 134.204 95.1085 126.567C104.582 118.88 110.34 106.718 110.34 88.9997H108.671ZM59.1225 135.546V133.876C45.7373 133.876 33.8385 131.34 25.3072 124.581C16.8525 117.884 11.4077 106.797 11.4077 88.9997H9.73828H8.06882C8.06882 107.515 13.7697 119.701 23.2339 127.198C32.6215 134.635 45.4148 137.215 59.1225 137.215V135.546ZM67.3839 84.1319H69.0534C69.0534 81.4738 67.3183 79.734 65.1693 78.751C63.0625 77.7872 60.3075 77.3989 57.4517 77.3989V79.0684V80.7379C60.0814 80.7379 62.2924 81.1066 63.7804 81.7873C65.2261 82.4486 65.7145 83.2406 65.7145 84.1319H67.3839ZM57.4517 79.0684V77.3989C54.596 77.3989 51.8409 77.7872 49.7341 78.751C47.5851 79.734 45.85 81.4738 45.85 84.1319H47.5195H49.189C49.189 83.2406 49.6773 82.4486 51.1231 81.7873C52.611 81.1066 54.8221 80.7379 57.4517 80.7379V79.0684ZM47.5195 84.1319H45.85C45.85 86.5678 47.3308 88.9428 49.3573 90.6383C51.4256 92.3688 54.2806 93.5913 57.4517 93.5913V91.9219V90.2524C55.1375 90.2524 53.0263 89.3546 51.4999 88.0775C49.9316 86.7654 49.189 85.2454 49.189 84.1319H47.5195ZM57.4517 91.9219V93.5913C60.6229 93.5913 63.4778 92.3688 65.5461 90.6383C67.5726 88.9428 69.0534 86.5678 69.0534 84.1319H67.3839H65.7145C65.7145 85.2454 64.9718 86.7654 63.4036 88.0775C61.8771 89.3546 59.766 90.2524 57.4517 90.2524V91.9219ZM56.1975 132.628L54.5567 132.936C55.6436 138.724 59.2753 144.913 65.397 150.341L66.5047 149.092L67.6123 147.843C61.9168 142.792 58.7599 137.228 57.8383 132.32L56.1975 132.628ZM66.5047 149.092L65.397 150.341C67.218 151.956 69.8235 152.828 72.1801 152.125C74.7349 151.363 76.348 148.974 76.4579 145.417L74.7892 145.366L73.1206 145.314C73.0412 147.884 72.0144 148.69 71.2254 148.926C70.2382 149.22 68.7961 148.893 67.6123 147.843L66.5047 149.092ZM74.7892 145.366L76.4579 145.417C76.5644 141.97 75.4654 138.812 73.7127 136.435C71.9758 134.079 69.495 132.367 66.7726 132.077L66.5956 133.737L66.4185 135.397C67.9776 135.563 69.6884 136.603 71.0252 138.416C72.3462 140.208 73.2033 142.636 73.1206 145.314L74.7892 145.366ZM66.5956 133.737L66.7726 132.077L56.3745 130.968L56.1975 132.628L56.0205 134.288L66.4185 135.397L66.5956 133.737ZM57.9601 133.372L56.2906 133.369C56.2895 134.12 56.185 135.398 55.8736 136.674C55.5504 137.998 55.0677 139.053 54.4866 139.621L55.6529 140.815L56.8192 142.01C58.0778 140.781 58.7474 138.981 59.1173 137.466C59.4989 135.902 59.6281 134.357 59.6295 133.374L57.9601 133.372ZM55.6529 140.815L54.4866 139.621C53.6095 140.477 52.3879 141.044 51.2066 141.313C50.6239 141.445 50.0931 141.495 49.6718 141.485C49.4621 141.48 49.2959 141.46 49.1742 141.436C49.0471 141.41 49.0025 141.386 49.0142 141.392L48.2463 142.874L47.4784 144.357C48.1245 144.692 48.895 144.806 49.5901 144.823C50.3206 144.841 51.1287 144.755 51.947 144.568C53.5677 144.2 55.3967 143.399 56.8192 142.01L55.6529 140.815ZM48.2463 142.874L49.0142 141.392C49.0383 141.405 48.7051 141.154 48.546 140.28C48.4046 139.503 48.483 138.581 48.8551 137.789L47.3442 137.079L45.8332 136.369C45.133 137.859 45.0097 139.497 45.261 140.878C45.4947 142.162 46.1487 143.668 47.4784 144.357L48.2463 142.874ZM47.3442 137.079L48.8551 137.789C48.9043 137.684 49.1193 137.403 49.7687 137.04C50.3829 136.697 51.2096 136.378 52.1819 136.097C54.1212 135.536 56.3949 135.193 58.1137 135.034L57.9601 133.372L57.8064 131.709C55.9616 131.88 53.4635 132.25 51.2538 132.889C50.1516 133.208 49.0596 133.612 48.1396 134.126C47.2548 134.621 46.3202 135.333 45.8332 136.369L47.3442 137.079Z" fill="#A6BFC7" mask="url(#path-1-outside-1_708_771)"/>
</g>
<path d="M19.867 40.4251C19.6943 50.4902 32.3172 61.5523 38.6503 65.8252C39.5139 65.8252 41.5866 65.4929 42.9683 64.1635C44.6955 62.5018 37.5708 39.4756 34.98 34.4905C32.3892 29.5054 20.0829 27.8437 19.867 40.4251Z" fill="#FFC532"/>
<path d="M37.7527 6.83258C34.9592 7.97458 32.2391 23.1938 32.7905 30.7705L59.6231 26.488C60.1745 20.3388 60.2112 7.79889 58.888 6.83259C57.2339 5.62471 41.2446 5.40509 37.7527 6.83258Z" fill="#FFC532"/>
<path d="M35.6555 23.6898C27.3044 29.2431 38.5934 63.8853 46.7503 68.2487C54.9072 72.612 68.1741 71.9509 74.0006 68.2487C79.827 64.5464 94.2251 29.3753 85.874 23.6898C77.5228 18.0042 44.0067 18.1364 35.6555 23.6898Z" fill="#FFDB40"/>
<path d="M83.3831 6.83258C86.1766 7.97458 88.8966 23.1938 88.3453 30.7705L61.5126 26.488C60.9613 20.3388 60.9245 7.79888 62.2478 6.83258C63.9019 5.62471 79.8911 5.40509 83.3831 6.83258Z" fill="#FFDB40"/>
<path d="M100.101 40.4251C100.274 50.4902 87.6506 61.5523 81.3175 65.8252C80.4539 65.8252 78.3812 65.4929 76.9995 64.1635C75.2723 62.5018 82.397 39.4756 84.9878 34.4905C87.5786 29.5054 99.8849 27.8437 100.101 40.4251Z" fill="#FFDB40"/>
<path d="M62.0989 28.8228C62.0189 28.8223 61.9396 28.8376 61.8655 28.8677C61.7914 28.8978 61.724 28.9421 61.6672 28.9982L58.9616 31.7196C58.862 31.8353 58.81 31.9841 58.8159 32.1363C58.8218 32.2886 58.8852 32.4329 58.9935 32.5406C59.1018 32.6483 59.2469 32.7114 59.4 32.7173C59.553 32.7232 59.7026 32.6714 59.8189 32.5724L62.5306 29.8811C62.5876 29.8249 62.6328 29.758 62.6637 29.6843C62.6945 29.6106 62.7104 29.5316 62.7104 29.4518C62.7104 29.3719 62.6945 29.2929 62.6637 29.2192C62.6328 29.1455 62.5876 29.0786 62.5306 29.0224C62.4758 28.9619 62.4094 28.9131 62.3352 28.8788C62.261 28.8445 62.1806 28.8255 62.0989 28.8228Z" fill="#FFBB4D"/>
<path d="M59.4222 28.8228C59.3428 28.8223 59.2641 28.8376 59.1906 28.8676C59.1171 28.8976 59.0502 28.9419 58.9939 28.9978C58.9373 29.0539 58.8924 29.1206 58.8618 29.1941C58.8312 29.2676 58.8154 29.3465 58.8154 29.4261C58.8154 29.5058 58.8312 29.5846 58.8618 29.6582C58.8924 29.7317 58.9373 29.7984 58.9939 29.8545L61.6784 32.5393C61.7344 32.5959 61.8012 32.6407 61.8747 32.6714C61.9482 32.702 62.027 32.7178 62.1067 32.7178C62.1863 32.7178 62.2651 32.702 62.3387 32.6714C62.4122 32.6407 62.4789 32.5959 62.535 32.5393C62.6473 32.4263 62.7104 32.2734 62.7104 32.114C62.7104 31.9546 62.6473 31.8017 62.535 31.6886L59.8445 28.9978C59.7321 28.8863 59.5804 28.8235 59.4222 28.8228V28.8228Z" fill="#FFBB4D"/>
<path d="M9.73833 88.999C9.73833 68.6707 32.0296 61.9297 59.1226 61.9297C86.2155 61.9297 108.671 68.6707 108.671 88.999C108.671 123.661 86.2155 135.545 59.1226 135.545C32.0296 135.545 9.73833 125.311 9.73833 88.999Z" fill="#FFDB40"/>
<path d="M22.2021 79.0684L28.0446 79.0684" stroke="#FCA18E" stroke-width="7.78997" stroke-linecap="round"/>
<path d="M86.8584 79.0684L92.7009 79.0684" stroke="#FCA18E" stroke-width="7.78997" stroke-linecap="round"/>
<path d="M33.8877 93.0898L33.8877 86.8579" stroke="#123041" stroke-width="5.84247" stroke-linecap="round"/>
<path d="M81.0166 93.0898L81.0166 86.8579" stroke="#123041" stroke-width="5.84247" stroke-linecap="round"/>
<path d="M67.3839 84.1319C67.3839 80.5825 62.9371 79.0684 57.4517 79.0684C51.9663 79.0684 47.5195 80.5825 47.5195 84.1319C47.5195 87.6813 51.9663 91.9219 57.4517 91.9219C62.9371 91.9219 67.3839 87.6813 67.3839 84.1319Z" fill="#FFB132"/>
<path d="M66.5049 149.091C60.5963 143.852 57.202 137.976 56.1978 132.627L66.5958 133.736C70.8774 134.193 74.9787 139.24 74.7895 145.365C74.6002 151.491 69.5097 151.756 66.5049 149.091Z" fill="#FFDB40"/>
<path d="M55.6532 140.815C57.4929 139.019 57.9579 135.104 57.9604 133.372C54.3967 133.701 48.4168 134.797 47.3445 137.079C46.2722 139.361 46.9411 142.198 48.2466 142.874C49.5521 143.55 53.3536 143.06 55.6532 140.815Z" fill="#FFDB40"/>
<defs>
<filter id="filter0_d_708_771" x="8.06836" y="4.17285" width="105.61" height="151.537" filterUnits="userSpaceOnUse" color-interpolation-filters="sRGB">
<feFlood flood-opacity="0" result="BackgroundImageFix"/>
<feColorMatrix in="SourceAlpha" type="matrix" values="0 0 0 0 0 0 0 0 0 0 0 0 0 0 0 0 0 0 127 0" result="hardAlpha"/>
<feOffset dx="3.33893" dy="3.33893"/>
<feComposite in2="hardAlpha" operator="out"/>
<feColorMatrix type="matrix" values="0 0 0 0 0.65098 0 0 0 0 0.74902 0 0 0 0 0.780392 0 0 0 1 0"/>
<feBlend mode="normal" in2="BackgroundImageFix" result="effect1_dropShadow_708_771"/>
<feBlend mode="normal" in="SourceGraphic" in2="effect1_dropShadow_708_771" result="shape"/>
</filter>
</defs>
</svg>
