<svg width="111" height="144" viewBox="0 0 111 144" fill="none" xmlns="http://www.w3.org/2000/svg">
<g filter="url(#filter0_d_708_772)">
<mask id="path-1-outside-1_708_772" maskUnits="userSpaceOnUse" x="3.06348" y="5.79102" width="105" height="132" fill="black">
<rect fill="white" x="3.06348" y="5.79102" width="105" height="132"/>
<path d="M75.6377 125.848C71.1894 117.719 73.6981 107.784 81.241 103.656C88.7839 99.5279 98.5046 102.771 102.953 110.899C107.401 119.028 104.892 128.964 97.3495 133.091C89.8066 137.219 80.0859 133.976 75.6377 125.848Z"/>
<path d="M35.3118 126.281C39.76 118.153 37.2514 108.217 29.7085 104.09C22.1656 99.9617 12.4449 103.205 7.9966 111.333C3.54834 119.462 6.05704 129.397 13.5999 133.525C21.1428 137.653 30.8635 134.41 35.3118 126.281Z"/>
<path d="M15.1921 42.3738C15.0194 52.4389 27.6424 63.5009 33.9754 67.7739C34.839 67.7739 36.9117 67.4415 38.2935 66.1122C40.0207 64.4505 32.896 41.4242 30.3052 36.4392C27.7144 31.4541 15.408 29.7924 15.1921 42.3738Z"/>
<path d="M33.0777 8.78099C30.2842 9.92298 27.5641 25.1422 28.1155 32.7189L54.9481 28.4364C55.4995 22.2872 55.5363 9.74729 54.213 8.78099C52.5589 7.57311 36.5696 7.3535 33.0777 8.78099Z"/>
<path d="M30.9806 25.6382C22.6294 31.1916 33.9184 65.8338 42.0753 70.1971C50.2323 74.5604 63.4992 73.8994 69.3256 70.1971C75.1521 66.4949 89.5502 31.3238 81.199 25.6382C72.8479 19.9527 39.3317 20.0849 30.9806 25.6382Z"/>
<path d="M78.7081 8.78099C81.5017 9.92298 84.2217 25.1422 83.6703 32.7189L56.8377 28.4364C56.2864 22.2872 56.2496 9.74729 57.5729 8.78099C59.2269 7.57311 75.2162 7.3535 78.7081 8.78099Z"/>
<path d="M95.4252 42.3738C95.598 52.4389 82.975 63.501 76.642 67.7739C75.7783 67.7739 73.7057 67.4415 72.3239 66.1122C70.5967 64.4505 77.7214 41.4242 80.3122 36.4392C82.903 31.4541 95.2093 29.7924 95.4252 42.3738Z"/>
<path d="M36.2235 39.1822C36.2235 27.3752 45.1171 24.5394 56.0879 24.5394C67.0587 24.5395 75.9523 27.3752 75.9523 39.1822C75.9523 54.7036 67.0587 63.4893 56.0879 63.4893C45.1171 63.4893 36.2235 54.7036 36.2235 39.1822Z"/>
<path d="M57.0341 30.7715C56.9541 30.7711 56.8748 30.7863 56.8007 30.8164C56.7266 30.8465 56.6592 30.8909 56.6024 30.9469L53.8968 33.6684C53.7972 33.7841 53.7452 33.9329 53.7511 34.0851C53.757 34.2373 53.8204 34.3817 53.9287 34.4894C54.037 34.5971 54.1822 34.6602 54.3352 34.6661C54.4882 34.6719 54.6378 34.6202 54.7541 34.5211L57.4658 31.8299C57.5228 31.7737 57.568 31.7068 57.5989 31.6331C57.6297 31.5594 57.6456 31.4803 57.6456 31.4005C57.6456 31.3207 57.6297 31.2416 57.5989 31.1679C57.568 31.0942 57.5228 31.0273 57.4658 30.9711C57.411 30.9107 57.3446 30.8618 57.2704 30.8276C57.1962 30.7933 57.1159 30.7742 57.0341 30.7715Z"/>
<path d="M54.3574 30.7715C54.278 30.7711 54.1993 30.7863 54.1258 30.8163C54.0523 30.8464 53.9855 30.8906 53.9291 30.9465C53.8725 31.0026 53.8277 31.0693 53.797 31.1428C53.7664 31.2164 53.7506 31.2952 53.7506 31.3749C53.7506 31.4545 53.7664 31.5334 53.797 31.6069C53.8277 31.6804 53.8725 31.7472 53.9291 31.8032L56.6136 34.488C56.6696 34.5446 56.7364 34.5895 56.8099 34.6201C56.8834 34.6507 56.9623 34.6665 57.0419 34.6665C57.1215 34.6665 57.2004 34.6507 57.2739 34.6201C57.3474 34.5895 57.4141 34.5446 57.4702 34.488C57.5826 34.375 57.6456 34.2221 57.6456 34.0627C57.6456 33.9033 57.5826 33.7504 57.4702 33.6373L54.7797 30.9465C54.6673 30.835 54.5157 30.7722 54.3574 30.7715Z"/>
<path d="M5.06348 91.4293C5.06348 70.8859 27.7058 64.0736 55.2254 64.0736C82.745 64.0736 105.554 70.8859 105.554 91.4293C105.554 120.94 82.745 133.599 55.2254 133.599C27.7058 133.599 5.06347 123.277 5.06348 91.4293Z"/>
<path d="M64.2671 104.755C64.2671 109.434 64.2671 111.787 55.5034 111.787C46.7397 111.787 46.7397 109.853 46.7397 104.755C46.7397 96.402 50.6633 91.5333 55.5034 91.5333C60.3435 91.5333 64.2671 96.9863 64.2671 104.755Z"/>
<path d="M55.5034 91.5333C59.5933 91.5334 63.0279 95.4275 63.9945 101.322C61.702 102.74 58.6447 103.608 55.286 103.608C52.1069 103.608 49.198 102.83 46.9518 101.544C47.8258 95.1679 51.3216 91.5333 55.5034 91.5333Z"/>
</mask>
<path d="M75.6377 125.848C71.1894 117.719 73.6981 107.784 81.241 103.656C88.7839 99.5279 98.5046 102.771 102.953 110.899C107.401 119.028 104.892 128.964 97.3495 133.091C89.8066 137.219 80.0859 133.976 75.6377 125.848Z" fill="#5BB42B"/>
<path d="M35.3118 126.281C39.76 118.153 37.2514 108.217 29.7085 104.09C22.1656 99.9617 12.4449 103.205 7.9966 111.333C3.54834 119.462 6.05704 129.397 13.5999 133.525C21.1428 137.653 30.8635 134.41 35.3118 126.281Z" fill="#5BB42B"/>
<path d="M15.1921 42.3738C15.0194 52.4389 27.6424 63.5009 33.9754 67.7739C34.839 67.7739 36.9117 67.4415 38.2935 66.1122C40.0207 64.4505 32.896 41.4242 30.3052 36.4392C27.7144 31.4541 15.408 29.7924 15.1921 42.3738Z" fill="#5C9A15"/>
<path d="M33.0777 8.78099C30.2842 9.92298 27.5641 25.1422 28.1155 32.7189L54.9481 28.4364C55.4995 22.2872 55.5363 9.74729 54.213 8.78099C52.5589 7.57311 36.5696 7.3535 33.0777 8.78099Z" fill="#5C9A15"/>
<path d="M30.9806 25.6382C22.6294 31.1916 33.9184 65.8338 42.0753 70.1971C50.2323 74.5604 63.4992 73.8994 69.3256 70.1971C75.1521 66.4949 89.5502 31.3238 81.199 25.6382C72.8479 19.9527 39.3317 20.0849 30.9806 25.6382Z" fill="#5BB42B"/>
<path d="M78.7081 8.78099C81.5017 9.92298 84.2217 25.1422 83.6703 32.7189L56.8377 28.4364C56.2864 22.2872 56.2496 9.74729 57.5729 8.78099C59.2269 7.57311 75.2162 7.3535 78.7081 8.78099Z" fill="#5BB42B"/>
<path d="M95.4252 42.3738C95.598 52.4389 82.975 63.501 76.642 67.7739C75.7783 67.7739 73.7057 67.4415 72.3239 66.1122C70.5967 64.4505 77.7214 41.4242 80.3122 36.4392C82.903 31.4541 95.2093 29.7924 95.4252 42.3738Z" fill="#5BB42B"/>
<path d="M36.2235 39.1822C36.2235 27.3752 45.1171 24.5394 56.0879 24.5394C67.0587 24.5395 75.9523 27.3752 75.9523 39.1822C75.9523 54.7036 67.0587 63.4893 56.0879 63.4893C45.1171 63.4893 36.2235 54.7036 36.2235 39.1822Z" fill="#A1DC3C"/>
<path d="M57.0341 30.7715C56.9541 30.7711 56.8748 30.7863 56.8007 30.8164C56.7266 30.8465 56.6592 30.8909 56.6024 30.9469L53.8968 33.6684C53.7972 33.7841 53.7452 33.9329 53.7511 34.0851C53.757 34.2373 53.8204 34.3817 53.9287 34.4894C54.037 34.5971 54.1822 34.6602 54.3352 34.6661C54.4882 34.6719 54.6378 34.6202 54.7541 34.5211L57.4658 31.8299C57.5228 31.7737 57.568 31.7068 57.5989 31.6331C57.6297 31.5594 57.6456 31.4803 57.6456 31.4005C57.6456 31.3207 57.6297 31.2416 57.5989 31.1679C57.568 31.0942 57.5228 31.0273 57.4658 30.9711C57.411 30.9107 57.3446 30.8618 57.2704 30.8276C57.1962 30.7933 57.1159 30.7742 57.0341 30.7715Z" fill="#5BB42B"/>
<path d="M54.3574 30.7715C54.278 30.7711 54.1993 30.7863 54.1258 30.8163C54.0523 30.8464 53.9855 30.8906 53.9291 30.9465C53.8725 31.0026 53.8277 31.0693 53.797 31.1428C53.7664 31.2164 53.7506 31.2952 53.7506 31.3749C53.7506 31.4545 53.7664 31.5334 53.797 31.6069C53.8277 31.6804 53.8725 31.7472 53.9291 31.8032L56.6136 34.488C56.6696 34.5446 56.7364 34.5895 56.8099 34.6201C56.8834 34.6507 56.9623 34.6665 57.0419 34.6665C57.1215 34.6665 57.2004 34.6507 57.2739 34.6201C57.3474 34.5895 57.4141 34.5446 57.4702 34.488C57.5826 34.375 57.6456 34.2221 57.6456 34.0627C57.6456 33.9033 57.5826 33.7504 57.4702 33.6373L54.7797 30.9465C54.6673 30.835 54.5157 30.7722 54.3574 30.7715Z" fill="#5BB42B"/>
<path d="M5.06348 91.4293C5.06348 70.8859 27.7058 64.0736 55.2254 64.0736C82.745 64.0736 105.554 70.8859 105.554 91.4293C105.554 120.94 82.745 133.599 55.2254 133.599C27.7058 133.599 5.06347 123.277 5.06348 91.4293Z" fill="#5BB42B"/>
<path d="M64.2671 104.755C64.2671 109.434 64.2671 111.787 55.5034 111.787C46.7397 111.787 46.7397 109.853 46.7397 104.755C46.7397 96.402 50.6633 91.5333 55.5034 91.5333C60.3435 91.5333 64.2671 96.9863 64.2671 104.755Z" fill="#D52C2F"/>
<path d="M55.5034 91.5333C59.5933 91.5334 63.0279 95.4275 63.9945 101.322C61.702 102.74 58.6447 103.608 55.286 103.608C52.1069 103.608 49.198 102.83 46.9518 101.544C47.8258 95.1679 51.3216 91.5333 55.5034 91.5333Z" fill="#FF686B"/>
<path d="M20.5878 118.409C20.5878 118.87 20.9615 119.243 21.4226 119.243C21.8836 119.243 22.2573 118.87 22.2573 118.409H21.4226H20.5878ZM86.8025 118.798C86.8025 119.259 87.1763 119.633 87.6373 119.633C88.0983 119.633 88.472 119.259 88.472 118.798H87.6373H86.8025ZM15.1904 97.7095C14.7294 97.7095 14.3556 98.0832 14.3556 98.5442C14.3556 99.0052 14.7294 99.379 15.1904 99.379V98.5442V97.7095ZM87.2475 97.7095C86.7865 97.7095 86.4128 98.0832 86.4128 98.5442C86.4128 99.0052 86.7865 99.379 87.2475 99.379V98.5442V97.7095ZM21.4226 118.409H22.2573V112.177H21.4226H20.5878V118.409H21.4226ZM87.6373 118.798H88.472V112.566H87.6373H86.8025V118.798H87.6373ZM15.1904 98.5442V99.379H21.8118V98.5442V97.7095H15.1904V98.5442ZM87.2475 98.5442V99.379H93.869V98.5442V97.7095H87.2475V98.5442ZM33.9754 67.7739L33.0417 69.1578L33.4649 69.4433H33.9754V67.7739ZM15.1921 42.3738L13.5229 42.3451V42.3451L15.1921 42.3738ZM38.2935 66.1122L37.136 64.9091H37.136L38.2935 66.1122ZM28.1155 32.7189L26.4505 32.8401L26.5825 34.6542L28.3787 34.3675L28.1155 32.7189ZM33.0777 8.78099L32.446 7.23566V7.23566L33.0777 8.78099ZM54.213 8.78099L55.1976 7.43274V7.43274L54.213 8.78099ZM54.9481 28.4364L55.2113 30.085L56.4949 29.8802L56.6109 28.5855L54.9481 28.4364ZM42.0753 70.1971L41.2879 71.6692V71.6692L42.0753 70.1971ZM81.199 25.6382L82.1385 24.2582V24.2582L81.199 25.6382ZM69.3256 70.1971L68.4303 68.7881V68.7881L69.3256 70.1971ZM83.6703 32.7189L83.4072 34.3675L85.2034 34.6542L85.3354 32.8401L83.6703 32.7189ZM78.7081 8.78099L79.3399 7.23567V7.23567L78.7081 8.78099ZM57.5729 8.78099L56.5883 7.43274V7.43274L57.5729 8.78099ZM56.8377 28.4364L55.1749 28.5855L55.291 29.8802L56.5746 30.085L56.8377 28.4364ZM76.642 67.7739V69.4433H77.1525L77.5757 69.1578L76.642 67.7739ZM95.4252 42.3738L97.0945 42.3451L95.4252 42.3738ZM72.3239 66.1122L73.4814 64.9091V64.9091L72.3239 66.1122ZM36.2235 39.1822H37.893H36.2235ZM75.9523 39.1822L77.6218 39.1822L75.9523 39.1822ZM57.0341 30.7715L57.0887 29.103L57.0662 29.1022L57.0437 29.1021L57.0341 30.7715ZM56.6024 30.9469L55.4299 29.7585L55.4242 29.7642L55.4185 29.7699L56.6024 30.9469ZM53.8968 33.6684L52.7129 32.4913L52.6707 32.5338L52.6317 32.5791L53.8968 33.6684ZM54.7541 34.5211L55.8367 35.792L55.885 35.7508L55.9301 35.706L54.7541 34.5211ZM57.4658 31.8299L56.2933 30.6414L56.2898 30.6449L57.4658 31.8299ZM57.4658 30.9711L56.2286 32.092L56.26 32.1267L56.2933 32.1596L57.4658 30.9711ZM54.3574 30.7715L54.3477 32.441L54.3504 32.441L54.3574 30.7715ZM53.9291 30.9465L55.1048 32.1318L55.1048 32.1317L53.9291 30.9465ZM53.9291 31.8032L55.1097 30.6228L55.1048 30.618L53.9291 31.8032ZM56.6136 34.488L57.799 33.3125L57.7941 33.3076L56.6136 34.488ZM57.4702 34.488L56.2861 33.3111L56.2848 33.3125L57.4702 34.488ZM57.4702 33.6373L58.6543 32.4604L58.6508 32.4569L57.4702 33.6373ZM54.7797 30.9465L55.9603 29.7661L55.9554 29.7613L54.7797 30.9465ZM5.06348 91.4293H3.39401H5.06348ZM105.554 91.4293H107.224H105.554ZM64.2671 104.755H65.9366H64.2671ZM46.7397 104.755H45.0702H46.7397ZM63.9945 101.322L64.873 102.741L65.8227 102.154L65.6419 101.052L63.9945 101.322ZM55.286 103.608V105.278H55.2861L55.286 103.608ZM46.9518 101.544L45.2978 101.317L45.1448 102.433L46.1223 102.992L46.9518 101.544ZM75.6376 125.848L77.1022 125.046C73.0391 117.622 75.4096 108.75 82.0424 105.12L81.241 103.656L80.4395 102.191C71.9866 106.817 69.3397 117.817 74.1731 126.649L75.6376 125.848ZM81.241 103.656L82.0424 105.12C88.6753 101.49 97.4252 104.276 101.488 111.701L102.953 110.899L104.417 110.098C99.584 101.266 88.8924 97.5654 80.4395 102.191L81.241 103.656ZM102.953 110.899L101.488 111.701C105.551 119.126 103.181 127.997 96.5481 131.627L97.3495 133.091L98.151 134.556C106.604 129.93 109.251 118.93 104.417 110.098L102.953 110.899ZM97.3495 133.091L96.5481 131.627C89.9152 135.257 81.1653 132.471 77.1022 125.046L75.6376 125.848L74.1731 126.649C79.0065 135.481 89.6981 139.182 98.151 134.556L97.3495 133.091ZM35.3118 126.281L36.7763 127.083C41.6097 118.251 38.9628 107.251 30.5099 102.625L29.7085 104.09L28.907 105.554C35.5399 109.184 37.9104 118.055 33.8473 125.48L35.3118 126.281ZM29.7085 104.09L30.5099 102.625C22.057 97.9992 11.3655 101.7 6.53209 110.532L7.9966 111.333L9.46111 112.135C13.5242 104.71 22.2741 101.924 28.907 105.554L29.7085 104.09ZM7.9966 111.333L6.53209 110.532C1.69869 119.364 4.34558 130.364 12.7985 134.99L13.5999 133.525L14.4014 132.061C7.7685 128.431 5.398 119.559 9.46111 112.135L7.9966 111.333ZM13.5999 133.525L12.7985 134.99C21.2514 139.615 31.9429 135.915 36.7763 127.083L35.3118 126.281L33.8473 125.48C29.7842 132.905 21.0342 135.69 14.4014 132.061L13.5999 133.525ZM33.9754 67.7739L34.9092 66.3899C31.8412 64.32 27.2205 60.5814 23.409 56.1563C19.5429 51.6678 16.786 46.7912 16.8613 42.4024L15.1921 42.3738L13.5229 42.3451C13.4255 48.0214 16.8938 53.7084 20.8792 58.3354C24.9193 63.0259 29.7766 66.9548 33.0417 69.1578L33.9754 67.7739ZM15.1921 42.3738L16.8613 42.4024C16.9107 39.5265 17.6455 37.6573 18.5855 36.4786C19.5183 35.3089 20.7629 34.6793 22.1151 34.4686C23.4894 34.2545 24.9585 34.4797 26.2165 35.0256C27.4904 35.5784 28.3989 36.3915 28.8238 37.209L30.3052 36.4392L31.7865 35.6693C30.916 33.9943 29.3147 32.7303 27.5457 31.9626C25.7608 31.1881 23.6542 30.8495 21.601 31.1695C19.5258 31.4929 17.4914 32.4954 15.975 34.3968C14.4659 36.2892 13.5815 38.9304 13.5229 42.3451L15.1921 42.3738ZM30.3052 36.4392L28.8238 37.209C30.0324 39.5345 32.4222 46.3863 34.3138 52.9822C35.2522 56.2543 36.046 59.3879 36.4977 61.7849C36.725 62.9911 36.855 63.9559 36.8845 64.6368C36.8994 64.9814 36.8853 65.1907 36.8686 65.2944C36.841 65.466 36.8387 65.1951 37.136 64.9091L38.2935 66.1122L39.4509 67.3153C39.9641 66.8215 40.1086 66.1761 40.1651 65.8253C40.2325 65.4068 40.2399 64.946 40.2203 64.4923C40.1806 63.5764 40.0171 62.4307 39.7789 61.1666C39.2995 58.6231 38.4741 55.377 37.5233 52.0617C35.6366 45.4828 33.1688 38.3289 31.7865 35.6693L30.3052 36.4392ZM38.2935 66.1122L37.136 64.9091C36.6885 65.3396 36.0821 65.6484 35.4429 65.8478C34.8018 66.0479 34.2352 66.1044 33.9754 66.1044V67.7739V69.4433C34.5792 69.4433 35.4808 69.3337 36.4374 69.0352C37.3958 68.7362 38.5167 68.2141 39.4509 67.3153L38.2935 66.1122ZM28.1155 32.7189L29.7806 32.5977C29.5197 29.0124 30.0358 23.4737 30.9805 18.6583C31.4512 16.2591 32.0148 14.1108 32.6096 12.5234C32.9085 11.7259 33.1954 11.1241 33.452 10.7171C33.7434 10.255 33.8575 10.2658 33.7095 10.3263L33.0777 8.78099L32.446 7.23566C31.5995 7.58169 31.0176 8.31786 30.6277 8.93624C30.203 9.60975 29.8234 10.4435 29.483 11.3518C28.7994 13.1759 28.1936 15.5202 27.7041 18.0155C26.7282 22.9895 26.16 28.8487 26.4505 32.8401L28.1155 32.7189ZM33.0777 8.78099L33.7095 10.3263C34.3105 10.0806 35.7172 9.83599 37.7538 9.67305C39.7104 9.51652 42.0387 9.44864 44.3247 9.46216C46.6118 9.47569 48.8235 9.57051 50.5474 9.73279C51.4126 9.81423 52.1249 9.90994 52.6501 10.0135C52.9134 10.0655 53.1026 10.1142 53.2272 10.1545C53.3799 10.204 53.3396 10.2104 53.2285 10.1292L54.213 8.78099L55.1976 7.43274C54.8796 7.20057 54.5206 7.06374 54.2557 6.97796C53.9627 6.8831 53.6353 6.80462 53.2963 6.73775C52.6168 6.60372 51.7813 6.49526 50.8603 6.40856C49.0119 6.23456 46.6979 6.13721 44.3444 6.12329C41.9898 6.10936 39.5627 6.17874 37.4875 6.34476C35.4924 6.50438 33.5909 6.76763 32.446 7.23566L33.0777 8.78099ZM54.213 8.78099L53.2285 10.1292C52.9941 9.95809 52.925 9.78508 52.9484 9.83241C52.9581 9.85206 52.9923 9.93149 53.0388 10.0986C53.1313 10.4308 53.2241 10.9311 53.3068 11.5999C53.4708 12.9263 53.5713 14.7125 53.6145 16.7013C53.7007 20.6745 53.5546 25.284 53.2854 28.2873L54.9481 28.4364L56.6109 28.5855C56.893 25.4397 57.041 20.7047 56.9526 16.6289C56.9085 14.5934 56.8046 12.6791 56.6205 11.1902C56.5292 10.4515 56.412 9.76548 56.2554 9.203C56.1774 8.92269 56.0773 8.62762 55.9424 8.35441C55.8212 8.10889 55.5973 7.72467 55.1976 7.43274L54.213 8.78099ZM54.9481 28.4364L54.685 26.7878L27.8524 31.0703L28.1155 32.7189L28.3787 34.3675L55.2113 30.085L54.9481 28.4364ZM42.0753 70.1971L42.8628 68.725C42.1408 68.3388 41.2427 67.5284 40.2305 66.2307C39.2363 64.9561 38.2108 63.314 37.204 61.3983C35.1909 57.5678 33.3163 52.7655 31.944 47.9099C30.5686 43.0436 29.7242 38.2164 29.7134 34.3251C29.7079 32.3781 29.912 30.7403 30.3155 29.4759C30.7193 28.2105 31.2804 27.4437 31.905 27.0284L30.9806 25.6382L30.0561 24.2481C28.5929 25.2211 27.68 26.7517 27.1346 28.4608C26.5889 30.1708 26.3685 32.1846 26.3745 34.3344C26.3864 38.6367 27.3082 43.7841 28.7309 48.818C30.1566 53.8625 32.1117 58.886 34.2484 62.9516C35.3165 64.9839 36.4459 66.8075 37.5978 68.2843C38.7316 69.7379 39.9707 70.9646 41.2879 71.6692L42.0753 70.1971ZM30.9806 25.6382L31.905 27.0284C33.6712 25.8539 37.02 24.8446 41.4372 24.1448C45.7811 23.4566 50.9258 23.1013 56.0924 23.0931C61.2593 23.085 66.4024 23.4241 70.7439 24.1078C75.16 24.8033 78.4997 25.8201 80.2595 27.0182L81.199 25.6382L82.1385 24.2582C79.7228 22.6135 75.7413 21.5148 71.2634 20.8096C66.7108 20.0926 61.3871 19.7458 56.0872 19.7542C50.7869 19.7626 45.4648 20.1262 40.9147 20.847C36.4379 21.5562 32.4655 22.6459 30.0561 24.2481L30.9806 25.6382ZM81.199 25.6382L80.2595 27.0182C80.8584 27.426 81.3778 28.1791 81.71 29.4543C82.0427 30.7317 82.1472 32.3917 82.0202 34.3717C81.7665 38.3271 80.6138 43.2212 78.9933 48.1389C77.3777 53.042 75.3272 57.879 73.3332 61.7001C72.3356 63.6118 71.3657 65.2431 70.4864 66.4912C69.5736 67.7869 68.8669 68.5106 68.4303 68.7881L69.3256 70.1971L70.221 71.6062C71.241 70.9581 72.2588 69.7728 73.216 68.4142C74.2067 67.008 75.2523 65.2398 76.2933 63.2448C78.3767 59.2523 80.4962 54.247 82.1645 49.1839C83.828 44.1354 85.0731 38.9393 85.3523 34.5854C85.4918 32.4107 85.3966 30.3612 84.9411 28.6125C84.4849 26.8616 83.6274 25.2719 82.1385 24.2582L81.199 25.6382ZM69.3256 70.1971L68.4303 68.7881C65.8823 70.4071 61.4589 71.4723 56.5472 71.5525C51.6646 71.6321 46.6142 70.7318 42.8628 68.725L42.0753 70.1971L41.2879 71.6692C45.6934 74.0258 51.3549 74.9766 56.6017 74.891C61.8192 74.8058 66.9425 73.6894 70.221 71.6062L69.3256 70.1971ZM83.6703 32.7189L85.3354 32.8401C85.6259 28.8487 85.0577 22.9895 84.0818 18.0155C83.5923 15.5202 82.9864 13.176 82.3028 11.3518C81.9625 10.4435 81.5829 9.60976 81.1582 8.93625C80.7683 8.31786 80.1863 7.5817 79.3399 7.23567L78.7081 8.78099L78.0764 10.3263C77.9283 10.2658 78.0425 10.255 78.3339 10.7171C78.5905 11.1241 78.8774 11.7259 79.1762 12.5234C79.7711 14.1108 80.3346 16.2591 80.8054 18.6583C81.7501 23.4737 82.2662 29.0124 82.0053 32.5977L83.6703 32.7189ZM78.7081 8.78099L79.3399 7.23567C78.195 6.76763 76.2935 6.50439 74.2983 6.34476C72.2232 6.17874 69.796 6.10936 67.4414 6.12329C65.088 6.13721 62.774 6.23456 60.9255 6.40856C60.0045 6.49526 59.169 6.60372 58.4896 6.73775C58.1506 6.80462 57.8232 6.8831 57.5302 6.97796C57.2653 7.06374 56.9063 7.20057 56.5883 7.43274L57.5729 8.78099L58.5574 10.1292C58.4462 10.2104 58.406 10.204 58.5587 10.1545C58.6833 10.1142 58.8725 10.0655 59.1358 10.0135C59.661 9.90994 60.3733 9.81423 61.2385 9.73279C62.9624 9.57051 65.1741 9.47569 67.4612 9.46216C69.7471 9.44864 72.0755 9.51652 74.0321 9.67306C76.0687 9.83599 77.4753 10.0806 78.0764 10.3263L78.7081 8.78099ZM57.5729 8.78099L56.5883 7.43274C56.1885 7.72467 55.9647 8.10889 55.8435 8.35441C55.7086 8.62762 55.6085 8.92269 55.5304 9.203C55.3738 9.76548 55.2567 10.4515 55.1654 11.1902C54.9813 12.6791 54.8774 14.5934 54.8332 16.6289C54.7448 20.7047 54.8929 25.4397 55.1749 28.5855L56.8377 28.4364L58.5005 28.2873C58.2312 25.284 58.0852 20.6745 58.1714 16.7013C58.2145 14.7125 58.3151 12.9263 58.4791 11.5999C58.5618 10.9311 58.6545 10.4308 58.747 10.0986C58.7935 9.93149 58.8278 9.85206 58.8375 9.83241C58.8608 9.78508 58.7918 9.95809 58.5574 10.1292L57.5729 8.78099ZM56.8377 28.4364L56.5746 30.085L83.4072 34.3675L83.6703 32.7189L83.9334 31.0703L57.1008 26.7878L56.8377 28.4364ZM76.642 67.7739L77.5757 69.1578C80.8408 66.9548 85.6981 63.0259 89.7382 58.3354C93.7236 53.7084 97.1919 48.0214 97.0945 42.3451L95.4252 42.3738L93.756 42.4024C93.8313 46.7912 91.0745 51.6678 87.2083 56.1564C83.3969 60.5814 78.7762 64.32 75.7082 66.3899L76.642 67.7739ZM95.4252 42.3738L97.0945 42.3451C97.0359 38.9304 96.1514 36.2892 94.6423 34.3968C93.126 32.4954 91.0915 31.4929 89.0164 31.1695C86.9632 30.8495 84.8565 31.1881 83.0717 31.9626C81.3027 32.7303 79.7014 33.9943 78.8309 35.6693L80.3122 36.4392L81.7936 37.209C82.2185 36.3915 83.127 35.5784 84.4008 35.0256C85.6588 34.4797 87.128 34.2545 88.5023 34.4686C89.8545 34.6793 91.0991 35.3089 92.0318 36.4786C92.9718 37.6573 93.7067 39.5265 93.756 42.4024L95.4252 42.3738ZM80.3122 36.4392L78.8309 35.6693C77.4486 38.3289 74.9807 45.4828 73.094 52.0617C72.1433 55.377 71.3178 58.6231 70.8385 61.1666C70.6003 62.4307 70.4368 63.5764 70.3971 64.4923C70.3774 64.946 70.3849 65.4068 70.4523 65.8253C70.5088 66.1761 70.6532 66.8215 71.1665 67.3153L72.3239 66.1122L73.4814 64.9091C73.7787 65.1951 73.7764 65.466 73.7487 65.2944C73.732 65.1907 73.718 64.9814 73.7329 64.6368C73.7624 63.9559 73.8924 62.9911 74.1197 61.7849C74.5714 59.3879 75.3652 56.2543 76.3036 52.9822C78.1951 46.3863 80.585 39.5345 81.7936 37.209L80.3122 36.4392ZM72.3239 66.1122L71.1665 67.3153C72.1007 68.2141 73.2216 68.7362 74.18 69.0352C75.1365 69.3337 76.0381 69.4433 76.642 69.4433V67.7739V66.1044C76.3821 66.1044 75.8156 66.0479 75.1745 65.8478C74.5352 65.6484 73.9289 65.3396 73.4814 64.9091L72.3239 66.1122ZM36.2235 39.1822H37.893C37.893 33.7794 39.8787 30.7014 42.9087 28.8598C46.0989 26.921 50.6799 26.2089 56.0879 26.2089V24.5394V22.87C50.5251 22.87 45.174 23.5758 41.1746 26.0066C37.0151 28.5347 34.5541 32.778 34.554 39.1822H36.2235ZM56.0879 24.5394V26.2089C61.4959 26.2089 66.077 26.921 69.2671 28.8599C72.2971 30.7014 74.2829 33.7794 74.2829 39.1822H75.9523L77.6218 39.1822C77.6218 32.778 75.1608 28.5347 71.0013 26.0066C67.0019 23.5758 61.6507 22.87 56.0879 22.87V24.5394ZM75.9523 39.1822H74.2829C74.2829 46.6277 72.1528 52.2883 68.8741 56.0612C65.6059 59.822 61.1046 61.8198 56.0879 61.8198V63.4893V65.1587C62.042 65.1587 67.473 62.7638 71.3943 58.2513C75.3051 53.7511 77.6218 47.2582 77.6218 39.1822L75.9523 39.1822ZM56.0879 63.4893V61.8198C51.0712 61.8198 46.5699 59.822 43.3018 56.0612C40.0231 52.2883 37.893 46.6277 37.893 39.1822H36.2235H34.554C34.554 47.2582 36.8708 53.7511 40.7815 58.2513C44.7029 62.7638 50.1338 65.1587 56.0879 65.1587V63.4893ZM57.0341 30.7715L57.0437 29.1021C56.745 29.1004 56.4489 29.1574 56.1723 29.2698L56.8007 30.8164L57.4291 32.3631C57.3006 32.4153 57.1631 32.4418 57.0245 32.441L57.0341 30.7715ZM56.8007 30.8164L56.1723 29.2698C55.8955 29.3822 55.6431 29.5481 55.4299 29.7585L56.6024 30.9469L57.7749 32.1353C57.6753 32.2336 57.5577 32.3109 57.4291 32.3631L56.8007 30.8164ZM56.6024 30.9469L55.4185 29.7699L52.7129 32.4913L53.8968 33.6684L55.0808 34.8454L57.7864 32.124L56.6024 30.9469ZM53.8968 33.6684L52.6317 32.5791C52.2574 33.0139 52.0606 33.5748 52.0829 34.1499L53.7511 34.0851L55.4193 34.0203C55.4298 34.291 55.3371 34.5542 55.162 34.7576L53.8968 33.6684ZM53.7511 34.0851L52.0829 34.1499C52.1052 34.7249 52.3448 35.2686 52.7514 35.673L53.9287 34.4894L55.1061 33.3058C55.296 33.4947 55.4088 33.7497 55.4193 34.0203L53.7511 34.0851ZM53.9287 34.4894L52.7514 35.673C53.1577 36.0771 53.7006 36.3124 54.2711 36.3343L54.3352 34.6661L54.3993 32.9978C54.6637 33.008 54.9163 33.117 55.1061 33.3058L53.9287 34.4894ZM54.3352 34.6661L54.2711 36.3343C54.8416 36.3562 55.4008 36.1633 55.8367 35.792L54.7541 34.5211L53.6716 33.2502C53.8749 33.077 54.1348 32.9877 54.3993 32.9978L54.3352 34.6661ZM54.7541 34.5211L55.9301 35.706L58.6418 33.0148L57.4658 31.8299L56.2898 30.6449L53.5781 33.3361L54.7541 34.5211ZM57.4658 31.8299L58.6383 33.0183C58.852 32.8074 59.0223 32.5559 59.1387 32.278L57.5989 31.6331L56.059 30.9881C56.1137 30.8576 56.1935 30.7399 56.2933 30.6414L57.4658 31.8299ZM57.5989 31.6331L59.1387 32.278C59.2551 32.0002 59.3151 31.7019 59.3151 31.4005H57.6456H55.9762C55.9762 31.2587 56.0044 31.1186 56.059 30.9881L57.5989 31.6331ZM57.6456 31.4005H59.3151C59.3151 31.0991 59.2551 30.8008 59.1387 30.523L57.5989 31.1679L56.059 31.8129C56.0044 31.6824 55.9762 31.5423 55.9762 31.4005H57.6456ZM57.5989 31.1679L59.1387 30.523C59.0223 30.2451 58.852 29.9936 58.6383 29.7827L57.4658 30.9711L56.2933 32.1596C56.1935 32.0611 56.1137 31.9434 56.059 31.8129L57.5989 31.1679ZM57.4658 30.9711L58.703 29.8502C58.4975 29.6234 58.2485 29.4405 57.971 29.3122L57.2704 30.8276L56.5698 32.3429C56.4407 32.2832 56.3246 32.198 56.2286 32.092L57.4658 30.9711ZM57.2704 30.8276L57.971 29.3122C57.6937 29.184 57.3936 29.1129 57.0887 29.103L57.0341 30.7715L56.9796 32.4401C56.8381 32.4355 56.6988 32.4025 56.5698 32.3429L57.2704 30.8276ZM54.3574 30.7715L54.3671 29.1021C54.0678 29.1004 53.7712 29.1578 53.4945 29.2708L54.1258 30.8163L54.7571 32.3618C54.6274 32.4148 54.4883 32.4418 54.3477 32.441L54.3574 30.7715ZM54.1258 30.8163L53.4945 29.2708C53.2176 29.384 52.9657 29.5506 52.7534 29.7613L53.9291 30.9465L55.1048 32.1317C55.0052 32.2306 54.887 32.3088 54.7571 32.3618L54.1258 30.8163ZM53.9291 30.9465L52.7534 29.7613C52.5405 29.9724 52.3714 30.2238 52.2559 30.5009L53.797 31.1428L55.3381 31.7848C55.284 31.9148 55.2046 32.0327 55.1048 32.1318L53.9291 30.9465ZM53.797 31.1428L52.2559 30.5009C52.1406 30.7778 52.0812 31.0749 52.0812 31.3749H53.7506H55.4201C55.4201 31.5156 55.3923 31.6549 55.3381 31.7848L53.797 31.1428ZM53.7506 31.3749H52.0812C52.0812 31.6749 52.1406 31.9719 52.2559 32.2489L53.797 31.6069L55.3381 30.9649C55.3923 31.0948 55.4201 31.2342 55.4201 31.3749H53.7506ZM53.797 31.6069L52.2559 32.2489C52.3713 32.5258 52.5404 32.7772 52.7534 32.9885L53.9291 31.8032L55.1048 30.618C55.2047 30.7171 55.284 30.835 55.3381 30.9649L53.797 31.6069ZM53.9291 31.8032L52.7485 32.9837L55.433 35.6685L56.6136 34.488L57.7941 33.3076L55.1097 30.6228L53.9291 31.8032ZM56.6136 34.488L55.4282 35.6636C55.6395 35.8767 55.8908 36.0458 56.1678 36.1612L56.8099 34.6201L57.452 33.0791C57.5819 33.1332 57.6998 33.2125 57.799 33.3125L56.6136 34.488ZM56.8099 34.6201L56.1678 36.1612C56.4448 36.2766 56.7419 36.336 57.0419 36.336V34.6665V32.997C57.1826 32.997 57.322 33.0249 57.452 33.0791L56.8099 34.6201ZM57.0419 34.6665V36.336C57.342 36.336 57.639 36.2766 57.916 36.1612L57.2739 34.6201L56.6318 33.0791C56.7617 33.0249 56.9011 32.997 57.0419 32.997V34.6665ZM57.2739 34.6201L57.916 36.1612C58.1929 36.0458 58.4443 35.8767 58.6556 35.6636L57.4702 34.488L56.2848 33.3125C56.3839 33.2125 56.5018 33.1332 56.6318 33.0791L57.2739 34.6201ZM57.4702 34.488L58.6543 35.6649C59.0775 35.2391 59.3151 34.6631 59.3151 34.0627H57.6456L55.9762 34.0627C55.9762 33.7811 56.0876 33.5109 56.2861 33.3111L57.4702 34.488ZM57.6456 34.0627H59.3151C59.3151 33.4623 59.0775 32.8863 58.6543 32.4604L57.4702 33.6373L56.2861 34.8142C56.0876 34.6145 55.9762 34.3443 55.9762 34.0627L57.6456 34.0627ZM57.4702 33.6373L58.6508 32.4569L55.9602 29.7661L54.7797 30.9465L53.5991 32.1269L56.2896 34.8178L57.4702 33.6373ZM54.7797 30.9465L55.9554 29.7613C55.5321 29.3414 54.9607 29.1046 54.3644 29.1021L54.3574 30.7715L54.3504 32.441C54.0706 32.4398 53.8025 32.3287 53.604 32.1317L54.7797 30.9465ZM5.06348 91.4293H6.73294C6.73294 86.6206 8.05095 82.6907 10.3838 79.4669C12.7296 76.2253 16.1676 73.6081 20.5339 71.5589C29.3044 67.4428 41.5539 65.743 55.2254 65.743V64.0736V62.4041C41.3774 62.4041 28.5459 64.1105 19.1153 68.5363C14.381 70.7582 10.4385 73.6959 7.67886 77.5095C4.9063 81.3408 3.39401 85.9662 3.39401 91.4293H5.06348ZM55.2254 64.0736V65.743C68.8967 65.743 81.1893 67.4427 90.003 71.5602C94.3911 73.6102 97.8499 76.2285 100.211 79.4708C102.558 82.6948 103.885 86.6234 103.885 91.4293H105.554H107.224C107.224 85.9634 105.699 81.3368 102.91 77.5056C100.134 73.6927 96.1703 70.7561 91.4162 68.5351C81.9454 64.1106 69.0738 62.4041 55.2254 62.4041V64.0736ZM105.554 91.4293H103.885C103.885 105.698 98.4 115.729 89.7082 122.245C80.948 128.812 68.7609 131.93 55.2254 131.93V133.599V135.268C69.2095 135.268 82.1868 132.056 91.711 124.917C101.304 117.725 107.224 106.672 107.224 91.4293H105.554ZM55.2254 133.599V131.93C41.6276 131.93 29.4952 129.371 20.801 123.103C12.2037 116.904 6.73294 106.907 6.73294 91.4293H5.06348H3.39401C3.39401 107.8 9.24439 118.887 18.8482 125.811C28.3551 132.666 41.3037 135.268 55.2254 135.268V133.599ZM64.2671 104.755H62.5976C62.5976 105.964 62.5935 106.846 62.4806 107.571C62.3738 108.256 62.1916 108.629 61.9514 108.886C61.7027 109.153 61.2228 109.475 60.1829 109.722C59.1337 109.973 57.6387 110.118 55.5034 110.118V111.787V113.457C57.75 113.457 59.5414 113.308 60.9569 112.97C62.3818 112.631 63.5451 112.072 64.3918 111.165C65.2472 110.249 65.6127 109.157 65.7797 108.085C65.9407 107.052 65.9366 105.885 65.9366 104.755H64.2671ZM55.5034 111.787V110.118C53.3532 110.118 51.8459 109.997 50.7828 109.772C49.7232 109.548 49.2587 109.251 49.0291 109.016C48.8151 108.797 48.6346 108.458 48.527 107.753C48.4133 107.006 48.4091 106.072 48.4091 104.755H46.7397H45.0702C45.0702 105.987 45.0661 107.205 45.2262 108.256C45.3925 109.346 45.7597 110.448 46.6412 111.349C47.507 112.235 48.6857 112.741 50.0909 113.038C51.4926 113.335 53.2717 113.457 55.5034 113.457V111.787ZM46.7397 104.755H48.4091C48.4091 100.821 49.335 97.8786 50.6733 95.9703C51.9924 94.0896 53.7025 93.2027 55.5034 93.2027V91.5333V89.8638C52.4642 89.8638 49.7925 91.4113 47.9397 94.0531C46.1062 96.6674 45.0702 100.335 45.0702 104.755H46.7397ZM55.5034 91.5333V93.2027C57.2372 93.2027 58.961 94.1697 60.3194 96.169C61.6816 98.174 62.5976 101.135 62.5976 104.755H64.2671H65.9366C65.9366 100.605 64.8908 96.9562 63.0812 94.2926C61.2677 91.6234 58.6096 89.8638 55.5034 89.8638V91.5333ZM55.5034 91.5333L55.5034 93.2027C58.3783 93.2028 61.436 96.0366 62.347 101.592L63.9945 101.322L65.6419 101.052C64.6198 94.8183 60.8084 89.8639 55.5034 89.8638L55.5034 91.5333ZM63.9945 101.322L63.116 99.9022C61.1164 101.14 58.3703 101.939 55.286 101.939L55.286 103.608L55.2861 105.278C58.9191 105.278 62.2876 104.341 64.873 102.741L63.9945 101.322ZM55.286 103.608V101.939C52.369 101.939 49.751 101.222 47.7812 100.095L46.9518 101.544L46.1223 102.992C48.645 104.437 51.8448 105.278 55.286 105.278V103.608ZM46.9518 101.544L48.6057 101.77C49.4225 95.813 52.5109 93.2027 55.5034 93.2027V91.5333V89.8638C50.1324 89.8638 46.2292 94.5229 45.2978 101.317L46.9518 101.544Z" fill="#A6BFC7" mask="url(#path-1-outside-1_708_772)"/>
</g>
<g clip-path="url(#clip0_708_772)">
<ellipse cx="89.2954" cy="118.373" rx="15.5689" ry="16.7775" transform="rotate(151.31 89.2954 118.373)" fill="#5BB42B"/>
<ellipse cx="15.5689" cy="16.7775" rx="15.5689" ry="16.7775" transform="matrix(0.877234 0.480064 0.480064 -0.877234 -0.0576172 126.051)" fill="#5BB42B"/>
<path d="M15.1922 42.3733C15.0195 52.4384 27.6424 63.5005 33.9755 67.7734C34.8391 67.7734 36.9118 67.4411 38.2935 66.1118C40.0207 64.4501 32.896 41.4238 30.3052 36.4387C27.7144 31.4537 15.4081 29.792 15.1922 42.3733Z" fill="#5C9A15"/>
<path d="M33.0779 8.78083C30.2843 9.92282 27.5643 25.1421 28.1157 32.7188L54.9483 28.4363C55.4996 22.2871 55.5364 9.74713 54.2132 8.78083C52.5591 7.57295 36.5698 7.35334 33.0779 8.78083Z" fill="#5C9A15"/>
<path d="M30.9807 25.638C22.6296 31.1913 33.9186 65.8336 42.0755 70.1969C50.2324 74.5602 63.4993 73.8992 69.3258 70.1969C75.1522 66.4946 89.5503 31.3236 81.1992 25.638C72.848 19.9525 39.3319 20.0847 30.9807 25.638Z" fill="#5BB42B"/>
<path d="M78.7083 8.78083C81.5018 9.92282 84.2218 25.1421 83.6704 32.7187L56.8378 28.4363C56.2865 22.2871 56.2497 9.74713 57.573 8.78082C59.227 7.57295 75.2163 7.35334 78.7083 8.78083Z" fill="#5BB42B"/>
<path d="M95.4255 42.3733C95.5982 52.4384 82.9753 63.5005 76.6422 67.7734C75.7786 67.7734 73.7059 67.4411 72.3242 66.1117C70.597 64.4501 77.7217 41.4238 80.3125 36.4387C82.9033 31.4537 95.2096 29.792 95.4255 42.3733Z" fill="#5BB42B"/>
<path d="M36.2238 39.1822C36.2238 27.3752 45.1174 24.5394 56.0882 24.5394C67.059 24.5394 75.9526 27.3752 75.9526 39.1822C75.9526 54.7036 67.059 63.4893 56.0882 63.4893C45.1174 63.4893 36.2238 54.7036 36.2238 39.1822Z" fill="#A1DC3C"/>
<path d="M57.0344 30.771C56.9544 30.7706 56.8751 30.7859 56.801 30.8159C56.7269 30.846 56.6596 30.8904 56.6028 30.9464L53.8972 33.6679C53.7976 33.7836 53.7455 33.9324 53.7514 34.0846C53.7573 34.2368 53.8208 34.3812 53.9291 34.4889C54.0373 34.5966 54.1825 34.6597 54.3355 34.6656C54.4885 34.6714 54.6381 34.6197 54.7545 34.5206L57.4661 31.8294C57.5231 31.7732 57.5683 31.7063 57.5992 31.6326C57.6301 31.5589 57.646 31.4798 57.646 31.4C57.646 31.3202 57.6301 31.2411 57.5992 31.1674C57.5683 31.0937 57.5231 31.0268 57.4661 30.9706C57.4114 30.9102 57.3449 30.8613 57.2707 30.8271C57.1966 30.7928 57.1162 30.7737 57.0344 30.771Z" fill="#5BB42B"/>
<path d="M54.3577 30.771C54.2783 30.7706 54.1996 30.7858 54.1261 30.8158C54.0526 30.8459 53.9858 30.8901 53.9294 30.946C53.8729 31.0021 53.828 31.0688 53.7974 31.1423C53.7667 31.2159 53.751 31.2947 53.751 31.3744C53.751 31.454 53.7667 31.5329 53.7974 31.6064C53.828 31.6799 53.8729 31.7467 53.9294 31.8027L56.6139 34.4875C56.67 34.5441 56.7367 34.589 56.8102 34.6196C56.8837 34.6502 56.9626 34.666 57.0422 34.666C57.1219 34.666 57.2007 34.6502 57.2742 34.6196C57.3477 34.589 57.4145 34.5441 57.4705 34.4875C57.5829 34.3745 57.646 34.2216 57.646 34.0622C57.646 33.9028 57.5829 33.7499 57.4705 33.6369L54.78 30.946C54.6677 30.8346 54.516 30.7717 54.3577 30.771V30.771Z" fill="#5BB42B"/>
<path d="M5.06364 91.4289C5.06364 70.8855 27.706 64.0732 55.2256 64.0732C82.7452 64.0732 105.554 70.8855 105.554 91.4289C105.554 120.94 82.7452 133.599 55.2256 133.599C27.706 133.599 5.06363 123.277 5.06364 91.4289Z" fill="#5BB42B"/>
<path d="M21.4229 118.408L21.4229 112.176" stroke="#123041" stroke-width="5.84247" stroke-linecap="round"/>
<path d="M87.6377 118.798L87.6377 112.566" stroke="#123041" stroke-width="5.84247" stroke-linecap="round"/>
<path d="M15.1904 98.5439L21.8119 98.5439" stroke="#A1DC3C" stroke-width="7.78997" stroke-linecap="round"/>
<path d="M87.248 98.5439L93.8695 98.5439" stroke="#A1DC3C" stroke-width="7.78997" stroke-linecap="round"/>
<path d="M64.2672 104.755C64.2672 109.434 64.2672 111.787 55.5035 111.787C46.7397 111.787 46.7397 109.852 46.7397 104.755C46.7397 96.4019 50.6634 91.5332 55.5035 91.5332C60.3435 91.5332 64.2672 96.9862 64.2672 104.755Z" fill="#D52C2F"/>
<path d="M55.5039 91.5332C59.5938 91.5333 63.0285 95.4271 63.9951 101.321C61.7026 102.74 58.6451 103.608 55.2861 103.608C52.1071 103.608 49.1983 102.83 46.9521 101.544C47.8261 95.168 51.322 91.5332 55.5039 91.5332Z" fill="#FF686B"/>
</g>
<defs>
<filter id="filter0_d_708_772" x="3.39404" y="6.12109" width="107.169" height="134.21" filterUnits="userSpaceOnUse" color-interpolation-filters="sRGB">
<feFlood flood-opacity="0" result="BackgroundImageFix"/>
<feColorMatrix in="SourceAlpha" type="matrix" values="0 0 0 0 0 0 0 0 0 0 0 0 0 0 0 0 0 0 127 0" result="hardAlpha"/>
<feOffset dx="3.33893" dy="3.33893"/>
<feComposite in2="hardAlpha" operator="out"/>
<feColorMatrix type="matrix" values="0 0 0 0 0.65098 0 0 0 0 0.74902 0 0 0 0 0.780392 0 0 0 1 0"/>
<feBlend mode="normal" in2="BackgroundImageFix" result="effect1_dropShadow_708_772"/>
<feBlend mode="normal" in="SourceGraphic" in2="effect1_dropShadow_708_772" result="shape"/>
</filter>
<clipPath id="clip0_708_772">
<rect width="109.449" height="143.725" fill="white" transform="translate(109.449 143.726) rotate(-180)"/>
</clipPath>
</defs>
</svg>
