<svg width="127" height="180" viewBox="0 0 127 180" fill="none" xmlns="http://www.w3.org/2000/svg">
<g filter="url(#filter0_d_708_770)">
<mask id="path-1-outside-1_708_770" maskUnits="userSpaceOnUse" x="12.0215" y="3.84277" width="103" height="173" fill="black">
<rect fill="white" x="12.0215" y="3.84277" width="103" height="173"/>
<path d="M23.7606 40.4255C23.5879 50.4906 36.2109 61.5527 42.5439 65.8256C43.4075 65.8256 45.4802 65.4933 46.862 64.1639C48.5892 62.5022 41.4645 39.476 38.8737 34.4909C36.2829 29.5059 23.9765 27.8442 23.7606 40.4255Z"/>
<path d="M41.6462 6.83274C38.8527 7.97474 36.1326 23.194 36.684 30.7707L63.5167 26.4882C64.068 20.339 64.1048 7.79905 62.7815 6.83275C61.1274 5.62487 45.1382 5.40526 41.6462 6.83274Z"/>
<path d="M87.4262 23.69C95.7774 29.2433 84.4883 63.8855 76.3314 68.2489C68.1745 72.6122 54.9076 71.9511 49.0811 68.2489C43.2547 64.5466 28.8566 29.3755 37.2078 23.69C45.5589 18.0044 79.0751 18.1367 87.4262 23.69Z"/>
<path d="M87.2766 6.83275C90.0702 7.97474 92.7902 23.194 92.2388 30.7707L65.4062 26.4882C64.8549 20.339 64.8181 7.79905 66.1414 6.83275C67.7954 5.62487 83.7847 5.40526 87.2766 6.83275Z"/>
<path d="M103.994 40.4255C104.166 50.4906 91.5435 61.5527 85.2104 65.8256C84.3468 65.8256 82.2742 65.4933 80.8924 64.1639C79.1652 62.5022 86.2899 39.476 88.8807 34.4909C91.4715 29.5059 103.778 27.8442 103.994 40.4255Z"/>
<path d="M83.3521 35.4769C83.3521 25.0867 74.4585 22.5912 63.4877 22.5912C52.5169 22.5912 43.6233 25.0867 43.6233 35.4769C43.6233 49.1357 52.5169 56.8671 63.4877 56.8671C74.4585 56.8671 83.3521 49.1357 83.3521 35.4769Z"/>
<path d="M62.1518 28.8231C62.2318 28.8227 62.3111 28.8379 62.3852 28.868C62.4593 28.8981 62.5266 28.9425 62.5834 28.9985L65.289 31.72C65.3886 31.8357 65.4407 31.9845 65.4348 32.1367C65.4289 32.2889 65.3654 32.4333 65.2572 32.541C65.1489 32.6487 65.0037 32.7118 64.8507 32.7177C64.6977 32.7235 64.5481 32.6718 64.4318 32.5727L61.7201 29.8815C61.6631 29.8252 61.6179 29.7584 61.587 29.6847C61.5561 29.611 61.5403 29.5319 61.5403 29.4521C61.5403 29.3723 61.5561 29.2932 61.587 29.2195C61.6179 29.1458 61.6631 29.0789 61.7201 29.0227C61.7749 28.9623 61.8413 28.9134 61.9155 28.8791C61.9897 28.8449 62.07 28.8258 62.1518 28.8231Z"/>
<path d="M64.8285 28.8231C64.9079 28.8227 64.9866 28.8379 65.0601 28.8679C65.1336 28.898 65.2004 28.9422 65.2568 28.9981C65.3133 29.0542 65.3582 29.1209 65.3888 29.1944C65.4195 29.268 65.4352 29.3468 65.4352 29.4265C65.4352 29.5061 65.4195 29.585 65.3888 29.6585C65.3582 29.732 65.3133 29.7987 65.2568 29.8548L62.5723 32.5396C62.5162 32.5962 62.4495 32.6411 62.376 32.6717C62.3025 32.7023 62.2236 32.7181 62.144 32.7181C62.0643 32.7181 61.9855 32.7023 61.912 32.6717C61.8385 32.6411 61.7718 32.5962 61.7157 32.5396C61.6033 32.4266 61.5402 32.2737 61.5402 32.1143C61.5402 31.9549 61.6033 31.802 61.7157 31.6889L64.4062 28.9981C64.5186 28.8866 64.6702 28.8238 64.8285 28.8231Z"/>
<path d="M96.828 146.077C93.7121 135.977 80.3699 116.202 77.5478 107.933H50.8672C48.0452 116.202 35.7316 135.977 31.7818 146.077C26.8831 158.604 31.978 174.885 45.738 174.885C57.0992 174.885 62.4214 156.124 63.9154 146.077C65.4094 156.124 71.1211 174.885 82.0927 174.885C95.8528 174.885 100.793 158.93 96.828 146.077Z"/>
<path d="M14.0215 88.6103C14.0215 68.2821 36.3128 61.5411 63.4057 61.5411C90.4987 61.5411 112.954 68.2821 112.954 88.6103C112.954 123.272 90.4987 135.156 63.4057 135.156C36.3128 135.156 14.0215 124.923 14.0215 88.6103Z"/>
<path d="M70.1092 78.5004C70.1092 74.9905 70.1092 73.2259 63.6825 73.2259C57.2558 73.2259 57.2558 74.6769 57.2558 78.5004C57.2558 82.3238 60.1331 88.4164 63.6825 88.4164C67.2319 88.4164 70.1092 82.0103 70.1092 78.5004Z"/>
<path d="M63.6825 88.4164C65.9661 88.4162 67.9701 85.7638 69.11 82.9376C67.569 82.2185 65.6994 81.7948 63.6826 81.7948C61.6449 81.7948 59.7572 82.2276 58.2071 82.9605C59.3384 85.8242 61.3674 88.4164 63.6825 88.4164Z"/>
<path d="M62.0898 93.8695C62.8543 93.8695 63.2047 93.5508 63.6825 93.2321C64.1603 93.5508 64.5107 93.8695 65.2752 93.8695C66.2308 93.8695 66.7859 92.8678 66.5493 92.276C66.2308 91.4793 65.0628 90.6826 63.6825 90.364C62.3022 90.6826 61.1342 91.4793 60.8157 92.276C60.5791 92.8678 61.1342 93.8695 62.0898 93.8695Z"/>
</mask>
<path d="M23.7606 40.4255C23.5879 50.4906 36.2109 61.5527 42.5439 65.8256C43.4075 65.8256 45.4802 65.4933 46.862 64.1639C48.5892 62.5022 41.4645 39.476 38.8737 34.4909C36.2829 29.5059 23.9765 27.8442 23.7606 40.4255Z" fill="#E7EAEE"/>
<path d="M41.6462 6.83274C38.8527 7.97474 36.1326 23.194 36.684 30.7707L63.5167 26.4882C64.068 20.339 64.1048 7.79905 62.7815 6.83275C61.1274 5.62487 45.1382 5.40526 41.6462 6.83274Z" fill="#E7EAEE"/>
<path d="M87.4262 23.69C95.7774 29.2433 84.4883 63.8855 76.3314 68.2489C68.1745 72.6122 54.9076 71.9511 49.0811 68.2489C43.2547 64.5466 28.8566 29.3755 37.2078 23.69C45.5589 18.0044 79.0751 18.1367 87.4262 23.69Z" fill="white"/>
<path d="M87.2766 6.83275C90.0702 7.97474 92.7902 23.194 92.2388 30.7707L65.4062 26.4882C64.8549 20.339 64.8181 7.79905 66.1414 6.83275C67.7954 5.62487 83.7847 5.40526 87.2766 6.83275Z" fill="white"/>
<path d="M103.994 40.4255C104.166 50.4906 91.5435 61.5527 85.2104 65.8256C84.3468 65.8256 82.2742 65.4933 80.8924 64.1639C79.1652 62.5022 86.2899 39.476 88.8807 34.4909C91.4715 29.5059 103.778 27.8442 103.994 40.4255Z" fill="white"/>
<path d="M83.3521 35.4769C83.3521 25.0867 74.4585 22.5912 63.4877 22.5912C52.5169 22.5912 43.6233 25.0867 43.6233 35.4769C43.6233 49.1357 52.5169 56.8671 63.4877 56.8671C74.4585 56.8671 83.3521 49.1357 83.3521 35.4769Z" fill="#E7EAEE"/>
<path d="M62.1518 28.8231C62.2318 28.8227 62.3111 28.8379 62.3852 28.868C62.4593 28.8981 62.5266 28.9425 62.5834 28.9985L65.289 31.72C65.3886 31.8357 65.4407 31.9845 65.4348 32.1367C65.4289 32.2889 65.3654 32.4333 65.2572 32.541C65.1489 32.6487 65.0037 32.7118 64.8507 32.7177C64.6977 32.7235 64.5481 32.6718 64.4318 32.5727L61.7201 29.8815C61.6631 29.8252 61.6179 29.7584 61.587 29.6847C61.5561 29.611 61.5403 29.5319 61.5403 29.4521C61.5403 29.3723 61.5561 29.2932 61.587 29.2195C61.6179 29.1458 61.6631 29.0789 61.7201 29.0227C61.7749 28.9623 61.8413 28.9134 61.9155 28.8791C61.9897 28.8449 62.07 28.8258 62.1518 28.8231Z" fill="#FFC0C1"/>
<path d="M64.8285 28.8231C64.9079 28.8227 64.9866 28.8379 65.0601 28.8679C65.1336 28.898 65.2004 28.9422 65.2568 28.9981C65.3133 29.0542 65.3582 29.1209 65.3888 29.1944C65.4195 29.268 65.4352 29.3468 65.4352 29.4265C65.4352 29.5061 65.4195 29.585 65.3888 29.6585C65.3582 29.732 65.3133 29.7987 65.2568 29.8548L62.5723 32.5396C62.5162 32.5962 62.4495 32.6411 62.376 32.6717C62.3025 32.7023 62.2236 32.7181 62.144 32.7181C62.0643 32.7181 61.9855 32.7023 61.912 32.6717C61.8385 32.6411 61.7718 32.5962 61.7157 32.5396C61.6033 32.4266 61.5402 32.2737 61.5402 32.1143C61.5402 31.9549 61.6033 31.802 61.7157 31.6889L64.4062 28.9981C64.5186 28.8866 64.6702 28.8238 64.8285 28.8231Z" fill="#FFC0C1"/>
<path d="M96.828 146.077C93.7121 135.977 80.3699 116.202 77.5478 107.933H50.8672C48.0452 116.202 35.7316 135.977 31.7818 146.077C26.8831 158.604 31.978 174.885 45.738 174.885C57.0992 174.885 62.4214 156.124 63.9154 146.077C65.4094 156.124 71.1211 174.885 82.0927 174.885C95.8528 174.885 100.793 158.93 96.828 146.077Z" fill="white"/>
<path d="M14.0215 88.6103C14.0215 68.2821 36.3128 61.5411 63.4057 61.5411C90.4987 61.5411 112.954 68.2821 112.954 88.6103C112.954 123.272 90.4987 135.156 63.4057 135.156C36.3128 135.156 14.0215 124.923 14.0215 88.6103Z" fill="white"/>
<path d="M70.1092 78.5004C70.1092 74.9905 70.1092 73.2259 63.6825 73.2259C57.2558 73.2259 57.2558 74.6769 57.2558 78.5004C57.2558 82.3238 60.1331 88.4164 63.6825 88.4164C67.2319 88.4164 70.1092 82.0103 70.1092 78.5004Z" fill="#FFC0C1"/>
<path d="M63.6825 88.4164C65.9661 88.4162 67.9701 85.7638 69.11 82.9376C67.569 82.2185 65.6994 81.7948 63.6826 81.7948C61.6449 81.7948 59.7572 82.2276 58.2071 82.9605C59.3384 85.8242 61.3674 88.4164 63.6825 88.4164Z" fill="#FFC0C1"/>
<path d="M62.0898 93.8695C62.8543 93.8695 63.2047 93.5508 63.6825 93.2321C64.1603 93.5508 64.5107 93.8695 65.2752 93.8695C66.2308 93.8695 66.7859 92.8678 66.5493 92.276C66.2308 91.4793 65.0628 90.6826 63.6825 90.364C62.3022 90.6826 61.1342 91.4793 60.8157 92.276C60.5791 92.8678 61.1342 93.8695 62.0898 93.8695Z" fill="#FFC0C1"/>
<path d="M39.283 94.6484C39.283 95.1094 39.6568 95.4831 40.1178 95.4831C40.5788 95.4831 40.9525 95.1094 40.9525 94.6484H40.1178H39.283ZM86.4125 94.6484C86.4125 95.1094 86.7862 95.4831 87.2472 95.4831C87.7082 95.4831 88.0819 95.1094 88.0819 94.6484H87.2472H86.4125ZM28.4328 78.6232C27.9718 78.6232 27.5981 78.997 27.5981 79.458C27.5981 79.919 27.9718 80.2927 28.4328 80.2927V79.458V78.6232ZM93.0897 78.6233C92.6287 78.6233 92.2549 78.997 92.2549 79.458C92.2549 79.919 92.6287 80.2927 93.0897 80.2927V79.458V78.6233ZM40.1178 94.6484H40.9525V88.4164H40.1178H39.283V94.6484H40.1178ZM87.2472 94.6484H88.0819V88.4164H87.2472H86.4125V94.6484H87.2472ZM28.4328 79.458V80.2927H34.2753V79.458V78.6232H28.4328V79.458ZM93.0897 79.458V80.2927H98.9322V79.458V78.6233H93.0897V79.458ZM42.5439 65.8256L41.6102 67.2095L42.0334 67.4951H42.5439V65.8256ZM23.7606 40.4255L22.0914 40.3969V40.3969L23.7606 40.4255ZM46.862 64.1639L45.7045 62.9608H45.7045L46.862 64.1639ZM36.684 30.7707L35.019 30.8918L35.151 32.7059L36.9472 32.4193L36.684 30.7707ZM41.6462 6.83274L41.0145 5.28742V5.28742L41.6462 6.83274ZM62.7815 6.83275L63.7661 5.4845V5.4845L62.7815 6.83275ZM63.5167 26.4882L63.7798 28.1368L65.0634 27.9319L65.1794 26.6373L63.5167 26.4882ZM76.3314 68.2489L77.1189 69.721V69.721L76.3314 68.2489ZM37.2078 23.69L36.2682 22.31V22.31L37.2078 23.69ZM49.0811 68.2489L49.9765 66.8398V66.8398L49.0811 68.2489ZM92.2388 30.7707L91.9757 32.4193L93.7719 32.7059L93.9039 30.8918L92.2388 30.7707ZM87.2766 6.83275L87.9084 5.28742V5.28742L87.2766 6.83275ZM66.1414 6.83275L65.1568 5.4845V5.4845L66.1414 6.83275ZM65.4062 26.4882L63.7434 26.6373L63.8595 27.9319L65.1431 28.1368L65.4062 26.4882ZM85.2104 65.8256V67.4951H85.721L86.1442 67.2096L85.2104 65.8256ZM103.994 40.4255L105.663 40.3969L103.994 40.4255ZM80.8924 64.1639L82.0499 62.9609V62.9609L80.8924 64.1639ZM83.3521 35.4769H81.6826H83.3521ZM43.6233 35.4769H41.9538H43.6233ZM62.1518 28.8231L62.1422 27.1537L62.1197 27.1538L62.0972 27.1546L62.1518 28.8231ZM62.5834 28.9985L63.7674 27.8215L63.7617 27.8158L63.756 27.8101L62.5834 28.9985ZM65.289 31.72L66.5542 30.6307L66.5152 30.5854L66.473 30.5429L65.289 31.72ZM64.4318 32.5727L63.2557 33.7576L63.3008 33.8024L63.3492 33.8436L64.4318 32.5727ZM61.7201 29.8815L62.8961 28.6965L62.8926 28.693L61.7201 29.8815ZM61.7201 29.0227L62.8926 30.2112L62.9259 30.1783L62.9573 30.1436L61.7201 29.0227ZM64.8285 28.8231L64.8355 30.4926L64.8381 30.4926L64.8285 28.8231ZM65.2568 28.9981L64.081 30.1833L64.0811 30.1833L65.2568 28.9981ZM65.2568 29.8548L64.0811 28.6696L64.0762 28.6744L65.2568 29.8548ZM62.5723 32.5396L61.3917 31.3592L61.3869 31.3641L62.5723 32.5396ZM61.7157 32.5396L62.9011 31.3641L62.8997 31.3627L61.7157 32.5396ZM61.7157 31.6889L60.5351 30.5085L60.5316 30.512L61.7157 31.6889ZM64.4062 28.9981L63.2305 27.8129L63.2256 27.8177L64.4062 28.9981ZM77.5478 107.933L79.1278 107.394L78.7421 106.263H77.5478V107.933ZM96.828 146.077L98.4233 145.585V145.585L96.828 146.077ZM63.9154 146.077L65.5667 145.831H62.2641L63.9154 146.077ZM50.8672 107.933V106.263H49.673L49.2872 107.394L50.8672 107.933ZM31.7818 146.077L30.227 145.469V145.469L31.7818 146.077ZM45.738 174.885L45.7381 176.555L45.738 174.885ZM14.0215 88.6103H12.352H14.0215ZM112.954 88.6103H111.285H112.954ZM69.11 82.9376L70.6583 83.5621L71.2503 82.0941L69.816 81.4248L69.11 82.9376ZM63.6826 81.7948L63.6826 80.1253H63.6826L63.6826 81.7948ZM58.2071 82.9605L57.4936 81.4512L56.0799 82.1195L56.6544 83.5738L58.2071 82.9605ZM63.6825 93.2321L64.6088 91.8432L63.6825 91.2254L62.7562 91.8432L63.6825 93.2321ZM62.0898 93.8695V92.2V93.8695ZM60.8157 92.276L59.2655 91.6562V91.6562L60.8157 92.276ZM63.6825 90.364L64.058 88.7373L63.6825 88.6506L63.3069 88.7373L63.6825 90.364ZM65.2752 93.8695V92.2V93.8695ZM66.5493 92.276L64.9992 92.8959V92.8959L66.5493 92.276ZM42.5439 65.8256L43.4777 64.4417C40.4097 62.3717 35.789 58.6331 31.9775 54.2081C28.1114 49.7196 25.3545 44.843 25.4299 40.4542L23.7606 40.4255L22.0914 40.3969C21.994 46.0731 25.4623 51.7601 29.4477 56.3872C33.4878 61.0777 38.3451 65.0066 41.6102 67.2095L42.5439 65.8256ZM23.7606 40.4255L25.4299 40.4542C25.4792 37.5782 26.214 35.7091 27.154 34.5303C28.0868 33.3607 29.3314 32.7311 30.6836 32.5204C32.0579 32.3062 33.527 32.5315 34.785 33.0774C36.0589 33.6302 36.9674 34.4432 37.3923 35.2608L38.8737 34.4909L40.355 33.721C39.4845 32.0461 37.8832 30.782 36.1142 30.0144C34.3294 29.2399 32.2227 28.9013 30.1695 29.2213C28.0943 29.5446 26.0599 30.5471 24.5435 32.4486C23.0344 34.341 22.15 36.9821 22.0914 40.3969L23.7606 40.4255ZM38.8737 34.4909L37.3923 35.2608C38.6009 37.5862 40.9907 44.438 42.8823 51.0339C43.8207 54.306 44.6145 57.4397 45.0662 59.8367C45.2935 61.0429 45.4235 62.0076 45.453 62.6885C45.4679 63.0332 45.4538 63.2424 45.4371 63.3461C45.4095 63.5177 45.4072 63.2469 45.7045 62.9608L46.862 64.1639L48.0194 65.367C48.5326 64.8733 48.6771 64.2278 48.7336 63.8771C48.801 63.4585 48.8084 62.9978 48.7888 62.5441C48.7491 61.6282 48.5856 60.4825 48.3474 59.2183C47.868 56.6748 47.0426 53.4288 46.0918 50.1135C44.2051 43.5345 41.7373 36.3807 40.355 33.721L38.8737 34.4909ZM46.862 64.1639L45.7045 62.9608C45.257 63.3914 44.6506 63.7001 44.0114 63.8996C43.3703 64.0996 42.8037 64.1562 42.5439 64.1562L42.5439 65.8256V67.4951C43.1477 67.4951 44.0493 67.3854 45.0059 67.087C45.9643 66.7879 47.0852 66.2658 48.0194 65.367L46.862 64.1639ZM36.684 30.7707L38.3491 30.6495C38.0882 27.0642 38.6043 21.5254 39.549 16.7101C40.0197 14.3108 40.5833 12.1626 41.1781 10.5752C41.477 9.7777 41.7639 9.17586 42.0205 8.76888C42.3119 8.30678 42.426 8.31754 42.278 8.37807L41.6462 6.83274L41.0145 5.28742C40.1681 5.63345 39.5861 6.36962 39.1962 6.988C38.7715 7.66151 38.3919 8.49522 38.0515 9.40352C37.3679 11.2277 36.7621 13.5719 36.2726 16.0673C35.2967 21.0413 34.7285 26.9005 35.019 30.8918L36.684 30.7707ZM41.6462 6.83274L42.278 8.37807C42.879 8.13236 44.2857 7.88775 46.3223 7.72481C48.2789 7.56828 50.6072 7.50039 52.8932 7.51392C55.1803 7.52745 57.392 7.62227 59.1159 7.78455C59.9811 7.86599 60.6934 7.9617 61.2186 8.06531C61.4819 8.11725 61.6711 8.16595 61.7957 8.2063C61.9484 8.25575 61.9081 8.26218 61.797 8.18099L62.7815 6.83275L63.7661 5.4845C63.4481 5.25232 63.0891 5.11549 62.8242 5.02972C62.5312 4.93485 62.2038 4.85637 61.8648 4.7895C61.1853 4.65548 60.3498 4.54702 59.4288 4.46032C57.5804 4.28632 55.2664 4.18897 52.9129 4.17505C50.5583 4.16112 48.1312 4.2305 46.056 4.39652C44.0609 4.55614 42.1594 4.81939 41.0145 5.28742L41.6462 6.83274ZM62.7815 6.83275L61.797 8.18099C61.5626 8.00985 61.4935 7.83684 61.5169 7.88417C61.5266 7.90382 61.5608 7.98325 61.6073 8.15031C61.6999 8.4826 61.7926 8.98285 61.8753 9.65168C62.0393 10.978 62.1398 12.7642 62.183 14.7531C62.2692 18.7262 62.1231 23.3358 61.8539 26.3391L63.5167 26.4882L65.1794 26.6373C65.4615 23.4914 65.6095 18.7564 65.5211 14.6807C65.477 12.6451 65.3731 10.7308 65.189 9.242C65.0977 8.50324 64.9805 7.81723 64.8239 7.25476C64.7459 6.97445 64.6458 6.67938 64.5109 6.40617C64.3897 6.16065 64.1658 5.77643 63.7661 5.4845L62.7815 6.83275ZM63.5167 26.4882L63.2535 24.8396L36.4209 29.1221L36.684 30.7707L36.9472 32.4193L63.7798 28.1368L63.5167 26.4882ZM76.3314 68.2489L77.1189 69.721C78.4361 69.0163 79.6751 67.7897 80.809 66.336C81.9608 64.8593 83.0903 63.0357 84.1584 61.0034C86.2951 56.9378 88.2502 51.9142 89.6759 46.8697C91.0985 41.8359 92.0203 36.6885 92.0323 32.3862C92.0383 30.2364 91.8179 28.2225 91.2722 26.5125C90.7268 24.8034 89.8138 23.2728 88.3506 22.2998L87.4262 23.69L86.5018 25.0801C87.1264 25.4955 87.6875 26.2622 88.0913 27.5276C88.4948 28.7921 88.6988 30.4298 88.6934 32.3769C88.6826 36.2682 87.8381 41.0953 86.4628 45.9616C85.0905 50.8173 83.2159 55.6195 81.2028 59.45C80.1959 61.3658 79.1704 63.0079 78.1762 64.2825C77.1641 65.5802 76.266 66.3906 75.544 66.7768L76.3314 68.2489ZM87.4262 23.69L88.3506 22.2998C85.9413 20.6977 81.9688 19.608 77.492 18.8987C72.942 18.1779 67.6199 17.8143 62.3196 17.8059C57.0197 17.7976 51.696 18.1443 47.1434 18.8613C42.6655 19.5665 38.684 20.6653 36.2682 22.31L37.2078 23.69L38.1473 25.07C39.9071 23.8719 43.2468 22.8551 47.6629 22.1596C52.0043 21.4758 57.1475 21.1367 62.3143 21.1449C67.4809 21.153 72.6257 21.5084 76.9696 22.1965C81.3868 22.8963 84.7355 23.9056 86.5018 25.0801L87.4262 23.69ZM37.2078 23.69L36.2682 22.31C34.7794 23.3236 33.9218 24.9134 33.4657 26.6643C33.0102 28.413 32.915 30.4625 33.0544 32.6371C33.3337 36.991 34.5787 42.1871 36.2422 47.2356C37.9106 52.2988 40.03 57.3041 42.1134 61.2965C43.1545 63.2915 44.2001 65.0598 45.1908 66.466C46.148 67.8246 47.1658 69.0098 48.1858 69.6579L49.0811 68.2489L49.9765 66.8398C49.5398 66.5624 48.8332 65.8387 47.9204 64.543C47.0411 63.2949 46.0712 61.6636 45.0736 59.7518C43.0796 55.9308 41.029 51.0938 39.4134 46.1907C37.793 41.2729 36.6402 36.3789 36.3865 32.4234C36.2595 30.4434 36.364 28.7835 36.6968 27.506C37.029 26.2308 37.5483 25.4777 38.1473 25.07L37.2078 23.69ZM49.0811 68.2489L48.1858 69.6579C51.4642 71.7412 56.5875 72.8576 61.8051 72.9427C67.0518 73.0283 72.7134 72.0775 77.1189 69.721L76.3314 68.2489L75.544 66.7768C71.7925 68.7835 66.7422 69.6839 61.8596 69.6042C56.9479 69.5241 52.5244 68.4589 49.9765 66.8398L49.0811 68.2489ZM92.2388 30.7707L93.9039 30.8918C94.1944 26.9005 93.6262 21.0413 92.6503 16.0673C92.1608 13.5719 91.5549 11.2277 90.8713 9.40352C90.531 8.49523 90.1514 7.66151 89.7267 6.988C89.3368 6.36962 88.7548 5.63345 87.9084 5.28742L87.2766 6.83275L86.6449 8.37807C86.4968 8.31754 86.611 8.30679 86.9024 8.76889C87.159 9.17586 87.4459 9.7777 87.7447 10.5752C88.3396 12.1626 88.9031 14.3108 89.3738 16.7101C90.3186 21.5254 90.8347 27.0642 90.5738 30.6495L92.2388 30.7707ZM87.2766 6.83275L87.9084 5.28742C86.7635 4.81939 84.862 4.55614 82.8668 4.39652C80.7917 4.2305 78.3645 4.16112 76.0099 4.17505C73.6565 4.18897 71.3424 4.28632 69.494 4.46032C68.573 4.54702 67.7375 4.65548 67.0581 4.7895C66.7191 4.85637 66.3917 4.93486 66.0987 5.02972C65.8338 5.11549 65.4748 5.25232 65.1568 5.4845L66.1414 6.83275L67.1259 8.18099C67.0147 8.26218 66.9745 8.25575 67.1272 8.2063C67.2518 8.16595 67.441 8.11725 67.7043 8.06531C68.2295 7.9617 68.9418 7.86599 69.807 7.78455C71.5309 7.62227 73.7426 7.52745 76.0297 7.51392C78.3156 7.5004 80.644 7.56828 82.6006 7.72481C84.6372 7.88775 86.0438 8.13236 86.6449 8.37807L87.2766 6.83275ZM66.1414 6.83275L65.1568 5.4845C64.757 5.77643 64.5332 6.16065 64.412 6.40617C64.2771 6.67938 64.177 6.97445 64.099 7.25476C63.9423 7.81723 63.8252 8.50324 63.7339 9.242C63.5498 10.7308 63.4459 12.6451 63.4017 14.6807C63.3133 18.7564 63.4614 23.4914 63.7434 26.6373L65.4062 26.4882L67.069 26.3391C66.7997 23.3358 66.6537 18.7262 66.7399 14.7531C66.783 12.7642 66.8836 10.978 67.0476 9.65168C67.1303 8.98285 67.223 8.4826 67.3155 8.15031C67.362 7.98325 67.3963 7.90382 67.406 7.88417C67.4293 7.83684 67.3603 8.00985 67.1259 8.18099L66.1414 6.83275ZM65.4062 26.4882L65.1431 28.1368L91.9757 32.4193L92.2388 30.7707L92.5019 29.1221L65.6693 24.8396L65.4062 26.4882ZM85.2104 65.8256L86.1442 67.2096C89.4093 65.0066 94.2666 61.0777 98.3067 56.3872C102.292 51.7602 105.76 46.0732 105.663 40.3969L103.994 40.4255L102.325 40.4542C102.4 44.843 99.643 49.7196 95.7768 54.2081C91.9654 58.6331 87.3447 62.3717 84.2767 64.4417L85.2104 65.8256ZM103.994 40.4255L105.663 40.3969C105.604 36.9821 104.72 34.341 103.211 32.4486C101.694 30.5471 99.66 29.5447 97.5849 29.2213C95.5317 28.9013 93.425 29.2399 91.6402 30.0144C89.8712 30.782 88.2699 32.0461 87.3994 33.7211L88.8807 34.4909L90.3621 35.2608C90.787 34.4432 91.6955 33.6302 92.9693 33.0774C94.2273 32.5315 95.6965 32.3062 97.0708 32.5204C98.423 32.7311 99.6675 33.3607 100.6 34.5303C101.54 35.7091 102.275 37.5783 102.325 40.4542L103.994 40.4255ZM88.8807 34.4909L87.3994 33.7211C86.0171 36.3807 83.5492 43.5345 81.6625 50.1135C80.7118 53.4288 79.8863 56.6748 79.407 59.2184C79.1688 60.4825 79.0053 61.6282 78.9656 62.5441C78.946 62.9978 78.9534 63.4585 79.0208 63.8771C79.0773 64.2278 79.2217 64.8733 79.735 65.367L80.8924 64.1639L82.0499 62.9609C82.3472 63.2469 82.3449 63.5177 82.3173 63.3461C82.3005 63.2424 82.2865 63.0332 82.3014 62.6885C82.3309 62.0076 82.4609 61.0429 82.6882 59.8367C83.1399 57.4397 83.9337 54.306 84.8721 51.0339C86.7636 44.438 89.1535 37.5863 90.3621 35.2608L88.8807 34.4909ZM80.8924 64.1639L79.735 65.367C80.6692 66.2658 81.7901 66.7879 82.7485 67.087C83.705 67.3854 84.6066 67.4951 85.2104 67.4951V65.8256V64.1562C84.9506 64.1562 84.3841 64.0996 83.743 63.8996C83.1037 63.7001 82.4974 63.3914 82.0499 62.9609L80.8924 64.1639ZM83.3521 35.4769H85.0216C85.0216 32.6364 84.4116 30.2262 83.227 28.2286C82.0413 26.2292 80.3407 24.7457 78.3213 23.6656C74.348 21.5405 69.0341 20.9218 63.4877 20.9218V22.5912V24.2607C68.9121 24.2607 73.5304 24.8897 76.7466 26.6099C78.3219 27.4524 79.5304 28.541 80.3551 29.9317C81.1809 31.3242 81.6826 33.1222 81.6826 35.4769H83.3521ZM63.4877 22.5912V20.9218C57.9413 20.9218 52.6274 21.5405 48.654 23.6656C46.6346 24.7457 44.934 26.2292 43.7483 28.2286C42.5637 30.2262 41.9538 32.6364 41.9538 35.4769H43.6233H45.2927C45.2927 33.1222 45.7945 31.3242 46.6203 29.9317C47.445 28.541 48.6534 27.4524 50.2288 26.6099C53.445 24.8897 58.0633 24.2607 63.4877 24.2607V22.5912ZM43.6233 35.4769H41.9538C41.9538 42.6797 44.3069 48.4706 48.2535 52.4671C52.1948 56.4581 57.6048 58.5365 63.4877 58.5365V56.8671V55.1976C58.3997 55.1976 53.8776 53.4103 50.6293 50.121C47.3864 46.8371 45.2927 41.9328 45.2927 35.4769H43.6233ZM63.4877 56.8671V58.5365C69.3705 58.5365 74.7806 56.4581 78.7218 52.4671C82.6684 48.4706 85.0216 42.6797 85.0216 35.4769H83.3521H81.6826C81.6826 41.9328 79.589 46.8371 76.3461 50.121C73.0978 53.4103 68.5757 55.1976 63.4877 55.1976V56.8671ZM62.1518 28.8231L62.1614 30.4926C62.0228 30.4934 61.8853 30.4669 61.7568 30.4147L62.3852 28.868L63.0136 27.3213C62.7369 27.2089 62.4408 27.152 62.1422 27.1537L62.1518 28.8231ZM62.3852 28.868L61.7568 30.4147C61.6281 30.3624 61.5105 30.2852 61.4109 30.1869L62.5834 28.9985L63.756 27.8101C63.5427 27.5997 63.2904 27.4338 63.0136 27.3213L62.3852 28.868ZM62.5834 28.9985L61.3995 30.1756L64.1051 32.897L65.289 31.72L66.473 30.5429L63.7674 27.8215L62.5834 28.9985ZM65.289 31.72L64.0239 32.8092C63.8488 32.6058 63.7561 32.3426 63.7666 32.0719L65.4348 32.1367L67.103 32.2015C67.1253 31.6264 66.9285 31.0655 66.5542 30.6307L65.289 31.72ZM65.4348 32.1367L63.7666 32.0719C63.7771 31.8013 63.8899 31.5463 64.0798 31.3573L65.2572 32.541L66.4345 33.7246C66.841 33.3202 67.0807 32.7765 67.103 32.2015L65.4348 32.1367ZM65.2572 32.541L64.0798 31.3573C64.2695 31.1686 64.5221 31.0596 64.7866 31.0494L64.8507 32.7177L64.9148 34.3859C65.4853 34.364 66.0282 34.1287 66.4345 33.7246L65.2572 32.541ZM64.8507 32.7177L64.7866 31.0494C65.0511 31.0393 65.311 31.1286 65.5143 31.3018L64.4318 32.5727L63.3492 33.8436C63.7851 34.2149 64.3443 34.4078 64.9148 34.3859L64.8507 32.7177ZM64.4318 32.5727L65.6078 31.3877L62.8961 28.6965L61.7201 29.8815L60.5441 31.0664L63.2557 33.7576L64.4318 32.5727ZM61.7201 29.8815L62.8926 28.693C62.9924 28.7915 63.0722 28.9092 63.1269 29.0397L61.587 29.6847L60.0472 30.3296C60.1635 30.6075 60.3338 30.859 60.5476 31.0699L61.7201 29.8815ZM61.587 29.6847L63.1269 29.0397C63.1815 29.1701 63.2097 29.3103 63.2097 29.4521H61.5403H59.8708C59.8708 29.7535 59.9308 30.0518 60.0472 30.3296L61.587 29.6847ZM61.5403 29.4521H63.2097C63.2097 29.5939 63.1815 29.734 63.1269 29.8645L61.587 29.2195L60.0472 28.5746C59.9308 28.8524 59.8708 29.1507 59.8708 29.4521H61.5403ZM61.587 29.2195L63.1269 29.8645C63.0722 29.9949 62.9924 30.1127 62.8926 30.2112L61.7201 29.0227L60.5476 27.8343C60.3338 28.0452 60.1635 28.2967 60.0472 28.5746L61.587 29.2195ZM61.7201 29.0227L62.9573 30.1436C62.8613 30.2496 62.7452 30.3348 62.6161 30.3945L61.9155 28.8791L61.2149 27.3638C60.9374 27.4921 60.6884 27.675 60.4829 27.9018L61.7201 29.0227ZM61.9155 28.8791L62.6161 30.3945C62.4871 30.4541 62.3477 30.4871 62.2063 30.4917L62.1518 28.8231L62.0972 27.1546C61.7923 27.1645 61.4922 27.2356 61.2149 27.3638L61.9155 28.8791ZM64.8285 28.8231L64.8381 30.4926C64.6976 30.4934 64.5585 30.4664 64.4287 30.4134L65.0601 28.8679L65.6914 27.3224C65.4146 27.2094 65.1181 27.152 64.8188 27.1537L64.8285 28.8231ZM65.0601 28.8679L64.4287 30.4134C64.2989 30.3604 64.1807 30.2822 64.081 30.1833L65.2568 28.9981L66.4325 27.8129C66.2202 27.6022 65.9683 27.4356 65.6914 27.3224L65.0601 28.8679ZM65.2568 28.9981L64.0811 30.1833C63.9813 30.0843 63.9019 29.9664 63.8477 29.8364L65.3888 29.1944L66.9299 28.5525C66.8145 28.2754 66.6454 28.024 66.4325 27.8129L65.2568 28.9981ZM65.3888 29.1944L63.8477 29.8364C63.7936 29.7065 63.7658 29.5672 63.7658 29.4265H65.4352H67.1047C67.1047 29.1265 67.0453 28.8294 66.9299 28.5525L65.3888 29.1944ZM65.4352 29.4265H63.7658C63.7658 29.2858 63.7936 29.1464 63.8477 29.0165L65.3888 29.6585L66.9299 30.3005C67.0453 30.0235 67.1047 29.7265 67.1047 29.4265H65.4352ZM65.3888 29.6585L63.8477 29.0165C63.9019 28.8866 63.9811 28.7687 64.0811 28.6696L65.2568 29.8548L66.4325 31.0401C66.6455 30.8288 66.8146 30.5774 66.9299 30.3005L65.3888 29.6585ZM65.2568 29.8548L64.0762 28.6744L61.3917 31.3592L62.5723 32.5396L63.7529 33.7201L66.4373 31.0353L65.2568 29.8548ZM62.5723 32.5396L61.3869 31.3641C61.486 31.2641 61.6039 31.1848 61.7339 31.1307L62.376 32.6717L63.0181 34.2127C63.2951 34.0973 63.5464 33.9282 63.7577 33.7152L62.5723 32.5396ZM62.376 32.6717L61.7339 31.1307C61.8639 31.0765 62.0032 31.0486 62.144 31.0486V32.7181V34.3876C62.444 34.3876 62.7411 34.3282 63.0181 34.2127L62.376 32.6717ZM62.144 32.7181V31.0486C62.2848 31.0486 62.4242 31.0765 62.5541 31.1307L61.912 32.6717L61.2699 34.2127C61.5469 34.3281 61.8439 34.3876 62.144 34.3876V32.7181ZM61.912 32.6717L62.5541 31.1307C62.6841 31.1848 62.802 31.2641 62.9011 31.3641L61.7157 32.5396L60.5303 33.7152C60.7416 33.9282 60.9929 34.0973 61.2699 34.2127L61.912 32.6717ZM61.7157 32.5396L62.8997 31.3627C63.0983 31.5625 63.2097 31.8326 63.2097 32.1143H61.5402H59.8708C59.8708 32.7147 60.1084 33.2907 60.5316 33.7165L61.7157 32.5396ZM61.5402 32.1143H63.2097C63.2097 32.3959 63.0983 32.6661 62.8997 32.8658L61.7157 31.6889L60.5316 30.512C60.1084 30.9379 59.8708 31.5139 59.8708 32.1143H61.5402ZM61.7157 31.6889L62.8962 32.8694L65.5868 30.1785L64.4062 28.9981L63.2256 27.8177L60.5351 30.5085L61.7157 31.6889ZM64.4062 28.9981L65.5819 30.1833C65.3834 30.3803 65.1153 30.4914 64.8355 30.4926L64.8285 28.8231L64.8214 27.1537C64.2251 27.1562 63.6538 27.393 63.2305 27.8129L64.4062 28.9981ZM77.5478 107.933L75.9679 108.472C76.7214 110.68 78.1432 113.572 79.8403 116.748C81.548 119.944 83.5912 123.53 85.6231 127.137C89.7353 134.438 93.7397 141.729 95.2327 146.569L96.828 146.077L98.4233 145.585C96.8004 140.324 92.5757 132.678 88.5323 125.499C86.4864 121.866 84.4702 118.327 82.7852 115.174C81.0896 112.001 79.7853 109.32 79.1278 107.394L77.5478 107.933ZM96.828 146.077L95.2327 146.569C97.1121 152.661 96.8575 159.445 94.5789 164.629C92.3307 169.744 88.1833 173.216 82.0927 173.216V174.885L82.0927 176.555C89.7622 176.555 94.965 172.049 97.6356 165.973C100.276 159.966 100.509 152.346 98.4233 145.585L96.828 146.077ZM82.0927 174.885V173.216C77.6496 173.216 73.8953 169.38 70.9419 163.5C68.0586 157.758 66.2966 150.74 65.5667 145.831L63.9154 146.077L62.2641 146.322C63.0282 151.461 64.869 158.847 67.9581 164.998C70.9769 171.009 75.5643 176.555 82.0927 176.555L82.0927 174.885ZM50.8672 107.933L49.2872 107.394C47.9336 111.36 44.2417 118.214 40.2797 125.522C36.38 132.716 32.2493 140.297 30.227 145.469L31.7818 146.077L33.3366 146.685C35.264 141.756 39.265 134.4 43.2151 127.114C47.1028 119.942 50.9787 112.775 52.4472 108.472L50.8672 107.933ZM31.7818 146.077L30.227 145.469C27.6301 152.11 27.6629 159.764 30.2251 165.828C32.814 171.956 38.0593 176.555 45.7381 176.555L45.738 174.885L45.738 173.216C39.6567 173.216 35.4746 169.674 33.3007 164.529C31.1001 159.321 31.0348 152.571 33.3366 146.685L31.7818 146.077ZM45.738 174.885L45.7381 176.555C52.4528 176.555 57.0412 171.025 60.0237 164.988C63.0656 158.831 64.8053 151.443 65.5667 146.322L63.9154 146.077L62.2641 145.831C61.5314 150.758 59.8631 157.775 57.0301 163.509C54.1377 169.364 50.3844 173.216 45.738 173.216L45.738 174.885ZM50.8672 107.933V109.602H77.5478V107.933V106.263H50.8672V107.933ZM14.0215 88.6103H15.6909C15.6909 83.8535 16.9881 79.9672 19.2827 76.7802C21.5897 73.5758 24.971 70.9885 29.266 68.9625C37.8944 64.8924 49.9481 63.2105 63.4057 63.2105V61.5411V59.8716C49.7704 59.8716 37.132 61.5602 27.8415 65.9427C23.1771 68.143 19.2922 71.0525 16.573 74.8293C13.8412 78.6236 12.352 83.203 12.352 88.6103H14.0215ZM63.4057 61.5411V63.2105C76.863 63.2105 88.9594 64.8923 97.6302 68.9638C101.947 70.9907 105.348 73.5791 107.67 76.7841C109.979 79.9713 111.285 83.8563 111.285 88.6103H112.954H114.624C114.624 83.2002 113.122 78.6195 110.374 74.8254C107.639 71.0492 103.733 68.1408 99.0493 65.9414C89.7192 61.5604 77.0414 59.8716 63.4057 59.8716V61.5411ZM112.954 88.6103H111.285C111.285 105.554 105.816 116.665 97.2878 123.585C88.6973 130.556 76.7448 133.487 63.4057 133.487V135.156V136.826C77.1596 136.826 89.9812 133.814 99.3917 126.178C108.865 118.49 114.624 106.328 114.624 88.6103H112.954ZM63.4057 135.156V133.487C50.0205 133.487 38.1217 130.95 29.5904 124.192C21.1357 117.494 15.6909 106.408 15.6909 88.6103H14.0215H12.352C12.352 107.126 18.0529 119.312 27.5171 126.809C36.9047 134.246 49.698 136.826 63.4057 136.826V135.156ZM70.1092 78.5004H71.7787C71.7787 77.6617 71.7827 76.7542 71.6592 75.944C71.5303 75.0981 71.242 74.1916 70.5388 73.4213C69.8406 72.6566 68.8954 72.2031 67.7933 71.9345C66.7026 71.6687 65.3462 71.5565 63.6825 71.5565V73.2259V74.8954C65.2321 74.8954 66.2857 75.0038 67.0026 75.1785C67.7081 75.3504 67.9678 75.5574 68.073 75.6726C68.1731 75.7822 68.2865 75.975 68.3584 76.447C68.4358 76.9549 68.4398 77.5841 68.4398 78.5004H70.1092ZM63.6825 73.2259V71.5565C62.034 71.5565 60.6902 71.6476 59.6136 71.8808C58.5312 72.1152 57.57 72.5248 56.8521 73.276C56.123 74.0391 55.8331 74.9576 55.705 75.8171C55.5824 76.6397 55.5863 77.5861 55.5863 78.5004H57.2558H58.9252C58.9252 77.503 58.9292 76.8342 59.0074 76.3094C59.0801 75.8215 59.192 75.6604 59.2661 75.5827C59.3516 75.4933 59.5954 75.3011 60.3205 75.144C61.0514 74.9857 62.1176 74.8954 63.6825 74.8954V73.2259ZM57.2558 78.5004H55.5863C55.5863 80.7555 56.4102 83.521 57.6947 85.7311C58.3438 86.8479 59.1558 87.9025 60.1219 88.6953C61.0902 89.4898 62.2977 90.0858 63.6825 90.0858V88.4164V86.7469C63.2927 86.7469 62.8094 86.5814 62.2399 86.1141C61.6683 85.645 61.0954 84.9375 60.5815 84.0533C59.54 82.2613 58.9252 80.0687 58.9252 78.5004H57.2558ZM63.6825 88.4164V90.0858C65.0923 90.0858 66.3078 89.4488 67.2671 88.6311C68.227 87.8128 69.0333 86.731 69.6773 85.6013C70.9479 83.3723 71.7787 80.6101 71.7787 78.5004H70.1092H68.4398C68.4398 79.9005 67.8319 82.0963 66.7765 83.9478C66.2574 84.8584 65.6789 85.5975 65.1011 86.0901C64.5226 86.5832 64.0474 86.7469 63.6825 86.7469V88.4164ZM63.6825 88.4164L63.6826 90.0858C65.4936 90.0857 66.9791 89.043 68.0575 87.863C69.1575 86.6595 70.0372 85.1019 70.6583 83.5621L69.11 82.9376L67.5617 82.3132C67.0429 83.5995 66.3507 84.7812 65.5928 85.6105C64.8134 86.4634 64.155 86.7469 63.6824 86.7469L63.6825 88.4164ZM69.11 82.9376L69.816 81.4248C68.04 80.596 65.9275 80.1253 63.6826 80.1253L63.6826 81.7948L63.6826 83.4642C65.4712 83.4643 67.098 83.841 68.404 84.4505L69.11 82.9376ZM63.6826 81.7948L63.6826 80.1253C61.4144 80.1253 59.281 80.6061 57.4936 81.4512L58.2071 82.9605L58.9207 84.4698C60.2334 83.8491 61.8754 83.4642 63.6826 83.4642V81.7948ZM58.2071 82.9605L56.6544 83.5738C57.2745 85.1434 58.1631 86.7032 59.2799 87.9008C60.3803 89.0811 61.8769 90.0858 63.6825 90.0858V88.4164V86.7469C63.1729 86.7469 62.4975 86.4556 61.7219 85.6238C60.9626 84.8095 60.2711 83.6412 59.7598 82.3471L58.2071 82.9605ZM63.6825 93.2321L62.7562 91.8432C62.6837 91.8915 62.6154 91.9387 62.5598 91.9771C62.5007 92.0179 62.4561 92.0486 62.4132 92.0772C62.329 92.1334 62.2848 92.1584 62.2566 92.1723C62.234 92.1835 62.222 92.1871 62.2108 92.1898C62.1985 92.1927 62.1626 92.2 62.0898 92.2V93.8695V95.5389C63.4598 95.5389 64.2558 94.8564 64.6088 94.621L63.6825 93.2321ZM62.0898 93.8695V92.2C62.2408 92.2 62.3391 92.2888 62.3702 92.3328C62.3848 92.3535 62.4072 92.3925 62.4206 92.4626C62.4329 92.5274 62.4491 92.6876 62.3658 92.8959L60.8157 92.276L59.2655 91.6562C58.875 92.6331 59.1975 93.6272 59.6411 94.2565C60.1295 94.9493 60.9832 95.5389 62.0898 95.5389V93.8695ZM60.8157 92.276L62.3658 92.8959C62.3519 92.9306 62.4234 92.7672 62.7815 92.5268C63.1078 92.3077 63.5548 92.1068 64.058 91.9906L63.6825 90.364L63.3069 88.7373C62.4298 88.9398 61.6028 89.2965 60.9204 89.7547C60.2698 90.1915 59.598 90.8248 59.2655 91.6562L60.8157 92.276ZM63.6825 93.2321L62.7562 94.621C63.1092 94.8564 63.9052 95.5389 65.2752 95.5389V93.8695V92.2C65.2024 92.2 65.1665 92.1927 65.1542 92.1898C65.143 92.1871 65.131 92.1835 65.1084 92.1723C65.0802 92.1584 65.036 92.1334 64.9518 92.0772C64.9089 92.0486 64.8643 92.0179 64.8052 91.9771C64.7496 91.9387 64.6813 91.8915 64.6088 91.8432L63.6825 93.2321ZM65.2752 93.8695V95.5389C66.3818 95.5389 67.2355 94.9493 67.7239 94.2565C68.1675 93.6272 68.49 92.6331 68.0994 91.6562L66.5493 92.276L64.9992 92.8959C64.9159 92.6876 64.9321 92.5274 64.9444 92.4626C64.9577 92.3925 64.9802 92.3535 64.9948 92.3328C65.0259 92.2888 65.1242 92.2 65.2752 92.2V93.8695ZM66.5493 92.276L68.0994 91.6562C67.767 90.8248 67.0952 90.1915 66.4446 89.7547C65.7622 89.2965 64.9352 88.9398 64.058 88.7373L63.6825 90.364L63.3069 91.9906C63.8102 92.1068 64.2572 92.3077 64.5835 92.5268C64.9416 92.7672 65.0131 92.9306 64.9992 92.8959L66.5493 92.276Z" fill="#A6BFC7" mask="url(#path-1-outside-1_708_770)"/>
</g>
<path d="M23.7615 40.4251C23.5888 50.4902 36.2118 61.5523 42.5448 65.8252C43.4084 65.8252 45.4811 65.4929 46.8629 64.1635C48.5901 62.5018 41.4654 39.4756 38.8746 34.4905C36.2838 29.5054 23.9774 27.8437 23.7615 40.4251Z" fill="#E7EAEE"/>
<path d="M41.6462 6.83258C38.8527 7.97458 36.1327 23.1938 36.684 30.7705L63.5167 26.488C64.068 20.3388 64.1048 7.79889 62.7815 6.83259C61.1275 5.62471 45.1382 5.40509 41.6462 6.83258Z" fill="#E7EAEE"/>
<path d="M87.4265 23.6898C95.7777 29.2431 84.4887 63.8853 76.3317 68.2487C68.1748 72.612 54.9079 71.9509 49.0814 68.2487C43.255 64.5464 28.8569 29.3753 37.2081 23.6898C45.5592 18.0042 79.0754 18.1364 87.4265 23.6898Z" fill="white"/>
<path d="M87.2776 6.83258C90.0711 7.97458 92.7912 23.1938 92.2398 30.7705L65.4072 26.488C64.8558 20.3388 64.8191 7.79888 66.1423 6.83258C67.7964 5.62471 83.7857 5.40509 87.2776 6.83258Z" fill="white"/>
<path d="M103.994 40.4251C104.167 50.4902 91.5441 61.5523 85.211 65.8252C84.3474 65.8252 82.2748 65.4929 80.893 64.1635C79.1658 62.5018 86.2905 39.4756 88.8813 34.4905C91.4721 29.5054 103.778 27.8437 103.994 40.4251Z" fill="white"/>
<path d="M83.3529 35.477C83.3529 25.0868 74.4593 22.5913 63.4884 22.5913C52.5176 22.5913 43.624 25.0868 43.624 35.477C43.624 49.1358 52.5176 56.8672 63.4884 56.8672C74.4593 56.8672 83.3529 49.1358 83.3529 35.477Z" fill="#E7EAEE"/>
<path d="M62.1521 28.8228C62.2321 28.8223 62.3114 28.8376 62.3855 28.8677C62.4596 28.8978 62.5269 28.9421 62.5838 28.9982L65.2893 31.7196C65.389 31.8353 65.441 31.9841 65.4351 32.1363C65.4292 32.2886 65.3658 32.4329 65.2575 32.5406C65.1492 32.6483 65.004 32.7114 64.851 32.7173C64.698 32.7232 64.5484 32.6714 64.4321 32.5724L61.7204 29.8811C61.6634 29.8249 61.6182 29.758 61.5873 29.6843C61.5565 29.6106 61.5406 29.5316 61.5406 29.4518C61.5406 29.3719 61.5565 29.2929 61.5873 29.2192C61.6182 29.1455 61.6634 29.0786 61.7204 29.0224C61.7752 28.9619 61.8416 28.9131 61.9158 28.8788C61.99 28.8445 62.0703 28.8255 62.1521 28.8228Z" fill="#FFC0C1"/>
<path d="M64.8288 28.8228C64.9082 28.8223 64.9869 28.8376 65.0604 28.8676C65.1339 28.8976 65.2007 28.9419 65.2571 28.9978C65.3136 29.0539 65.3585 29.1206 65.3892 29.1941C65.4198 29.2676 65.4355 29.3465 65.4355 29.4261C65.4355 29.5058 65.4198 29.5846 65.3892 29.6582C65.3585 29.7317 65.3136 29.7984 65.2571 29.8545L62.5726 32.5393C62.5165 32.5959 62.4498 32.6407 62.3763 32.6714C62.3028 32.702 62.2239 32.7178 62.1443 32.7178C62.0647 32.7178 61.9858 32.702 61.9123 32.6714C61.8388 32.6407 61.7721 32.5959 61.716 32.5393C61.6036 32.4263 61.5406 32.2734 61.5406 32.114C61.5406 31.9546 61.6036 31.8017 61.716 31.6886L64.4065 28.9978C64.5189 28.8863 64.6705 28.8235 64.8288 28.8228V28.8228Z" fill="#FFC0C1"/>
<path d="M96.8283 146.077C93.7123 135.976 80.3702 116.201 77.5481 107.932L50.8675 107.932C48.0455 116.201 35.7319 135.976 31.7821 146.077C26.8834 158.603 31.9783 174.885 45.7383 174.885C57.0995 174.885 62.4217 156.124 63.9157 146.077C65.4097 156.124 71.1214 174.885 82.093 174.885C95.8531 174.885 100.793 158.929 96.8283 146.077Z" fill="white"/>
<path d="M14.0215 88.6103C14.0215 68.282 36.3128 61.5411 63.4058 61.5411C90.4987 61.5411 112.954 68.282 112.954 88.6103C112.954 123.272 90.4987 135.156 63.4058 135.156C36.3128 135.156 14.0215 124.923 14.0215 88.6103Z" fill="white"/>
<path d="M40.1182 94.6484L40.1182 88.4165" stroke="#123041" stroke-width="5.84247" stroke-linecap="round"/>
<path d="M87.248 94.6484L87.248 88.4165" stroke="#123041" stroke-width="5.84247" stroke-linecap="round"/>
<path d="M28.4336 79.458L34.2761 79.458" stroke="#FFC0C1" stroke-width="7.78997" stroke-linecap="round"/>
<path d="M93.0908 79.458L98.9333 79.458" stroke="#FFC0C1" stroke-width="7.78997" stroke-linecap="round"/>
<path d="M70.1103 78.5C70.1103 74.9902 70.1103 73.2256 63.6836 73.2256C57.2568 73.2256 57.2568 74.6766 57.2568 78.5C57.2568 82.3235 60.1342 88.416 63.6836 88.416C67.2329 88.416 70.1103 82.0099 70.1103 78.5Z" fill="#FFC0C1"/>
<path d="M63.6836 88.416C65.967 88.4157 67.9705 85.7634 69.1104 82.9375C67.5693 82.2183 65.6995 81.7949 63.6826 81.7949C61.6451 81.7949 59.758 82.2273 58.208 82.96C59.3393 85.8237 61.3684 88.416 63.6836 88.416Z" fill="#E7EAEE"/>
<path d="M62.0902 93.8691C62.8547 93.8691 63.2051 93.5505 63.683 93.2318C64.1608 93.5505 64.5112 93.8691 65.2757 93.8691C66.2313 93.8691 66.7864 92.8675 66.5498 92.2757C66.2312 91.479 65.0633 90.6823 63.683 90.3637C62.3026 90.6823 61.1347 91.479 60.8161 92.2757C60.5795 92.8675 61.1346 93.8691 62.0902 93.8691Z" fill="#FFC0C1"/>
<defs>
<filter id="filter0_d_708_770" x="12.3516" y="4.17285" width="105.61" height="175.721" filterUnits="userSpaceOnUse" color-interpolation-filters="sRGB">
<feFlood flood-opacity="0" result="BackgroundImageFix"/>
<feColorMatrix in="SourceAlpha" type="matrix" values="0 0 0 0 0 0 0 0 0 0 0 0 0 0 0 0 0 0 127 0" result="hardAlpha"/>
<feOffset dx="3.33893" dy="3.33893"/>
<feComposite in2="hardAlpha" operator="out"/>
<feColorMatrix type="matrix" values="0 0 0 0 0.65098 0 0 0 0 0.74902 0 0 0 0 0.780392 0 0 0 1 0"/>
<feBlend mode="normal" in2="BackgroundImageFix" result="effect1_dropShadow_708_770"/>
<feBlend mode="normal" in="SourceGraphic" in2="effect1_dropShadow_708_770" result="shape"/>
</filter>
</defs>
</svg>
