<svg width="153" height="153" viewBox="0 0 153 153" fill="none" xmlns="http://www.w3.org/2000/svg">
<g clip-path="url(#clip0_928_1119)">
<mask id="mask0_928_1119" style="mask-type:luminance" maskUnits="userSpaceOnUse" x="0" y="0" width="153" height="153">
<path d="M55.6628 4.94676e-07L0 96.4109L96.4109 152.074L152.074 55.6629L55.6628 4.94676e-07Z" fill="white"/>
</mask>
<g mask="url(#mask0_928_1119)">
<path d="M27.7898 66.4624C20.8473 54.2408 29.611 39.0616 43.6663 38.9635L44.1767 38.96C50.6611 38.9142 56.6429 35.4609 59.9243 29.8681L60.1829 29.4274C67.2958 17.3043 84.823 17.3043 91.9358 29.4277L92.1941 29.868C95.4755 35.4609 101.458 38.9147 107.942 38.96L108.452 38.9634C122.508 39.0617 131.271 54.2405 124.329 66.4621L124.076 66.9063C120.874 72.5446 120.874 79.4517 124.076 85.0901L124.329 85.5339C131.271 97.7553 122.508 112.934 108.452 113.033L107.942 113.036C101.458 113.082 95.4756 116.536 92.1939 122.128L91.9358 122.569C84.8228 134.692 67.2959 134.692 60.1826 122.569L59.9245 122.128C56.6431 116.536 50.661 113.082 44.1768 113.036L43.6663 113.033C29.6109 112.934 20.8473 97.7555 27.7898 85.5339L28.0419 85.09C31.2447 79.4518 31.2447 72.5444 28.0419 66.9062L27.7898 66.4624Z" fill="#FFEEC9"/>
</g>
</g>
<defs>
<clipPath id="clip0_928_1119">
<rect width="111.326" height="111.326" fill="white" transform="translate(0 96.4109) rotate(-60)"/>
</clipPath>
</defs>
</svg>
