<svg width="199" height="182" viewBox="0 0 199 182" fill="none" xmlns="http://www.w3.org/2000/svg">
<path fill-rule="evenodd" clip-rule="evenodd" d="M152.316 60.3708C155.89 57.6929 158.999 54.2561 161.38 50.1321C170.677 34.0288 165.355 13.55 149.492 4.39153C133.629 -4.76682 113.232 0.863022 103.935 16.9663C101.554 21.0903 100.132 25.501 99.6003 29.9352C98.5917 19.6256 92.8596 9.99155 83.2974 4.47085C67.4344 -4.68765 47.038 0.942333 37.7408 17.0456C29.4373 31.4277 32.7954 49.3 44.9088 59.4807C30.0354 54.0804 12.8784 60.1086 4.5749 74.4907C-4.7221 90.5935 0.600335 111.072 16.4633 120.231C26.0255 125.752 37.2347 125.899 46.6674 121.618C43.0932 124.295 39.9844 127.732 37.6034 131.856C28.3064 147.959 33.6289 168.438 49.4916 177.597C65.3546 186.755 85.7512 181.125 95.0482 165.022C97.4292 160.898 98.8512 156.487 99.3835 152.053C100.392 162.363 106.124 171.997 115.687 177.518C131.55 186.676 151.946 181.046 161.243 164.943C169.547 150.561 166.188 132.688 154.075 122.508C168.948 127.908 186.106 121.88 194.409 107.498C203.706 91.3948 198.384 70.916 182.521 61.7574C172.958 56.2364 161.749 56.0894 152.316 60.3708ZM99.4628 144.746C99.995 140.312 101.417 135.901 103.798 131.777C112.102 117.395 129.258 111.367 144.132 116.767C132.018 106.586 128.66 88.7142 136.964 74.3321C139.345 70.2082 142.454 66.7713 146.028 64.0934C136.595 68.3748 125.386 68.2278 115.823 62.7068C106.261 57.1863 100.529 47.5522 99.5206 37.2426C98.9888 41.6768 97.5667 46.0876 95.1857 50.2115C86.8822 64.5936 69.7254 70.6215 54.8519 65.2213C66.9654 75.402 70.3233 93.2744 62.0198 107.657C59.6388 111.781 56.53 115.218 52.9558 117.895C62.3885 113.614 73.5983 113.761 83.1601 119.281C92.7228 124.802 98.4544 134.437 99.4628 144.746Z" fill="#D9F6EF"/>
</svg>
