<svg width="455" height="334" viewBox="0 0 455 334" fill="none" xmlns="http://www.w3.org/2000/svg">
<g clip-path="url(#clip0_1420_243)">
<rect x="-156" width="610.465" height="310.823" rx="40.1484" fill="#AFD157"/>
<g clip-path="url(#clip1_1420_243)">
<path d="M169.73 72.0654C121.879 72.0654 83.0888 108.431 83.0888 153.291C83.0888 198.152 121.879 234.517 169.73 234.517C121.879 234.517 83.0888 270.882 83.0888 315.743C83.0888 360.603 121.879 396.969 169.73 396.969C217.581 396.969 256.37 360.603 256.37 315.743C256.37 360.603 295.16 396.969 343.011 396.969C390.862 396.969 429.652 360.603 429.652 315.743C429.652 270.882 390.862 234.517 343.011 234.517C390.862 234.517 429.652 198.152 429.652 153.291C429.652 108.431 390.862 72.0654 343.011 72.0654C295.16 72.0654 256.37 108.431 256.37 153.291C256.37 108.431 217.581 72.0654 169.73 72.0654Z" fill="#C7E8AB"/>
</g>
<path d="M283.425 87.0212C277.122 83.0945 279.105 73.4451 286.446 72.3228L296.117 70.8444C298.425 70.4916 300.464 69.148 301.698 67.1662L306.871 58.8625C310.797 52.559 320.447 54.5422 321.569 61.8834L323.048 71.5542C323.4 73.8622 324.744 75.9009 326.726 77.1354L335.029 82.3082C341.333 86.2348 339.35 95.8842 332.009 97.0065L322.338 98.485C320.03 98.8378 317.991 100.181 316.757 102.163L311.584 110.467C307.657 116.77 298.008 114.787 296.885 107.446L295.407 97.7752C295.054 95.4672 293.711 93.4285 291.729 92.1939L283.425 87.0212Z" fill="white"/>
<path d="M341.912 45.4342C337.29 45.0049 335.697 39.0578 339.485 36.3752L344.882 32.5528C346.073 31.7094 346.836 30.3879 346.971 28.9348L347.582 22.3494C348.012 17.7277 353.959 16.1342 356.641 19.9221L360.464 25.3194C361.307 26.5103 362.629 27.2733 364.082 27.4083L370.667 28.0199C375.289 28.4491 376.882 34.3963 373.095 37.0788L367.697 40.9012C366.506 41.7446 365.743 43.0662 365.608 44.5192L364.997 51.1046C364.567 55.7263 358.62 57.3198 355.938 53.532L352.115 48.1346C351.272 46.9438 349.95 46.1808 348.497 46.0458L341.912 45.4342Z" fill="white"/>
</g>
<path d="M173.6 320.083C173.968 327.172 185.876 332.412 199.596 331.699C213.316 330.987 223.652 324.591 223.284 317.503C222.661 305.496 212.553 296.396 197.122 297.197C181.69 297.998 172.954 307.662 173.6 320.083Z" fill="#5BB42B"/>
<path d="M77.4132 320.083C77.7813 327.172 89.6898 332.412 103.41 331.699C117.13 330.987 127.466 324.591 127.098 317.503C126.474 305.496 116.367 296.396 100.935 297.197C85.5041 297.998 76.7681 307.662 77.4132 320.083Z" fill="#5BB42B"/>
<ellipse cx="76.8533" cy="213.881" rx="33.1443" ry="35.7172" transform="rotate(-28.6896 76.8533 213.881)" fill="#5BB42B"/>
<ellipse cx="33.1443" cy="35.7172" rx="33.1443" ry="35.7172" transform="matrix(-0.877234 -0.480064 -0.480064 0.877234 267.074 197.537)" fill="#5BB42B"/>
<path d="M256.172 271.242C256.172 314.976 210.817 314.968 152.231 314.968C93.6455 314.968 42.2402 314.976 42.2402 271.242C42.2402 208.417 90.7977 181.468 149.383 181.468C207.969 181.468 256.172 203.441 256.172 271.242Z" fill="#5BB42B"/>
<path d="M64.6284 256.095H78.7247" stroke="#A1DC3C" stroke-width="16.5839" stroke-linecap="round"/>
<path d="M218.029 256.095H232.125" stroke="#A1DC3C" stroke-width="16.5839" stroke-linecap="round"/>
<path d="M217.323 224.586L223.956 226.245" stroke="#123041" stroke-width="12.4379" stroke-linecap="round"/>
<path d="M89.6273 225.415L82.9944 227.074" stroke="#123041" stroke-width="12.4379" stroke-linecap="round"/>
<path d="M184.984 228.317C183.188 229.561 178.268 232.048 172.961 232.048C166.328 232.048 163.84 226.244 156.792 226.244C149.744 226.244 147.256 232.048 140.623 232.048C135.316 232.048 130.396 229.561 128.599 228.317" stroke="#4B890D" stroke-width="4.14596" stroke-linecap="round"/>
<defs>
<clipPath id="clip0_1420_243">
<rect x="-156" width="610.465" height="310.823" rx="40.1484" fill="white"/>
</clipPath>
<clipPath id="clip1_1420_243">
<rect x="82" y="70.4375" width="348.305" height="326.536" rx="32.6536" fill="white"/>
</clipPath>
</defs>
</svg>
