<svg width="307" height="508" viewBox="0 0 307 508" fill="none" xmlns="http://www.w3.org/2000/svg">
<path d="M49.4235 221.527C50.7981 206.775 61.2104 194.437 75.5221 190.602L263.957 140.111C278.269 136.276 293.455 141.755 302.022 153.844L313.579 170.153C316.007 173.578 317.806 177.409 318.893 181.464L377.751 401.127C382.814 420.022 371.601 439.443 352.707 444.505L150.86 498.59C131.966 503.653 112.544 492.44 107.482 473.546L48.6232 253.883C47.5365 249.827 47.1796 245.611 47.5691 241.43L49.4235 221.527Z" fill="#E5EEF1"/>
<rect x="103.13" y="125.451" width="108.025" height="55.7837" transform="rotate(-15 103.13 125.451)" fill="#E5EEF1"/>
<rect x="171.552" y="107.119" width="37.1891" height="55.7837" transform="rotate(-15 171.552 107.119)" fill="#D0E5EB"/>
<path d="M265.901 139.591C281.191 135.494 297.342 142.04 305.466 155.626L314.715 171.094C316.396 173.906 317.68 176.939 318.528 180.104L377.751 401.128C382.814 420.022 371.602 439.444 352.707 444.507L213.574 481.787C212.852 481.981 212.129 482.147 211.406 482.293C231.47 451.24 262.5 397.298 268.154 353.032C278.361 273.124 214.933 153.871 214.643 153.325L265.901 139.591Z" fill="#D0E5EB"/>
<rect width="6.19818" height="55.7837" transform="matrix(-0.965926 0.258819 0.258819 0.965926 166.42 108.493)" fill="#D0E5EB"/>
<rect width="6.19818" height="55.7837" transform="matrix(-0.965926 0.258819 0.258819 0.965926 155.302 111.474)" fill="#D0E5EB"/>
<rect width="6.19818" height="55.7837" transform="matrix(-0.965926 0.258819 0.258819 0.965926 144.183 114.452)" fill="#D0E5EB"/>
<path d="M140.267 34.8342C140.328 34.8181 148.982 32.5577 159.786 46.1047C176.352 66.8749 186.092 103.224 186.092 103.224L124.512 119.724C124.512 119.724 114.772 83.3753 118.733 57.105C121.318 39.9547 129.958 37.5966 130.003 37.5844L140.267 34.8342Z" fill="#FFC53D"/>
<rect x="101.461" y="256.071" width="179.747" height="121.107" transform="rotate(-15 101.461 256.071)" fill="#D0E5EB"/>
<path d="M188.116 296.576L185.126 285.418L167.976 315.094L175.022 319.254L188.116 296.576ZM239.615 275.303C235.529 267.013 227.223 262.225 226.274 261.698L205.791 249.661L199.053 261.319L198.574 262.148L201.564 273.304L208.746 260.876L220.395 267.72L222.172 268.764L222.298 268.835C222.32 268.847 223.073 269.269 224.184 270.05C226.456 271.647 230.223 274.746 232.279 278.914C235.348 285.142 238.059 292.633 233.262 303.93L236.352 315.463C236.881 314.683 237.199 314.14 237.312 313.942C242.127 305.787 244.327 298.255 244.038 290.918C243.787 284.555 241.661 279.453 239.615 275.303ZM200.084 322.806L199.804 322.751L199.674 322.745C199.478 322.709 198.736 322.544 197.295 321.996C196.583 321.724 195.698 321.358 194.625 320.866C193.001 320.121 190.947 319.088 188.395 317.66L182.631 314.256L178.54 321.33L184.27 324.711L184.347 324.757C193.137 329.688 197.238 330.67 198.701 330.857C204.092 331.866 208.874 331.749 213.045 330.965C215.359 330.531 217.486 329.891 219.424 329.123C219.59 329.058 219.755 328.991 219.919 328.923L217.777 320.927C213.217 323.029 207.346 324.194 200.084 322.806Z" fill="#E5EEF1"/>
<path d="M195.685 267.157L208.448 314.788L197.982 317.592L188.022 280.419L188.792 279.086L189.205 278.374L191.52 274.367L193.089 271.65L193.6 270.766L195.17 268.048L195.685 267.157Z" fill="#E5EEF1"/>
<path d="M220.455 271.928L233.191 319.462C233.153 319.505 233.115 319.547 233.076 319.59C232.678 320.028 232.25 320.478 231.794 320.933C231.643 321.083 231.49 321.234 231.332 321.386C230.919 321.786 230.483 322.188 230.026 322.591C229.603 322.964 229.162 323.337 228.701 323.707C228.45 323.908 228.194 324.108 227.932 324.309C227.594 324.566 227.243 324.823 226.879 325.08C226.595 325.281 226.304 325.479 226.005 325.678C225.416 326.071 224.795 326.457 224.142 326.836C223.986 326.927 223.826 327.016 223.665 327.106L209.656 274.821L220.455 271.928Z" fill="#E5EEF1"/>
<path d="M213.021 287.373L201.901 290.352L204.79 301.136L215.91 298.156L213.021 287.373Z" fill="#E5EEF1"/>
</svg>
