<svg width="40" height="40" viewBox="0 0 40 40" fill="none" xmlns="http://www.w3.org/2000/svg">
<rect y="0.00143433" width="40.0029" height="40.0029" rx="20.0015" fill="#005271"/>
<path d="M27.435 14.0919C27.0264 13.6831 26.5412 13.3588 26.0072 13.1375C25.4732 12.9163 24.9008 12.8024 24.3228 12.8024C23.7448 12.8024 23.1724 12.9163 22.6384 13.1375C22.1044 13.3588 21.6192 13.6831 21.2106 14.0919L20.3625 14.94L19.5144 14.0919C18.689 13.2665 17.5695 12.8028 16.4022 12.8028C15.2349 12.8028 14.1154 13.2665 13.29 14.0919C12.4646 14.9173 12.0009 16.0368 12.0009 17.2042C12.0009 18.3715 12.4646 19.491 13.29 20.3164L14.138 21.1644L20.3625 27.3889L26.587 21.1644L27.435 20.3164C27.8439 19.9077 28.1682 19.4226 28.3894 18.8886C28.6107 18.3546 28.7246 17.7822 28.7246 17.2042C28.7246 16.6261 28.6107 16.0538 28.3894 15.5197C28.1682 14.9857 27.8439 14.5006 27.435 14.0919Z" fill="white"/>
</svg>
