<svg width="97" height="97" viewBox="0 0 97 97" fill="none" xmlns="http://www.w3.org/2000/svg">
<path fill-rule="evenodd" clip-rule="evenodd" d="M5.08129 56.5472L4.14271e-06 75.5108L18.9636 80.5921C28.6206 83.1797 38.5259 78.0971 42.2112 69.0788C40.7373 78.83 46.7971 88.3404 56.5474 90.953L75.511 96.0343L80.5923 77.0707C83.1799 67.4137 78.0971 57.5084 69.0789 53.8231C78.8303 55.297 88.3405 49.2372 90.9531 39.4869L96.0344 20.5232L77.0708 15.442C67.4138 12.8544 57.5084 17.9372 53.8233 26.9554C55.2973 17.2041 49.2373 7.69375 39.4871 5.08118L20.5235 -0.000102161L15.4422 18.9635C12.8546 28.6205 17.9371 38.5259 26.9555 42.211C17.2044 40.7371 7.69385 46.797 5.08129 56.5472Z" fill="#FFE6EE"/>
</svg>
