<svg width="504" height="288" viewBox="0 0 504 288" fill="none" xmlns="http://www.w3.org/2000/svg">
<g clip-path="url(#clip0_928_910)">
<rect width="503.131" height="287.343" rx="40.1484" fill="#FFD2D2"/>
<path d="M248.713 36.0416C249.199 32.759 253.933 32.759 254.419 36.0416L267.481 124.269C267.898 127.082 271.705 127.658 272.935 125.094L311.543 44.6131C312.978 41.6209 317.501 43.0221 316.994 46.3017L303.358 134.414C302.923 137.227 306.392 138.903 308.325 136.815L369.033 71.2527C371.288 68.8169 375.197 71.4932 373.741 74.4768L334.643 154.636C333.394 157.196 336.216 159.824 338.68 158.397L416.069 113.58C418.943 111.916 421.89 115.628 419.618 118.05L358.551 183.145C356.601 185.224 358.526 188.57 361.303 187.929L448.481 167.822C451.718 167.076 453.444 171.492 450.559 173.138L372.952 217.41C370.475 218.823 371.332 222.589 374.176 222.792L463.4 229.157C466.714 229.394 467.067 234.123 463.824 234.849L376.558 254.381C373.775 255.004 373.488 258.856 376.147 259.885L459.513 292.146C462.612 293.345 461.561 297.97 458.248 297.712L369.051 290.767C366.209 290.546 364.803 294.143 367.041 295.908L437.16 351.205C439.769 353.262 437.406 357.372 434.316 356.153L351.103 323.328C348.453 322.283 346.053 325.304 347.67 327.649L398.32 401.094C400.205 403.827 396.739 407.057 394.145 404.984L324.314 349.172C322.09 347.395 318.909 349.572 319.761 352.288L346.429 437.374C347.421 440.542 343.158 442.604 341.291 439.859L291.071 366.011C289.471 363.659 285.792 364.798 285.801 367.642L286.094 456.811C286.104 460.129 281.423 460.838 280.451 457.665L254.324 372.355C253.491 369.635 249.641 369.635 248.808 372.355L222.68 457.665C221.708 460.838 217.027 460.129 217.038 456.811L217.33 367.642C217.339 364.797 213.661 363.658 212.061 366.011L161.84 439.859C159.973 442.604 155.71 440.542 156.702 437.374L183.371 352.288C184.222 349.572 181.041 347.395 178.818 349.172L108.986 404.984C106.393 407.057 102.926 403.827 104.811 401.093L155.462 327.649C157.08 325.304 154.68 322.283 152.029 323.328L68.8147 356.153C65.7249 357.372 63.3622 353.262 65.9703 351.205L136.09 295.908C138.329 294.143 136.922 290.546 134.08 290.767L44.8827 297.712C41.5703 297.97 40.5194 293.345 43.6179 292.146L126.984 259.885C129.643 258.856 129.356 255.004 126.573 254.381L39.3064 234.849C36.064 234.123 36.4169 229.394 39.7311 229.157L128.956 222.792C131.8 222.589 132.657 218.823 130.18 217.41L52.5728 173.138C49.6872 171.492 51.4131 167.076 54.6502 167.822L141.829 187.929C144.606 188.57 146.531 185.224 144.581 183.145L83.513 118.05C81.2409 115.628 84.1882 111.916 87.062 113.58L164.451 158.397C166.915 159.824 169.737 157.196 168.489 154.636L129.39 74.4768C127.934 71.4932 131.843 68.8169 134.098 71.2527L194.807 136.815C196.74 138.903 200.209 137.227 199.773 134.414L186.138 46.3017C185.63 43.0221 190.153 41.6209 191.589 44.6131L230.197 125.094C231.427 127.658 235.234 127.082 235.65 124.269L248.713 36.0416Z" fill="#FFC1AD"/>
<g clip-path="url(#clip1_928_910)">
<path d="M198.575 210.068C194.192 246.879 233.104 263.892 282.164 269.733C331.225 275.575 373.341 268.21 377.724 231.399C385.197 168.632 347.097 142.271 298.036 136.429C248.976 130.588 206.404 144.313 198.575 210.068Z" fill="white"/>
<path d="M222.805 220.052L212.225 218.792" stroke="#FFC0C1" stroke-width="14.2059" stroke-linecap="round"/>
<path d="M215.264 240.439C212.781 258.627 233.254 281.38 243.801 290.483C245.364 290.67 249.189 290.515 251.978 288.405C255.464 285.769 247.527 242.536 243.911 232.951C240.294 223.365 218.368 217.703 215.264 240.439Z" fill="#E7EAEE"/>
<path d="M230.802 333.131C216.877 321.275 244.789 260.978 260.5 254.835C276.212 248.693 300.093 252.751 309.845 260.711C319.598 268.671 338.087 335.464 321.739 343.959C305.39 352.454 244.727 344.988 230.802 333.131Z" fill="white"/>
<path d="M351.111 316.718C353.594 298.529 333.121 275.776 322.575 266.673C321.011 266.487 317.186 266.642 314.397 268.751C310.911 271.388 318.848 314.62 322.465 324.206C326.081 333.792 348.008 339.454 351.111 316.718Z" fill="white"/>
<path d="M240.017 312.585C237.777 331.399 253.343 337.836 273.209 340.201C293.076 342.567 309.718 339.965 311.959 321.151C314.904 296.417 300.466 280.499 280.6 278.134C260.734 275.768 242.962 287.851 240.017 312.585Z" fill="#E7EAEE"/>
<path d="M267.226 98.6699C265.665 117.882 274.871 160.399 274.052 176.311L319.231 194.372C329.607 182.281 363.844 157.131 377.37 142.702C394.144 124.807 396.539 93.788 373.239 84.4734C354.001 76.7826 332.289 104.948 322.957 120.95C327.229 102.925 330.257 67.2906 311.679 59.8635C288.379 50.5488 269.213 74.2219 267.226 98.6699Z" fill="white"/>
<path d="M323.107 204.1L321.763 215.385" stroke="#2B2B2B" stroke-width="10.6544" stroke-linecap="round"/>
<path d="M237.764 193.939L236.42 205.224" stroke="#2B2B2B" stroke-width="10.6544" stroke-linecap="round"/>
<path d="M339.884 233.992L329.304 232.732" stroke="#FFC0C1" stroke-width="14.2059" stroke-linecap="round"/>
<path d="M264.208 226.742C263.451 233.098 263.071 236.293 274.708 237.679C286.346 239.065 286.659 236.437 287.483 229.514C288.308 222.59 284.411 210.937 277.984 210.172C271.556 209.407 264.965 220.387 264.208 226.742Z" fill="#FFC0C1"/>
<path d="M277.987 210.167C273.852 209.675 269.652 214.044 266.978 218.915C269.613 220.549 272.908 221.719 276.56 222.154C280.249 222.593 283.76 222.217 286.724 221.225C285.293 215.796 282.179 210.666 277.987 210.167Z" fill="#E7EAEE"/>
<path d="M282.044 200.645C280.66 200.48 279.956 200.982 279.022 201.456C278.226 200.776 277.66 200.123 276.276 199.958C274.545 199.752 273.324 201.446 273.625 202.569C274.03 204.08 275.973 205.775 278.404 206.649C280.972 206.37 283.259 205.179 284.008 203.805C284.564 202.784 283.774 200.851 282.044 200.645Z" fill="#FFC0C1"/>
</g>
</g>
<defs>
<clipPath id="clip0_928_910">
<rect width="503.131" height="287.343" rx="40.1484" fill="white"/>
</clipPath>
<clipPath id="clip1_928_910">
<rect width="232" height="331.269" fill="white" transform="translate(193.297 38.1328) rotate(6.79012)"/>
</clipPath>
</defs>
</svg>
