<svg width="263" height="297" viewBox="0 0 263 297" fill="none" xmlns="http://www.w3.org/2000/svg">
<g clip-path="url(#clip0_1715_113)">
<rect width="361" height="276.53" rx="35.6984" transform="matrix(-1 0 0 1 263 0)" fill="#AFD157"/>
<g clip-path="url(#clip1_1715_113)">
<path d="M118.971 76.9326C157.712 76.9326 189.118 106.376 189.118 142.696C189.118 179.017 157.712 208.459 118.971 208.459C157.712 208.459 189.118 237.902 189.118 274.222C189.118 310.543 157.712 339.986 118.971 339.986C80.229 339.986 48.8234 310.543 48.8234 274.222C48.8234 310.543 17.4179 339.986 -21.3241 339.986C-60.066 339.986 -91.4715 310.543 -91.4715 274.222C-91.4715 237.902 -60.066 208.459 -21.3241 208.459C-60.066 208.459 -91.4715 179.017 -91.4715 142.696C-91.4715 106.376 -60.066 76.9326 -21.3241 76.9326C17.4179 76.9326 48.8234 106.376 48.8234 142.696C48.8234 106.376 80.229 76.9326 118.971 76.9326Z" fill="#C7E8AB"/>
</g>
<path d="M108.615 97.4231C114.219 93.9317 112.456 85.3518 105.929 84.3539L97.3297 83.0393C95.2775 82.7256 93.4647 81.5309 92.367 79.7688L87.7676 72.3854C84.2762 66.7806 75.6963 68.544 74.6984 75.0716L73.3838 83.6704C73.0701 85.7226 71.8754 87.5354 70.1133 88.6331L62.7299 93.2324C57.1251 96.7239 58.8885 105.304 65.4161 106.302L74.0149 107.616C76.0671 107.93 77.8799 109.125 78.9776 110.887L83.577 118.27C87.0684 123.875 95.6483 122.112 96.6462 115.584L97.9608 106.985C98.2745 104.933 99.4692 103.12 101.231 102.023L108.615 97.4231Z" fill="white"/>
<path d="M53.6102 56.1203C57.7196 55.7386 59.1365 50.4506 55.7685 48.0654L50.9694 44.6666C49.9105 43.9167 49.2321 42.7416 49.1121 41.4497L48.5683 35.5941C48.1866 31.4847 42.8986 30.0678 40.5134 33.4358L37.1146 38.235C36.3647 39.2938 35.1897 39.9723 33.8977 40.0923L28.0421 40.6361C23.9327 41.0178 22.5158 46.3058 25.8839 48.691L30.683 52.0897C31.7419 52.8396 32.4203 54.0147 32.5403 55.3067L33.0841 61.1622C33.4658 65.2716 38.7538 66.6885 41.139 63.3205L44.5377 58.5214C45.2876 57.4625 46.4627 56.7841 47.7547 56.6641L53.6102 56.1203Z" fill="white"/>
</g>
<path d="M136.117 286.031C136.412 291.713 145.957 295.913 156.953 295.342C167.95 294.771 176.234 289.645 175.939 283.963C175.44 274.34 167.339 267.046 154.97 267.688C142.602 268.33 135.6 276.076 136.117 286.031Z" fill="#5BB42B"/>
<path d="M59.024 286.031C59.319 291.713 68.8636 295.913 79.8602 295.342C90.8568 294.771 99.1411 289.645 98.8461 283.963C98.3463 274.34 90.2453 267.046 77.877 267.688C65.5088 268.33 58.507 276.076 59.024 286.031Z" fill="#5BB42B"/>
<ellipse cx="58.5758" cy="200.91" rx="26.5651" ry="28.6273" transform="rotate(-28.6896 58.5758 200.91)" fill="#5BB42B"/>
<ellipse cx="26.5651" cy="28.6273" rx="26.5651" ry="28.6273" transform="matrix(-0.877234 -0.480064 -0.480064 0.877234 211.038 187.81)" fill="#5BB42B"/>
<path d="M202.299 246.885C202.299 281.938 165.947 281.931 118.991 281.931C72.0343 281.931 30.833 281.938 30.833 246.885C30.833 196.531 69.7517 174.931 116.708 174.931C163.664 174.931 202.299 192.543 202.299 246.885Z" fill="#5BB42B"/>
<path d="M48.7776 234.745H60.0757" stroke="#A1DC3C" stroke-width="13.2919" stroke-linecap="round"/>
<path d="M171.728 234.745H183.026" stroke="#A1DC3C" stroke-width="13.2919" stroke-linecap="round"/>
<path d="M171.162 209.49L176.478 210.82" stroke="#123041" stroke-width="9.96894" stroke-linecap="round"/>
<path d="M68.8137 210.155L63.4974 211.484" stroke="#123041" stroke-width="9.96894" stroke-linecap="round"/>
<path d="M145.243 212.481C143.803 213.478 139.859 215.472 135.606 215.472C130.289 215.472 128.295 210.82 122.646 210.82C116.997 210.82 115.004 215.472 109.687 215.472C105.433 215.472 101.49 213.478 100.05 212.481" stroke="#4B890D" stroke-width="3.32298" stroke-linecap="round"/>
<defs>
<clipPath id="clip0_1715_113">
<rect width="361" height="276.53" rx="35.6984" transform="matrix(-1 0 0 1 263 0)" fill="white"/>
</clipPath>
<clipPath id="clip1_1715_113">
<rect width="282" height="264.375" rx="26.4375" transform="matrix(-1 0 0 1 190 75.6147)" fill="white"/>
</clipPath>
</defs>
</svg>
