<svg width="375" height="288" viewBox="0 0 375 288" fill="none" xmlns="http://www.w3.org/2000/svg">
<g clip-path="url(#clip0_1225_791)">
<rect width="503.131" height="287.343" rx="40.1484" fill="#FFD2D2"/>
<path d="M172.839 40.2718C173.325 36.9893 178.059 36.9892 178.545 40.2718L191.607 128.499C192.024 131.313 195.831 131.889 197.061 129.324L235.669 48.8433C237.104 45.8511 241.628 47.2523 241.12 50.532L227.484 138.645C227.049 141.457 230.518 143.133 232.451 141.045L293.159 75.4829C295.414 73.0471 299.323 75.7234 297.868 78.7071L258.769 158.867C257.52 161.426 260.342 164.054 262.807 162.627L340.196 117.81C343.069 116.146 346.017 119.858 343.745 122.28L282.677 187.375C280.727 189.454 282.652 192.8 285.429 192.159L372.608 172.052C375.845 171.306 377.571 175.722 374.685 177.368L297.078 221.64C294.601 223.053 295.458 226.82 298.302 227.022L387.526 233.387C390.84 233.624 391.193 238.353 387.951 239.079L300.684 258.611C297.901 259.234 297.614 263.086 300.273 264.116L383.639 296.377C386.738 297.576 385.687 302.2 382.374 301.942L293.177 294.998C290.335 294.776 288.929 298.373 291.167 300.138L361.287 355.435C363.895 357.492 361.532 361.602 358.442 360.383L275.229 327.559C272.579 326.513 270.179 329.534 271.796 331.879L322.446 405.324C324.331 408.057 320.865 411.287 318.271 409.214L248.44 353.402C246.216 351.625 243.035 353.802 243.887 356.518L270.555 441.605C271.548 444.772 267.284 446.834 265.418 444.089L215.197 370.241C213.597 367.889 209.918 369.028 209.928 371.873L210.22 461.041C210.231 464.359 205.549 465.068 204.578 461.895L178.45 376.585C177.617 373.865 173.767 373.865 172.934 376.585L146.806 461.895C145.835 465.068 141.153 464.359 141.164 461.041L141.456 371.873C141.466 369.028 137.787 367.889 136.187 370.241L85.9659 444.089C84.0994 446.834 79.8358 444.772 80.8285 441.605L107.497 356.518C108.348 353.802 105.168 351.625 102.944 353.402L33.1125 409.214C30.5188 411.287 27.0522 408.057 28.9373 405.324L79.5884 331.879C81.2058 329.534 78.8057 326.513 76.1556 327.559L-7.05905 360.384C-10.1489 361.602 -12.5116 357.492 -9.90349 355.436L60.2165 300.138C62.4549 298.373 61.0486 294.776 58.2065 294.998L-30.9911 301.942C-34.3034 302.2 -35.3544 297.576 -32.2559 296.377L51.1101 264.116C53.7695 263.086 53.4819 259.234 50.6991 258.611L-36.5674 239.079C-39.8098 238.353 -39.4568 233.624 -36.1427 233.387L53.0824 227.022C55.9266 226.82 56.7831 223.053 54.3064 221.64L-23.301 177.368C-26.1865 175.722 -24.4606 171.306 -21.2236 172.052L65.9556 192.159C68.7325 192.8 70.6572 189.454 68.7073 187.375L7.63925 122.28C5.3671 119.858 8.31443 116.146 11.1883 117.811L88.5772 162.627C91.0415 164.054 93.8634 161.426 92.615 158.867L53.5159 78.7071C52.0606 75.7234 55.9692 73.0471 58.2247 75.4829L118.933 141.045C120.866 143.133 124.335 141.457 123.9 138.645L110.264 50.532C109.756 47.2523 114.279 45.8511 115.715 48.8433L154.323 129.324C155.553 131.889 159.36 131.313 159.777 128.499L172.839 40.2718Z" fill="#FFC1AD"/>
<g clip-path="url(#clip1_1225_791)">
<path d="M96.3623 198.63C92.0636 234.733 130.228 251.419 178.345 257.148C226.462 262.877 267.769 255.654 272.067 219.55C279.397 157.991 242.029 132.136 193.912 126.407C145.795 120.678 104.041 134.138 96.3623 198.63Z" fill="white"/>
<path d="M120.126 208.421L109.75 207.186" stroke="#FFC0C1" stroke-width="13.9328" stroke-linecap="round"/>
<path d="M112.731 228.416C110.296 246.256 130.375 268.571 140.719 277.499C142.253 277.682 146.004 277.53 148.739 275.461C152.158 272.875 144.374 230.474 140.827 221.072C137.28 211.671 115.775 206.118 112.731 228.416Z" fill="#E7EAEE"/>
<path d="M127.97 319.327C114.312 307.699 141.687 248.561 157.097 242.537C172.506 236.512 195.929 240.492 205.494 248.299C215.059 256.106 233.192 321.615 217.158 329.947C201.124 338.278 141.627 330.956 127.97 319.327Z" fill="white"/>
<path d="M245.966 303.23C248.402 285.39 228.322 263.075 217.978 254.147C216.445 253.964 212.693 254.116 209.958 256.185C206.539 258.771 214.324 301.172 217.871 310.574C221.418 319.975 242.922 325.528 245.966 303.23Z" fill="white"/>
<path d="M137.008 299.176C134.811 317.629 150.078 323.941 169.562 326.261C189.047 328.581 205.369 326.03 207.567 307.577C210.455 283.319 196.295 267.707 176.81 265.387C157.326 263.067 139.896 274.917 137.008 299.176Z" fill="#E7EAEE"/>
<path d="M163.694 89.3733C162.163 108.216 171.192 149.916 170.389 165.522L214.699 183.236C224.876 171.377 258.455 146.711 271.72 132.559C288.172 115.007 290.521 84.5853 267.669 75.4497C248.8 67.9068 227.506 95.5306 218.354 111.225C222.543 93.5467 225.513 58.5973 207.292 51.313C184.44 42.1773 165.642 65.3954 163.694 89.3733Z" fill="white"/>
<path d="M218.5 192.777L217.183 203.845" stroke="#2B2B2B" stroke-width="10.4496" stroke-linecap="round"/>
<path d="M134.798 182.811L133.48 193.879" stroke="#2B2B2B" stroke-width="10.4496" stroke-linecap="round"/>
<path d="M234.955 222.094L224.579 220.859" stroke="#FFC0C1" stroke-width="13.9328" stroke-linecap="round"/>
<path d="M160.734 214.984C159.992 221.217 159.619 224.351 171.033 225.71C182.447 227.069 182.754 224.492 183.562 217.702C184.371 210.911 180.549 199.482 174.245 198.732C167.941 197.981 161.476 208.75 160.734 214.984Z" fill="#FFC0C1"/>
<path d="M174.248 198.727C170.193 198.244 166.073 202.529 163.451 207.307C166.035 208.91 169.267 210.056 172.848 210.483C176.466 210.914 179.909 210.546 182.817 209.573C181.413 204.249 178.359 199.217 174.248 198.727Z" fill="#E7EAEE"/>
<path d="M178.227 189.388C176.869 189.226 176.18 189.718 175.264 190.183C174.482 189.516 173.927 188.876 172.57 188.714C170.872 188.512 169.675 190.174 169.97 191.275C170.367 192.757 172.273 194.419 174.657 195.277C177.176 195.003 179.419 193.835 180.153 192.487C180.698 191.486 179.924 189.59 178.227 189.388Z" fill="#FFC0C1"/>
</g>
</g>
<defs>
<clipPath id="clip0_1225_791">
<rect width="503.131" height="287.343" rx="40.1484" fill="white"/>
</clipPath>
<clipPath id="clip1_1225_791">
<rect width="227.54" height="324.901" fill="white" transform="translate(91.1865 30) rotate(6.79012)"/>
</clipPath>
</defs>
</svg>
