<svg width="863" height="621" viewBox="0 0 863 621" fill="none" xmlns="http://www.w3.org/2000/svg">
<path d="M401.904 10.4871C400.259 6.28842 394.49 5.84854 392.267 9.77198C380.619 30.3291 352.988 78.9146 333.08 112.491C312.695 146.872 301.859 166.54 279.969 199.983C255.255 237.742 242.572 260.065 213.023 294.172C180.397 331.831 125.755 389.751 125.755 389.751L16.1215 496.51C12.6813 499.86 15.053 505.695 19.8548 505.695H378.156H739.216C743.923 505.695 746.38 500.098 743.13 496.692C715.21 467.43 627 374.946 595.064 341.043C553.929 297.374 528.55 274.029 495.984 223.642C459.232 166.781 423.681 66.066 423.681 66.066L401.904 10.4871Z" fill="#640960"/>
<path d="M400.714 80.8132C397.138 68.018 395.349 61.6204 391.541 61.3931C387.733 61.1658 385.188 67.328 380.096 79.6523C369.871 104.402 354.838 139.401 342.035 163.659C325.09 195.767 316.742 213.576 296.55 244.374C273.752 279.146 249.335 306.612 222.078 338.021C193.667 370.76 146.568 432.297 141.384 439.083C141.153 439.386 141.038 439.537 140.904 439.687C140.771 439.836 140.626 439.977 140.336 440.257L91.7047 487.299C83.6371 495.103 79.6033 499.005 80.9562 502.35C82.3092 505.694 87.9214 505.694 99.1458 505.694H671.509C683.374 505.694 689.307 505.694 690.627 502.266C691.947 498.837 687.548 494.86 678.75 486.906C648.049 459.149 591.749 407.461 566.789 379.494C529.776 338.021 496.776 278.266 488.303 269.793C457.868 239.358 411.156 118.173 411.156 118.173L400.714 80.8132Z" fill="#7D1F6A"/>
<path opacity="0.51" d="M597.558 446.024C639.373 482.659 676.489 505.695 676.489 505.695H103.458C103.458 505.695 134.02 503.139 144.484 494.1C187.769 456.711 185.511 477.686 223.415 438.443C257.866 402.777 263.55 390.282 313.049 354.607C321.076 348.822 354.076 272.038 377.264 203.843C390.163 165.908 386.183 65.1922 392.426 108.894C398.669 152.595 394.828 144.375 398.669 166.781C410.7 236.949 437.726 277.398 471.357 333.648C508.878 396.401 547.167 401.876 597.558 446.024Z" fill="#D429A4"/>
<g clip-path="url(#clip0_1_3)">
<path d="M382.156 456.324C379.269 444.284 360.837 434.988 351.981 431.845C350.953 432.11 348.586 433.143 347.349 435.15C345.802 437.66 361.363 462.895 365.98 468.036C370.597 473.177 385.765 471.375 382.156 456.324Z" fill="#E7EAEE"/>
<path d="M372.284 506.156C375.19 503.669 372.831 481.13 369.387 470.495L339.005 484.846C340.611 493.785 345.18 511.679 347.112 512.65C349.526 513.864 368.65 509.265 372.284 506.156Z" fill="#E7EAEE"/>
<path d="M368.49 485.196C377.417 476.683 356.333 437.139 345.519 433.599C334.706 430.058 318.778 433.697 312.513 439.428C306.248 445.159 296.332 490.839 307.664 495.939C318.995 501.039 359.563 493.709 368.49 485.196Z" fill="white"/>
<path d="M321.291 507.869C317.613 507.367 309.697 490.077 308.026 480.884L341.299 477.74C343.845 484.894 347.742 499.818 346.462 501.375C344.864 503.322 325.888 508.496 321.291 507.869Z" fill="white"/>
<path d="M291.059 473.003C287.761 461.069 299.396 444.016 305.626 436.981C306.654 436.716 309.225 436.475 311.279 437.633C313.847 439.082 312.436 468.695 310.882 475.428C309.328 482.161 295.182 487.921 291.059 473.003Z" fill="white"/>
<path d="M356.836 466.928C360.028 479.303 350.203 485.007 337.137 488.378C324.071 491.749 312.712 491.51 309.519 479.135C305.323 462.868 313.539 450.927 326.605 447.556C339.671 444.185 352.639 450.661 356.836 466.928Z" fill="#E7EAEE"/>
<path d="M335.951 480.774C336.046 480.75 336.136 480.708 336.215 480.649C336.294 480.59 336.361 480.517 336.411 480.433L338.797 476.36C338.88 476.192 338.897 475.999 338.843 475.819C338.789 475.64 338.669 475.487 338.507 475.392C338.345 475.297 338.153 475.267 337.969 475.307C337.785 475.347 337.622 475.454 337.514 475.608L335.112 479.646C335.061 479.731 335.028 479.824 335.013 479.922C334.999 480.019 335.005 480.118 335.029 480.213C335.054 480.308 335.097 480.397 335.156 480.476C335.216 480.554 335.29 480.62 335.375 480.669C335.459 480.724 335.553 480.762 335.652 480.78C335.751 480.798 335.853 480.796 335.951 480.774Z" fill="#FFC0C1"/>
<path d="M339.139 479.952C339.233 479.928 339.322 479.886 339.401 479.827C339.479 479.769 339.545 479.696 339.595 479.612C339.645 479.528 339.678 479.434 339.692 479.337C339.706 479.24 339.7 479.142 339.676 479.047C339.652 478.952 339.609 478.863 339.549 478.785C339.49 478.707 339.416 478.641 339.332 478.591L335.31 476.219C335.226 476.169 335.132 476.136 335.035 476.122C334.938 476.108 334.84 476.113 334.745 476.138C334.65 476.162 334.561 476.205 334.483 476.264C334.405 476.323 334.339 476.397 334.29 476.482C334.19 476.651 334.162 476.853 334.211 477.042C334.26 477.232 334.382 477.395 334.551 477.495L338.582 479.873C338.75 479.971 338.95 480 339.139 479.952Z" fill="#FFC0C1"/>
<path d="M381.25 393.506C387.496 417.717 363.018 432.595 330.751 440.919C298.484 449.244 269.669 448.115 263.423 423.904C252.773 382.622 275.865 361.569 308.132 353.245C340.4 344.92 370.092 350.259 381.25 393.506Z" fill="white"/>
<path d="M282.442 430.397L289.571 429.49" stroke="#FFC0C1" stroke-width="9.5815" stroke-linecap="round"/>
<path d="M361.899 419.324L368.858 417.529" stroke="#FFC0C1" stroke-width="9.5815" stroke-linecap="round"/>
<path d="M334.518 424.527C334.989 428.818 335.226 430.975 327.368 431.838C319.511 432.701 319.316 430.927 318.803 426.252C318.289 421.577 320.989 413.742 325.329 413.266C329.669 412.789 334.047 420.235 334.518 424.527Z" fill="#FFC0C1"/>
<path d="M325.329 413.272C328.121 412.965 330.927 415.94 332.7 419.242C330.913 420.328 328.684 421.096 326.219 421.367C323.727 421.64 321.361 421.366 319.367 420.678C320.366 417.025 322.498 413.583 325.329 413.272Z" fill="#E7EAEE"/>
<path d="M294.737 409.045L296.12 416.584" stroke="#123041" stroke-width="7.18612" stroke-linecap="round"/>
<path d="M351.867 400.441L353.249 407.981" stroke="#123041" stroke-width="7.18612" stroke-linecap="round"/>
<path d="M322.488 406.715C323.408 406.52 323.91 406.815 324.566 407.077C325.06 406.572 325.401 406.099 326.321 405.904C327.471 405.661 328.394 406.726 328.26 407.498C328.079 408.538 326.876 409.793 325.296 410.528C323.554 410.496 321.946 409.834 321.36 408.956C320.925 408.304 321.338 406.958 322.488 406.715Z" fill="#FFC0C1"/>
<path d="M261.259 350.208C268.074 361.28 290.04 380.732 295.942 389.713L327.718 381.515C328.538 370.799 337.128 343.465 338.728 330.222C340.714 313.797 329.643 295.972 313.255 300.2C299.724 303.691 299.15 327.67 300.458 340.095C295.591 328.588 283.024 307.999 269.957 311.37C253.569 315.598 252.588 336.118 261.259 350.208Z" fill="white"/>
</g>
<g clip-path="url(#clip1_1_3)">
<path d="M477.344 362.294C462.502 371.078 467.087 375.457 470.921 381.937C474.756 388.416 476.689 394.365 491.23 385.759C498.612 381.391 501.487 372.597 497.653 366.117C493.818 359.637 484.725 357.926 477.344 362.294Z" fill="white"/>
<path d="M455.588 363.797C455.588 371.978 458.441 372.027 461.961 372.027C465.481 372.027 468.335 371.978 468.335 363.797C468.335 355.616 464.429 348.984 461.961 348.984C459.494 348.984 455.588 355.616 455.588 363.797Z" fill="#6A5B3D"/>
<path d="M378.615 363.797C378.615 371.978 381.469 372.027 384.989 372.027C388.509 372.027 391.362 371.978 391.362 363.797C391.362 355.616 387.456 348.984 384.989 348.984C382.522 348.984 378.615 355.616 378.615 363.797Z" fill="#6A5B3D"/>
<path d="M368.206 362.294C383.048 371.078 378.463 375.457 374.628 381.937C370.794 388.416 368.86 394.365 354.319 385.759C346.938 381.391 344.062 372.597 347.897 366.117C351.732 359.637 360.824 357.926 368.206 362.294Z" fill="#123041"/>
<path d="M364.543 369.785C371.941 374.163 370.025 375.721 368.57 378.179C367.116 380.638 366.522 382.977 359.274 378.688C355.595 376.511 353.792 372.753 355.247 370.295C356.702 367.836 360.864 367.608 364.543 369.785Z" fill="#FFC0C1"/>
<path d="M481.447 369.785C474.049 374.163 475.965 375.721 477.42 378.179C478.875 380.638 479.468 382.977 486.716 378.688C490.395 376.511 492.198 372.753 490.743 370.295C489.288 367.836 485.126 367.608 481.447 369.785Z" fill="#FFC0C1"/>
<path d="M474.216 472.571C474.433 459.902 458.545 445.978 450.573 440.6C449.486 440.6 446.877 441.018 445.138 442.691C442.964 444.783 451.932 473.767 455.193 480.041C458.454 486.316 473.944 488.408 474.216 472.571Z" fill="#E7EAEE"/>
<path d="M395.738 514.428C392.221 512.991 388.797 493.834 389.492 484.297L423.266 489.687C423.96 497.427 424.007 513.212 422.341 514.428C420.259 515.949 400.133 516.225 395.738 514.428Z" fill="#E7EAEE"/>
<path d="M454.343 493.212C464.855 486.222 450.645 442.617 440.378 437.125C430.11 431.632 413.411 432.464 406.077 437.125C398.743 441.785 380.62 486.055 391.132 493.212C401.643 500.368 443.831 500.202 454.343 493.212Z" fill="white"/>
<path fill-rule="evenodd" clip-rule="evenodd" d="M455.44 463.968C452.771 465.136 450.461 466.921 449.46 469.591C447.106 475.867 439 478.579 435.242 479.151C435.242 479.151 425.858 482.461 422.985 487.486C421.19 490.626 421.107 495.891 421.189 498.47C435.469 498.835 450.585 497.111 456.309 493.214C461.602 489.611 459.634 476.597 455.44 463.968Z" fill="#123041"/>
<path d="M453.174 514.428C456.69 512.991 460.114 493.834 459.42 484.297L425.645 489.687C424.951 497.427 424.905 513.212 426.57 514.428C428.652 515.949 448.778 516.225 453.174 514.428Z" fill="#123041"/>
<path d="M448.724 477.396C448.724 490.474 437.53 493.616 423.72 493.616C409.911 493.616 398.716 490.474 398.716 477.396C398.716 460.203 409.911 450.472 423.72 450.472C437.53 450.472 448.724 460.203 448.724 477.396Z" fill="#FFC0C1"/>
<path d="M422.039 489.199C422.14 489.2 422.24 489.18 422.333 489.142C422.426 489.105 422.511 489.049 422.583 488.978L425.988 485.553C426.113 485.407 426.179 485.22 426.171 485.029C426.164 484.837 426.084 484.655 425.948 484.52C425.811 484.384 425.629 484.305 425.436 484.297C425.244 484.29 425.055 484.355 424.909 484.48L421.496 487.867C421.424 487.938 421.367 488.022 421.329 488.115C421.29 488.207 421.27 488.307 421.27 488.407C421.27 488.508 421.29 488.607 421.329 488.7C421.367 488.793 421.424 488.877 421.496 488.948C421.565 489.024 421.649 489.085 421.742 489.128C421.835 489.172 421.936 489.196 422.039 489.199Z" fill="#FF8D8D"/>
<path d="M425.408 489.199C425.508 489.2 425.607 489.18 425.7 489.143C425.792 489.105 425.876 489.049 425.947 488.979C426.018 488.908 426.075 488.824 426.113 488.732C426.152 488.639 426.172 488.54 426.172 488.44C426.172 488.339 426.152 488.24 426.113 488.148C426.075 488.055 426.018 487.971 425.947 487.9L422.569 484.521C422.498 484.45 422.414 484.394 422.322 484.355C422.229 484.317 422.13 484.297 422.03 484.297C421.929 484.297 421.83 484.317 421.738 484.355C421.645 484.394 421.561 484.45 421.491 484.521C421.349 484.664 421.27 484.856 421.27 485.057C421.27 485.257 421.349 485.45 421.491 485.592L424.877 488.979C425.018 489.119 425.209 489.198 425.408 489.199Z" fill="#FF8D8D"/>
<path d="M361.456 412.966C361.456 438.554 389.514 447.039 423.617 447.039C457.72 447.039 485.985 438.554 485.985 412.966C485.985 369.336 457.72 354.377 423.617 354.377C389.514 354.377 361.456 367.259 361.456 412.966Z" fill="white"/>
<path d="M419.282 354.456C389.725 355.457 365.591 367.118 361.936 403.085C378.391 404.423 381.292 391.905 386.599 387.006C392 382.021 403.217 384.721 411.942 377.658C417.292 373.327 418.995 362.62 419.282 354.456Z" fill="#123041"/>
<path d="M389.163 408.307V416.151" stroke="#123041" stroke-width="7.35407" stroke-linecap="round"/>
<path d="M454.86 408.307V416.151" stroke="#123041" stroke-width="7.35407" stroke-linecap="round"/>
<path d="M400.678 426.545C400.678 416.473 408.843 408.307 418.916 408.307H428.035C438.107 408.307 446.273 416.473 446.273 426.545C446.273 433.26 440.829 438.704 434.114 438.704H412.836C406.121 438.704 400.678 433.26 400.678 426.545Z" fill="#FFC0C1"/>
<path d="M413.915 422.034V427.426" stroke="#123041" stroke-width="4.90271" stroke-linecap="round"/>
<path d="M433.526 422.034L433.526 427.426" stroke="#123041" stroke-width="4.90271" stroke-linecap="round"/>
<path d="M376.164 427.427H383.518" stroke="#FFC0C1" stroke-width="9.80543" stroke-linecap="round"/>
<path d="M463.923 427.427H471.277" stroke="#FFC0C1" stroke-width="9.80543" stroke-linecap="round"/>
<path d="M373.389 472.145C373.172 459.475 389.061 445.551 397.032 440.173C398.119 440.173 400.728 440.591 402.467 442.264C404.642 444.356 395.673 473.34 392.412 479.615C389.151 485.889 373.661 487.981 373.389 472.145Z" fill="white"/>
</g>
<g clip-path="url(#clip2_1_3)">
<path d="M171.848 498.583C174.708 501.443 199.657 500.967 212.846 500.49C220.95 495.484 222.142 471.887 216.66 468.55C211.178 465.213 186.457 476.673 182.813 479.276C179.476 481.66 168.511 495.246 171.848 498.583Z" fill="#5C9A15"/>
<path d="M156.617 509.897C159.478 512.757 184.426 512.281 197.615 511.804C205.72 506.798 206.911 483.201 201.429 479.864C195.947 476.527 171.226 487.987 167.582 490.59C164.245 492.974 153.28 506.56 156.617 509.897Z" fill="#5BB42B"/>
<path d="M192.288 511.039C195.891 513.33 255.532 513.33 259.735 511.039C263.938 508.749 271.543 490.885 269.141 485.388C266.74 479.891 246.326 459.965 212.502 461.339C178.679 462.713 188.686 508.749 192.288 511.039Z" fill="#5BB42B"/>
<path d="M336.23 489.861C321.732 484.668 299.507 497.523 290.206 504.6C289.782 505.851 289.245 509.017 290.493 511.672C292.052 514.99 328.911 515.977 337.405 514.671C345.9 513.366 354.351 496.353 336.23 489.861Z" fill="#5C9A15"/>
<ellipse cx="232.7" cy="446.058" rx="19.0553" ry="20.5345" transform="rotate(-28.6896 232.7 446.058)" fill="#5BB42B"/>
<ellipse cx="19.0553" cy="20.5345" rx="19.0553" ry="20.5345" transform="matrix(-0.877234 -0.480064 -0.480064 0.877234 342.062 436.661)" fill="#5BB42B"/>
<path d="M335.793 479.036C335.793 504.18 308.081 512.518 274.399 512.518C240.716 512.518 212.8 504.18 212.8 479.036C212.8 442.917 240.716 427.423 274.399 427.423C308.081 427.423 335.793 440.056 335.793 479.036Z" fill="#5BB42B"/>
<path d="M225.671 470.329L233.775 470.329" stroke="#A1DC3C" stroke-width="9.53439" stroke-linecap="round"/>
<path d="M313.864 470.329L321.968 470.329" stroke="#A1DC3C" stroke-width="9.53439" stroke-linecap="round"/>
<path d="M307.437 447.942C307.437 447.942 310.098 450.051 312.136 450.566C314.065 451.053 317.231 450.566 317.231 450.566" stroke="#123041" stroke-width="5.98067" stroke-linecap="round"/>
<path d="M246.024 446.75C246.024 446.75 243.363 448.859 241.325 449.374C239.396 449.861 236.23 449.374 236.23 449.374" stroke="#123041" stroke-width="5.98067" stroke-linecap="round"/>
<path d="M265.921 488.909C250.778 483.484 227.561 496.913 217.845 504.305C217.402 505.612 216.842 508.919 218.145 511.692C219.774 515.159 258.276 516.189 267.149 514.825C276.023 513.462 284.851 495.69 265.921 488.909Z" fill="#5C9A15"/>
<path d="M294.866 454.356C293.833 455.071 291.005 456.502 287.954 456.502C284.14 456.502 282.71 453.165 278.658 453.165C274.606 453.165 273.175 456.502 269.362 456.502C266.311 456.502 263.482 455.071 262.449 454.356" stroke="#4B890D" stroke-width="2.3836" stroke-linecap="round"/>
</g>
<path d="M462.466 479.019C470.745 493.151 497.648 497.839 510.065 498.416C511.265 497.685 513.864 495.469 514.659 492.453C515.652 488.682 486.263 462.715 478.443 457.981C470.624 453.246 452.117 461.353 462.466 479.019Z" fill="#FFDB40"/>
<path d="M504.045 501.09C495.308 497.023 508.343 474.617 517.16 472.109C525.978 469.602 540.094 470.66 546.194 473.383C552.295 476.106 566.614 500.064 557.551 503.437C548.488 506.811 512.782 505.157 504.045 501.09Z" fill="#FFC532"/>
<path d="M579.92 485.36C571.062 496.656 547.145 497.551 536.293 496.586C535.338 495.81 533.342 493.578 533.008 490.865C532.59 487.473 561.178 468.392 568.528 465.204C575.877 462.016 590.992 471.241 579.92 485.36Z" fill="#FFDB40"/>
<path d="M463.095 450.725C462.035 474.88 488.171 484.052 520.365 485.465C552.558 486.877 579.592 480.037 580.651 455.882C582.458 414.695 556.395 399.403 524.202 397.991C492.008 396.579 464.987 407.577 463.095 450.725Z" fill="#FFDB40"/>
<path d="M528.397 443.712L528.106 452.608" stroke="#123041" stroke-width="7" stroke-linecap="round"/>
<path d="M477.989 438.473L477.698 447.368" stroke="#123041" stroke-width="7" stroke-linecap="round"/>
<path d="M487.536 455.299C487.339 459.775 492.864 461.93 499.781 462.234C506.699 462.537 512.391 460.874 512.587 456.397C512.784 451.921 507.41 446.327 500.493 446.024C493.575 445.72 487.732 450.822 487.536 455.299Z" fill="#FFB132"/>
<path d="M542.922 462.836L536.697 462.563" stroke="#FCA18E" stroke-width="8.30792" stroke-linecap="round"/>
<path d="M569.196 392.51C559.319 395.511 552.081 400.639 547.97 406.444L560.926 410.799C566.261 412.593 573.886 408.836 577.003 401.456C580.121 394.077 574.218 390.985 569.196 392.51Z" fill="#FFDB40"/>
<path d="M551.79 396.417C552.995 399.555 551.412 404.458 550.47 406.518C546.416 404.182 539.911 399.618 539.882 396.323C539.854 393.027 542.196 390.022 544.116 389.931C546.035 389.84 550.284 392.496 551.79 396.417Z" fill="#FFDB40"/>
<path d="M474.571 460.951L468.346 460.678" stroke="#FCA18E" stroke-width="8.30792" stroke-linecap="round"/>
<path d="M335.346 307.252L342.264 296.208C349.985 283.882 340.5 267.993 325.986 268.94L304.536 270.338C301.071 270.564 297.747 271.797 294.972 273.884L255.663 303.46C253.516 305.075 251.762 307.154 250.532 309.542L225.844 357.443C223.715 361.574 223.283 366.374 224.639 370.819L230.797 391.005C234.504 403.155 249.364 407.646 259.18 399.583L274.95 386.629C275.673 386.035 276.348 385.386 276.969 384.686L306.794 351.081C307.396 350.403 307.945 349.679 308.437 348.918L335.346 307.252Z" fill="#7D1F6A"/>
<path d="M65.5531 452.628C80.715 469.128 120.404 492.763 129.322 396.44" stroke="#FFFFD6" stroke-width="1.78376"/>
<path d="M205.121 311.711C223.85 313.049 273.796 319.738 257.742 233.671" stroke="#FFFFD6" stroke-width="1.78376"/>
<path d="M261.042 236.793C279.771 238.131 333.74 237.685 317.686 151.619" stroke="#FFFFD6" stroke-width="1.78376"/>
<path d="M526.636 271.599C510.625 275.867 469.777 267.362 478.364 190.264" stroke="#FFFFD6" stroke-width="1.78376"/>
<path d="M480.259 189.547C464.248 193.814 423.399 185.31 431.987 108.211" stroke="#FFFFD6" stroke-width="1.78376"/>
<path d="M610.449 357.944C592.453 366.84 542.651 369.089 537.302 285.445" stroke="#FFFFD6" stroke-width="1.78376"/>
<path d="M661.327 438.358C642.598 439.695 612.72 448.614 609.599 357.643" stroke="#FFFFD6" stroke-width="1.78376"/>
<path d="M322.414 138.858C343.439 140.241 404.021 139.78 386 50.8364" stroke="#FFFFD6" stroke-width="1.78376"/>
<path d="M433.007 98.5523C419.629 117.282 367.443 118.174 383.497 32.1074" stroke="#FFFFD6" stroke-width="1.78376"/>
<path d="M129.322 396.885C159.646 410.709 190.416 410.263 192.2 330.886" stroke="#FFFFD6" stroke-width="1.78376"/>
<path d="M672.922 449.506C669.106 517.655 746.974 509.422 754.24 540.759C754.467 541.739 754.731 542.817 754.983 543.791C764.799 581.715 639.859 535.405 655.53 580.612C664.806 607.368 797.042 617.625 862 619.409" stroke="#FFFFD6" stroke-width="1.78376"/>
<g filter="url(#filter0_d_1_3)">
<circle cx="16.6671" cy="16.6671" r="15.7753" transform="matrix(-1 0 0 1 687.396 422.846)" fill="#FFFFD6" stroke="#FFEC91" stroke-width="1.78376"/>
<circle cx="9.59624" cy="9.59624" r="9.59624" transform="matrix(-1 0 0 1 680.326 429.915)" fill="#FFEC91"/>
</g>
<g filter="url(#filter1_d_1_3)">
<circle cx="16.6671" cy="16.6671" r="15.7753" transform="matrix(-1 0 0 1 549.009 264.254)" fill="#FFFFD6" stroke="#FFEC91" stroke-width="1.78376"/>
<circle cx="9.59624" cy="9.59624" r="9.59624" transform="matrix(-1 0 0 1 541.938 271.327)" fill="#FFEC91"/>
</g>
<g filter="url(#filter2_d_1_3)">
<circle cx="16.6671" cy="16.6671" r="15.7753" transform="matrix(-1 0 0 1 459.107 89.5039)" fill="#FFFFD6" stroke="#FFEC91" stroke-width="1.78376"/>
<circle cx="9.59624" cy="9.59624" r="9.59624" transform="matrix(-1 0 0 1 452.036 96.5728)" fill="#FFEC91"/>
</g>
<g filter="url(#filter3_d_1_3)">
<circle cx="16.6671" cy="16.6671" r="15.7753" transform="matrix(-1 0 0 1 334.861 122.836)" fill="#FFFFD6" stroke="#FFEC91" stroke-width="1.78376"/>
<circle cx="9.59624" cy="9.59624" r="9.59624" transform="matrix(-1 0 0 1 327.79 129.909)" fill="#FFEC91"/>
</g>
<g filter="url(#filter4_d_1_3)">
<circle cx="16.6671" cy="16.6671" r="15.7753" transform="matrix(-1 0 0 1 210.929 304.66)" fill="#FFFFD6" stroke="#FFEC91" stroke-width="1.78376"/>
<circle cx="9.59624" cy="9.59624" r="9.59624" transform="matrix(-1 0 0 1 203.858 311.731)" fill="#FFEC91"/>
</g>
<g filter="url(#filter5_d_1_3)">
<circle cx="16.6671" cy="16.6671" r="15.7753" transform="matrix(-1 0 0 1 77.2776 442.037)" fill="#FFFFD6" stroke="#FFEC91" stroke-width="1.78376"/>
<circle cx="9.59624" cy="9.59624" r="9.59624" transform="matrix(-1 0 0 1 70.2067 449.109)" fill="#FFEC91"/>
</g>
<circle cx="11.6165" cy="11.6165" r="10.7246" transform="matrix(-1 0 0 1 621.193 352.292)" fill="#FFFFD6" stroke="#FFFFD6" stroke-width="1.78376"/>
<circle cx="6.68829" cy="6.68829" r="6.24235" transform="matrix(-1 0 0 1 616.265 357.224)" fill="#FFEC91" stroke="#FFE6BF" stroke-width="0.891878"/>
<circle cx="12.6266" cy="12.6266" r="11.7347" transform="matrix(-1 0 0 1 489.411 181.424)" fill="#FFFFD6" stroke="#FFFFD6" stroke-width="1.78376"/>
<circle cx="7.26988" cy="7.26988" r="6.82394" transform="matrix(-1 0 0 1 484.054 186.783)" fill="#FFEC91" stroke="#FFE6BF" stroke-width="0.891878"/>
<circle cx="12.6266" cy="12.6266" r="11.7347" transform="matrix(-1 0 0 1 141.363 378.158)" fill="#FFFFD6" stroke="#FFFFD6" stroke-width="1.78376"/>
<circle cx="7.26988" cy="7.26988" r="6.82394" transform="matrix(-1 0 0 1 136.006 383.517)" fill="#FFEC91" stroke="#FFE6BF" stroke-width="0.891878"/>
<circle cx="14.1418" cy="14.1418" r="13.2499" transform="matrix(-1 0 0 1 393.448 25.8643)" fill="#FFFFD6" stroke="#FFFFD6" stroke-width="1.78376"/>
<circle cx="8.14226" cy="8.14226" r="7.69632" transform="matrix(-1 0 0 1 387.449 31.8667)" fill="#FFEC91" stroke="#FFE6BF" stroke-width="0.891878"/>
<circle cx="14.1418" cy="14.1418" r="13.2499" transform="matrix(-1 0 0 1 277.284 221.828)" fill="#FFFFD6" stroke="#FFFFD6" stroke-width="1.78376"/>
<circle cx="8.14226" cy="8.14226" r="7.69632" transform="matrix(-1 0 0 1 271.284 227.83)" fill="#FFEC91" stroke="#FFE6BF" stroke-width="0.891878"/>
<path d="M568.902 537.426L709.178 511.477C714.491 510.494 713.805 502.675 708.402 502.632L469.867 500.75L378.392 503H244.527L175.391 507.441C174.784 507.48 174.176 507.394 173.603 507.19L112.546 485.355C111.894 485.121 111.196 485.043 110.509 485.127L17.7596 496.351C13.1476 496.909 12.3561 503.266 16.6904 504.938L80.7322 529.643C81.3418 529.878 81.9957 529.976 82.6475 529.931L202.502 521.57C203.159 521.524 203.818 521.624 204.432 521.864L243.746 537.195C244.262 537.397 244.812 537.5 245.366 537.5H568.091C568.363 537.5 568.635 537.475 568.902 537.426Z" fill="url(#paint0_linear_1_3)"/>
<path d="M326.5 521.985C361.545 517.999 374.94 519.861 390 528.985L390 546.485C353.665 537.323 330.96 539.225 292 537.985L326.5 521.985Z" fill="white"/>
<path d="M453.5 521.985C418.455 517.999 405.06 519.861 390 528.985L390 546.485C428.295 538.416 449.745 538.103 488 537.985L453.5 521.985Z" fill="white"/>
<path d="M389 547.485C390.111 538.952 396.778 534.152 409 531.485V542.485L400 542.985V546.985L389 547.485Z" fill="#CFE0E6"/>
<path d="M486.759 537.985L409 531.485V540.985L491 545.485L486.759 537.985Z" fill="#CFE0E6"/>
<path d="M390 547.485C388.889 538.952 382.222 534.152 370 531.485V542.485L379 542.985V546.985L390 547.485Z" fill="#CFE0E6"/>
<path d="M283 547.485L377.785 542.485C377.785 548.485 377.785 548.485 389.5 548.485" stroke="#75A142" stroke-width="4"/>
<path d="M496 547.485L401.274 542.485C401.274 548.485 401.274 548.485 389.5 548.485" stroke="#75A142" stroke-width="4"/>
<path d="M292.241 537.985L370 531.485V540.985L288 545.485L292.241 537.985Z" fill="#CFE0E6"/>
<defs>
<filter id="filter0_d_1_3" x="632.3" y="401.084" width="76.8579" height="76.8581" filterUnits="userSpaceOnUse" color-interpolation-filters="sRGB">
<feFlood flood-opacity="0" result="BackgroundImageFix"/>
<feColorMatrix in="SourceAlpha" type="matrix" values="0 0 0 0 0 0 0 0 0 0 0 0 0 0 0 0 0 0 127 0" result="hardAlpha"/>
<feOffset/>
<feGaussianBlur stdDeviation="10.8809"/>
<feComposite in2="hardAlpha" operator="out"/>
<feColorMatrix type="matrix" values="0 0 0 0 1 0 0 0 0 0.952457 0 0 0 0 0.683049 0 0 0 1 0"/>
<feBlend mode="normal" in2="BackgroundImageFix" result="effect1_dropShadow_1_3"/>
<feBlend mode="normal" in="SourceGraphic" in2="effect1_dropShadow_1_3" result="shape"/>
</filter>
<filter id="filter1_d_1_3" x="493.912" y="242.493" width="76.8579" height="76.8581" filterUnits="userSpaceOnUse" color-interpolation-filters="sRGB">
<feFlood flood-opacity="0" result="BackgroundImageFix"/>
<feColorMatrix in="SourceAlpha" type="matrix" values="0 0 0 0 0 0 0 0 0 0 0 0 0 0 0 0 0 0 127 0" result="hardAlpha"/>
<feOffset/>
<feGaussianBlur stdDeviation="10.8809"/>
<feComposite in2="hardAlpha" operator="out"/>
<feColorMatrix type="matrix" values="0 0 0 0 1 0 0 0 0 0.952457 0 0 0 0 0.683049 0 0 0 1 0"/>
<feBlend mode="normal" in2="BackgroundImageFix" result="effect1_dropShadow_1_3"/>
<feBlend mode="normal" in="SourceGraphic" in2="effect1_dropShadow_1_3" result="shape"/>
</filter>
<filter id="filter2_d_1_3" x="404.011" y="67.7421" width="76.8579" height="76.8581" filterUnits="userSpaceOnUse" color-interpolation-filters="sRGB">
<feFlood flood-opacity="0" result="BackgroundImageFix"/>
<feColorMatrix in="SourceAlpha" type="matrix" values="0 0 0 0 0 0 0 0 0 0 0 0 0 0 0 0 0 0 127 0" result="hardAlpha"/>
<feOffset/>
<feGaussianBlur stdDeviation="10.8809"/>
<feComposite in2="hardAlpha" operator="out"/>
<feColorMatrix type="matrix" values="0 0 0 0 1 0 0 0 0 0.952457 0 0 0 0 0.683049 0 0 0 1 0"/>
<feBlend mode="normal" in2="BackgroundImageFix" result="effect1_dropShadow_1_3"/>
<feBlend mode="normal" in="SourceGraphic" in2="effect1_dropShadow_1_3" result="shape"/>
</filter>
<filter id="filter3_d_1_3" x="279.765" y="101.075" width="76.8579" height="76.8581" filterUnits="userSpaceOnUse" color-interpolation-filters="sRGB">
<feFlood flood-opacity="0" result="BackgroundImageFix"/>
<feColorMatrix in="SourceAlpha" type="matrix" values="0 0 0 0 0 0 0 0 0 0 0 0 0 0 0 0 0 0 127 0" result="hardAlpha"/>
<feOffset/>
<feGaussianBlur stdDeviation="10.8809"/>
<feComposite in2="hardAlpha" operator="out"/>
<feColorMatrix type="matrix" values="0 0 0 0 1 0 0 0 0 0.952457 0 0 0 0 0.683049 0 0 0 1 0"/>
<feBlend mode="normal" in2="BackgroundImageFix" result="effect1_dropShadow_1_3"/>
<feBlend mode="normal" in="SourceGraphic" in2="effect1_dropShadow_1_3" result="shape"/>
</filter>
<filter id="filter4_d_1_3" x="155.833" y="282.898" width="76.8579" height="76.8581" filterUnits="userSpaceOnUse" color-interpolation-filters="sRGB">
<feFlood flood-opacity="0" result="BackgroundImageFix"/>
<feColorMatrix in="SourceAlpha" type="matrix" values="0 0 0 0 0 0 0 0 0 0 0 0 0 0 0 0 0 0 127 0" result="hardAlpha"/>
<feOffset/>
<feGaussianBlur stdDeviation="10.8809"/>
<feComposite in2="hardAlpha" operator="out"/>
<feColorMatrix type="matrix" values="0 0 0 0 1 0 0 0 0 0.952457 0 0 0 0 0.683049 0 0 0 1 0"/>
<feBlend mode="normal" in2="BackgroundImageFix" result="effect1_dropShadow_1_3"/>
<feBlend mode="normal" in="SourceGraphic" in2="effect1_dropShadow_1_3" result="shape"/>
</filter>
<filter id="filter5_d_1_3" x="22.1815" y="420.275" width="76.8579" height="76.8581" filterUnits="userSpaceOnUse" color-interpolation-filters="sRGB">
<feFlood flood-opacity="0" result="BackgroundImageFix"/>
<feColorMatrix in="SourceAlpha" type="matrix" values="0 0 0 0 0 0 0 0 0 0 0 0 0 0 0 0 0 0 127 0" result="hardAlpha"/>
<feOffset/>
<feGaussianBlur stdDeviation="10.8809"/>
<feComposite in2="hardAlpha" operator="out"/>
<feColorMatrix type="matrix" values="0 0 0 0 1 0 0 0 0 0.952457 0 0 0 0 0.683049 0 0 0 1 0"/>
<feBlend mode="normal" in2="BackgroundImageFix" result="effect1_dropShadow_1_3"/>
<feBlend mode="normal" in="SourceGraphic" in2="effect1_dropShadow_1_3" result="shape"/>
</filter>
<linearGradient id="paint0_linear_1_3" x1="377.5" y1="467.13" x2="377.5" y2="515.062" gradientUnits="userSpaceOnUse">
<stop stop-color="#E8DDCA"/>
<stop offset="1" stop-color="#AF9D80"/>
</linearGradient>
<clipPath id="clip0_1_3">
<rect width="156.178" height="218.458" fill="white" transform="translate(219.218 317.281) rotate(-14.4661)"/>
</clipPath>
<clipPath id="clip1_1_3">
<rect width="154.435" height="183.361" fill="white" transform="matrix(-1 0 0 1 500.203 340.636)"/>
</clipPath>
<clipPath id="clip2_1_3">
<rect width="208.469" height="94.8363" fill="white" transform="matrix(-1 -4.60971e-10 -4.60971e-10 1 349.832 422.657)"/>
</clipPath>
</defs>
</svg>
