<svg width="190" height="190" viewBox="0 0 190 190" fill="none" xmlns="http://www.w3.org/2000/svg">
<g clip-path="url(#clip0_332_893)">
<circle cx="94.9281" cy="94.931" r="94.9286" fill="#005271"/>
<mask id="mask0_332_893" style="mask-type:alpha" maskUnits="userSpaceOnUse" x="-1" y="0" width="191" height="190">
<circle cx="94.9278" cy="94.932" r="94.9286" fill="#005271"/>
</mask>
<g mask="url(#mask0_332_893)">
<path d="M95.2004 318.041L151.925 136.426L38.4756 136.426L95.2004 318.041Z" fill="#FFBB4D"/>
<mask id="mask1_332_893" style="mask-type:alpha" maskUnits="userSpaceOnUse" x="38" y="136" width="114" height="183">
<path d="M95.1753 318.071L151.9 136.456L38.4504 136.456L95.1753 318.071Z" fill="#F0BF5E"/>
</mask>
<g mask="url(#mask1_332_893)">
<line x1="166.735" y1="179.714" x2="39.1712" y2="222.973" stroke="#F2B149" stroke-width="1.83015"/>
<line x1="156.155" y1="148.517" x2="28.5916" y2="191.775" stroke="#F2B149" stroke-width="1.83015"/>
<line x1="145.576" y1="117.319" x2="18.012" y2="160.578" stroke="#F2B149" stroke-width="1.83015"/>
<line x1="117.559" y1="270.082" x2="20.8778" y2="176.292" stroke="#F2B149" stroke-width="1.83015"/>
<line x1="140.497" y1="246.437" x2="43.8156" y2="152.647" stroke="#F2B149" stroke-width="1.83015"/>
<line x1="163.434" y1="222.792" x2="66.7533" y2="129.002" stroke="#F2B149" stroke-width="1.83015"/>
<line x1="186.372" y1="199.147" x2="89.691" y2="105.357" stroke="#F2B149" stroke-width="1.83015"/>
<line x1="209.31" y1="175.502" x2="112.629" y2="81.712" stroke="#F2B149" stroke-width="1.83015"/>
<path d="M-0.122388 276.046L55.8162 42.4084L178.847 115.779L-0.122388 276.046Z" fill="black" fill-opacity="0.05"/>
<rect opacity="0.15" x="9.60669" y="131.655" width="147.174" height="16.8934" transform="rotate(-3.8866 9.60669 131.655)" fill="#005271"/>
</g>
<rect x="21.5149" y="112.696" width="147.583" height="23.7701" rx="8.08148" fill="#9EE7E5"/>
<rect x="21.5149" y="112.696" width="38.3978" height="23.7701" rx="8.08148" fill="#88D8DD"/>
<path d="M95.3062 37.9746C130.145 37.9749 158.388 66.2175 158.388 101.057C158.388 114.176 154.382 126.36 147.528 136.453H43.0835C36.2292 126.36 32.2231 114.176 32.2231 101.057C32.2231 66.2173 60.4669 37.9746 95.3062 37.9746Z" fill="#9EE7E5"/>
<mask id="mask2_332_893" style="mask-type:alpha" maskUnits="userSpaceOnUse" x="32" y="37" width="127" height="100">
<path d="M95.3062 37.9746C130.145 37.9749 158.388 66.2175 158.388 101.057C158.388 114.176 154.382 126.36 147.528 136.453H43.0835C36.2292 126.36 32.2231 114.176 32.2231 101.057C32.2231 66.2173 60.4669 37.9746 95.3062 37.9746Z" fill="#9EE7E5"/>
</mask>
<g mask="url(#mask2_332_893)">
<circle cx="77.816" cy="101.057" r="63.0821" fill="#88D8DD"/>
<circle cx="107.33" cy="79.1046" r="63.0821" fill="#9EE7E5"/>
</g>
<path d="M79.8475 90.5778V82.1126L62.2217 99.8696L66.3858 104.152L79.8475 90.5778ZM120.011 85.2871C118.705 78.6737 113.769 73.7136 113.202 73.1267L101.087 60.7266L94.1634 67.6954L93.6705 68.1914V76.6566L101.063 69.2165L107.954 76.2681L109.005 77.3427L109.079 77.4171C109.079 77.4171 109.539 77.8718 110.171 78.6323C112.111 80.8759 113.488 83.5548 114.188 86.4444C115.173 91.4045 115.666 97.249 110.171 104.342V113.088C110.689 112.633 110.992 112.311 111.132 112.195C116.06 107.334 119.009 102.424 120.167 97.1746C120.968 93.2476 120.918 89.1927 120.019 85.2871H120.011ZM83.3135 111.418L83.1328 111.327H83.0425C82.5056 111.045 81.9945 110.716 81.5148 110.344C81.0631 110.021 80.5128 109.591 79.8722 109.037C78.8701 108.211 77.6216 107.086 76.1022 105.59L72.6937 102.085L68.4885 106.318L71.8806 109.798V109.848C77.1289 115.006 79.8229 116.461 80.8167 116.883C83.9636 118.443 87.3739 119.393 90.8698 119.685C92.4763 119.811 94.0911 119.778 95.6911 119.586L96.0771 119.544V113.477C91.716 114.172 87.2482 113.451 83.3217 111.418H83.3135Z" fill="#005271"/>
<path d="M90.7032 71.1836V107.326H82.8267V79.1196L83.6151 78.326L84.0422 77.8962L86.4241 75.4988L88.0339 73.8785L88.5596 73.3495L90.1776 71.7209L90.7032 71.1836Z" fill="#005271"/>
<path d="M107.206 79.2627V115.322L107.108 115.397C106.746 115.628 106.36 115.868 105.95 116.099C105.818 116.182 105.679 116.256 105.539 116.331C105.178 116.537 104.792 116.744 104.397 116.942C104.003 117.141 103.65 117.306 103.256 117.48L102.607 117.761L101.72 118.108L100.997 118.364C100.504 118.53 99.9949 118.687 99.4693 118.827L99.0833 118.927V79.2627H107.206Z" fill="#005271"/>
<path d="M99.0772 88.79H90.7078V96.9741H99.0772V88.79Z" fill="#005271"/>
<path fill-rule="evenodd" clip-rule="evenodd" d="M114.834 54.6005C115.181 53.3493 116.476 52.6158 117.727 52.9623C122.438 54.2667 127.294 57.3484 131.306 61.0196C135.315 64.6868 138.722 69.1626 140.33 73.4749C140.784 74.6914 140.165 76.0454 138.949 76.499C137.732 76.9526 136.378 76.3341 135.924 75.1176C134.659 71.7242 131.797 67.8413 128.133 64.4885C124.472 61.1397 120.251 58.54 116.472 57.4936C115.221 57.1471 114.488 55.8518 114.834 54.6005Z" fill="white"/>
<circle cx="142.305" cy="82.6526" r="2.35089" fill="white"/>
<rect width="41.2711" height="13.0605" rx="6.53024" transform="matrix(0 -1 -1 0 131.494 153.936)" fill="#9EE7E5"/>
<path d="M58.4198 39.5404L57.8635 38.1607L61.3594 31.4703C62.7079 28.8784 62.992 27.1352 62.41 25.6919C61.6911 23.9089 59.7859 23.468 58.2365 24.0928C56.5385 24.7775 55.6967 26.178 55.2468 27.9387L53.6943 27.4543C54.2109 25.2472 55.4087 23.5057 57.7011 22.5814C60.2269 21.5629 63.0255 22.3838 64.0783 24.9945C64.8742 26.9684 64.5312 28.9328 62.925 32.0481L60.4396 36.8999L67.8472 33.9128L68.4805 35.4835L58.4198 39.5404Z" fill="white"/>
<path d="M82.5128 32.2837C78.6988 32.7702 75.5943 29.7748 74.989 25.0301C74.3865 20.3081 76.6396 16.6292 80.4535 16.1426C84.2447 15.659 87.3493 18.6544 87.9517 23.3764C88.557 28.1211 86.304 31.8 82.5128 32.2837ZM82.3042 30.6491C85.0512 30.2987 86.6391 27.3737 86.1583 23.6052C85.6775 19.8367 83.409 17.4267 80.6621 17.7772C77.9151 18.1276 76.3016 21.0328 76.7824 24.8013C77.2632 28.5698 79.5573 30.9996 82.3042 30.6491Z" fill="white"/>
<path d="M96.8454 30.8065L97.0352 29.3311L103.358 25.2065C105.802 23.6058 106.902 22.2245 107.101 20.681C107.346 18.7743 105.9 17.4576 104.243 17.2444C102.428 17.0108 101.008 17.8204 99.7544 19.1359L98.6374 17.9538C100.168 16.2817 102.065 15.3489 104.516 15.6643C107.217 16.0118 109.256 18.097 108.897 20.889C108.626 23 107.365 24.5454 104.44 26.4765L99.8988 29.4918L107.821 30.511L107.605 32.1907L96.8454 30.8065Z" fill="white"/>
<path d="M120.454 35.8723C118.057 34.9026 116.657 33.0528 116.163 31.2235L117.746 30.6048C118.203 32.2215 119.281 33.6451 121.063 34.366C123.1 35.1898 124.913 34.6145 125.582 32.9597C126.277 31.2412 125.165 29.7792 122.874 28.8524L121.325 28.226L121.943 26.6984L123.504 27.3546C125.447 28.1653 127.289 27.8239 127.958 26.1691C128.576 24.6415 127.622 22.9719 125.798 22.2339C124.185 21.5817 122.713 21.9246 121.167 22.7558L120.468 21.3124C122.163 20.2948 124.222 19.8437 126.492 20.7619C129.271 21.8861 130.656 24.3223 129.712 26.6561C128.956 28.5231 127.195 29.0943 125.508 28.9305C126.856 29.8707 128.073 31.6221 127.224 33.7225C126.237 36.1623 123.488 37.0994 120.454 35.8723Z" fill="white"/>
</g>
</g>
<defs>
<clipPath id="clip0_332_893">
<rect width="189.857" height="189.857" rx="94.9286" fill="white"/>
</clipPath>
</defs>
</svg>
