<svg width="126" height="115" viewBox="0 0 126 115" fill="none" xmlns="http://www.w3.org/2000/svg">
<path fill-rule="evenodd" clip-rule="evenodd" d="M62.5461 18.8392C62.2112 16.0488 61.3163 13.2728 59.8179 10.6775C53.9667 0.543014 41.1304 -3.00005 31.1472 2.76377C21.1641 8.52749 17.8144 21.4156 23.6655 31.5501C25.1639 34.1454 27.1204 36.3084 29.3698 37.9936C23.4334 35.2992 16.3789 35.3918 10.361 38.8662C0.377823 44.63 -2.97183 57.5181 2.8793 67.6526C8.10503 76.7038 18.9025 80.4975 28.263 77.0989C20.6395 83.506 18.5262 94.7539 23.7519 103.805C29.6029 113.939 42.4392 117.483 52.4224 111.719C58.4403 108.244 62.0478 102.181 62.6826 95.6931C63.0173 98.4837 63.9123 101.26 65.4108 103.855C71.2618 113.989 84.0981 117.532 94.0812 111.769C104.064 106.005 107.414 93.1167 101.563 82.9825C100.065 80.3871 98.1081 78.2241 95.859 76.5387C101.795 79.2332 108.85 79.1405 114.868 75.6659C124.851 69.9021 128.201 57.0139 122.35 46.8797C117.124 37.8284 106.326 34.0349 96.9655 37.4335C104.589 31.0264 106.703 19.7784 101.477 10.7272C95.6259 0.592738 82.7895 -2.95038 72.8063 2.81344C66.7881 6.28803 63.1808 12.3511 62.5461 18.8392ZM91.9013 74.1961C89.6522 72.5108 87.6955 70.3478 86.1971 67.7524C80.9713 58.7012 83.0845 47.4534 90.708 41.0463C81.3475 44.4449 70.5502 40.6511 65.3244 31.5999C63.826 29.0046 62.9311 26.2286 62.5961 23.4382C61.9615 29.9263 58.3542 35.9894 52.336 39.4639C46.3183 42.9382 39.2638 43.0308 33.3274 40.3365C35.5768 42.0216 37.5333 44.1846 39.0317 46.78C44.2575 55.8312 42.1441 67.079 34.5206 73.4861C43.8811 70.0875 54.6786 73.8812 59.9044 82.9325C61.4028 85.5279 62.2979 88.3038 62.6326 91.0944C63.2673 84.6062 66.8746 78.5427 72.8922 75.0684C78.9104 71.5938 85.9651 71.5017 91.9013 74.1961Z" fill="#D9F6EF"/>
</svg>
