<svg width="182" height="199" viewBox="0 0 182 199" fill="none" xmlns="http://www.w3.org/2000/svg">
<path fill-rule="evenodd" clip-rule="evenodd" d="M152.053 99.3836C156.487 98.8513 160.898 97.4294 165.022 95.0484C181.125 85.7512 186.755 65.3547 177.597 49.4917C168.438 33.629 147.96 28.3063 131.856 37.6036C127.732 39.9845 124.295 43.0933 121.618 46.6675C125.899 37.2348 125.752 26.0254 120.231 16.4633C111.073 0.600295 90.5938 -4.72219 74.4905 4.57506C60.1084 12.8786 54.0804 30.0354 59.4807 44.9089C49.3 32.7954 31.4275 29.4375 17.0455 37.741C0.942588 47.038 -4.68748 67.4344 4.47101 83.2974C9.99171 92.8595 19.6255 98.5918 29.9351 99.6004C25.5009 100.132 21.0901 101.554 16.9661 103.935C0.863186 113.232 -4.76684 133.629 4.39151 149.492C13.55 165.355 34.029 170.677 50.1319 161.38C54.2559 158.999 57.6928 155.89 60.3707 152.317C56.0893 161.749 56.2366 172.958 61.7576 182.521C70.9161 198.384 91.3951 203.706 107.498 194.409C121.88 186.106 127.908 168.948 122.508 154.075C132.688 166.188 150.561 169.547 164.943 161.243C181.046 151.946 186.676 131.55 177.518 115.687C171.997 106.124 162.363 100.392 152.053 99.3836ZM64.0931 146.028C66.771 142.454 70.2079 139.345 74.332 136.964C88.714 128.661 106.586 132.018 116.767 144.132C111.367 129.258 117.395 112.102 131.777 103.798C135.901 101.417 140.312 99.9953 144.746 99.463C134.436 98.4546 124.802 92.7227 119.281 83.16C113.761 73.5982 113.614 62.3887 117.895 52.9561C115.217 56.5303 111.78 59.639 107.656 62.02C93.2743 70.3235 75.402 66.9654 65.2213 54.852C70.6215 69.7254 64.5934 86.8824 50.2113 95.1859C46.0873 97.5669 41.6764 98.9891 37.2423 99.5209C47.5518 100.53 57.1865 106.261 62.7071 115.823C68.2281 125.386 68.3745 136.595 64.0931 146.028Z" fill="#FFE6EE"/>
</svg>
