<svg width="97" height="97" viewBox="0 0 97 97" fill="none" xmlns="http://www.w3.org/2000/svg">
<path fill-rule="evenodd" clip-rule="evenodd" d="M5.08124 56.5473L-4.16337e-05 75.511L18.9636 80.5922C28.6206 83.1798 38.5258 78.0972 42.2112 69.0789C40.7373 78.8301 46.7971 88.3406 56.5474 90.9531L75.511 96.0344L80.5923 77.0708C83.1799 67.4138 78.097 57.5085 69.0788 53.8232C78.8302 55.2971 88.3405 49.2373 90.9531 39.487L96.0344 20.5234L77.0708 15.4421C67.4137 12.8545 57.5083 17.9373 53.8232 26.9555C55.2972 17.2042 49.2372 7.69387 39.487 5.0813L20.5234 1.99092e-05L15.4421 18.9636C12.8545 28.6207 17.9371 38.526 26.9555 42.2112C17.2043 40.7372 7.69381 46.7971 5.08124 56.5473Z" fill="#E1F3BC"/>
</svg>
