<svg width="459" height="490" viewBox="0 0 459 490" fill="none" xmlns="http://www.w3.org/2000/svg">
<path d="M272.358 38.9654C310.065 46.8561 334.14 84.2837 326.129 122.562C324.078 132.364 320.121 141.272 314.738 148.967C330.776 134.223 353.27 127.161 376.001 131.918C413.707 139.809 437.781 177.236 429.771 215.514C422.617 249.701 392.289 273.004 359.025 271.973C389.911 284.367 408.35 317.876 401.196 352.063C393.186 390.34 356.125 414.973 318.418 407.083C295.688 402.326 277.912 386.838 269.132 366.9C270.978 376.109 271.031 385.856 268.98 395.658C260.97 433.935 223.908 458.57 186.201 450.679C148.495 442.788 124.422 405.361 132.432 367.084C134.483 357.281 138.44 348.373 143.824 340.677C127.786 355.422 105.291 362.483 82.5614 357.726C44.8548 349.835 20.7812 312.408 28.7911 274.131C35.9451 239.945 66.2718 216.641 99.535 217.671C68.6498 205.277 50.2119 171.769 57.3659 137.583C65.3761 99.3048 102.437 74.6706 140.144 82.5613C162.873 87.3178 180.649 102.807 189.43 122.745C187.583 113.536 187.53 103.79 189.581 93.987C197.592 55.7091 234.652 31.075 272.358 38.9654Z" fill="url(#paint0_linear_928_972)"/>
<path d="M175.794 223.415C173.08 222.985 170.747 222.071 168.795 220.675C166.892 219.243 165.449 217.515 164.466 215.489C163.532 213.429 163.14 211.236 163.291 208.913L168.444 209.73C168.469 212.038 169.18 213.998 170.576 215.611C172.021 217.187 174.016 218.177 176.56 218.581C179.91 219.112 182.884 218.04 185.482 215.366C188.086 212.648 190.048 208.091 191.366 201.692L190.985 201.632C189.524 203.443 187.802 204.844 185.819 205.834C183.837 206.823 181.234 207.063 178.011 206.552C175.34 206.128 173.041 205.134 171.116 203.568C169.191 202.002 167.763 200.037 166.834 197.672C165.947 195.315 165.722 192.758 166.159 190.001C166.59 187.287 167.576 184.901 169.12 182.842C170.713 180.747 172.719 179.196 175.14 178.188C177.602 177.188 180.318 176.923 183.286 177.393C188.884 178.281 192.758 180.851 194.909 185.105C197.06 189.358 197.615 194.771 196.573 201.344C195.8 206.221 194.46 210.42 192.554 213.944C190.654 217.425 188.286 220.027 185.448 221.75C182.616 223.432 179.398 223.986 175.794 223.415ZM179.795 201.879C182.764 202.35 185.286 201.793 187.363 200.21C189.44 198.626 190.7 196.435 191.144 193.637C191.588 190.838 191.067 188.364 189.582 186.216C188.096 184.068 185.87 182.758 182.901 182.288C179.933 181.817 177.41 182.374 175.334 183.957C173.299 185.547 172.06 187.742 171.616 190.54C171.166 193.382 171.662 195.873 173.105 198.014C174.597 200.12 176.827 201.408 179.795 201.879ZM214.697 229.583C211.347 229.052 208.527 227.648 206.236 225.372C203.987 223.103 202.414 220.137 201.517 216.473C200.662 212.817 200.611 208.614 201.364 203.864C202.117 199.115 203.466 195.134 205.41 191.921C207.396 188.714 209.809 186.38 212.65 184.918C215.532 183.462 218.648 183 221.998 183.531C225.391 184.069 228.211 185.472 230.46 187.741C232.708 190.011 234.26 192.974 235.115 196.63C236.012 200.294 236.084 204.5 235.331 209.249C234.578 213.999 233.208 217.977 231.222 221.183C229.278 224.396 226.886 226.734 224.046 228.196C221.206 229.658 218.089 230.121 214.697 229.583ZM206.835 204.731C206.378 207.615 206.261 210.27 206.485 212.696C206.758 215.087 207.321 217.154 208.175 218.898L225.366 190.259C224.165 189.33 222.781 188.741 221.212 188.492C218.964 188.136 216.854 188.562 214.88 189.771C212.913 190.937 211.226 192.799 209.821 195.359C208.422 197.876 207.426 201 206.835 204.731ZM215.474 224.685C217.721 225.041 219.828 224.636 221.796 223.47C223.77 222.262 225.459 220.378 226.865 217.819C228.27 215.259 229.269 212.114 229.861 208.382C230.318 205.499 230.41 202.861 230.137 200.471C229.913 198.044 229.374 195.959 228.52 194.215L211.256 222.908C212.499 223.844 213.905 224.436 215.474 224.685ZM252.837 235.63C249.487 235.099 246.666 233.695 244.375 231.419C242.127 229.15 240.554 226.184 239.657 222.52C238.802 218.864 238.751 214.66 239.504 209.911C240.257 205.162 241.606 201.181 243.55 197.968C245.536 194.761 247.949 192.427 250.789 190.965C253.672 189.509 256.788 189.047 260.138 189.578C263.531 190.116 266.351 191.519 268.6 193.788C270.848 196.058 272.4 199.02 273.254 202.677C274.152 206.341 274.224 210.547 273.471 215.296C272.718 220.046 271.348 224.024 269.362 227.23C267.418 230.443 265.026 232.78 262.186 234.243C259.346 235.705 256.229 236.168 252.837 235.63ZM244.975 210.778C244.517 213.662 244.401 216.317 244.625 218.743C244.898 221.134 245.461 223.201 246.315 224.945L263.505 196.306C262.305 195.377 260.921 194.788 259.352 194.539C257.104 194.183 254.993 194.609 253.019 195.817C251.052 196.984 249.366 198.846 247.96 201.406C246.561 203.922 245.566 207.047 244.975 210.778ZM253.613 230.732C255.861 231.088 257.968 230.683 259.935 229.517C261.909 228.309 263.599 226.425 265.005 223.865C266.41 221.306 267.409 218.161 268.001 214.429C268.458 211.546 268.55 208.908 268.277 206.518C268.053 204.091 267.514 202.006 266.66 200.262L249.396 228.955C250.639 229.891 252.044 230.483 253.613 230.732ZM289.941 232.579L291.827 220.685L279.932 218.799L280.699 213.964L292.593 215.85L294.479 203.956L299.313 204.722L297.428 216.617L309.322 218.503L308.556 223.337L296.661 221.451L294.775 233.346L289.941 232.579ZM91.3184 287.201L98.3777 242.676L103.721 243.523L100.675 262.732L122.238 266.151L125.284 246.941L130.627 247.789L123.568 292.314L118.225 291.467L121.472 270.985L99.9088 267.566L96.6615 288.048L91.3184 287.201ZM142.758 296.139C140.257 295.742 138.249 294.968 136.737 293.815C135.224 292.662 134.179 291.301 133.602 289.732C133.032 288.12 132.884 286.444 133.16 284.706C133.671 281.483 135.224 279.23 137.818 277.946C140.462 276.626 143.755 276.279 147.699 276.904L156.35 278.275L156.451 277.639C157.325 272.127 155.238 268.97 150.192 268.17C148.157 267.848 146.369 268.021 144.828 268.689C143.33 269.365 142.239 270.626 141.555 272.474L136.084 271.607C136.633 269.52 137.621 267.807 139.051 266.469C140.523 265.137 142.276 264.22 144.312 263.717C146.348 263.214 148.554 263.15 150.928 263.527C155.423 264.24 158.5 265.945 160.159 268.642C161.867 271.304 162.412 274.585 161.794 278.486L158.718 297.887L154.138 297.161L154.469 292.192L154.024 292.122C152.849 293.5 151.386 294.638 149.636 295.534C147.934 296.395 145.642 296.596 142.758 296.139ZM144.459 291.583C146.494 291.906 148.289 291.691 149.843 290.937C151.439 290.19 152.726 289.069 153.702 287.571C154.721 286.081 155.382 284.382 155.684 282.474L147.479 281.173C144.595 280.715 142.482 280.88 141.14 281.667C139.841 282.461 139.063 283.664 138.808 285.275C138.546 286.929 138.892 288.31 139.847 289.418C140.801 290.525 142.339 291.247 144.459 291.583ZM184.079 302.69C181.237 302.24 178.797 301.179 176.758 299.508C174.762 297.844 173.301 295.678 172.376 293.01C171.459 290.3 171.272 287.227 171.816 283.792C172.361 280.358 173.486 277.515 175.19 275.263C176.901 272.97 178.985 271.344 181.441 270.386C183.939 269.434 186.566 269.177 189.323 269.614C193.224 270.233 196.186 271.702 198.209 274.023C200.232 276.343 201.303 279.186 201.421 282.552L195.951 281.685C195.718 279.866 194.961 278.333 193.681 277.087C192.407 275.798 190.667 274.979 188.462 274.629C186.851 274.374 185.257 274.556 183.681 275.175C182.105 275.795 180.737 276.882 179.577 278.437C178.418 279.992 177.633 282.063 177.223 284.65C176.813 287.236 176.915 289.469 177.53 291.349C178.152 293.187 179.116 294.644 180.424 295.72C181.731 296.797 183.19 297.463 184.802 297.719C187.134 298.088 189.063 297.851 190.588 297.006C192.155 296.168 193.331 294.919 194.116 293.262L199.586 294.129C198.249 297.351 196.242 299.728 193.565 301.26C190.93 302.798 187.768 303.275 184.079 302.69ZM209.809 305.987L217.07 260.19L222.413 261.037L218.036 288.642L233.321 277.372L240.127 278.451L223.841 290.28L223.78 290.662L236.842 310.273L230.227 309.224L217.754 290.423L215.152 306.834L209.809 305.987ZM260.167 314.754C257.199 314.283 254.677 313.188 252.603 311.468C250.577 309.712 249.102 307.5 248.177 304.832C247.259 302.122 247.063 299.113 247.587 295.805C248.112 292.498 249.205 289.715 250.867 287.457C252.578 285.164 254.686 283.52 257.191 282.526C259.703 281.49 262.485 281.214 265.539 281.698C268.592 282.182 271.089 283.295 273.03 285.037C274.977 286.737 276.345 288.802 277.134 291.231C277.922 293.66 278.112 296.167 277.702 298.754C277.628 299.221 277.532 299.684 277.416 300.143C277.342 300.61 277.258 301.14 277.164 301.734L252.675 297.851C252.432 300.203 252.653 302.238 253.337 303.955C254.071 305.636 255.098 306.973 256.418 307.965C257.782 308.963 259.29 309.594 260.944 309.856C263.276 310.226 265.177 310.027 266.646 309.26C268.115 308.493 269.327 307.294 270.281 305.663L275.561 306.5C274.376 309.312 272.477 311.554 269.864 313.226C267.259 314.856 264.026 315.366 260.167 314.754ZM264.655 286.448C262.196 286.058 259.915 286.458 257.814 287.646C255.755 288.841 254.302 290.741 253.455 293.345L272.664 296.391C272.911 293.735 272.283 291.527 270.78 289.767C269.326 287.971 267.284 286.865 264.655 286.448ZM284.371 317.809L285.097 313.229L293.175 314.51L296.473 293.71C296.641 292.65 296.216 292.039 295.198 291.878L289.474 290.97L290.2 286.39L297.896 287.611C299.296 287.832 300.359 288.392 301.086 289.29C301.813 290.188 302.059 291.379 301.824 292.863L301.612 294.199L301.866 294.239C302.711 292.199 303.924 290.718 305.505 289.795C307.129 288.879 309.212 288.622 311.757 289.026L317.545 289.943L316.647 295.604L310.096 294.566C307.509 294.155 305.378 294.709 303.703 296.226C302.035 297.7 300.989 299.773 300.565 302.444L298.518 315.357L308.441 316.93L307.715 321.51L284.371 317.809ZM336.447 326.848C332.418 326.209 329.301 324.758 327.095 322.496C324.938 320.198 323.973 317.371 324.201 314.016L329.735 314.894C329.714 316.673 330.337 318.228 331.604 319.559C332.913 320.897 334.819 321.764 337.32 322.161C339.695 322.537 341.536 322.307 342.842 321.471C344.191 320.642 344.969 319.57 345.178 318.255C345.46 316.474 344.952 315.155 343.653 314.297C342.362 313.396 340.343 312.555 337.598 311.772C334.309 310.859 331.676 309.507 329.699 307.715C327.723 305.924 326.963 303.587 327.42 300.703C327.83 298.116 329.251 296.146 331.683 294.793C334.114 293.44 337.196 293.059 340.928 293.65C344.617 294.235 347.387 295.544 349.239 297.576C351.097 299.566 351.929 302.133 351.735 305.275L346.455 304.438C346.57 302.891 346.02 301.565 344.804 300.46C343.637 299.318 342.057 298.59 340.064 298.274C337.986 297.944 336.311 298.092 335.039 298.716C333.773 299.298 333.039 300.224 332.837 301.497C332.635 302.769 333.103 303.93 334.241 304.98C335.428 305.994 337.4 306.85 340.159 307.548C342.324 308.152 344.271 308.895 346 309.778C347.729 310.661 349.023 311.822 349.882 313.263C350.782 314.71 351.051 316.578 350.688 318.868C350.428 320.783 349.626 322.416 348.281 323.768C346.986 325.084 345.313 326.036 343.264 326.624C341.221 327.17 338.949 327.244 336.447 326.848Z" fill="white"/>
<defs>
<linearGradient id="paint0_linear_928_972" x1="71.7608" y1="68.7946" x2="384.536" y2="503.894" gradientUnits="userSpaceOnUse">
<stop offset="0.192308" stop-color="#B3ECDF"/>
<stop offset="1" stop-color="#53DAEA"/>
</linearGradient>
</defs>
</svg>
