<svg width="274" height="274" viewBox="0 0 274 274" fill="none" xmlns="http://www.w3.org/2000/svg">
<path fill-rule="evenodd" clip-rule="evenodd" d="M140.96 15.235L93.9731 22.8525L103.822 83.601L53.902 47.6093L26.0638 86.2201L75.9836 122.212L15.235 132.061L22.8525 179.047L83.601 169.198L47.6092 219.118L86.2203 246.956L122.212 197.036L132.061 257.785L179.047 250.168L169.198 189.419L219.119 225.411L246.957 186.8L197.036 150.808L257.785 140.96L250.168 93.9731L189.419 103.822L225.411 53.9018L186.8 26.0636L150.808 75.9835L140.96 15.235Z" fill="url(#paint0_linear_928_1035)"/>
<path d="M105.103 135.527L104.761 133.422C102.921 133.496 101.376 133.082 100.126 132.181C98.8914 131.258 98.129 129.96 97.8388 128.286L100.245 127.896C100.42 128.859 100.86 129.667 101.564 130.32C102.284 130.952 103.235 131.275 104.416 131.289L103.241 124.042C101.244 123.842 99.7628 123.362 98.7976 122.602C97.8477 121.82 97.2664 120.773 97.0536 119.461C96.8467 118.185 97.1266 117.026 97.8933 115.985C98.6752 114.923 99.9006 114.172 101.569 113.733L101.21 111.518L103.125 111.208L103.479 113.396C105.165 113.291 106.569 113.643 107.692 114.453C108.83 115.241 109.523 116.345 109.772 117.764L107.393 118.149C107.268 117.496 106.901 116.901 106.29 116.364C105.697 115.824 104.875 115.545 103.825 115.528L104.876 122.009C104.973 122.031 105.068 122.044 105.162 122.047C107.005 122.216 108.478 122.651 109.583 123.351C110.704 124.03 111.39 125.144 111.641 126.694C111.803 127.696 111.704 128.639 111.341 129.521C110.994 130.381 110.423 131.129 109.628 131.763C108.833 132.397 107.85 132.856 106.68 133.139L107.017 135.217L105.103 135.527ZM99.4282 119.048C99.5405 119.74 99.8462 120.299 100.345 120.723C100.863 121.144 101.702 121.476 102.864 121.718L101.906 115.811C101.07 116.078 100.419 116.502 99.9515 117.083C99.4814 117.645 99.307 118.3 99.4282 119.048ZM109.288 127.243C109.144 126.35 108.764 125.682 108.15 125.239C107.553 124.793 106.583 124.464 105.239 124.252L106.343 131.061C107.453 130.75 108.25 130.246 108.736 129.55C109.237 128.833 109.421 128.064 109.288 127.243ZM115.836 131.346L115.499 129.268L120.448 128.465L118.121 114.109L113.591 115.769L113.308 114.019L118.448 111.278L119.979 111.029L122.745 128.093L127.968 127.246L128.305 129.324L115.836 131.346ZM138.575 127.996C137.262 128.209 136.092 128.146 135.064 127.807C134.037 127.469 133.181 126.925 132.499 126.175C131.816 125.425 131.332 124.521 131.049 123.463L133.4 123.082C133.733 124.094 134.335 124.867 135.207 125.399C136.076 125.913 137.094 126.075 138.261 125.886C139.628 125.664 140.633 125.052 141.275 124.05C141.914 123.03 142.124 121.845 141.905 120.496C141.675 119.074 141.094 118.027 140.161 117.355C139.226 116.665 138.121 116.423 136.845 116.63C135.824 116.796 134.987 117.174 134.335 117.767C133.698 118.338 133.218 119.014 132.896 119.796L130.708 120.151L130.633 109.302L140.86 107.644L141.202 109.75L132.779 111.115L132.69 116.967L132.826 116.945C133.172 116.421 133.672 115.928 134.327 115.467C135 115.002 135.81 114.693 136.758 114.539C138.016 114.335 139.154 114.431 140.173 114.828C141.206 115.203 142.069 115.849 142.76 116.766C143.448 117.664 143.9 118.779 144.116 120.11C144.317 121.349 144.237 122.532 143.877 123.657C143.532 124.76 142.909 125.703 142.006 126.486C141.123 127.265 139.979 127.768 138.575 127.996ZM149.75 125.848L146.558 106.159L148.855 105.787L150.779 117.654L155.509 110.994L158.434 110.52L153.371 117.543L153.398 117.707L161.372 123.963L158.528 124.425L150.903 118.42L152.047 125.475L149.75 125.848ZM169.721 119.102L168.892 113.988L163.779 114.817L163.442 112.739L168.555 111.91L167.726 106.796L169.805 106.46L170.634 111.573L175.747 110.744L176.084 112.822L170.971 113.651L171.8 118.765L169.721 119.102ZM96.6316 167.89L93.5283 148.748L99.8998 147.715C101.358 147.479 102.595 147.55 103.611 147.928C104.626 148.306 105.423 148.897 106.003 149.701C106.582 150.505 106.958 151.436 107.129 152.493C107.3 153.55 107.238 154.552 106.943 155.498C106.647 156.444 106.077 157.257 105.233 157.936C104.389 158.615 103.238 159.073 101.779 159.31L97.705 159.97L98.9286 167.518L96.6316 167.89ZM97.3636 157.865L101.383 157.213C102.732 156.994 103.68 156.495 104.227 155.714C104.771 154.914 104.955 153.968 104.777 152.874C104.6 151.78 104.127 150.94 103.358 150.354C102.59 149.768 101.531 149.584 100.182 149.803L96.1622 150.454L97.3636 157.865ZM113.302 165.187L112.982 163.219L116.455 162.656L115.005 153.714C114.932 153.258 114.676 153.066 114.238 153.136L111.777 153.535L111.458 151.567L114.767 151.03C115.368 150.933 115.878 151.018 116.296 151.287C116.714 151.556 116.974 152.01 117.078 152.648L117.171 153.222L117.28 153.205C117.351 152.258 117.648 151.489 118.17 150.9C118.71 150.307 119.526 149.922 120.62 149.744L123.109 149.341L123.503 151.775L120.687 152.231C119.575 152.412 118.778 152.924 118.298 153.769C117.815 154.596 117.666 155.584 117.852 156.732L118.752 162.283L123.018 161.592L123.337 163.56L113.302 165.187ZM132.851 145.629C132.305 145.717 131.819 145.609 131.396 145.303C130.972 144.998 130.719 144.59 130.636 144.08C130.55 143.551 130.662 143.084 130.97 142.678C131.275 142.255 131.702 141.998 132.249 141.91C132.777 141.824 133.253 141.934 133.677 142.239C134.116 142.524 134.378 142.93 134.464 143.459C134.547 143.969 134.426 144.438 134.103 144.865C133.797 145.288 133.38 145.543 132.851 145.629ZM130.135 162.458L129.816 160.489L134.137 159.789L132.687 150.847C132.613 150.391 132.348 150.2 131.893 150.274L128.721 150.789L128.401 148.82L132.12 148.217C133.743 147.954 134.686 148.633 134.949 150.256L136.434 159.417L140.754 158.716L141.074 160.685L130.135 162.458ZM146.587 159.791L146.245 157.686L152.718 147.066L144.87 148.339L144.524 146.206L155.08 144.495L155.421 146.6L148.921 157.224L157.07 155.903L157.415 158.036L146.587 159.791ZM168.587 156.561C167.311 156.768 166.134 156.66 165.055 156.236C163.991 155.791 163.091 155.086 162.354 154.12C161.615 153.136 161.13 151.933 160.899 150.511C160.669 149.089 160.741 147.805 161.117 146.659C161.507 145.492 162.148 144.537 163.038 143.794C163.925 143.033 165.024 142.546 166.337 142.333C167.649 142.12 168.819 142.239 169.847 142.69C170.871 143.123 171.707 143.782 172.356 144.669C173.005 145.555 173.42 146.554 173.6 147.666C173.633 147.867 173.656 148.069 173.67 148.272C173.703 148.473 173.74 148.701 173.781 148.956L163.253 150.663C163.47 151.656 163.834 152.458 164.345 153.068C164.87 153.656 165.47 154.064 166.143 154.292C166.834 154.516 167.535 154.571 168.246 154.456C169.249 154.293 169.999 153.956 170.496 153.445C170.993 152.935 171.327 152.282 171.497 151.487L173.767 151.119C173.661 152.427 173.187 153.599 172.344 154.633C171.499 155.65 170.246 156.292 168.587 156.561ZM166.615 144.393C165.557 144.564 164.679 145.034 163.981 145.802C163.3 146.567 162.962 147.539 162.966 148.717L171.224 147.378C170.968 146.259 170.414 145.442 169.563 144.925C168.728 144.387 167.745 144.209 166.615 144.393ZM184.984 153.903C183.252 154.184 181.783 154.01 180.578 153.383C179.387 152.734 178.613 151.709 178.255 150.307L180.634 149.922C180.865 150.651 181.328 151.203 182.025 151.576C182.74 151.947 183.635 152.045 184.711 151.871C185.731 151.705 186.452 151.364 186.874 150.846C187.313 150.326 187.487 149.783 187.396 149.218C187.271 148.453 186.886 147.982 186.241 147.806C185.592 147.612 184.654 147.539 183.427 147.588C181.96 147.658 180.703 147.46 179.654 146.993C178.606 146.527 177.981 145.674 177.78 144.435C177.6 143.323 177.915 142.327 178.727 141.447C179.538 140.567 180.746 139.997 182.35 139.737C183.936 139.48 185.244 139.642 186.274 140.223C187.301 140.786 187.986 141.723 188.329 143.033L186.06 143.401C185.899 142.754 185.495 142.286 184.85 141.998C184.22 141.688 183.476 141.603 182.619 141.742C181.726 141.887 181.061 142.172 180.625 142.598C180.186 143.006 180.011 143.484 180.1 144.031C180.189 144.577 180.536 144.989 181.142 145.265C181.763 145.52 182.684 145.604 183.905 145.518C184.871 145.474 185.766 145.516 186.592 145.644C187.417 145.772 188.102 146.073 188.646 146.546C189.209 147.016 189.57 147.743 189.73 148.728C189.881 149.545 189.773 150.32 189.405 151.053C189.053 151.765 188.497 152.379 187.739 152.895C186.978 153.393 186.059 153.729 184.984 153.903Z" fill="white"/>
<defs>
<linearGradient id="paint0_linear_928_1035" x1="40.5" y1="81.0015" x2="247.5" y2="248.502" gradientUnits="userSpaceOnUse">
<stop stop-color="#AFD157"/>
<stop offset="1" stop-color="#4FBE23"/>
</linearGradient>
</defs>
</svg>
