<svg width="232" height="232" viewBox="0 0 232 232" fill="none" xmlns="http://www.w3.org/2000/svg">
<path d="M108.459 2.68481C112.849 -0.894938 119.151 -0.894938 123.541 2.68481L133.006 10.4034C135.985 12.832 139.951 13.6775 143.661 12.6749L155.42 9.49699C160.881 8.02122 166.628 10.5823 169.181 15.6294L174.737 26.6159C176.467 30.0349 179.733 32.4153 183.518 33.0147L195.603 34.929C201.172 35.8111 205.363 40.4702 205.652 46.1001L206.288 58.4949C206.483 62.3058 208.492 65.7934 211.689 67.8772L222.029 74.6158C226.737 77.6848 228.665 83.624 226.656 88.8732L222.208 100.496C220.847 104.052 221.265 108.043 223.333 111.24L230.086 121.674C233.137 126.389 232.486 132.594 228.521 136.573L219.775 145.352C217.086 148.052 215.847 151.873 216.444 155.637L218.39 167.923C219.269 173.481 216.144 178.898 210.892 180.921L199.426 185.335C195.857 186.709 193.163 189.709 192.181 193.405L189.006 205.356C187.557 210.815 182.477 214.508 176.837 214.206L164.656 213.555C160.823 213.35 157.125 215.001 154.72 217.992L147.038 227.545C143.49 231.957 137.329 233.268 132.29 230.682L121.449 225.117C118.028 223.362 113.971 223.362 110.551 225.117L99.7093 230.682C94.6715 233.268 88.5099 231.957 84.9616 227.545L77.2799 217.992C74.8746 215.001 71.1769 213.35 67.3437 213.555L55.1626 214.206C49.5225 214.508 44.4434 210.815 42.9935 205.356L39.8182 193.405C38.8365 189.709 36.1428 186.709 32.5741 185.335L21.1078 180.921C15.8549 178.898 12.7302 173.481 13.6105 167.923L15.5562 155.637C16.1522 151.873 14.9142 148.052 12.2247 145.352L3.47851 136.573C-0.485773 132.594 -1.13728 126.389 1.91407 121.674L8.66611 111.24C10.7347 108.043 11.1529 104.052 9.79197 100.496L5.34333 88.8732C3.33425 83.624 5.26213 77.6848 9.9713 74.6158L20.3111 67.8772C23.5085 65.7934 25.5159 62.3058 25.7114 58.4949L26.3476 46.1001C26.6366 40.4702 30.8276 35.8111 36.3964 34.929L48.4818 33.0147C52.2665 32.4153 55.5328 30.0349 57.2622 26.6159L62.8193 15.6294C65.3721 10.5823 71.1189 8.0212 76.5799 9.49699L88.339 12.6749C92.0491 13.6775 96.0152 12.832 98.9934 10.4034L108.459 2.68481Z" fill="url(#paint0_linear_928_1038)"/>
<path d="M74.3467 110.892L73.8189 108.225L80.1692 106.968L76.5237 88.5489L70.7534 90.8941L70.309 88.6487L76.8186 84.8811L78.7833 84.4923L83.1163 106.385L89.8175 105.059L90.3452 107.725L74.3467 110.892ZM103.536 105.552C101.852 105.885 100.34 105.856 98.9985 105.466C97.6572 105.075 96.5293 104.411 95.6146 103.474C94.7 102.537 94.0359 101.392 93.6225 100.04L96.6397 99.4428C97.1141 100.734 97.9258 101.704 99.0748 102.351C100.219 102.976 101.54 103.14 103.037 102.843C104.791 102.496 106.06 101.662 106.843 100.34C107.622 98.9948 107.841 97.4568 107.498 95.726C107.137 93.9016 106.34 92.5767 105.107 91.7512C103.87 90.9024 102.432 90.64 100.795 90.964C99.4852 91.2232 98.4227 91.7495 97.6075 92.5428C96.811 93.3081 96.2224 94.2024 95.8416 95.2257L93.0348 95.7812L92.4526 81.7869L105.574 79.1899L106.109 81.8914L95.3028 84.0301L95.449 91.5846L95.6245 91.5499C96.0467 90.8586 96.6699 90.2006 97.4942 89.5756C98.3418 88.946 99.3737 88.5109 100.59 88.2702C102.204 87.9508 103.677 88.0238 105.008 88.4894C106.359 88.927 107.501 89.7219 108.434 90.8741C109.362 92.0029 109.995 93.421 110.333 95.1284C110.648 96.7189 110.598 98.2479 110.183 99.7154C109.788 101.155 109.025 102.399 107.896 103.449C106.791 104.495 105.337 105.195 103.536 105.552ZM124.573 101.388C122.726 101.754 120.986 101.563 119.356 100.817C117.749 100.065 116.36 98.821 115.19 97.0838C114.043 95.342 113.211 93.1613 112.692 90.5417C112.174 87.922 112.113 85.5885 112.51 83.5412C112.93 81.4892 113.74 79.8098 114.94 78.5029C116.163 77.1914 117.698 76.3528 119.546 75.9871C121.417 75.6167 123.156 75.8072 124.763 76.5586C126.37 77.31 127.747 78.5566 128.894 80.2984C130.064 82.0356 130.909 84.214 131.427 86.8336C131.946 89.4533 131.995 91.7891 131.575 93.841C131.178 95.8883 130.379 97.5655 129.18 98.8724C127.98 100.179 126.445 101.018 124.573 101.388ZM115.709 89.9445C116.024 91.535 116.473 92.941 117.055 94.1627C117.656 95.3563 118.346 96.3256 119.125 97.0707L122.591 78.8479C121.788 78.5938 120.953 78.5524 120.088 78.7236C118.848 78.969 117.83 79.5959 117.033 80.6043C116.231 81.5894 115.71 82.8836 115.468 84.487C115.222 86.067 115.302 87.8862 115.709 89.9445ZM124.039 98.6867C125.278 98.4414 126.299 97.8262 127.101 96.8411C127.898 95.8327 128.417 94.5268 128.659 92.9233C128.9 91.3199 128.817 89.4891 128.41 87.4308C128.095 85.8403 127.637 84.4482 127.037 83.2546C126.455 82.033 125.774 81.0497 124.994 80.3046L121.5 98.5694C122.327 98.8189 123.173 98.858 124.039 98.6867ZM143.326 92.6819L142.027 86.1211L135.467 87.4196L134.939 84.7532L141.5 83.4547L140.201 76.8939L142.868 76.3661L144.166 82.9269L150.727 81.6284L151.255 84.2948L144.694 85.5934L145.992 92.1542L143.326 92.6819ZM40.7616 161.373L35.9009 136.814L44.0756 135.196C45.9467 134.825 47.5459 134.861 48.873 135.304C50.2001 135.746 51.2555 136.473 52.039 137.484C52.8226 138.496 53.3486 139.68 53.6171 141.037C53.8856 142.393 53.8503 143.688 53.5111 144.922C53.172 146.156 52.4731 147.23 51.4145 148.144C50.3559 149.059 48.891 149.701 47.0198 150.072L41.7922 151.106L43.7087 160.79L40.7616 161.373ZM41.2575 148.405L46.4149 147.384C48.1458 147.041 49.3466 146.354 50.0173 145.322C50.6834 144.267 50.8776 143.037 50.5998 141.634C50.3221 140.23 49.6742 139.168 48.6563 138.445C47.6384 137.723 46.264 137.533 44.5331 137.876L39.3757 138.897L41.2575 148.405ZM62.1494 157.14L61.6495 154.614L66.1052 153.732L63.8346 142.259C63.7188 141.674 63.3803 141.438 62.8189 141.549L59.6613 142.174L59.1614 139.648L63.4066 138.807C64.1785 138.655 64.8399 138.742 65.3911 139.071C65.9422 139.399 66.2988 139.973 66.4608 140.791L66.6066 141.528L66.7469 141.5C66.7962 140.275 67.1442 139.271 67.7911 138.486C68.4613 137.698 69.4981 137.164 70.9015 136.886L74.0942 136.255L74.7122 139.377L71.0985 140.092C69.6717 140.375 68.6673 141.072 68.0853 142.183C67.4986 143.272 67.3511 144.553 67.6427 146.026L69.0523 153.148L74.5255 152.065L75.0255 154.591L62.1494 157.14ZM90.848 151.897C89.2107 152.221 87.6865 152.134 86.2753 151.636C84.8642 151.137 83.6618 150.281 82.6682 149.068C81.67 147.832 80.988 146.29 80.6223 144.442C80.2566 142.594 80.302 140.92 80.7586 139.42C81.2106 137.896 81.994 136.635 83.1089 135.637C84.2238 134.639 85.5999 133.977 87.2372 133.653C88.8745 133.329 90.3987 133.416 91.8099 133.915C93.221 134.413 94.4257 135.281 95.4239 136.517C96.4175 137.731 97.0972 139.261 97.4629 141.109C97.8286 142.957 97.7855 144.642 97.3335 146.166C96.8769 147.666 96.0912 148.915 94.9763 149.913C93.8614 150.912 92.4853 151.573 90.848 151.897ZM90.2925 149.09C91.2983 148.891 92.1665 148.489 92.8972 147.882C93.6278 147.276 94.1345 146.459 94.4171 145.43C94.7231 144.398 94.7326 143.156 94.4456 141.706C94.1586 140.256 93.6769 139.111 93.0006 138.273C92.3476 137.43 91.5678 136.867 90.6612 136.585C89.7546 136.303 88.7984 136.261 87.7927 136.46C86.8103 136.654 85.9538 137.055 85.2231 137.661C84.4924 138.268 83.9741 139.087 83.6681 140.12C83.3621 141.153 83.3526 142.394 83.6396 143.845C84.0701 146.02 84.9135 147.518 86.1697 148.339C87.4213 149.136 88.7956 149.387 90.2925 149.09ZM108.448 126.684C107.77 126.819 107.139 126.7 106.555 126.33C105.995 125.955 105.65 125.44 105.52 124.785C105.386 124.106 105.509 123.499 105.888 122.962C106.287 122.397 106.825 122.047 107.504 121.913C108.205 121.774 108.836 121.892 109.397 122.267C109.953 122.619 110.298 123.134 110.432 123.813C110.561 124.467 110.439 125.075 110.063 125.635C109.688 126.196 109.15 126.545 108.448 126.684ZM104.944 156.691L104.444 154.165L111.391 152.79C111.976 152.674 112.208 152.312 112.087 151.704L108.47 133.425C108.354 132.84 108.004 132.606 107.419 132.721L103.209 133.555L102.709 131.029L107.621 130.057C109.702 129.645 110.949 130.479 111.361 132.561L115.097 151.436C115.509 153.518 114.674 154.765 112.593 155.177L104.944 156.691ZM133.097 143.535C131.46 143.859 129.936 143.772 128.525 143.274C127.132 142.747 125.939 141.877 124.946 140.664C123.948 139.428 123.268 137.897 122.907 136.073C122.546 134.248 122.582 132.589 123.015 131.093C123.467 129.57 124.25 128.309 125.365 127.31C126.476 126.288 127.873 125.611 129.557 125.277C131.241 124.944 132.756 125.045 134.101 125.581C135.442 126.094 136.551 126.907 137.428 128.022C138.305 129.136 138.885 130.407 139.167 131.834C139.218 132.091 139.257 132.351 139.285 132.613C139.336 132.87 139.393 133.162 139.458 133.49L125.951 136.163C126.276 137.436 126.781 138.454 127.467 139.217C128.171 139.953 128.963 140.452 129.841 140.716C130.743 140.975 131.651 141.014 132.563 140.834C133.849 140.579 134.802 140.111 135.42 139.43C136.039 138.748 136.44 137.891 136.625 136.858L139.537 136.282C139.459 137.974 138.899 139.507 137.858 140.879C136.813 142.229 135.226 143.114 133.097 143.535ZM130.007 127.923C128.651 128.191 127.539 128.837 126.672 129.859C125.828 130.877 125.435 132.145 125.493 133.665L136.088 131.568C135.708 130.137 134.957 129.106 133.836 128.477C132.734 127.821 131.458 127.636 130.007 127.923ZM154.24 139.351C152.673 139.661 151.197 139.576 149.814 139.096C148.454 138.612 147.278 137.763 146.284 136.55C145.286 135.314 144.599 133.748 144.224 131.854C143.849 129.959 143.89 128.262 144.347 126.762C144.799 125.238 145.573 123.991 146.669 123.021C147.789 122.046 149.108 121.408 150.629 121.107C152.781 120.681 154.606 120.879 156.106 121.7C157.605 122.521 158.708 123.798 159.416 125.529L156.398 126.127C155.928 125.223 155.24 124.569 154.333 124.165C153.422 123.738 152.359 123.645 151.142 123.885C150.253 124.061 149.458 124.462 148.755 125.087C148.052 125.712 147.548 126.541 147.242 127.574C146.936 128.607 146.924 129.837 147.207 131.263C147.489 132.69 147.971 133.835 148.652 134.696C149.328 135.535 150.11 136.109 150.998 136.419C151.886 136.73 152.774 136.797 153.663 136.621C154.949 136.367 155.909 135.873 156.542 135.14C157.198 134.402 157.571 133.526 157.662 132.512L160.679 131.915C160.601 133.85 160.011 135.474 158.909 136.786C157.831 138.093 156.275 138.948 154.24 139.351ZM176.737 134.461C175.147 134.775 173.819 134.637 172.754 134.046C171.689 133.455 170.957 132.153 170.559 130.142L168.67 120.599L164.25 121.474L163.75 118.947L166.381 118.427C167.574 118.191 168.148 117.469 168.104 116.263L168.061 113.464L170.236 113.034L171.118 117.489L178.064 116.114L178.564 118.64L171.618 120.015L173.506 129.558C173.701 130.541 174.06 131.187 174.583 131.496C175.129 131.801 175.964 131.843 177.086 131.621L180.981 130.85L181.509 133.516L176.737 134.461ZM196.208 131.044C193.986 131.484 192.083 131.326 190.5 130.57C188.935 129.786 187.89 128.498 187.365 126.706L190.418 126.102C190.748 127.033 191.371 127.724 192.286 128.175C193.225 128.621 194.385 128.707 195.765 128.434C197.074 128.175 197.99 127.702 198.51 127.016C199.054 126.325 199.254 125.617 199.11 124.892C198.916 123.909 198.398 123.319 197.557 123.121C196.711 122.9 195.498 122.848 193.917 122.967C192.027 123.122 190.396 122.922 189.022 122.368C187.649 121.813 186.804 120.741 186.49 119.15C186.207 117.723 186.57 116.424 187.578 115.252C188.585 114.081 190.118 113.291 192.177 112.884C194.211 112.481 195.906 112.632 197.261 113.336C198.611 114.017 199.537 115.194 200.038 116.87L197.126 117.446C196.89 116.618 196.348 116.032 195.503 115.689C194.676 115.318 193.713 115.241 192.613 115.459C191.467 115.686 190.622 116.084 190.079 116.653C189.531 117.199 189.326 117.823 189.465 118.525C189.604 119.226 190.07 119.742 190.865 120.071C191.678 120.372 192.87 120.439 194.441 120.274C195.685 120.174 196.843 120.188 197.913 120.316C198.984 120.445 199.881 120.802 200.604 121.388C201.352 121.969 201.85 122.891 202.1 124.154C202.332 125.202 202.227 126.207 201.785 127.17C201.363 128.104 200.674 128.921 199.718 129.621C198.758 130.297 197.588 130.771 196.208 131.044Z" fill="white"/>
<defs>
<linearGradient id="paint0_linear_928_1038" x1="162.5" y1="13.5" x2="-2.25419e-06" y2="292" gradientUnits="userSpaceOnUse">
<stop stop-color="#FFDA84"/>
<stop offset="1" stop-color="#FFA600"/>
</linearGradient>
</defs>
</svg>
