<svg width="540" height="536" viewBox="0 0 540 536" fill="none" xmlns="http://www.w3.org/2000/svg">
<path d="M390.484 243.369C516.759 255.779 514.862 301.198 514.862 301.198L162.429 266.562L166.868 221.392C166.868 221.392 330.894 237.512 390.484 243.369Z" fill="#D0E5EB"/>
<circle cx="99.9809" cy="260.423" r="56.665" transform="rotate(95.6129 99.9809 260.423)" stroke="#EB6371" stroke-width="41.3223"/>
<path d="M279.742 401.94C332.016 517.555 374.425 501.183 374.425 501.183L228.529 178.502L187.172 197.201C187.172 197.201 255.074 347.38 279.742 401.94Z" fill="#E5EEF1"/>
<circle cx="77.3261" cy="77.3261" r="56.665" transform="matrix(0.911191 -0.411983 -0.411983 -0.911191 164.081 223.64)" stroke="#FA9DB2" stroke-width="41.3223"/>
<path d="M254.307 252.754C253.819 258.292 251.613 263.642 247.805 267.43C244.006 271.209 238.591 273.457 231.621 272.772L162.493 265.978L166.824 221.902L235.953 228.695C242.694 229.358 247.514 232.609 250.535 237.062C253.563 241.525 254.795 247.217 254.307 252.754Z" fill="#EB6371" stroke="#EB6371" stroke-width="0.826446"/>
<path d="M264.304 257.433C273.024 276.674 231.027 294.003 223.202 276.724C203.854 234.005 186.849 196.531 186.849 196.531L228.198 177.785C228.198 177.785 255.348 237.674 264.304 257.433Z" fill="#FA9DB2"/>
<circle cx="236.241" cy="250.666" r="6.19834" transform="rotate(5.61288 236.241 250.666)" fill="#E5EEF1"/>
<path d="M406.515 290.55L339.805 283.994L318.165 236.261L384.875 242.817L406.515 290.55Z" fill="#E5EEF1"/>
</svg>
