<svg width="76" height="76" viewBox="0 0 76 76" fill="none" xmlns="http://www.w3.org/2000/svg">
<g clip-path="url(#clip0_928_1125)">
<mask id="mask0_928_1125" style="mask-type:luminance" maskUnits="userSpaceOnUse" x="0" y="0" width="76" height="76">
<path d="M75.7142 16.0003L16.0003 0L0 59.7139L59.7139 75.7142L75.7142 16.0003Z" fill="white"/>
</mask>
<g mask="url(#mask0_928_1125)">
<path d="M36.0585 10.6017C41.6162 5.12132 51.0177 7.64045 53.0904 15.1654L53.1657 15.4387C54.1222 18.9103 56.8343 21.6225 60.3058 22.5788L60.5793 22.6542C68.1044 24.7271 70.6235 34.1285 65.1429 39.6861L64.9438 39.888C62.4155 42.4519 61.4227 46.1571 62.3303 49.6416L62.4018 49.9158C64.3693 57.4694 57.4871 64.3515 49.9337 62.3842L49.6591 62.3126C46.1746 61.4051 42.4697 62.3981 39.9056 64.9261L39.7038 65.1251C34.1462 70.6057 24.7447 68.0866 22.6718 60.5615L22.5965 60.2882C21.6402 56.8168 18.9279 54.1044 15.4564 53.148L15.1831 53.0728C7.65807 50.9999 5.13895 41.5986 10.6194 36.0408L10.8184 35.839C13.3467 33.2751 14.3395 29.57 13.4319 26.0854L13.3604 25.8111C11.3931 18.2578 18.2754 11.3755 25.8287 13.3428L26.1031 13.4143C29.5876 14.3218 33.2927 13.3291 35.8567 10.8008L36.0585 10.6017Z" fill="#FFEEC9"/>
</g>
</g>
<defs>
<clipPath id="clip0_928_1125">
<rect width="61.8204" height="61.8204" fill="white" transform="translate(16.0003) rotate(15)"/>
</clipPath>
</defs>
</svg>
