<svg width="157" height="157" viewBox="0 0 157 157" fill="none" xmlns="http://www.w3.org/2000/svg">
<g clip-path="url(#clip0_928_1116)">
<mask id="mask0_928_1116" style="mask-type:luminance" maskUnits="userSpaceOnUse" x="0" y="0" width="157" height="157">
<path d="M123.639 0L0 33.1288L33.1288 156.767L156.767 123.639L123.639 0Z" fill="white"/>
</mask>
<g mask="url(#mask0_928_1116)">
<path d="M46.9423 31.3736C51.2343 15.7929 70.7002 10.5771 82.2072 21.9244L82.625 22.3366C87.9342 27.5713 95.6051 29.627 102.82 27.7478L103.388 27.5997C119.028 23.5263 133.278 37.7762 129.204 53.4156L129.056 53.9836C127.177 61.1985 129.232 68.8701 134.467 74.1786L134.879 74.5963C146.227 86.1039 141.011 105.569 125.43 109.861L124.864 110.017C117.676 111.997 112.061 117.613 110.08 124.801L109.924 125.367C105.633 140.948 86.167 146.163 74.6596 134.816L74.2417 134.404C68.9331 129.169 61.2616 127.114 54.0467 128.993L53.4788 129.141C37.8395 133.214 23.5897 118.964 27.6629 103.325L27.8109 102.757C29.6901 95.5423 27.6346 87.8707 22.3997 82.562L21.9876 82.1441C10.6403 70.6368 15.8561 51.1711 31.4368 46.8791L32.0027 46.7232C39.1906 44.7432 44.8064 39.1273 46.7864 31.9395L46.9423 31.3736Z" fill="#FFE6EE"/>
</g>
</g>
<defs>
<clipPath id="clip0_928_1116">
<rect width="128" height="128" fill="white" transform="translate(0 33.1288) rotate(-15)"/>
</clipPath>
</defs>
</svg>
