<svg width="310" height="310" viewBox="0 0 310 310" fill="none" xmlns="http://www.w3.org/2000/svg">
<path d="M162.505 204.989C178.138 305.613 3.76062 178.139 104.384 162.501C3.76062 178.139 131.234 3.7628 146.873 104.379C131.234 3.7628 305.611 131.236 204.993 146.866C305.611 131.236 178.138 305.613 162.505 204.989Z" fill="url(#paint0_linear_928_975)"/>
<path d="M137.831 145.778L137.519 143.698C139.517 141.551 141.243 139.595 142.696 137.83C144.171 136.062 145.265 134.405 145.978 132.858C146.691 131.312 146.937 129.804 146.717 128.333C146.518 127.01 145.984 126.026 145.114 125.384C144.262 124.717 143.206 124.478 141.945 124.667C140.979 124.812 140.191 125.145 139.582 125.666C138.973 126.187 138.552 126.82 138.32 127.563C138.088 128.307 138.032 129.078 138.151 129.876L135.536 130.269C135.339 128.816 135.468 127.529 135.923 126.408C136.396 125.263 137.116 124.339 138.085 123.635C139.074 122.928 140.241 122.474 141.586 122.272C143.75 121.947 145.52 122.294 146.897 123.311C148.275 124.329 149.115 125.846 149.417 127.863C149.616 129.187 149.523 130.5 149.139 131.804C148.751 133.087 148.168 134.356 147.39 135.611C146.612 136.866 145.712 138.097 144.69 139.303C143.668 140.509 142.629 141.675 141.573 142.8L152.036 141.23L152.39 143.593L137.831 145.778ZM166.559 141.467L165.793 136.361L155.236 137.946L154.928 135.898L162.744 119.483L165.895 119.01L168.08 133.569L171.232 133.096L171.591 135.491L168.44 135.964L169.206 141.069L166.559 141.467ZM157.839 135.106L165.559 133.948L163.838 122.477L157.839 135.106ZM114.277 187.739L110.966 165.68L113.614 165.282L115.042 174.799L125.725 173.196L124.296 163.679L126.944 163.282L130.254 185.341L127.607 185.738L126.084 175.591L115.401 177.194L116.924 187.341L114.277 187.739ZM141.202 184.084C139.732 184.305 138.379 184.165 137.143 183.663C135.908 183.16 134.873 182.349 134.039 181.228C133.202 180.087 132.658 178.686 132.409 177.026C132.16 175.366 132.27 173.878 132.738 172.562C133.204 171.225 133.953 170.135 134.987 169.293C136.02 168.45 137.272 167.918 138.743 167.698C140.213 167.477 141.566 167.618 142.802 168.12C144.037 168.622 145.074 169.444 145.911 170.585C146.745 171.706 147.287 173.096 147.536 174.756C147.785 176.416 147.677 177.914 147.211 179.251C146.743 180.568 145.992 181.647 144.959 182.49C143.925 183.332 142.673 183.864 141.202 184.084ZM140.824 181.563C141.727 181.428 142.517 181.105 143.192 180.596C143.867 180.086 144.352 179.38 144.646 178.476C144.961 177.57 145.021 176.465 144.826 175.163C144.63 173.86 144.249 172.822 143.681 172.048C143.135 171.27 142.464 170.737 141.669 170.449C140.874 170.16 140.025 170.083 139.121 170.219C138.239 170.351 137.46 170.672 136.785 171.182C136.109 171.691 135.614 172.399 135.299 173.306C134.984 174.212 134.924 175.317 135.12 176.619C135.413 178.573 136.101 179.941 137.186 180.724C138.267 181.485 139.479 181.765 140.824 181.563ZM158.995 181.414C157.104 181.698 155.59 181.345 154.454 180.356C153.317 179.366 152.588 177.8 152.266 175.657L150.857 166.266L153.504 165.869L154.866 174.945C155.074 176.331 155.543 177.378 156.272 178.085C157.019 178.768 158.022 179.014 159.283 178.825C160.543 178.636 161.541 178.057 162.277 177.087C163.009 176.096 163.255 174.803 163.015 173.206L161.729 164.635L164.376 164.237L166.722 179.868L164.516 180.199L163.878 177.878L163.72 177.902C163.413 178.721 162.849 179.472 162.028 180.153C161.203 180.814 160.192 181.234 158.995 181.414ZM172.13 179.056L171.789 176.787L175.791 176.186L174.245 165.882C174.166 165.356 173.874 165.132 173.37 165.207L170.534 165.633L170.194 163.364L174.007 162.792C174.7 162.688 175.285 162.793 175.762 163.108C176.239 163.423 176.533 163.949 176.643 164.684L176.742 165.346L176.868 165.327C176.963 164.239 177.314 163.359 177.922 162.688C178.551 162.013 179.496 161.581 180.757 161.392L183.624 160.962L184.045 163.766L180.799 164.254C179.518 164.446 178.595 165.025 178.031 165.99C177.464 166.935 177.28 168.068 177.478 169.392L178.438 175.789L183.355 175.051L183.695 177.32L172.13 179.056ZM198.046 175.553C196.051 175.853 194.364 175.633 192.985 174.895C191.625 174.132 190.748 172.943 190.355 171.326L193.097 170.915C193.352 171.757 193.878 172.398 194.674 172.837C195.492 173.273 196.52 173.398 197.759 173.212C198.936 173.035 199.77 172.652 200.262 172.063C200.774 171.47 200.982 170.848 200.884 170.197C200.751 169.315 200.315 168.768 199.574 168.557C198.831 168.325 197.753 168.229 196.341 168.269C194.653 168.329 193.209 168.084 192.009 167.533C190.81 166.983 190.103 165.994 189.888 164.565C189.696 163.283 190.072 162.142 191.018 161.141C191.963 160.14 193.36 159.501 195.209 159.223C197.037 158.949 198.539 159.153 199.715 159.836C200.889 160.497 201.664 161.584 202.041 163.096L199.426 163.488C199.249 162.741 198.792 162.198 198.053 161.857C197.333 161.493 196.479 161.385 195.491 161.533C194.462 161.687 193.693 162.007 193.186 162.491C192.676 162.954 192.468 163.501 192.562 164.131C192.657 164.762 193.051 165.24 193.744 165.565C194.455 165.867 195.514 165.976 196.919 165.894C198.03 165.856 199.06 165.917 200.007 166.075C200.955 166.234 201.739 166.589 202.358 167.14C202.999 167.689 203.405 168.53 203.575 169.664C203.738 170.607 203.603 171.497 203.17 172.335C202.755 173.149 202.108 173.848 201.229 174.431C200.347 174.993 199.286 175.367 198.046 175.553Z" fill="white"/>
<defs>
<linearGradient id="paint0_linear_928_975" x1="187.323" y1="70.4046" x2="87" y2="366.503" gradientUnits="userSpaceOnUse">
<stop stop-color="#FFB0C9"/>
<stop offset="1" stop-color="#D91E21"/>
</linearGradient>
</defs>
</svg>
