<svg width="665" height="431" viewBox="0 0 665 431" fill="none" xmlns="http://www.w3.org/2000/svg">
<path d="M623.212 148.541C645.194 230.578 560.757 324.482 434.617 358.281C308.477 392.08 150.599 377.538 128.617 295.501C106.635 213.464 228.874 94.9979 355.014 61.1987C481.154 27.3996 601.23 66.5042 623.212 148.541Z" fill="#DBEBF1"/>
<g filter="url(#filter0_g_1340_265)">
<path fill-rule="evenodd" clip-rule="evenodd" d="M92.58 271.084C61.7525 278.654 50.6191 289.228 59.1801 298.968C25.0784 304.368 2.5 313.779 2.5 324.483C2.49999 335.188 25.0784 344.598 59.1801 349.999C50.6191 359.739 61.7525 370.313 92.58 377.883C123.408 385.452 166.472 388.186 206.138 386.084C228.133 394.457 266.456 400.001 310.053 400.001C353.648 400.001 391.972 394.457 413.969 386.084C453.634 388.186 496.697 385.452 527.526 377.883C558.352 370.313 569.486 359.739 560.927 349.999C595.028 344.598 617.605 335.188 617.605 324.483C617.605 313.779 595.028 304.368 560.927 298.968C569.486 289.228 558.352 278.654 527.526 271.084C496.697 263.515 453.634 260.781 413.969 262.883C391.972 254.51 353.648 248.966 310.053 248.966C266.456 248.966 228.132 254.51 206.138 262.883C166.472 260.781 123.408 263.515 92.58 271.084Z" fill="#BBABDD"/>
<path d="M208.367 316.219L208.669 302.42L90.075 328.777L117.796 336.366L208.367 316.219ZM477.345 313.48C468.816 302.459 435.994 293.645 432.215 292.659L351.561 270.662L304.973 281.017L301.66 281.752L301.358 295.55L351.026 284.512L396.895 297.02L403.892 298.928L404.393 299.06C404.479 299.083 407.473 299.869 411.683 301.205C420.293 303.94 433.987 308.982 438.283 314.525C444.683 322.803 447.784 332.357 410.765 343.105L410.453 357.367C413.937 356.707 416.123 356.226 416.91 356.05C449.977 348.849 469.977 341.272 478.041 332.889C485.039 325.62 481.615 318.997 477.345 313.48ZM230.837 350.693L229.593 350.516L228.991 350.456C228.118 350.334 224.845 349.843 218.789 348.632C215.797 348.032 212.113 347.255 207.71 346.259C201.05 344.751 192.735 342.741 182.598 340.081L159.921 333.873L131.637 340.154L154.182 346.323L154.486 346.406C189.396 355.582 207.378 358.378 214.007 359.191C238.007 362.55 260.594 364.388 281.172 365.223C292.592 365.688 303.394 365.843 313.472 365.778C314.335 365.772 315.197 365.765 316.053 365.756L316.27 355.868C292.173 356.355 263.129 355.249 230.837 350.693Z" fill="#B09FD4"/>
<path d="M281.669 286.196L280.38 345.1L227.668 343.946L228.675 297.975L234.001 296.79L236.854 296.158L252.865 292.599L263.718 290.186L267.251 289.401L278.11 286.986L281.669 286.196Z" fill="#B09FD4"/>
<path d="M391.766 301.776L390.479 360.562C390.246 360.595 390.013 360.627 389.774 360.659C387.345 360.988 384.758 361.318 382.031 361.643C381.133 361.75 380.222 361.857 379.284 361.963C376.83 362.243 374.27 362.517 371.604 362.782C369.145 363.027 366.592 363.266 363.954 363.493C362.518 363.616 361.063 363.735 359.574 363.854C357.66 364.004 355.68 364.149 353.641 364.288C352.053 364.398 350.432 364.501 348.772 364.601C345.504 364.801 342.097 364.981 338.544 365.139C337.694 365.177 336.831 365.212 335.961 365.246L337.377 300.586L391.766 301.776Z" fill="#B09FD4"/>
<path d="M337.045 316.117L281.038 314.89L280.746 328.226L336.753 329.452L337.045 316.117Z" fill="#B09FD4"/>
</g>
<path d="M554.488 281.014C564.023 286.724 566.169 293.003 560.926 298.969C577.34 301.568 591.084 305.096 600.925 309.251L599.741 313.233C599.021 315.653 597.412 317.711 595.238 318.994L554.488 343.034V281.014Z" fill="#9085C7"/>
<path d="M328.617 216.006L531.514 256.205V318.273L328.617 255.924V216.006Z" fill="#9085C7"/>
<path d="M594.997 114.394L621.91 123.172C627.708 125.063 631.631 130.469 631.631 136.568V279.953H594.997V114.394Z" fill="#EB6371"/>
<path d="M391.043 140.143C391.043 132.694 396.841 126.532 404.276 126.079L592.731 114.6C600.835 114.106 607.678 120.545 607.678 128.664V235.929L391.043 201.761V140.143Z" fill="#FDAFC1"/>
<path d="M530.505 118.389C532.791 119.712 534.86 121.237 536.617 122.994C543.117 129.493 562.617 147.995 559.945 223.439C559.88 225.26 559.658 226.874 559.295 228.298L505.535 219.818C484.645 206.818 465.719 191.252 465.719 191.252L480.082 121.461L530.505 118.389Z" fill="#FF7E8B"/>
<path d="M311.786 147.506L392.1 147.506V239.444L325.876 256.352L311.786 147.506Z" fill="#EB6371"/>
<path d="M390.339 201.4L540.046 223.592L524.117 249.994L328.617 210.994C329.898 209.392 331.759 208.358 333.796 208.116L390.339 201.4Z" fill="#FF929D"/>
<path d="M328.694 210.798L531.592 250.997V313.064L328.694 250.716V210.798Z" fill="#FDAFC1"/>
<path d="M316.015 147.508C321.851 147.508 326.581 152.239 326.581 158.075V255.744C326.581 256.219 326.12 256.558 325.666 256.417L310.167 251.573C309.873 251.481 309.673 251.208 309.673 250.9V183.598C309.673 181.152 307.894 179.07 305.478 178.688C303.034 178.301 301.247 176.176 301.284 173.702L301.523 157.915C301.611 152.141 306.316 147.507 312.09 147.507L316.015 147.508Z" fill="#FA9DB2"/>
<path d="M375.192 194.708H383.646V213.729L375.192 216.547V194.708Z" fill="#FF929D"/>
<path d="M442.12 203.162H450.574V225.865L442.12 229.228V203.162Z" fill="#FF929D"/>
<path d="M329.617 193.009C329.617 190.881 331.488 189.239 333.598 189.516L374.553 194.892C376.306 195.122 377.617 196.616 377.617 198.384V212.679C377.617 214.908 375.573 216.577 373.39 216.131L332.435 207.769C330.795 207.434 329.617 205.992 329.617 204.318V193.009Z" fill="#FDAFC1"/>
<path d="M393.156 185.197L562.942 197.526L530.535 215.49L332.921 189.424L393.156 185.197Z" fill="#FFD2DC"/>
<path d="M460.617 189.994L562.942 197.526L530.535 215.491L408.117 199.494L460.617 189.994Z" fill="url(#paint0_linear_1340_265)"/>
<path d="M380.617 199.043C380.617 196.904 382.508 195.259 384.626 195.555L441.581 203.5C443.322 203.743 444.617 205.232 444.617 206.989V225.692C444.617 227.917 442.58 229.585 440.399 229.146L383.444 217.673C381.8 217.342 380.617 215.898 380.617 214.22V199.043Z" fill="#FDAFC1"/>
<path d="M441.581 203.498C443.322 203.741 444.617 205.23 444.617 206.987V225.69C444.617 227.915 442.579 229.583 440.398 229.144L421.271 225.29C415.358 218.639 414.362 209.989 414.665 206.197L418.493 200.278L441.581 203.498Z" fill="url(#paint1_linear_1340_265)"/>
<path d="M447.617 208.039C447.617 205.901 449.506 204.256 451.623 204.55L523.578 214.53C525.32 214.771 526.617 216.26 526.617 218.019V240.761C526.617 242.963 524.619 244.625 522.454 244.225L450.499 230.928C448.829 230.619 447.617 229.162 447.617 227.464V208.039Z" fill="#FF7E8B"/>
<path d="M447.617 208.039C447.617 205.901 449.506 204.256 451.623 204.55L523.578 214.53C525.32 214.771 526.617 216.26 526.617 218.019V240.761C526.617 242.963 524.619 244.625 522.454 244.225L450.499 230.928C448.829 230.619 447.617 229.162 447.617 227.464V208.039Z" fill="url(#paint2_linear_1340_265)"/>
<path d="M442.12 203.866C465.505 200.152 486.366 197.365 509.752 193.651L513.979 194.003L448.46 204.923L442.12 203.866Z" fill="#EB6371"/>
<path d="M375.192 195.06L444.937 189.072L449.165 189.424L382.237 196.117L375.192 195.06Z" fill="#FF929D"/>
<g clip-path="url(#clip0_1340_265)">
<path d="M485.117 224.491C491.117 220.491 493.283 214.663 493.617 210.495L463.617 205.995L459.617 218.495C461.95 221.328 465.553 226.385 468.617 226.995C473.617 227.991 480.411 227.629 485.117 224.491Z" fill="#F26D7B"/>
<path d="M408.977 168.25C421.205 173.035 445.481 165.987 453.769 159.656C454.187 158.529 454.782 155.673 453.824 153.267C452.626 150.259 416.373 144.711 409.023 145.835C401.673 146.958 393.691 162.269 408.977 168.25Z" fill="url(#paint3_linear_1340_265)"/>
<path d="M408.977 168.25C421.205 173.035 445.481 165.987 453.769 159.656C454.187 158.529 454.782 155.673 453.824 153.267C452.626 150.259 416.373 144.711 409.023 145.835C401.673 146.958 393.691 162.269 408.977 168.25Z" fill="white"/>
<path d="M416.756 145.92C413.315 145.661 410.547 145.605 409.023 145.838C406.547 146.216 404.002 148.204 402.297 150.902C400.094 155.337 401.001 161.986 408.976 168.247C408.981 168.251 408.987 168.254 408.992 168.258C412.054 169.452 415.868 169.907 419.997 169.818C420.379 169.379 420.754 168.858 421.117 168.245C424.584 162.397 423.994 152.183 418.616 147.496C417.838 146.818 417.328 146.289 416.756 145.92Z" fill="url(#paint4_linear_1340_265)"/>
<path d="M516.268 199.817C499.931 190.646 489.869 165.262 487.097 154.156C487.658 153.184 489.541 151.16 492.582 150.842C496.383 150.444 528.87 179.894 535.222 187.451C541.574 195.007 532.606 208.99 516.268 199.817Z" fill="#DBEBF1"/>
<path d="M490.222 157.972C482.409 148.638 470.128 147.299 461.207 150.149C452.286 153 432.89 174.638 437.408 184.474C442.276 195.071 473.391 215.054 483.682 211.678C493.972 208.303 498.034 167.306 490.222 157.972Z" fill="#EAF3F7"/>
<path d="M409.035 193.416C410.189 185.139 436.19 179.481 440.024 178.92C451.116 189.047 448.852 197.921 448.852 197.921C441.672 207.511 432.984 214.203 422.672 214.286C412.361 214.369 407.95 201.2 409.035 193.416Z" fill="#123041"/>
<path d="M440.024 178.922C442.142 198.642 434.895 204.015 425.713 204.293C418.63 204.507 414.001 211.52 418.899 213.668C420.017 214.062 421.229 214.281 422.538 214.285C422.583 214.285 422.627 214.287 422.672 214.286C431.695 214.214 439.475 209.081 446.089 201.375C446.326 201.1 446.56 200.821 446.793 200.54C447.493 199.695 448.179 198.821 448.852 197.922C448.858 197.901 448.962 197.478 449.014 196.727C449.029 196.508 449.04 196.26 449.042 195.986C449.046 195.528 449.026 194.996 448.966 194.4C448.942 194.165 448.911 193.921 448.873 193.667C448.51 191.203 447.45 187.849 444.705 184.084C444.64 183.996 444.575 183.908 444.509 183.819C443.333 182.244 441.862 180.6 440.024 178.922Z" fill="url(#paint5_linear_1340_265)"/>
<path d="M503.941 144.629C501.691 143.947 499.313 145.218 498.63 147.468C497.948 149.719 499.219 152.097 501.469 152.78L507.583 154.634C509.834 155.317 512.212 154.045 512.895 151.795C513.577 149.544 512.306 147.166 510.055 146.483L503.941 144.629Z" fill="#FFC0C1"/>
<path d="M509.654 92.2368C508.546 99.2569 510.988 99.6849 514.009 100.162C517.029 100.638 519.484 100.983 520.592 93.9632C521.7 86.9431 519.246 80.7231 517.129 80.389C515.012 80.0548 510.762 85.2167 509.654 92.2368Z" fill="#6A5B3D"/>
<path d="M445.304 81.6424C443.46 88.5062 445.843 89.1898 448.796 89.9831C451.749 90.7763 454.154 91.3787 455.998 84.515C457.842 77.6512 456.059 71.2068 453.989 70.6508C451.919 70.0949 447.147 74.7787 445.304 81.6424Z" fill="#6A5B3D"/>
<path d="M441.934 83.5032C452.33 93.0293 448.241 96.174 444.473 101.222C440.705 106.27 438.473 111.117 428.288 101.784C423.117 97.0464 421.98 89.1134 425.749 84.0652C429.517 79.0171 436.763 78.7655 441.934 83.5032Z" fill="white"/>
<path d="M438.175 89.4409C443.356 94.1888 441.682 95.2691 440.252 97.1845C438.822 99.0998 438.074 101.029 432.997 96.3769C430.42 94.0156 429.49 90.5487 430.92 88.6333C432.35 86.718 435.598 87.0795 438.175 89.4409Z" fill="#FFC0C1"/>
<path d="M528.525 93.8958C514.6 99.4227 517.941 103.801 520.354 109.881C522.767 115.96 523.62 121.326 537.263 115.912C544.189 113.163 547.847 106.006 545.434 99.9266C543.022 93.8471 535.451 91.147 528.525 93.8958Z" fill="#123041"/>
<path d="M422.221 121.677C418.755 143.634 441.683 154.715 470.946 159.334C500.209 163.952 523.222 165.418 529.077 138.543C536.38 105.022 512.758 84.4408 483.495 79.8221C454.232 75.2034 428.411 82.4564 422.221 121.677Z" fill="white"/>
<path d="M531.031 100.877C524.09 103.631 525.523 105.227 526.438 107.534C527.354 109.841 527.547 111.929 534.346 109.23C537.798 107.86 539.854 104.879 538.939 102.573C538.023 100.266 534.483 99.5068 531.031 100.877Z" fill="#FFC0C1"/>
<path d="M483.495 79.8233C482.42 79.6537 481.35 79.5019 480.286 79.3653C478.661 84.6157 478.008 90.1783 479.562 95.0704C484.124 109.43 499.256 108.325 505.113 110.869C510.97 113.413 510.21 123.931 518.883 128.389C522.022 130.001 526.209 129.463 530.393 128.113C531.198 100.753 509.589 83.9419 483.495 79.8233Z" fill="#123041"/>
<path d="M530.079 133.542C512.597 136.156 523.904 149.73 485.016 150.063C463.37 150.248 431.244 140.708 425.474 138.939C432.405 150.617 450.125 157.263 471.136 160.545C500.261 165.094 523.171 166.509 529.056 139.675C529.516 137.579 529.855 135.535 530.079 133.542Z" fill="url(#paint6_linear_1340_265)" fill-opacity="0.75"/>
<path d="M479.18 140.623C480.545 131.98 474.644 123.867 466.001 122.503L458.176 121.268C449.533 119.904 441.42 125.804 440.056 134.448V134.448C439.146 140.21 443.08 145.618 448.842 146.528L467.1 149.409C472.863 150.319 478.271 146.385 479.18 140.623V140.623Z" fill="#FFC0C1"/>
<path d="M465.27 134.947L464.54 139.575" stroke="black" stroke-width="4.25903" stroke-linecap="round"/>
<path d="M448.446 132.294L447.715 136.922" stroke="black" stroke-width="4.25903" stroke-linecap="round"/>
<path d="M490.397 129.691C490.397 129.691 491.183 131.754 493.74 132.239C496.297 132.724 497.784 131.093 497.784 131.093" stroke="#123041" stroke-width="6.38855" stroke-linecap="round"/>
<path d="M434.329 119.053C434.329 119.053 435.115 121.116 437.672 121.601C440.229 122.086 441.716 120.455 441.716 120.455" stroke="#123041" stroke-width="6.38855" stroke-linecap="round"/>
<path d="M424.089 131.218L429.989 132.393" stroke="#FFC0C1" stroke-width="8.02148" stroke-linecap="round"/>
<path d="M498.205 146.429L504.105 147.605" stroke="#FFAAAB" stroke-width="8.02148" stroke-linecap="round"/>
<path d="M444.86 164.141C438.865 171.387 434.525 179.867 437.021 185.098C437.309 185.702 437.688 186.335 438.141 186.995C441.303 187.051 445.342 186.829 444.995 185.29C442.631 174.795 447.844 167.565 444.86 164.141Z" fill="#0E2938"/>
<path d="M447.808 170.364C443.322 176.024 449.645 182.202 456.961 184.273C464.278 186.344 476.165 188.387 478.289 182.368C481.63 172.902 477.066 165.206 467.648 163.257C459.605 161.594 454.641 161.744 447.808 170.364Z" fill="#FCD1D2"/>
<path d="M444.165 204.938C443.423 189.249 474.782 180.595 482.136 182.998C489.49 185.401 486.177 205.997 486.177 205.997C480.86 216.598 478.652 224.447 466.196 226.353C456.224 227.879 444.812 218.638 444.165 204.938Z" fill="white"/>
<path d="M478.742 135.102C478.687 135.123 478.578 135.573 478.444 136.221C477.85 139.102 474.964 142.416 472.255 143.562C470.412 144.342 468.493 144.622 466.502 144.418C462.293 143.988 455.019 143.222 451.392 142.855C449.943 142.708 448.483 142.477 447.065 142.144C444.784 141.609 441.478 140.836 441.18 140.761C440.991 140.712 440.985 140.708 441.074 140.882C442.556 143.797 445.365 145.984 448.843 146.533L467.1 149.415C472.682 150.296 477.933 146.632 479.083 141.163L479.181 140.629L479.37 138.595C479.395 137.725 479.349 136.866 479.235 136.024C479.185 135.656 478.889 135.443 478.742 135.102ZM478.742 135.102C478.73 135.106 478.73 135.075 478.735 135.086C478.738 135.092 478.74 135.097 478.742 135.102Z" fill="#FFAAAB"/>
<path d="M484.318 187.098C478.165 192.395 477.649 193.325 464.841 194.174C475.384 202.176 475.627 212.645 472.26 218.936C470.056 223.057 466.007 225.278 462.447 226.454C464.025 226.704 465.599 226.726 467.117 226.493C476.664 225.032 481.36 218.394 488.083 207.427L484.318 187.098Z" fill="url(#paint7_linear_1340_265)"/>
<path d="M494.122 172.222C486.058 171.369 484.578 182.554 475.004 183.828C482.127 191.316 480.455 199.33 477.582 212.627C480.067 213.318 482.279 213.645 484.068 213.506C486.674 210.701 489.698 206.882 492.618 202.757C495.095 194.222 495.843 182.095 494.632 172.286C494.461 172.261 494.291 172.24 494.122 172.222Z" fill="url(#paint8_linear_1340_265)"/>
<path d="M387.86 146.653L411.608 141.371L414.158 172.848C408.684 176.187 405.317 176.827 398.891 176.244L387.86 146.653Z" fill="white"/>
<path d="M389.908 155.173L413.657 149.891L414.284 163.103L394.933 167.371L389.908 155.173Z" fill="url(#paint9_linear_1340_265)"/>
<rect x="387.012" y="146.841" width="26.0666" height="1.73778" transform="rotate(-12.5382 387.012 146.841)" fill="#123041"/>
<rect x="387.294" y="144.107" width="24.3289" height="4.34444" transform="rotate(-12.5382 387.294 144.107)" fill="#123041"/>
</g>
<path d="M554.488 146.802L647.482 146.801V277.027C647.482 280.583 645.593 283.872 642.521 285.665L554.488 337.017V146.802Z" fill="#EB6371"/>
<path d="M664.617 184.928C664.617 189.464 660.64 192.972 656.14 192.406C651.64 191.841 647.663 195.349 647.663 199.885V276.318C647.663 276.746 647.285 277.076 646.861 277.017L623.27 273.712C622.923 273.663 622.663 273.366 622.663 273.015V172.386C622.663 172.244 622.778 172.129 622.92 172.129C623.062 172.129 623.177 172.014 623.177 171.872V156.665C623.177 150.829 627.908 146.098 633.744 146.098H654.05C659.886 146.098 664.617 150.829 664.617 156.665V184.928Z" fill="#EB6371"/>
<path d="M576.68 199.905C576.68 205.748 571.558 210.269 565.76 209.544C559.962 208.82 554.84 213.341 554.84 219.184V336.769C554.84 337.242 554.383 337.581 553.931 337.444L520.818 327.372C520.522 327.281 520.319 327.008 520.319 326.698V167.934C520.319 156.262 529.782 146.799 541.455 146.799H555.545C567.217 146.799 576.68 156.262 576.68 167.934V199.905Z" fill="#FA9DB2"/>
<g clip-path="url(#clip1_1340_265)">
<path d="M494.847 349.937C492.823 360.947 473.352 372.204 437.051 365.53C400.75 358.856 361.366 336.78 363.39 325.769C365.414 314.759 396.483 311.243 432.784 317.917C469.085 324.59 496.871 338.926 494.847 349.937Z" fill="#7C70B8"/>
<path d="M593.106 370.099C593.106 383.168 558.354 392.376 501.029 392.376C424.031 392.376 412.813 387.177 412.813 373.069C412.813 358.962 462.673 345.446 511.722 345.446C560.77 345.446 593.106 357.03 593.106 370.099Z" fill="#D0E3EA"/>
<path d="M395.665 317.595C397.048 322.341 424.059 336.505 438.471 343.752C450.099 343.156 465.255 318.573 461.344 311.773C457.433 304.973 424.205 302.712 418.769 303.357C413.792 303.948 394.053 312.056 395.665 317.595Z" fill="#4DA42D"/>
<path d="M363.409 325.983C364.834 330.717 391.971 344.638 406.447 351.756C418.069 351.056 433.005 326.339 429.033 319.574C425.061 312.809 391.815 310.845 386.385 311.539C381.413 312.175 361.747 320.459 363.409 325.983Z" fill="#5BB42B"/>
<path d="M404.294 348.041C417.669 368.77 481.733 370.602 487.289 368.77C492.845 366.939 496.742 355.178 495.061 348.041C493.379 340.905 471.214 298.291 430.701 306.697C394.348 314.24 396.167 335.447 404.294 348.041Z" fill="url(#paint10_linear_1340_265)"/>
<path d="M584.002 351.264C578.607 333.833 533.463 339.119 520.25 343.265C519.274 344.489 517.403 347.802 517.725 351.262C518.128 355.588 547.992 373.475 568.805 373.475C580.23 373.475 588.461 365.668 584.002 351.264Z" fill="#439B22"/>
<ellipse cx="461.811" cy="308.685" rx="23.291" ry="25.099" transform="rotate(-28.6896 461.811 308.685)" fill="#5BB42B"/>
<ellipse cx="23.291" cy="25.099" rx="23.291" ry="25.099" transform="matrix(-0.877234 -0.480063 -0.480063 0.877234 579.669 300.146)" fill="#5BB42B"/>
<path d="M569.941 343.309C569.941 370.67 539.959 379.743 503.518 379.743C467.078 379.743 436.875 370.67 436.875 343.31C436.875 304.005 467.078 287.146 503.518 287.146C539.959 287.146 569.941 300.893 569.941 343.309Z" fill="#5BB42B"/>
<path d="M564.41 316.017C555.629 307.511 543.925 342.295 517.469 351.275C484.233 362.556 447.771 352.865 457.349 372.148C467.955 376.924 481.898 379.177 497.259 379.644C498.936 379.576 500.725 379.538 502.632 379.538C512.984 379.538 523.185 378.853 532.478 377.332C554.585 373.11 569.957 362.896 569.957 343.305C569.957 332.398 567.975 323.387 564.41 316.017Z" fill="url(#paint11_linear_1340_265)"/>
<path d="M458.138 334.474H471.17" stroke="#A1DC3C" stroke-width="11.6537" stroke-linecap="round"/>
<path d="M559.841 334.587L569.747 334.587" stroke="#6DBD27" stroke-width="11.6537" stroke-linecap="round"/>
<path d="M547.391 309.685L556.62 313.002" stroke="#123041" stroke-width="8.74027" stroke-linecap="round"/>
<path d="M477.074 310.255L465.245 314.486" stroke="#123041" stroke-width="8.74028" stroke-linecap="round"/>
<path d="M446.397 351.538C440.957 341.432 444.271 336.679 427.958 340.648C419.315 342.751 399.035 354.932 402.851 369.021C407.008 384.365 418.078 386.837 431.552 386.837C445.025 386.837 454.979 367.482 446.397 351.538Z" fill="#5BB42B"/>
<path d="M443.435 346.972C440.698 346.293 437.579 347.188 433.445 348.878C425.212 352.246 451.621 366.372 428.643 385.577C428.149 385.99 427.698 386.376 427.287 386.732C428.677 386.802 430.1 386.834 431.552 386.834C445.025 386.834 454.979 367.479 446.396 351.535C445.473 349.82 444.484 348.299 443.435 346.972Z" fill="url(#paint12_linear_1340_265)"/>
<path d="M523.271 318.292C523.271 320.09 523.271 320.994 514.712 320.994C506.152 320.994 506.152 320.25 506.152 318.292C506.152 315.083 509.984 313.212 514.712 313.212C519.439 313.212 523.271 315.307 523.271 318.292Z" fill="white"/>
<path d="M569.681 287.997L569.938 286.584L576.215 280.326H571.113L571.388 278.894H578.472L578.215 280.307L571.92 286.566H577.206L576.949 287.997H569.681Z" fill="white"/>
<path d="M579.39 274.056L579.775 271.936L589.19 262.548H581.537L581.95 260.401H592.577L592.191 262.521L582.749 271.908H590.677L590.292 274.056H579.39Z" fill="white"/>
</g>
<ellipse cx="118.116" cy="328.997" rx="57.5" ry="11" fill="#9085C7"/>
<path d="M135.027 325.912C137.543 323.38 133.732 295.04 130.127 283.475L103.295 297.451C105.159 307.111 110.116 326.512 111.908 327.644C114.149 329.058 131.882 329.076 135.027 325.912Z" fill="#FFC532"/>
<path d="M156.976 266.544C150.592 253.379 123.305 244.902 112.395 244.464C111.36 245.119 109.136 247.101 108.515 249.782C107.739 253.133 136.012 280.722 143.663 283.455C148.7 285.254 162.733 278.418 156.976 266.544Z" fill="#FFC532"/>
<path d="M127.9 296.884C135.868 293.83 125.692 249.959 115.098 239.802C104.505 229.645 87.6699 234.557 80.0602 238.888C72.4506 243.218 57.9544 283.596 69.2518 302.914C75.5735 313.724 115.948 301.466 127.9 296.884Z" fill="url(#paint13_linear_1340_265)"/>
<path d="M80.336 243.879C77.4577 251.795 86.8124 262.949 97.9664 270.505C97.9664 274.658 83.5 288.097 81.4159 287.056C80.6962 286.696 74.6591 282.739 70.9811 274.463C69.5848 271.321 68.4149 267.578 67.8 264.342C70.3262 254.348 74.2009 245.572 77.5472 241.29L80.336 243.879Z" fill="#FFC532"/>
<path d="M76.0423 331.636C72.371 330.187 67.0145 307.265 66.7537 295.655L100.126 299.648C101.598 308.967 104.276 327.814 102.727 329.425C100.791 331.44 80.6314 333.447 76.0423 331.636Z" fill="url(#paint14_linear_1340_265)"/>
<path d="M164.082 223.972C161.844 249.783 140.187 254.512 102.957 249.45C65.7274 244.388 46.9072 228.099 49.703 207.535C54.5032 172.229 80.1216 152.52 113.829 159.053C153.982 166.836 167.111 189.061 164.082 223.972Z" fill="#FFDB40"/>
<path d="M154.572 180.561C162.947 191.548 165.632 206.094 164.082 223.966C161.843 249.777 140.187 254.505 102.957 249.444C75.6935 245.737 58.3042 236.008 52.0449 222.99C73.7723 199.243 137.153 211.921 148.34 190.619C150.61 186.297 152.685 182.984 154.572 180.561Z" fill="url(#paint15_linear_1340_265)"/>
<path d="M74.1631 229.541L84.9646 230.204" stroke="#FCA18E" stroke-width="10.0196" stroke-linecap="round"/>
<path d="M153.329 233.857L160.843 233.801" stroke="#FF8971" stroke-width="10.0196" stroke-linecap="round"/>
<path d="M93.2407 211.493L92.1609 219.436" stroke="#123041" stroke-width="7.51471" stroke-linecap="round"/>
<path d="M145.773 215.809L144.693 223.752" stroke="#123041" stroke-width="7.51471" stroke-linecap="round"/>
<path d="M135.462 233.427C134.947 237.221 128.904 238.049 121.72 237.075C114.536 236.1 108.932 233.691 109.447 229.897C109.961 226.102 116.4 222.359 123.584 223.334C130.768 224.308 135.977 229.632 135.462 233.427Z" fill="#FFB132"/>
<path d="M134.829 230.379C135.36 231.429 135.591 232.477 135.462 233.428C134.947 237.222 128.903 238.051 121.719 237.076C115.359 236.213 110.238 234.225 109.505 231.147C113.437 232.33 121.547 234.338 127.831 233.44C131.965 232.85 133.941 231.645 134.829 230.379Z" fill="#FFA115"/>
<path d="M101.428 141.066C109.741 147.766 114.698 155.486 116.395 162.645L102.282 161.809C96.4704 161.465 90.6107 154.91 90.4768 146.625C90.3429 138.34 97.2008 137.659 101.428 141.066Z" fill="#FFDB40"/>
<path d="M116.61 151.551C114.239 154.094 113.86 159.41 113.967 161.75C118.759 161.079 126.765 159.219 128.068 156.069C129.371 152.919 128.287 149.129 126.481 148.299C124.675 147.469 119.572 148.372 116.61 151.551Z" fill="#FFDB40"/>
<line x1="84.7986" y1="207.919" x2="102.086" y2="209.771" stroke="#123041" stroke-width="2.87849" stroke-linecap="round"/>
<line x1="144.029" y1="205.514" x2="154.957" y2="208.965" stroke="#123041" stroke-width="2.87849" stroke-linecap="round"/>
<path d="M150.024 269.348C150.793 266.559 154.278 265.625 156.338 267.657L156.413 267.73C156.811 268.122 157.283 268.414 157.792 268.597C160.569 277.486 152.087 283.104 146.48 283.689C146.418 283.222 146.443 282.73 146.573 282.23L146.6 282.128C146.936 280.837 146.568 279.463 145.631 278.513L145.557 278.438C143.525 276.378 144.46 272.893 147.249 272.124L147.35 272.097C148.637 271.742 149.642 270.737 149.997 269.45L150.024 269.348Z" fill="#FFB132"/>
<path d="M152.477 270.957C153.189 268.374 156.417 267.509 158.325 269.391L158.394 269.459C159.274 270.327 160.546 270.668 161.742 270.356L161.837 270.332C164.43 269.656 166.792 272.019 166.117 274.612L166.092 274.706C165.781 275.902 166.122 277.174 166.99 278.055L167.058 278.124C168.939 280.032 168.075 283.259 165.491 283.971L165.397 283.997C164.206 284.325 163.275 285.256 162.946 286.448L162.92 286.542C162.209 289.125 158.981 289.99 157.073 288.109L157.004 288.04C156.124 287.173 154.852 286.832 153.655 287.143L153.561 287.168C150.968 287.843 148.605 285.48 149.281 282.887L149.305 282.793C149.617 281.597 149.276 280.325 148.408 279.445L148.34 279.375C146.458 277.467 147.323 274.24 149.907 273.528L150 273.502C151.192 273.174 152.123 272.243 152.452 271.051L152.477 270.957Z" fill="#FFEEC9"/>
<path d="M123.741 266.441C128.346 255.976 132.182 257.413 132.182 257.413L119.329 286.621L115.586 284.973C115.586 284.973 121.568 271.38 123.741 266.441Z" fill="#BCD1D8"/>
<circle cx="117.051" cy="291.797" r="5.10608" transform="rotate(23.7524 117.051 291.797)" stroke="#EB6371" stroke-width="3.72355"/>
<path d="M134.213 280.37C145.58 279.137 145.368 275.047 145.368 275.047L113.643 278.487L114.084 282.553C114.084 282.553 128.849 280.952 134.213 280.37Z" fill="#D0E5EB"/>
<circle cx="6.96786" cy="6.96786" r="5.10608" transform="matrix(-0.107826 -0.99417 -0.99417 0.107826 115.7 285.273)" stroke="#FA9DB2" stroke-width="3.72355"/>
<path d="M106.085 272.405C107.325 273.474 109.191 275.236 110.17 276.671C109.51 276.086 108.617 275.769 107.671 275.872C105.891 276.065 104.604 277.666 104.797 279.447C104.99 281.228 106.591 282.516 108.372 282.323C109.893 282.157 111.053 280.966 111.239 279.512C111.59 281.192 111.802 283.277 111.913 284.876C111.004 285.489 109.939 285.898 108.773 286.024C104.948 286.439 101.51 283.674 101.095 279.849C100.724 276.431 102.891 273.325 106.085 272.405Z" fill="url(#paint16_linear_1340_265)"/>
<path d="M120.724 278.364C121.185 278.561 121.581 278.9 121.798 279.332C122.015 279.764 122.056 280.29 121.802 280.868L119.281 286.597L115.628 284.989L118.149 279.261C118.394 278.702 118.808 278.38 119.275 278.246C119.742 278.112 120.264 278.166 120.724 278.364Z" fill="#EB6371" stroke="#EB6371" stroke-width="0.074471"/>
<path d="M121.405 277.645C123.298 277.438 123.603 281.52 121.904 281.705C117.703 282.164 114.017 282.569 114.017 282.569L113.572 278.502C113.572 278.502 119.462 277.857 121.405 277.645Z" fill="#FA9DB2"/>
<circle cx="120.039" cy="279.853" r="0.558533" transform="rotate(-66.2476 120.039 279.853)" fill="#E5EEF1"/>
<path d="M83.7976 291.346C71.6316 283.234 71.1207 254.588 73.5202 247.242C75.9198 239.897 79.8143 241.64 80.7833 244.204L80.8286 244.324C82.7686 249.457 84.7237 254.63 90.5238 262.03C95.7512 268.699 106.221 270.957 108.101 278.528C110.832 289.526 102.743 303.979 83.7976 291.346Z" fill="#FFDB40"/>
<path d="M97.0433 268.043C101.734 271.154 106.601 273.833 107.826 278.764C110.426 289.235 103.219 302.837 86.1722 293.215C90.9466 293.3 99.1469 290.985 101.61 285.932C105.36 278.237 101.027 273.208 97.0433 268.043Z" fill="url(#paint17_linear_1340_265)"/>
<path d="M316.406 272.585C358.582 263.026 394.304 263.497 396.194 273.637C397.636 281.372 378.98 292.495 351.333 301.58C348.59 302.482 347.294 305.596 347.294 308.484C347.294 320.351 342.784 329.972 309.955 329.972C308.124 329.972 306.328 329.791 304.592 329.447C303.292 329.19 301.116 332.172 301.116 333.497C301.116 342.294 299.991 363.501 237.616 352.997C213.643 348.96 203.116 343.923 203.116 331.497C203.117 322.497 228.117 305.993 238.742 305.993C240.082 305.993 241.224 305.006 241.871 303.834C247.329 293.95 279.056 281.05 316.406 272.585ZM286.531 315.551C286.38 315.186 286.022 314.952 285.627 314.971C285.032 314.998 284.437 315.022 283.842 315.042C282.713 315.079 282.343 316.724 283.342 317.253C283.669 317.426 283.992 317.6 284.312 317.774C285.239 318.28 286.933 316.527 286.531 315.551Z" fill="#9085C7"/>
<circle cx="353.243" cy="254.809" r="7.74954" fill="white"/>
<path d="M393.306 271.186C391.315 275.031 364.342 286.031 349.997 291.648C308.508 306.297 329.206 270.553 333.833 265.086C338.459 259.618 369.338 258.456 374.236 259.095C378.72 259.679 395.629 266.7 393.306 271.186Z" fill="white"/>
<path d="M239.591 288.116C249.613 276.365 284.613 277.402 294.934 279.406C295.661 280.26 297.017 282.638 296.628 285.326C296.141 288.685 260.397 306.186 252.624 309.251C242.409 313.279 229.376 300.093 239.591 288.116Z" fill="#DBEBF1"/>
<path d="M333.166 296.229C316.137 300.214 293.946 300.307 284.202 296.229C274.458 292.152 273.476 263.341 302.676 255.732C331.875 248.122 361.073 255.029 361.817 266.44C363.285 288.951 349.721 292.355 333.166 296.229Z" fill="url(#paint18_linear_1340_265)"/>
<path d="M327.177 273.181C350.073 282.644 358.742 262.069 361.131 263.84C361.525 264.675 361.759 265.541 361.817 266.436C362.069 270.305 361.877 273.609 361.303 276.449C361.25 276.707 361.195 276.961 361.136 277.212C360.902 278.214 360.618 279.156 360.287 280.042C360.122 280.486 359.945 280.915 359.756 281.331C359.096 282.787 358.297 284.081 357.374 285.237C357.11 285.567 356.836 285.886 356.553 286.194C355.702 287.12 354.764 287.95 353.748 288.701C353.579 288.827 353.408 288.95 353.234 289.071C348.029 292.696 340.926 294.409 333.166 296.225C329.919 296.985 326.483 297.602 322.983 298.077C313.873 287.382 305.385 264.175 327.177 273.181Z" fill="url(#paint19_linear_1340_265)" fill-opacity="0.5"/>
<path d="M306.649 323.894C320.387 323.895 328.136 304.318 331.054 284.823C330.533 283.723 326.022 279.1 321.443 280.509C318.617 281.378 288.331 291.781 289.388 308.337C290.104 319.563 295.729 323.894 306.649 323.894Z" fill="white"/>
<path d="M242.785 198.977C246.563 210.328 262.156 232.371 265.556 241.658L295.747 240.99C298.734 231.563 312.173 208.878 316.39 197.35C321.62 183.053 315.447 164.756 299.877 165.1C287.021 165.385 281.467 186.747 280.028 198.154C278.086 186.822 271.154 165.735 258.739 166.01C243.168 166.354 237.977 184.532 242.785 198.977Z" fill="white"/>
<path d="M228.975 268.859C234.55 301.141 259.542 296.825 284.667 295.345C315.279 293.543 342.054 281.974 338.139 259.301C332.081 224.22 319.075 211.89 279.271 214.709C253.972 216.5 222.861 233.453 228.975 268.859Z" fill="white"/>
<path d="M314.144 257.333C322.154 250.357 330.754 232.384 337.364 255.251C337.639 256.569 337.9 257.919 338.139 259.303C339.577 267.632 336.874 274.462 331.361 279.86C321.496 288.224 303.421 292.757 284.666 295.346C284.657 295.347 284.647 295.347 284.638 295.349C264.835 296.516 245.12 299.437 234.934 284.802C249.45 282.831 286.07 281.781 314.144 257.333Z" fill="url(#paint20_linear_1340_265)" fill-opacity="0.75"/>
<path d="M299.057 260.689L300.917 268.031" stroke="#123041" stroke-width="7.10138" stroke-linecap="round"/>
<path d="M250.676 266.185L252.536 273.527" stroke="#123041" stroke-width="7.10138" stroke-linecap="round"/>
<path d="M317.195 277.243L310.625 277.992" stroke="#FFAAAB" stroke-width="8.8171" stroke-linecap="round"/>
<path d="M243.797 282.771L237.226 283.52" stroke="#FFC0C1" stroke-width="8.8171" stroke-linecap="round"/>
<path d="M274.343 273.795C273.427 273.954 273.074 274.408 272.567 274.888C271.929 274.605 271.443 274.296 270.528 274.454C269.383 274.652 268.925 275.966 269.331 276.626C269.878 277.515 271.441 278.227 273.16 278.324C274.748 277.656 275.982 276.46 276.199 275.44C276.36 274.683 275.488 273.598 274.343 273.795Z" fill="#FFC0C1"/>
<path d="M265.661 282.322C266.299 282.568 268.018 283.004 269.784 282.78C271.992 282.5 272.629 280.894 274.974 280.596C277.32 280.299 278.338 281.695 280.545 281.415C282.311 281.191 283.867 280.34 284.424 279.942" stroke="#DF9C9C" stroke-width="2.26966" stroke-linecap="round"/>
<path d="M328.688 282.365C329.963 283.338 330.841 284.374 331.054 284.824C328.308 303.171 321.282 321.587 309.013 323.692C310.88 322.289 314.154 319.372 314.751 315.791C316.16 307.337 313.694 302.053 309.115 299.94C314.046 297.357 323.134 292.331 325.67 288.668C327.545 285.959 328.38 283.725 328.688 282.365Z" fill="url(#paint21_linear_1340_265)"/>
<path d="M289.948 303.573C295.117 306.708 300.061 309.457 305.277 314.236C306.457 315.317 306.968 316.932 306.733 318.514C306.427 320.563 306.161 322.378 305.854 323.884C299.739 323.761 295.364 322.194 292.655 318.695C291.937 317.48 291.232 316.146 290.545 314.677C289.927 312.869 289.542 310.764 289.387 308.337C289.282 306.687 289.489 305.098 289.948 303.573Z" fill="#DCECF2"/>
<path d="M250.115 319.486L259.615 320.484L224.617 346.991L220.615 345.986L250.115 319.486Z" fill="#51700E"/>
<path d="M254.622 315.736L230.138 304.088C227.427 302.798 224.313 302.846 221.668 304.219L187.588 321.911C186.896 322.271 186.87 323.287 187.543 323.699L220.965 344.186L254.622 315.736Z" fill="url(#paint22_linear_1340_265)"/>
<path d="M220.615 345.987L219.617 343.491L221.475 342.062L226.617 342.491L220.615 345.987Z" fill="#51700E"/>
<path d="M220.615 341.984L222.622 342.979L231.57 338.391L229.117 341.992L224.617 345.992L221.115 344.984L220.615 341.984Z" fill="#CFE0E6"/>
<path d="M225.117 344.992H226.911H227.829L224.617 346.992L225.117 344.992Z" fill="#86AF2F"/>
<path d="M263.15 314.033L299.989 315.715C301.636 315.79 302.49 317.714 301.441 318.985L276.737 348.934C275.651 350.25 273.97 350.921 272.277 350.716L225.116 344.989L263.15 314.033Z" fill="#97BF40"/>
<path d="M298.506 317.507C298.978 316.913 298.927 316.052 298.378 315.528C285.05 302.815 273.265 309.495 273.265 309.495L229.617 339.99L225.117 344.992C225.117 344.992 237.33 338.151 271.297 347.785C272.022 347.991 272.818 347.785 273.329 347.231C280.277 339.697 291.012 326.94 298.506 317.507Z" fill="#CFE0E6"/>
<path d="M285.493 308.208C289.317 309.039 293.755 311.115 298.378 315.525C298.927 316.049 298.978 316.91 298.506 317.505C291.012 326.937 280.277 339.695 273.329 347.228C273.002 347.582 272.559 347.793 272.092 347.845L267.617 339.494L285.493 308.208Z" fill="#B2CBD5"/>
<path d="M224.898 303.646C244.813 296.251 253.076 316.433 253.076 316.433L222.298 344.262C222.298 344.262 209.518 325.95 189.828 323.149C189.335 323.079 189.188 322.395 189.623 322.164C201.492 315.877 215.97 308.469 224.898 303.646Z" fill="#CFE0E6"/>
<path d="M292.915 312.928C293.585 312.171 293.326 310.976 292.393 310.588C269.8 301.196 259.445 314.232 259.445 314.232L223.617 344.493C223.617 344.493 234.332 329.408 266.935 339.515C267.679 339.746 268.513 339.54 269.043 338.968C278.279 328.992 284.19 322.795 292.915 312.928Z" fill="white"/>
<path d="M230.202 302.184C230.355 302.102 230.528 302.047 230.702 302.024C252.304 299.213 255.615 317.484 255.615 317.484L223.827 344.409C223.827 344.409 222.053 324.931 197.672 320.205C197.199 320.113 197.069 319.461 197.489 319.239C209.119 313.083 221.257 307.009 230.202 302.184Z" fill="url(#paint23_linear_1340_265)"/>
<defs>
<filter id="filter0_g_1340_265" x="0" y="246.466" width="620.105" height="156.035" filterUnits="userSpaceOnUse" color-interpolation-filters="sRGB">
<feFlood flood-opacity="0" result="BackgroundImageFix"/>
<feBlend mode="normal" in="SourceGraphic" in2="BackgroundImageFix" result="shape"/>
<feTurbulence type="fractalNoise" baseFrequency="0.3333333432674408 0.3333333432674408" numOctaves="3" seed="786" />
<feDisplacementMap in="shape" scale="5" xChannelSelector="R" yChannelSelector="G" result="displacedImage" width="100%" height="100%" />
<feMerge result="effect1_texture_1340_265">
<feMergeNode in="displacedImage"/>
</feMerge>
</filter>
<linearGradient id="paint0_linear_1340_265" x1="507.617" y1="214.994" x2="495.913" y2="192.481" gradientUnits="userSpaceOnUse">
<stop stop-color="#FF7E8B"/>
<stop offset="1" stop-color="#EB6371"/>
</linearGradient>
<linearGradient id="paint1_linear_1340_265" x1="429.617" y1="200.278" x2="429.617" y2="229.214" gradientUnits="userSpaceOnUse">
<stop stop-color="#FF7E8B"/>
<stop offset="1" stop-color="#FDAFC1"/>
</linearGradient>
<linearGradient id="paint2_linear_1340_265" x1="487.117" y1="203.994" x2="487.117" y2="244.994" gradientUnits="userSpaceOnUse">
<stop stop-color="#FF7E8B"/>
<stop offset="1" stop-color="#FDAFC1"/>
</linearGradient>
<linearGradient id="paint3_linear_1340_265" x1="419.571" y1="153.494" x2="454.706" y2="162.232" gradientUnits="userSpaceOnUse">
<stop stop-color="white"/>
<stop offset="1" stop-color="#DEEAF1"/>
</linearGradient>
<linearGradient id="paint4_linear_1340_265" x1="416.617" y1="156.992" x2="427.351" y2="157.056" gradientUnits="userSpaceOnUse">
<stop stop-color="#DBEBF1"/>
<stop offset="1" stop-color="white"/>
</linearGradient>
<linearGradient id="paint5_linear_1340_265" x1="440.837" y1="206.566" x2="428.459" y2="177.073" gradientUnits="userSpaceOnUse">
<stop stop-color="#0A1F2D"/>
<stop offset="1" stop-color="#123041" stop-opacity="0"/>
</linearGradient>
<linearGradient id="paint6_linear_1340_265" x1="470.441" y1="142.165" x2="473.285" y2="160.109" gradientUnits="userSpaceOnUse">
<stop stop-color="white" stop-opacity="0"/>
<stop offset="1" stop-color="#CDE7F1"/>
</linearGradient>
<linearGradient id="paint7_linear_1340_265" x1="475.2" y1="213.6" x2="476.836" y2="193.722" gradientUnits="userSpaceOnUse">
<stop stop-color="#DBEBF1"/>
<stop offset="1" stop-color="white" stop-opacity="0"/>
</linearGradient>
<linearGradient id="paint8_linear_1340_265" x1="482.762" y1="176.023" x2="460.778" y2="178.07" gradientUnits="userSpaceOnUse">
<stop stop-color="#DBEBF1"/>
<stop offset="1" stop-color="white" stop-opacity="0"/>
</linearGradient>
<linearGradient id="paint9_linear_1340_265" x1="391.496" y1="162.312" x2="412.498" y2="151.013" gradientUnits="userSpaceOnUse">
<stop stop-color="#6A5B3D"/>
<stop offset="1" stop-color="#312613"/>
</linearGradient>
<linearGradient id="paint10_linear_1340_265" x1="414.24" y1="322.128" x2="431.22" y2="342.307" gradientUnits="userSpaceOnUse">
<stop stop-color="#5BB42B"/>
<stop offset="1" stop-color="#4DA42D"/>
</linearGradient>
<linearGradient id="paint11_linear_1340_265" x1="528.443" y1="379.742" x2="511.247" y2="343.891" gradientUnits="userSpaceOnUse">
<stop stop-color="#439B22"/>
<stop offset="1" stop-color="#5BB42B"/>
</linearGradient>
<linearGradient id="paint12_linear_1340_265" x1="445.793" y1="381.456" x2="420.538" y2="372.956" gradientUnits="userSpaceOnUse">
<stop stop-color="#4DA42D"/>
<stop offset="1" stop-color="#5BB42B"/>
</linearGradient>
<linearGradient id="paint13_linear_1340_265" x1="90.4105" y1="256.828" x2="85.1252" y2="238.445" gradientUnits="userSpaceOnUse">
<stop stop-color="#FFD43B"/>
<stop offset="1" stop-color="#FFC532"/>
</linearGradient>
<linearGradient id="paint14_linear_1340_265" x1="85.3733" y1="297.489" x2="71.3406" y2="330.232" gradientUnits="userSpaceOnUse">
<stop stop-color="#FFD43B"/>
<stop offset="1" stop-color="#FFDB40"/>
</linearGradient>
<linearGradient id="paint15_linear_1340_265" x1="124.952" y1="199.255" x2="155.536" y2="244.95" gradientUnits="userSpaceOnUse">
<stop stop-color="#FFDB40"/>
<stop offset="1" stop-color="#FFC532"/>
</linearGradient>
<linearGradient id="paint16_linear_1340_265" x1="103.004" y1="281.292" x2="111.279" y2="276.974" gradientUnits="userSpaceOnUse">
<stop stop-color="#EB6371"/>
<stop offset="1" stop-color="#FA9DB2"/>
</linearGradient>
<linearGradient id="paint17_linear_1340_265" x1="103.539" y1="296.775" x2="101.494" y2="280.308" gradientUnits="userSpaceOnUse">
<stop stop-color="#FFC532"/>
<stop offset="1" stop-color="#FFD43B"/>
</linearGradient>
<linearGradient id="paint18_linear_1340_265" x1="349.369" y1="271.071" x2="334.222" y2="250.288" gradientUnits="userSpaceOnUse">
<stop stop-color="white"/>
<stop offset="1" stop-color="#EAF3F7"/>
</linearGradient>
<linearGradient id="paint19_linear_1340_265" x1="331.071" y1="292.203" x2="351.129" y2="267.896" gradientUnits="userSpaceOnUse">
<stop stop-color="#DBEBF1"/>
<stop offset="1" stop-color="white" stop-opacity="0"/>
</linearGradient>
<linearGradient id="paint20_linear_1340_265" x1="294.769" y1="255.219" x2="319.754" y2="292.423" gradientUnits="userSpaceOnUse">
<stop stop-color="white" stop-opacity="0"/>
<stop offset="1" stop-color="#CDE7F1"/>
</linearGradient>
<linearGradient id="paint21_linear_1340_265" x1="323.115" y1="300.003" x2="312.536" y2="287.573" gradientUnits="userSpaceOnUse">
<stop stop-color="#DCECF2"/>
<stop offset="1" stop-color="white" stop-opacity="0"/>
</linearGradient>
<linearGradient id="paint22_linear_1340_265" x1="216.116" y1="309.486" x2="242.522" y2="322.09" gradientUnits="userSpaceOnUse">
<stop stop-color="#86AF2F"/>
<stop offset="1" stop-color="#51700E"/>
</linearGradient>
<linearGradient id="paint23_linear_1340_265" x1="229.116" y1="313.988" x2="244.637" y2="331.903" gradientUnits="userSpaceOnUse">
<stop stop-color="white"/>
<stop offset="1" stop-color="#DBEBF1"/>
</linearGradient>
<clipPath id="clip0_1340_265">
<rect width="152.222" height="188.511" fill="white" transform="matrix(-0.868249 -0.496129 -0.496129 0.868249 587.309 100.538)"/>
</clipPath>
<clipPath id="clip1_1340_265">
<rect width="283" height="147" fill="white" transform="matrix(-1 8.74228e-08 8.74228e-08 1 615.617 255.997)"/>
</clipPath>
</defs>
</svg>
