<svg width="242" height="242" viewBox="0 0 242 242" fill="none" xmlns="http://www.w3.org/2000/svg">
<path fill-rule="evenodd" clip-rule="evenodd" d="M11.7217 145.711L-2.6321e-05 194.57L48.8588 206.291C73.7396 212.261 98.7386 198.59 107.559 175.269C104.446 200.316 120.59 224.239 145.711 230.266L194.57 241.987L206.292 193.128C212.261 168.248 198.589 143.248 175.269 134.428C200.316 137.542 224.239 121.397 230.266 96.2759L241.987 47.4171L193.128 35.6954C168.248 29.7262 143.248 43.3977 134.428 66.7183C137.542 41.6711 121.397 17.7485 96.2762 11.7217L47.4174 -1.14133e-05L35.6957 48.8588C29.7265 73.7396 43.3973 98.7388 66.7182 107.559C41.6716 104.445 17.7485 120.59 11.7217 145.711Z" fill="#E1F3BC"/>
</svg>
