<svg width="242" height="159" viewBox="0 0 242 159" fill="none" xmlns="http://www.w3.org/2000/svg">
<path fill-rule="evenodd" clip-rule="evenodd" d="M11.7217 61.8784L4.19655e-06 110.737L48.8588 122.459C73.7397 128.428 98.7386 114.757 107.559 91.4364C104.446 116.483 120.59 140.406 145.711 146.433L194.57 158.155L206.292 109.296C212.261 84.4151 198.589 59.416 175.269 50.5954C200.316 53.7091 224.239 37.5646 230.266 12.4434L241.987 -36.4154L193.128 -48.1371C168.248 -54.1063 143.248 -40.4348 134.428 -17.1143C137.542 -42.1614 121.397 -66.084 96.2762 -72.1108L47.4174 -83.8325L35.6957 -34.9737C29.7265 -10.0929 43.3973 14.9063 66.7183 23.7265C41.6717 20.6128 17.7485 36.7575 11.7217 61.8784Z" fill="#E1F3BC"/>
</svg>
