<svg width="111" height="111" viewBox="0 0 111 111" fill="none" xmlns="http://www.w3.org/2000/svg">
<g filter="url(#filter0_d_928_732)">
<path d="M53.5 0.5C60.9067 0.5 67.4181 4.33543 71.1562 10.1309L71.3438 10.4219L71.6816 10.3486C78.4225 8.89374 85.7388 10.786 90.9766 16.0234C96.2138 21.261 98.106 28.5773 96.6514 35.3184L96.5791 35.6562L96.8691 35.8438C102.665 39.5816 106.5 46.0931 106.5 53.5C106.5 60.9067 102.665 67.4181 96.8691 71.1562L96.5791 71.3438L96.6514 71.6816C98.106 78.4225 96.2138 85.7388 90.9766 90.9766C85.7388 96.2138 78.4225 98.106 71.6816 96.6514L71.3438 96.5791L71.1562 96.8691C67.4181 102.665 60.9067 106.5 53.5 106.5C46.0931 106.5 39.5817 102.665 35.8438 96.8691L35.6562 96.5791L35.3184 96.6514C28.5773 98.106 21.261 96.2138 16.0234 90.9766C10.786 85.7388 8.89374 78.4225 10.3486 71.6816L10.4219 71.3438L10.1309 71.1562C4.33543 67.4181 0.499999 60.9067 0.5 53.5C0.500001 46.0931 4.33545 39.5816 10.1309 35.8438L10.4219 35.6562L10.3486 35.3184C8.89373 28.5773 10.786 21.2609 16.0234 16.0234C21.261 10.786 28.5773 8.89378 35.3184 10.3486L35.6562 10.4219L35.8438 10.1309C39.5816 4.33549 46.0931 0.500001 53.5 0.5Z" fill="#FCBAC1" stroke="#005271"/>
<path d="M36.8814 51.1829V41.4046L16.3567 61.9115L21.2067 66.8565L36.8814 51.1829ZM83.6494 45.0722C82.1243 37.3984 76.3825 31.6643 75.7215 31.0251L61.6111 16.6957L53.5482 24.7519L52.9749 25.3244V35.1015L61.5707 26.5131L69.5956 34.6615L70.8196 35.9044L70.9073 35.9896C70.9223 36.0046 71.446 36.5149 72.1832 37.3961C73.691 39.1999 76.0918 42.5588 76.8601 46.4176C78.0046 52.1816 78.5802 58.9005 72.1832 67.0869V77.1935C72.7866 76.6717 73.165 76.2973 73.3011 76.1602C79.0244 70.5471 82.4738 64.8707 83.8444 58.8084C85.0338 53.5512 84.4131 48.9137 83.6494 45.0722ZM40.9203 75.2514L40.7034 75.1454L40.5984 75.112C40.4462 75.0395 39.8751 74.7423 38.8172 73.9786C38.2946 73.5996 37.6509 73.1066 36.8814 72.4696C35.7173 71.5044 34.2637 70.2096 32.4906 68.483L28.5231 64.4376L23.6282 69.325L27.5725 73.3451L27.6256 73.3992C33.7319 79.3567 36.8698 81.058 38.0258 81.5315C42.2124 83.538 46.1475 84.4895 49.7296 84.7625C51.7174 84.9145 53.5967 84.8569 55.3491 84.6542C55.4991 84.6369 55.649 84.6185 55.7978 84.5989V77.592C51.6089 78.3108 46.5536 77.9779 40.9203 75.2514Z" fill="#FAFAFA"/>
<path d="M49.5151 28.788V70.5287H40.3436V37.9524L41.2654 37.0309L41.7591 36.539L44.5302 33.7699L46.4083 31.8924L47.0198 31.2819L48.8991 29.4031L49.5151 28.788Z" fill="#FAFAFA"/>
<path d="M68.7218 38.1168V79.7733C68.6815 79.7998 68.6411 79.8263 68.5996 79.8528C68.1785 80.1235 67.7297 80.3976 67.2567 80.6695C67.101 80.7593 66.9429 80.8491 66.7802 80.939C66.3545 81.1751 65.9104 81.409 65.4478 81.6382C65.0209 81.8501 64.5779 82.0586 64.1199 82.2602C63.8707 82.3696 63.6181 82.4768 63.3597 82.5839C63.0274 82.7198 62.6836 82.8534 62.3294 82.9836C62.0537 83.0861 61.7722 83.184 61.4838 83.2808C60.9162 83.4731 60.3244 83.6528 59.7072 83.8198C59.5595 83.8602 59.4095 83.8982 59.2584 83.9362V38.1168H68.7218Z" fill="#FAFAFA"/>
<path d="M59.2595 49.118H49.5146V58.568H59.2595V49.118Z" fill="#FAFAFA"/>
</g>
<defs>
<filter id="filter0_d_928_732" x="0" y="0" width="111" height="111" filterUnits="userSpaceOnUse" color-interpolation-filters="sRGB">
<feFlood flood-opacity="0" result="BackgroundImageFix"/>
<feColorMatrix in="SourceAlpha" type="matrix" values="0 0 0 0 0 0 0 0 0 0 0 0 0 0 0 0 0 0 127 0" result="hardAlpha"/>
<feOffset dx="4" dy="4"/>
<feComposite in2="hardAlpha" operator="out"/>
<feColorMatrix type="matrix" values="0 0 0 0 0 0 0 0 0 0.321569 0 0 0 0 0.443137 0 0 0 1 0"/>
<feBlend mode="normal" in2="BackgroundImageFix" result="effect1_dropShadow_928_732"/>
<feBlend mode="normal" in="SourceGraphic" in2="effect1_dropShadow_928_732" result="shape"/>
</filter>
</defs>
</svg>
