<svg width="157" height="204" viewBox="0 0 157 204" fill="none" xmlns="http://www.w3.org/2000/svg">
<g filter="url(#filter0_d_1331_1767)">
<path d="M77.859 11.5613L112.959 18.1237C113.902 18.3 114.524 19.2077 114.347 20.1507L90.3292 148.614C89.7533 151.694 91.3105 154.78 94.131 156.145L125.024 171.102C125.729 171.443 126.118 172.214 125.974 172.984L122.45 191.835C122.273 192.777 121.366 193.398 120.423 193.222L17.2115 173.925C16.2686 173.749 15.6467 172.842 15.8229 171.899L19.343 153.071C19.4878 152.297 20.1354 151.717 20.9206 151.658L56.1063 149.025C59.248 148.79 61.8386 146.47 62.4176 143.373L77.8417 60.8756C78.9097 55.1607 72.1164 51.3508 67.7967 55.2422L42.3687 78.1486C41.6153 78.8273 40.4429 78.7189 39.8266 77.9138L26.0115 59.8663C25.4629 59.1495 25.5545 58.1324 26.2227 57.5254L76.3715 11.9826C76.7739 11.6172 77.3247 11.4614 77.859 11.5613Z" fill="white" stroke="#69DDE8" stroke-width="5.21092"/>
<mask id="mask0_1331_1767" style="mask-type:alpha" maskUnits="userSpaceOnUse" x="13" y="8" width="116" height="188">
<path d="M77.9441 11.5764L113.044 18.1389C113.987 18.3152 114.609 19.2229 114.432 20.1659L90.4143 148.629C89.8384 151.71 91.3956 154.795 94.2161 156.16L125.109 171.117C125.814 171.458 126.203 172.23 126.059 173L122.535 191.85C122.359 192.793 121.451 193.413 120.508 193.237L17.2965 173.94C16.3536 173.764 15.7317 172.857 15.9079 171.914L19.4281 153.086C19.5729 152.312 20.2204 151.732 21.0056 151.673L56.1914 149.04C59.3331 148.805 61.9237 146.485 62.5027 143.388L77.9267 60.8907C78.9948 55.1759 72.2015 51.3659 67.8818 55.2573L42.4538 78.1638C41.7004 78.8425 40.528 78.7341 39.9116 77.9289L26.0966 59.8814C25.5479 59.1646 25.6396 58.1475 26.3078 57.5405L76.4566 11.9977C76.859 11.6323 77.4098 11.4765 77.9441 11.5764Z" fill="white" stroke="#AFD157" stroke-width="5.21092"/>
</mask>
<g mask="url(#mask0_1331_1767)">
<rect x="-23.8085" y="52.173" width="143.822" height="10.3588" transform="rotate(-18.5234 -23.8085 52.173)" fill="#9EE7E5"/>
<rect x="-7.79975" y="95.0526" width="143.822" height="10.3588" transform="rotate(-18.5234 -7.79975 95.0526)" fill="#9EE7E5"/>
<rect x="-12.5343" y="69.4835" width="143.822" height="3.41853" transform="rotate(-18.5234 -12.5343 69.4835)" fill="#9EE7E5"/>
<rect x="-18.2978" y="63.8194" width="143.822" height="4.1183" transform="rotate(-18.5234 -18.2978 63.8194)" fill="#9EE7E5"/>
<rect x="4.17224" y="112.663" width="143.822" height="3.41853" transform="rotate(-18.5234 4.17224 112.663)" fill="#9EE7E5"/>
<rect x="-0.570437" y="106.726" width="143.822" height="4.1183" transform="rotate(-18.5234 -0.570437 106.726)" fill="#9EE7E5"/>
<rect x="8.99658" y="145.182" width="143.822" height="10.354" transform="rotate(-18.5234 8.99658 145.182)" fill="#9EE7E5"/>
<rect x="23.2126" y="187.605" width="143.822" height="10.3588" transform="rotate(-18.5234 23.2126 187.605)" fill="#9EE7E5"/>
<rect x="16.7897" y="164.07" width="143.822" height="3.41797" transform="rotate(-18.5234 16.7897 164.07)" fill="#9EE7E5"/>
<rect x="13.7226" y="157.653" width="143.822" height="4.1229" transform="rotate(-18.5234 13.7226 157.653)" fill="#9EE7E5"/>
<rect x="34.4872" y="204.911" width="143.822" height="3.41853" transform="rotate(-18.5234 34.4872 204.911)" fill="#9EE7E5"/>
<rect x="29.8985" y="199.386" width="143.822" height="4.1183" transform="rotate(-18.5234 29.8985 199.386)" fill="#9EE7E5"/>
</g>
<path d="M78.0385 11.1811L113.138 17.7435C114.081 17.9198 114.703 18.8276 114.527 19.7705L90.5086 148.234C89.9327 151.314 91.49 154.4 94.3104 155.765L125.203 170.722C125.908 171.063 126.297 171.834 126.154 172.604L122.629 191.454C122.453 192.397 121.545 193.018 120.602 192.842L17.3909 173.545C16.448 173.369 15.8261 172.462 16.0023 171.519L19.5225 152.691C19.6673 151.917 20.3148 151.337 21.1 151.278L56.2858 148.645C59.4275 148.41 62.0181 146.09 62.5971 142.993L78.0211 60.4954C79.0892 54.7805 72.2959 50.9706 67.9761 54.862L42.5481 77.7685C41.7948 78.4471 40.6224 78.3387 40.006 77.5336L26.191 59.4861C25.6423 58.7693 25.734 57.7522 26.4021 57.1452L76.5509 11.6024C76.9533 11.237 77.5042 11.0812 78.0385 11.1811Z" stroke="#69DDE8" stroke-width="5.21092"/>
</g>
<defs>
<filter id="filter0_d_1331_1767" x="13.1873" y="8.54596" width="123.631" height="195.358" filterUnits="userSpaceOnUse" color-interpolation-filters="sRGB">
<feFlood flood-opacity="0" result="BackgroundImageFix"/>
<feColorMatrix in="SourceAlpha" type="matrix" values="0 0 0 0 0 0 0 0 0 0 0 0 0 0 0 0 0 0 127 0" result="hardAlpha"/>
<feOffset dx="8.03011" dy="8.03011"/>
<feComposite in2="hardAlpha" operator="out"/>
<feColorMatrix type="matrix" values="0 0 0 0 0.0901961 0 0 0 0 0.741176 0 0 0 0 0.823529 0 0 0 1 0"/>
<feBlend mode="normal" in2="BackgroundImageFix" result="effect1_dropShadow_1331_1767"/>
<feBlend mode="normal" in="SourceGraphic" in2="effect1_dropShadow_1331_1767" result="shape"/>
</filter>
</defs>
</svg>
