<svg width="187" height="222" viewBox="0 0 187 222" fill="none" xmlns="http://www.w3.org/2000/svg">
<g clip-path="url(#clip0_1378_293)">
<path d="M-29 280V-8.86396L257 -12V280H-29Z" fill="url(#paint0_linear_1378_293)"/>
<path d="M-9.4082 138C11.0935 138 28.3214 151.995 33.2188 170.939C33.38 171.563 33.9454 172 34.5898 172C51.1597 172 64.7545 182.029 66.7461 195.111C66.9401 196.386 68.362 197.205 69.585 196.796C71.1294 196.28 72.7821 196 74.5 196H75.5C84.0602 196 91 202.94 91 211.5C91 211.628 90.9984 211.756 90.9953 211.883C90.9677 212.998 91.81 214 92.9254 214H123.5C135.926 214 146 224.074 146 236.5C146 236.97 145.985 237.436 145.957 237.898C145.889 239.007 146.732 240 147.844 240H266C280.359 240 292 251.641 292 266C292 280.359 280.359 292 266 292H-23C-37.3594 292 -49 280.359 -49 266C-49 264.403 -48.8557 262.84 -48.5798 261.323C-48.3655 260.144 -49.2322 259 -50.4302 259H-172.5C-184.926 259 -195 248.926 -195 236.5C-195 224.074 -184.926 214 -172.5 214H-108.04C-106.631 214 -105.749 212.454 -106.38 211.194C-109.161 205.633 -110.732 199.323 -110.732 192.634C-110.732 170.249 -93.1489 152.102 -71.459 152.102C-63.2535 152.102 -55.6371 154.701 -49.3369 159.143C-48.4807 159.746 -47.2773 159.508 -46.7197 158.621C-38.9336 146.235 -25.1342 138 -9.4082 138Z" fill="white" fill-opacity="0.74"/>
<path d="M153.924 130.055L163.5 247L157 241.5L149.609 135.167C151.124 133.564 152.527 131.859 153.808 130.064L153.924 130.055Z" fill="#C5E6E8"/>
<path d="M157.291 124.377C156.29 126.366 155.125 128.268 153.809 130.064L149.356 130.326L149.169 130.246C150.259 127.765 150.985 125.138 151.324 122.449C155.581 123.509 157.291 124.377 157.291 124.377Z" fill="#C5E6E8"/>
<path d="M149.351 130.329L153.804 130.066C152.523 131.862 151.12 133.567 149.605 135.169L149.351 130.329Z" fill="#C5E6E8"/>
<path d="M151.546 116.753V118.878C151.547 120.069 151.471 121.258 151.319 122.44C149.814 122.066 147.989 121.665 145.811 121.273V115.484C148.095 115.939 149.997 116.357 151.546 116.753Z" fill="#DAF4F7"/>
<path d="M82.4682 113.946C77.855 114.391 74.0478 114.943 70.953 115.491C68.6597 115.896 66.7538 116.319 65.1953 116.706V92.7986C65.1953 76.1669 86.7831 67.359 103.767 66.7891H113.033C130.003 67.3635 151.547 76.1714 151.547 92.7986V116.755C149.997 116.359 148.096 115.94 145.811 115.517C142.721 114.965 138.914 114.413 134.296 113.954C130.907 113.625 127.082 113.34 122.781 113.14C118.479 112.939 113.701 112.823 108.402 112.823C103.103 112.823 98.2984 112.939 93.988 113.14C89.6775 113.34 85.8525 113.62 82.4682 113.946Z" fill="#E9FCFF"/>
<path d="M149.351 130.326L149.609 135.167C145.878 139.13 140.757 143.182 134.158 145.475V145.07C140.865 142.215 146.235 136.915 149.177 130.246L149.351 130.326Z" fill="#C5E6E8"/>
<path d="M151.319 122.447C150.98 125.136 150.254 127.763 149.164 130.244C146.222 136.913 140.852 142.213 134.144 145.068L133.615 130.048L129.032 130.186L129.433 146.6C127.714 146.991 125.963 147.222 124.201 147.29H124.09C123.765 147.29 123.435 147.29 123.106 147.29H93.6183C93.2844 147.29 92.9459 147.29 92.6164 147.29L92.0732 147.263C90.5554 147.186 89.0466 146.984 87.5624 146.658L87.9721 130.182L83.39 130.044L82.8556 145.184C76.0906 142.382 70.6532 137.099 67.6578 130.418V130.324H67.6133C66.4959 127.809 65.7562 125.143 65.418 122.412C66.9364 122.042 68.7666 121.641 70.9485 121.254C74.0433 120.702 77.8506 120.158 82.4638 119.713C85.848 119.379 89.682 119.099 93.9835 118.898C98.285 118.698 103.085 118.582 108.398 118.582C113.71 118.582 118.475 118.698 122.776 118.898C127.078 119.099 130.903 119.384 134.291 119.713C138.909 120.158 142.716 120.724 145.807 121.285C147.989 121.672 149.814 122.073 151.319 122.447Z" fill="#C5E6E8"/>
<path d="M145.811 115.522V121.28C142.721 120.719 138.914 120.167 134.296 119.708V113.941C138.914 114.387 142.721 114.952 145.811 115.504V115.522Z" fill="#DAF4F7"/>
<path d="M134.158 145.473L139 230H132L129.433 146.719C131.037 146.423 132.616 146.006 134.158 145.473Z" fill="#C5E6E8"/>
<path d="M134.296 113.943V119.732C130.907 119.402 127.082 119.117 122.781 118.917V113.137C127.082 113.337 130.907 113.622 134.296 113.943Z" fill="#DAF4F7"/>
<path d="M134.144 145.07V145.476C132.606 146.009 131.03 146.425 129.429 146.722V146.602C131.043 146.231 132.621 145.719 134.144 145.07V145.07Z" fill="#A7C6C5"/>
<path d="M133.615 130.051L134.144 145.07C132.622 145.719 131.046 146.231 129.433 146.602L129.032 130.189L133.615 130.051Z" fill="#C5E6E8"/>
<path d="M122.781 113.136V118.894C118.479 118.694 113.701 118.578 108.402 118.578V112.82C113.701 112.82 118.479 112.936 122.781 113.136Z" fill="#DAF4F7"/>
<path d="M113.033 63.5827V66.7888C112.441 66.7888 111.844 66.7577 111.252 66.7577H105.494C104.915 66.7577 104.341 66.7577 103.753 66.7888V63.5827C103.754 62.8973 104.027 62.2404 104.513 61.7562C104.998 61.272 105.655 61 106.34 61H110.437C110.777 60.9983 111.115 61.0638 111.429 61.1928C111.744 61.3218 112.031 61.5117 112.272 61.7517C112.513 61.9917 112.705 62.2771 112.835 62.5913C112.966 62.9055 113.033 63.2424 113.033 63.5827V63.5827Z" fill="#DAF4F7"/>
<path d="M108.402 112.82V118.578C103.09 118.578 98.2985 118.694 93.988 118.894V113.136C98.2985 112.936 103.09 112.82 108.402 112.82Z" fill="#DAF4F7"/>
<path d="M93.988 113.137V118.894C89.6864 119.095 85.8525 119.375 82.4683 119.709V113.943C85.8525 113.618 89.6864 113.337 93.988 113.137Z" fill="#DAF4F7"/>
<path d="M87.9809 130.19L87.5712 146.666C85.9611 146.313 84.3859 145.817 82.8645 145.183L83.3988 130.043L87.9809 130.19Z" fill="#E9FCFF"/>
<path d="M87.5758 146.66V146.696C85.9717 146.373 84.3951 145.927 82.8601 145.36V145.195C84.385 145.824 85.9632 146.314 87.5758 146.66V146.66Z" fill="#E9FCFF"/>
<path d="M87.5757 146.694L85.2958 224.5L79.5336 225L82.8601 145.34C84.3945 145.912 85.9711 146.365 87.5757 146.694Z" fill="#E9FCFF"/>
<path d="M82.8646 145.179V145.344C76.5058 142.975 71.287 138.82 67.4263 134.839L67.6667 130.422C70.664 137.1 76.1011 142.379 82.8646 145.179V145.179Z" fill="#C5E6E8"/>
<path d="M82.4681 119.706C77.8549 120.152 74.0477 120.695 70.9529 121.247V115.498C74.0477 114.951 77.8549 114.398 82.4681 113.953V119.706Z" fill="#DAF4F7"/>
<path d="M70.953 115.496V121.249C68.7711 121.637 66.9453 122.037 65.4224 122.407C65.2703 121.235 65.1944 120.054 65.1953 118.871V116.707C66.7539 116.324 68.6598 115.901 70.953 115.496Z" fill="#DAF4F7"/>
<path d="M67.6178 130.325L67.6578 130.418L67.4174 134.835C65.9516 133.321 64.5678 131.729 63.2717 130.066L67.6178 130.325Z" fill="#C5E6E8"/>
<path d="M67.6179 130.323L63.2719 130.065C61.8297 128.251 60.5201 126.336 59.3533 124.334C59.3533 124.334 61.0988 123.47 65.4226 122.41C65.7608 125.141 66.5006 127.808 67.6179 130.323Z" fill="#C5E6E8"/>
<path d="M67 134.406L61.5386 231L56 230.684L62.8257 130H63C64.2497 131.536 65.586 133.007 67 134.406Z" fill="#E9FCFF"/>
<path d="M85.692 129.086C86.9522 129.086 87.9808 129.531 87.9808 130.11C87.9808 130.689 86.9522 131.13 85.692 131.13C84.4318 131.13 83.3943 130.685 83.3943 130.11C83.3943 129.536 84.4229 129.086 85.692 129.086Z" fill="#E9FCFF"/>
<path d="M131.326 131.071C132.59 131.071 133.614 130.614 133.614 130.051C133.614 129.488 132.59 129.031 131.326 129.031C130.062 129.031 129.037 129.488 129.037 130.051C129.037 130.614 130.062 131.071 131.326 131.071Z" fill="#C5E6E8"/>
<path d="M100.037 92.2066V87.8944L91 96.94L93.135 99.1214L100.037 92.2066ZM120.63 89.5114C119.96 86.1425 117.429 83.6158 117.139 83.3168L110.927 77L107.377 80.55L107.125 80.8027V85.115L110.915 81.3249L114.448 84.917L114.987 85.4645L115.025 85.5024C115.025 85.5024 115.261 85.734 115.585 86.1214C116.579 87.2643 117.286 88.629 117.644 90.101C118.15 92.6277 118.402 95.605 115.585 99.2182V103.674C115.85 103.442 116.006 103.278 116.078 103.219C118.604 100.743 120.116 98.2412 120.71 95.5671C121.121 93.5666 121.095 91.501 120.634 89.5114H120.63ZM101.814 102.823L101.722 102.777H101.675C101.4 102.633 101.138 102.465 100.892 102.276C100.66 102.111 100.378 101.892 100.05 101.61C99.5361 101.189 98.8959 100.616 98.1169 99.8541L96.3693 98.0686L94.2131 100.225L95.9524 101.998V102.023C98.6433 104.651 100.025 105.392 100.534 105.607C102.148 106.401 103.896 106.886 105.689 107.034C106.512 107.098 107.34 107.082 108.161 106.984L108.358 106.963V103.872C106.122 104.226 103.832 103.858 101.819 102.823H101.814Z" fill="url(#paint1_linear_1378_293)"/>
<path d="M105.572 82.1601V100.571H101.533V86.2028L101.938 85.7985L102.157 85.5795L103.378 84.3583L104.203 83.5329L104.473 83.2634L105.302 82.4338L105.572 82.1601Z" fill="url(#paint2_linear_1378_293)"/>
<path d="M114.028 86.2734V104.643L113.978 104.681C113.792 104.798 113.594 104.921 113.384 105.038C113.316 105.081 113.245 105.118 113.173 105.156C112.988 105.262 112.79 105.367 112.588 105.468C112.386 105.569 112.205 105.653 112.003 105.742L111.67 105.885L111.215 106.062L110.844 106.192C110.592 106.277 110.331 106.357 110.061 106.428L109.863 106.479V86.2734H114.028Z" fill="url(#paint3_linear_1378_293)"/>
<path d="M109.863 91.1289H105.572V95.298H109.863V91.1289Z" fill="url(#paint4_linear_1378_293)"/>
<path d="M138.817 57.2972C136.795 57.1629 136.031 54.5853 137.653 53.3709L140.745 51.0574C141.255 50.6756 141.573 50.09 141.615 49.4542L141.871 45.6017C142.005 43.5794 144.583 42.8156 145.797 44.4382L148.111 47.5294C148.492 48.0395 149.078 48.3574 149.714 48.3996L153.566 48.6555C155.589 48.7898 156.352 51.3675 154.73 52.5818L151.639 54.8953C151.128 55.2771 150.811 55.8627 150.768 56.4985L150.512 60.3511C150.378 62.3733 147.801 63.1371 146.586 61.5145L144.273 58.4234C143.891 57.9132 143.305 57.5954 142.669 57.5531L138.817 57.2972Z" fill="white"/>
<path d="M156.169 36.0426C155.136 35.3105 155.571 33.6875 156.832 33.5703L157.279 33.5288C157.676 33.492 158.036 33.2837 158.266 32.9588L158.526 32.5922C159.258 31.5584 160.881 31.9933 160.998 33.2546L161.04 33.7019C161.077 34.0984 161.285 34.4591 161.61 34.6892L161.976 34.9488C163.01 35.6809 162.575 37.3039 161.314 37.4211L160.867 37.4626C160.47 37.4994 160.11 37.7077 159.879 38.0327L159.62 38.3992C158.888 39.433 157.265 38.9981 157.148 37.7368L157.106 37.2895C157.069 36.893 156.861 36.5323 156.536 36.3022L156.169 36.0426Z" fill="white"/>
</g>
<path fill-rule="evenodd" clip-rule="evenodd" d="M186.5 220.97H0L6.5 0L186.5 2.09082V220.97ZM30.9033 2.09082C19.3116 1.23918 9.4375 10.4142 9.4375 22.0371V201.269C9.4375 213.691 20.6445 223.109 32.8818 220.97L164.656 197.935C174.228 196.261 181.212 187.95 181.212 178.233V31.7188C181.212 21.2417 173.127 12.5402 162.678 11.7725L30.9033 2.09082Z" fill="#FAFAFA"/>
<defs>
<linearGradient id="paint0_linear_1378_293" x1="14.5825" y1="257.997" x2="186.795" y2="35.2475" gradientUnits="userSpaceOnUse">
<stop stop-color="#4BD8EA"/>
<stop offset="1" stop-color="#9EE7E5"/>
</linearGradient>
<linearGradient id="paint1_linear_1378_293" x1="106" y1="77" x2="106" y2="107.072" gradientUnits="userSpaceOnUse">
<stop stop-color="#9EE7E5"/>
<stop offset="1" stop-color="#9EE7E5"/>
</linearGradient>
<linearGradient id="paint2_linear_1378_293" x1="103.553" y1="82.1601" x2="103.553" y2="100.571" gradientUnits="userSpaceOnUse">
<stop stop-color="#9EE7E5"/>
<stop offset="1" stop-color="#9EE7E5"/>
</linearGradient>
<linearGradient id="paint3_linear_1378_293" x1="111.946" y1="86.2734" x2="111.946" y2="106.479" gradientUnits="userSpaceOnUse">
<stop stop-color="#9EE7E5"/>
<stop offset="1" stop-color="#9EE7E5"/>
</linearGradient>
<linearGradient id="paint4_linear_1378_293" x1="107.718" y1="91.1289" x2="107.718" y2="95.298" gradientUnits="userSpaceOnUse">
<stop stop-color="#9EE7E5"/>
<stop offset="1" stop-color="#9EE7E5"/>
</linearGradient>
<clipPath id="clip0_1378_293">
<rect width="174" height="219" fill="white" transform="translate(8 2)"/>
</clipPath>
</defs>
</svg>
