<svg width="123" height="123" viewBox="0 0 123 123" fill="none" xmlns="http://www.w3.org/2000/svg">
<path fill-rule="evenodd" clip-rule="evenodd" d="M71.0054 24.3605C71.404 21.5784 71.2581 18.6655 70.4825 15.7707C67.4537 4.46721 55.9717 -2.27742 44.8369 0.706153C33.7023 3.68967 27.131 15.2716 30.1597 26.5752C30.9354 29.4699 32.2654 32.0656 34.0019 34.2755C28.9652 30.1365 22.1271 28.4001 15.4151 30.1986C4.28023 33.1822 -2.29098 44.7642 0.737786 56.0677C3.44282 66.163 12.8905 72.622 22.8117 71.7619C13.7897 75.9776 8.83722 86.2952 11.5423 96.3906C14.5709 107.694 26.0528 114.439 37.1876 111.455C43.8997 109.656 48.9535 104.734 51.2459 98.631C50.847 101.413 50.993 104.326 51.7687 107.221C54.7974 118.524 66.2793 125.269 77.414 122.285C88.5488 119.302 95.1201 107.72 92.0914 96.4165C91.3158 93.5217 89.9856 90.926 88.2494 88.716C93.2859 92.855 100.124 94.5913 106.836 92.7927C117.971 89.8091 124.542 78.227 121.514 66.9238C118.809 56.8285 109.36 50.3695 99.4393 51.2296C108.461 47.0139 113.414 36.6963 110.709 26.6009C107.68 15.2974 96.1985 8.55274 85.0637 11.5363C78.3513 13.3349 73.2976 18.2577 71.0054 24.3605ZM85.0328 85.4288C83.2965 83.2188 81.9664 80.6231 81.1907 77.7283C78.4857 67.633 83.438 57.3154 92.46 53.0997C82.5388 53.9598 73.0913 47.5008 70.3863 37.4055C69.6106 34.5107 69.4647 31.5977 69.8634 28.8157C67.5711 34.9185 62.5175 39.8413 55.8051 41.6399C49.0932 43.4383 42.2551 41.7019 37.2184 37.5629C38.9549 39.7728 40.2849 42.3685 41.0606 45.2632C43.7656 55.3586 38.8131 65.6761 29.7911 69.8918C39.7123 69.0317 49.16 75.4908 51.865 85.5861C52.6407 88.4809 52.7868 91.3939 52.3878 94.176C54.6802 88.0732 59.7339 83.1499 66.4458 81.3515C73.1581 79.5529 79.9963 81.2898 85.0328 85.4288Z" fill="#FFEEC9"/>
</svg>
