<svg width="150" height="194" viewBox="0 0 150 194" fill="none" xmlns="http://www.w3.org/2000/svg">
<g filter="url(#filter0_d_1331_1787)">
<mask id="path-1-inside-1_1331_1787" fill="white">
<path d="M62.0827 8.81404C96.3697 3.9467 129.761 39.4227 136.664 88.0514C143.568 136.68 121.37 180.047 87.0828 184.915C52.7957 189.782 19.4039 154.307 12.5002 105.678C5.59665 57.0495 27.7956 13.6816 62.0827 8.81404ZM67.1328 44.4147C53.078 46.41 45.0178 71.511 49.1302 100.479C53.2427 129.447 67.9707 151.314 82.0255 149.319C96.0803 147.323 104.14 122.222 100.027 93.2536C95.9145 64.2855 81.1876 42.4195 67.1328 44.4147Z"/>
</mask>
<path d="M62.0827 8.81404C96.3697 3.9467 129.761 39.4227 136.664 88.0514C143.568 136.68 121.37 180.047 87.0828 184.915C52.7957 189.782 19.4039 154.307 12.5002 105.678C5.59665 57.0495 27.7956 13.6816 62.0827 8.81404ZM67.1328 44.4147C53.078 46.41 45.0178 71.511 49.1302 100.479C53.2427 129.447 67.9707 151.314 82.0255 149.319C96.0803 147.323 104.14 122.222 100.027 93.2536C95.9145 64.2855 81.1876 42.4195 67.1328 44.4147Z" fill="white"/>
<path d="M62.0827 8.81404L61.3503 3.65484L61.3503 3.65485L62.0827 8.81404ZM136.664 88.0514L141.824 87.3189L141.824 87.3189L136.664 88.0514ZM87.0828 184.915L87.8152 190.074L87.8153 190.074L87.0828 184.915ZM12.5002 105.678L7.34105 106.411L7.34105 106.411L12.5002 105.678ZM67.1328 44.4147L66.4004 39.2555L66.4004 39.2555L67.1328 44.4147ZM49.1302 100.479L43.971 101.212L43.971 101.212L49.1302 100.479ZM82.0255 149.319L82.758 154.478L82.758 154.478L82.0255 149.319ZM100.027 93.2536L105.186 92.5211L105.186 92.5211L100.027 93.2536ZM62.0827 8.81404L62.8151 13.9732C77.8299 11.8418 93.1602 18.4634 105.848 31.9432C118.524 45.4105 128.186 65.4062 131.505 88.7838L136.664 88.0514L141.824 87.3189C138.239 62.0679 127.754 40.0112 113.437 24.8002C99.1313 9.60161 80.6226 0.918981 61.3503 3.65484L62.0827 8.81404ZM136.664 88.0514L131.505 88.7838C134.824 112.161 131.108 134.056 122.681 150.519C114.247 166.997 101.365 177.624 86.3504 179.755L87.0828 184.915L87.8153 190.074C107.087 187.338 122.448 173.847 131.959 155.268C141.477 136.673 145.408 112.57 141.824 87.3189L136.664 88.0514ZM87.0828 184.915L86.3504 179.755C71.3355 181.887 56.005 175.265 43.3171 161.786C30.641 148.319 20.9783 128.324 17.6594 104.946L12.5002 105.678L7.34105 106.411C10.9258 131.662 21.4108 153.718 35.7283 168.929C50.0341 184.127 68.543 192.81 87.8152 190.074L87.0828 184.915ZM12.5002 105.678L17.6594 104.946C14.3406 81.5682 18.0564 59.6732 26.4835 43.2101C34.9184 26.7316 47.8003 16.1048 62.8151 13.9732L62.0827 8.81404L61.3503 3.65485C42.078 6.39084 26.7169 19.8818 17.2064 38.4614C7.68815 57.0562 3.75627 81.1596 7.34105 106.411L12.5002 105.678ZM67.1328 44.4147L66.4004 39.2555C56.2842 40.6916 49.783 50.0708 46.3574 60.7389C42.8101 71.7859 41.8287 86.1213 43.971 101.212L49.1302 100.479L54.2894 99.7467C52.3192 85.8688 53.3118 73.1696 56.2802 63.9252C59.3703 54.3019 63.9266 50.133 67.8652 49.5739L67.1328 44.4147ZM49.1302 100.479L43.971 101.212C46.1133 116.302 51.0457 129.798 57.5275 139.421C63.7869 148.715 72.6417 155.914 82.758 154.478L82.0255 149.319L81.2931 144.16C77.3545 144.719 71.8179 141.983 66.1715 133.599C60.7474 125.546 56.2596 113.625 54.2894 99.7467L49.1302 100.479ZM82.0255 149.319L82.758 154.478C92.8743 153.042 99.3752 143.662 102.8 132.994C106.347 121.947 107.329 107.611 105.186 92.5211L100.027 93.2536L94.8679 93.986C96.8381 107.864 95.8458 120.563 92.8776 129.808C89.7877 139.432 85.2316 143.601 81.2931 144.16L82.0255 149.319ZM100.027 93.2536L105.186 92.5211C103.044 77.431 98.1118 63.9352 91.6303 54.3119C85.3711 45.0187 76.5166 37.8194 66.4004 39.2555L67.1328 44.4147L67.8652 49.5739C71.8038 49.0148 77.3401 51.7508 82.9862 60.1339C88.4101 68.1868 92.8977 80.1081 94.8679 93.986L100.027 93.2536Z" fill="#FFC0C1" mask="url(#path-1-inside-1_1331_1787)"/>
<mask id="mask0_1331_1787" style="mask-type:alpha" maskUnits="userSpaceOnUse" x="11" y="8" width="127" height="178">
<mask id="path-3-inside-2_1331_1787" fill="white">
<path d="M62.0827 8.81337C96.3697 3.94603 129.761 39.422 136.664 88.0507C143.568 136.679 121.37 180.046 87.0828 184.914C52.7957 189.781 19.4039 154.306 12.5002 105.678C5.59665 57.0488 27.7956 13.6809 62.0827 8.81337ZM67.1328 44.414C53.078 46.4093 45.0178 71.5103 49.1302 100.478C53.2427 129.447 67.9707 151.313 82.0255 149.318C96.0803 147.323 104.14 122.221 100.027 93.2529C95.9145 64.2848 81.1876 42.4188 67.1328 44.414Z"/>
</mask>
<path d="M62.0827 8.81337C96.3697 3.94603 129.761 39.422 136.664 88.0507C143.568 136.679 121.37 180.046 87.0828 184.914C52.7957 189.781 19.4039 154.306 12.5002 105.678C5.59665 57.0488 27.7956 13.6809 62.0827 8.81337ZM67.1328 44.414C53.078 46.4093 45.0178 71.5103 49.1302 100.478C53.2427 129.447 67.9707 151.313 82.0255 149.318C96.0803 147.323 104.14 122.221 100.027 93.2529C95.9145 64.2848 81.1876 42.4188 67.1328 44.414Z" fill="white"/>
<path d="M62.0827 8.81337L61.3503 3.65417L61.3503 3.65418L62.0827 8.81337ZM136.664 88.0507L141.824 87.3183L141.824 87.3183L136.664 88.0507ZM87.0828 184.914L87.8152 190.073L87.8153 190.073L87.0828 184.914ZM12.5002 105.678L7.34105 106.41L7.34105 106.41L12.5002 105.678ZM67.1328 44.414L66.4004 39.2548L66.4004 39.2548L67.1328 44.414ZM49.1302 100.478L43.971 101.211L43.971 101.211L49.1302 100.478ZM82.0255 149.318L82.758 154.477L82.758 154.477L82.0255 149.318ZM100.027 93.2529L105.186 92.5205L105.186 92.5205L100.027 93.2529ZM62.0827 8.81337L62.8151 13.9726C77.8299 11.8411 93.1602 18.4628 105.848 31.9425C118.524 45.4098 128.186 65.4055 131.505 88.7831L136.664 88.0507L141.824 87.3183C138.239 62.0672 127.754 40.0106 113.437 24.7995C99.1313 9.60094 80.6226 0.918309 61.3503 3.65417L62.0827 8.81337ZM136.664 88.0507L131.505 88.7831C134.824 112.161 131.108 134.055 122.681 150.518C114.247 166.996 101.365 177.623 86.3504 179.755L87.0828 184.914L87.8153 190.073C107.087 187.337 122.448 173.846 131.959 155.267C141.477 136.672 145.408 112.569 141.824 87.3183L136.664 88.0507ZM87.0828 184.914L86.3504 179.755C71.3355 181.886 56.005 175.265 43.3171 161.785C30.641 148.318 20.9783 128.323 17.6594 104.945L12.5002 105.678L7.34105 106.41C10.9258 131.661 21.4108 153.718 35.7283 168.928C50.0341 184.127 68.543 192.809 87.8152 190.073L87.0828 184.914ZM12.5002 105.678L17.6594 104.945C14.3406 81.5676 18.0564 59.6726 26.4835 43.2094C34.9184 26.731 47.8003 16.1041 62.8151 13.9726L62.0827 8.81337L61.3503 3.65418C42.078 6.39016 26.7169 19.8811 17.2064 38.4607C7.68815 57.0556 3.75627 81.1589 7.34105 106.41L12.5002 105.678ZM67.1328 44.414L66.4004 39.2548C56.2842 40.6909 49.783 50.0702 46.3574 60.7382C42.8101 71.7853 41.8287 86.1206 43.971 101.211L49.1302 100.478L54.2894 99.7461C52.3192 85.8682 53.3118 73.1689 56.2802 63.9245C59.3703 54.3013 63.9266 50.1323 67.8652 49.5732L67.1328 44.414ZM49.1302 100.478L43.971 101.211C46.1133 116.301 51.0457 129.797 57.5275 139.421C63.7869 148.714 72.6417 155.914 82.758 154.477L82.0255 149.318L81.2931 144.159C77.3545 144.718 71.8179 141.982 66.1715 133.599C60.7474 125.546 56.2596 113.624 54.2894 99.7461L49.1302 100.478ZM82.0255 149.318L82.758 154.477C92.8743 153.041 99.3752 143.662 102.8 132.993C106.347 121.946 107.329 107.611 105.186 92.5205L100.027 93.2529L94.8679 93.9853C96.8381 107.863 95.8458 120.563 92.8776 129.807C89.7877 139.431 85.2316 143.6 81.2931 144.159L82.0255 149.318ZM100.027 93.2529L105.186 92.5205C103.044 77.4303 98.1118 63.9345 91.6303 54.3112C85.3711 45.0181 76.5166 37.8187 66.4004 39.2548L67.1328 44.414L67.8652 49.5732C71.8038 49.0141 77.3401 51.7502 82.9862 60.1332C88.4101 68.1862 92.8977 80.1074 94.8679 93.9853L100.027 93.2529Z" fill="#FFC0C1" mask="url(#path-3-inside-2_1331_1787)"/>
</mask>
<g mask="url(#mask0_1331_1787)">
<ellipse cx="10.477" cy="124.431" rx="8.51118" ry="8.77172" transform="rotate(-31.2889 10.477 124.431)" fill="#A1DC3C"/>
<ellipse cx="34.2265" cy="109.997" rx="8.51118" ry="8.77172" transform="rotate(-31.2889 34.2265 109.997)" fill="#9EE7E5"/>
<ellipse cx="4.75996" cy="98.6333" rx="8.51118" ry="8.77172" transform="rotate(-31.2889 4.75996 98.6333)" fill="#FFDB40"/>
<ellipse cx="8.24605" cy="67.2477" rx="8.51118" ry="8.77172" transform="rotate(-31.2889 8.24605 67.2477)" fill="#9EE7E5"/>
<ellipse cx="127.075" cy="82.8375" rx="8.51118" ry="8.77172" transform="rotate(-31.2889 127.075 82.8375)" fill="#A1DC3C"/>
<ellipse cx="146.524" cy="129.557" rx="8.51118" ry="8.77172" transform="rotate(-31.2889 146.524 129.557)" fill="#A1DC3C"/>
<ellipse cx="56.5682" cy="125.686" rx="8.51118" ry="8.77172" transform="rotate(-31.2889 56.5682 125.686)" fill="#A1DC3C"/>
<ellipse cx="80.3178" cy="111.257" rx="8.51118" ry="8.77172" transform="rotate(-31.2889 80.3178 111.257)" fill="#9EE7E5"/>
<ellipse cx="104.067" cy="96.8229" rx="8.51118" ry="8.77172" transform="rotate(-31.2889 104.067 96.8229)" fill="#FFDB40"/>
<ellipse cx="105.484" cy="183.769" rx="8.51118" ry="8.77172" transform="rotate(-31.2889 105.484 183.769)" fill="#FFDB40"/>
<ellipse cx="129.234" cy="169.336" rx="8.51118" ry="8.77172" transform="rotate(-31.2889 129.234 169.336)" fill="#A1DC3C"/>
<ellipse cx="76.0177" cy="172.405" rx="8.51118" ry="8.77172" transform="rotate(-31.2889 76.0177 172.405)" fill="#A1DC3C"/>
<ellipse cx="99.7673" cy="157.972" rx="8.51118" ry="8.77172" transform="rotate(-31.2889 99.7673 157.972)" fill="#9EE7E5"/>
<ellipse cx="123.517" cy="143.538" rx="8.51118" ry="8.77172" transform="rotate(-31.2889 123.517 143.538)" fill="#FFDB40"/>
<ellipse cx="79.5036" cy="141.02" rx="8.51118" ry="8.77172" transform="rotate(-31.2889 79.5036 141.02)" fill="#FFDB40"/>
<ellipse cx="103.253" cy="126.586" rx="8.51118" ry="8.77172" transform="rotate(-31.2889 103.253 126.586)" fill="#A1DC3C"/>
<ellipse cx="127.003" cy="112.153" rx="8.51118" ry="8.77172" transform="rotate(-31.2889 127.003 112.153)" fill="#9EE7E5"/>
<ellipse cx="11.7408" cy="152.931" rx="8.51118" ry="8.77172" transform="rotate(-31.2889 11.7408 152.931)" fill="#9EE7E5"/>
<ellipse cx="35.4904" cy="138.497" rx="8.51118" ry="8.77172" transform="rotate(-31.2889 35.4904 138.497)" fill="#FFDB40"/>
<ellipse cx="84.4064" cy="196.576" rx="8.51118" ry="8.77172" transform="rotate(-31.2889 84.4064 196.576)" fill="#9EE7E5"/>
<ellipse cx="54.9399" cy="185.217" rx="8.51118" ry="8.77172" transform="rotate(-31.2889 54.9399 185.217)" fill="#FFDB40"/>
<ellipse cx="10.9267" cy="182.694" rx="8.51118" ry="8.77172" transform="rotate(-31.2889 10.9267 182.694)" fill="#FFDB40"/>
<ellipse cx="34.6763" cy="168.26" rx="8.51118" ry="8.77172" transform="rotate(-31.2889 34.6763 168.26)" fill="#A1DC3C"/>
<ellipse cx="58.4259" cy="153.827" rx="8.51118" ry="8.77172" transform="rotate(-31.2889 58.4259 153.827)" fill="#9EE7E5"/>
<ellipse cx="128.483" cy="52.7111" rx="8.51118" ry="8.77172" transform="rotate(-31.2889 128.483 52.7111)" fill="#FFDB40"/>
<ellipse cx="99.0162" cy="41.3516" rx="8.51118" ry="8.77172" transform="rotate(-31.2889 99.0162 41.3516)" fill="#A1DC3C"/>
<ellipse cx="122.766" cy="26.918" rx="8.51118" ry="8.77172" transform="rotate(-31.2889 122.766 26.918)" fill="#9EE7E5"/>
<ellipse cx="146.515" cy="12.4844" rx="8.51118" ry="8.77172" transform="rotate(-31.2889 146.515 12.4844)" fill="#FFDB40"/>
<ellipse cx="102.502" cy="9.96149" rx="8.51118" ry="8.77172" transform="rotate(-31.2889 102.502 9.96149)" fill="#FFDB40"/>
<ellipse cx="8.31794" cy="37.9325" rx="8.51118" ry="8.77172" transform="rotate(-31.2889 8.31794 37.9325)" fill="#A1DC3C"/>
<ellipse cx="32.0675" cy="23.4989" rx="8.51118" ry="8.77172" transform="rotate(-31.2889 32.0675 23.4989)" fill="#9EE7E5"/>
<ellipse cx="55.8171" cy="9.06531" rx="8.51118" ry="8.77172" transform="rotate(-31.2889 55.8171 9.06531)" fill="#FFDB40"/>
<ellipse cx="57.234" cy="96.0118" rx="8.51118" ry="8.77172" transform="rotate(-31.2889 57.234 96.0118)" fill="#FFDB40"/>
<ellipse cx="80.9835" cy="81.5782" rx="8.51118" ry="8.77172" transform="rotate(-31.2889 80.9835 81.5782)" fill="#A1DC3C"/>
<ellipse cx="104.733" cy="67.1447" rx="8.51118" ry="8.77172" transform="rotate(-31.2889 104.733 67.1447)" fill="#9EE7E5"/>
<ellipse cx="27.7674" cy="84.6523" rx="8.51118" ry="8.77172" transform="rotate(-31.2889 27.7674 84.6523)" fill="#A1DC3C"/>
<ellipse cx="51.5169" cy="70.2187" rx="8.51118" ry="8.77172" transform="rotate(-31.2889 51.5169 70.2187)" fill="#9EE7E5"/>
<ellipse cx="75.2666" cy="55.7851" rx="8.51118" ry="8.77172" transform="rotate(-31.2889 75.2666 55.7851)" fill="#FFDB40"/>
<ellipse cx="31.2534" cy="53.2667" rx="8.51118" ry="8.77172" transform="rotate(-31.2889 31.2534 53.2667)" fill="#FFDB40"/>
<ellipse cx="55.003" cy="38.8332" rx="8.51118" ry="8.77172" transform="rotate(-31.2889 55.003 38.8332)" fill="#A1DC3C"/>
<ellipse cx="78.7525" cy="24.3951" rx="8.51118" ry="8.77172" transform="rotate(-31.2889 78.7525 24.3951)" fill="#9EE7E5"/>
</g>
<mask id="mask1_1331_1787" style="mask-type:alpha" maskUnits="userSpaceOnUse" x="11" y="8" width="127" height="178">
<mask id="path-46-inside-3_1331_1787" fill="white">
<path d="M62.0827 8.81337C96.3697 3.94603 129.761 39.422 136.664 88.0507C143.568 136.679 121.37 180.046 87.0828 184.914C52.7957 189.781 19.4039 154.306 12.5002 105.678C5.59665 57.0488 27.7956 13.6809 62.0827 8.81337ZM67.1328 44.414C53.078 46.4093 45.0178 71.5103 49.1302 100.478C53.2427 129.447 67.9707 151.313 82.0255 149.318C96.0803 147.323 104.14 122.221 100.027 93.2529C95.9145 64.2848 81.1876 42.4188 67.1328 44.414Z"/>
</mask>
<path d="M62.0827 8.81337C96.3697 3.94603 129.761 39.422 136.664 88.0507C143.568 136.679 121.37 180.046 87.0828 184.914C52.7957 189.781 19.4039 154.306 12.5002 105.678C5.59665 57.0488 27.7956 13.6809 62.0827 8.81337ZM67.1328 44.414C53.078 46.4093 45.0178 71.5103 49.1302 100.478C53.2427 129.447 67.9707 151.313 82.0255 149.318C96.0803 147.323 104.14 122.221 100.027 93.2529C95.9145 64.2848 81.1876 42.4188 67.1328 44.414Z" fill="white"/>
<path d="M62.0827 8.81337L61.3503 3.65417L61.3503 3.65418L62.0827 8.81337ZM136.664 88.0507L141.824 87.3183L141.824 87.3183L136.664 88.0507ZM87.0828 184.914L87.8152 190.073L87.8153 190.073L87.0828 184.914ZM12.5002 105.678L7.34105 106.41L7.34105 106.41L12.5002 105.678ZM67.1328 44.414L66.4004 39.2548L66.4004 39.2548L67.1328 44.414ZM49.1302 100.478L43.971 101.211L43.971 101.211L49.1302 100.478ZM82.0255 149.318L82.758 154.477L82.758 154.477L82.0255 149.318ZM100.027 93.2529L105.186 92.5205L105.186 92.5205L100.027 93.2529ZM62.0827 8.81337L62.8151 13.9726C77.8299 11.8411 93.1602 18.4628 105.848 31.9425C118.524 45.4098 128.186 65.4055 131.505 88.7831L136.664 88.0507L141.824 87.3183C138.239 62.0672 127.754 40.0106 113.437 24.7995C99.1313 9.60094 80.6226 0.918309 61.3503 3.65417L62.0827 8.81337ZM136.664 88.0507L131.505 88.7831C134.824 112.161 131.108 134.055 122.681 150.518C114.247 166.996 101.365 177.623 86.3504 179.755L87.0828 184.914L87.8153 190.073C107.087 187.337 122.448 173.846 131.959 155.267C141.477 136.672 145.408 112.569 141.824 87.3183L136.664 88.0507ZM87.0828 184.914L86.3504 179.755C71.3355 181.886 56.005 175.265 43.3171 161.785C30.641 148.318 20.9783 128.323 17.6594 104.945L12.5002 105.678L7.34105 106.41C10.9258 131.661 21.4108 153.718 35.7283 168.928C50.0341 184.127 68.543 192.809 87.8152 190.073L87.0828 184.914ZM12.5002 105.678L17.6594 104.945C14.3406 81.5676 18.0564 59.6726 26.4835 43.2094C34.9184 26.731 47.8003 16.1041 62.8151 13.9726L62.0827 8.81337L61.3503 3.65418C42.078 6.39016 26.7169 19.8811 17.2064 38.4607C7.68815 57.0556 3.75627 81.1589 7.34105 106.41L12.5002 105.678ZM67.1328 44.414L66.4004 39.2548C56.2842 40.6909 49.783 50.0702 46.3574 60.7382C42.8101 71.7853 41.8287 86.1206 43.971 101.211L49.1302 100.478L54.2894 99.7461C52.3192 85.8682 53.3118 73.1689 56.2802 63.9245C59.3703 54.3013 63.9266 50.1323 67.8652 49.5732L67.1328 44.414ZM49.1302 100.478L43.971 101.211C46.1133 116.301 51.0457 129.797 57.5275 139.421C63.7869 148.714 72.6417 155.914 82.758 154.477L82.0255 149.318L81.2931 144.159C77.3545 144.718 71.8179 141.982 66.1715 133.599C60.7474 125.546 56.2596 113.624 54.2894 99.7461L49.1302 100.478ZM82.0255 149.318L82.758 154.477C92.8743 153.041 99.3752 143.662 102.8 132.993C106.347 121.946 107.329 107.611 105.186 92.5205L100.027 93.2529L94.8679 93.9853C96.8381 107.863 95.8458 120.563 92.8776 129.807C89.7877 139.431 85.2316 143.6 81.2931 144.159L82.0255 149.318ZM100.027 93.2529L105.186 92.5205C103.044 77.4303 98.1118 63.9345 91.6303 54.3112C85.3711 45.0181 76.5166 37.8187 66.4004 39.2548L67.1328 44.414L67.8652 49.5732C71.8038 49.0141 77.3401 51.7502 82.9862 60.1332C88.4101 68.1862 92.8977 80.1074 94.8679 93.9853L100.027 93.2529Z" fill="#FFC0C1" mask="url(#path-46-inside-3_1331_1787)"/>
</mask>
<g mask="url(#mask1_1331_1787)">
<ellipse cx="10.477" cy="124.431" rx="8.51118" ry="8.77172" transform="rotate(-31.2889 10.477 124.431)" fill="#FFC0C1"/>
<ellipse cx="34.2265" cy="109.997" rx="8.51118" ry="8.77172" transform="rotate(-31.2889 34.2265 109.997)" fill="#FFC0C1"/>
<ellipse cx="4.75996" cy="98.6333" rx="8.51118" ry="8.77172" transform="rotate(-31.2889 4.75996 98.6333)" fill="#FFC0C1"/>
<ellipse cx="8.24605" cy="67.2478" rx="8.51118" ry="8.77172" transform="rotate(-31.2889 8.24605 67.2478)" fill="#FFC0C1"/>
<ellipse cx="127.075" cy="82.8375" rx="8.51118" ry="8.77172" transform="rotate(-31.2889 127.075 82.8375)" fill="#FFC0C1"/>
<ellipse cx="146.524" cy="129.557" rx="8.51118" ry="8.77172" transform="rotate(-31.2889 146.524 129.557)" fill="#FFC0C1"/>
<ellipse cx="56.5682" cy="125.686" rx="8.51118" ry="8.77172" transform="rotate(-31.2889 56.5682 125.686)" fill="#FFC0C1"/>
<ellipse cx="80.3178" cy="111.257" rx="8.51118" ry="8.77172" transform="rotate(-31.2889 80.3178 111.257)" fill="#FFC0C1"/>
<ellipse cx="104.067" cy="96.8229" rx="8.51118" ry="8.77172" transform="rotate(-31.2889 104.067 96.8229)" fill="#FFC0C1"/>
<ellipse cx="105.484" cy="183.77" rx="8.51118" ry="8.77172" transform="rotate(-31.2889 105.484 183.77)" fill="#FFC0C1"/>
<ellipse cx="129.234" cy="169.336" rx="8.51118" ry="8.77172" transform="rotate(-31.2889 129.234 169.336)" fill="#FFC0C1"/>
<ellipse cx="76.0178" cy="172.405" rx="8.51118" ry="8.77172" transform="rotate(-31.2889 76.0178 172.405)" fill="#FFC0C1"/>
<ellipse cx="99.7673" cy="157.972" rx="8.51118" ry="8.77172" transform="rotate(-31.2889 99.7673 157.972)" fill="#FFC0C1"/>
<ellipse cx="123.517" cy="143.538" rx="8.51118" ry="8.77172" transform="rotate(-31.2889 123.517 143.538)" fill="#FFC0C1"/>
<ellipse cx="79.5037" cy="141.02" rx="8.51118" ry="8.77172" transform="rotate(-31.2889 79.5037 141.02)" fill="#FFC0C1"/>
<ellipse cx="103.253" cy="126.586" rx="8.51118" ry="8.77172" transform="rotate(-31.2889 103.253 126.586)" fill="#FFC0C1"/>
<ellipse cx="127.003" cy="112.153" rx="8.51118" ry="8.77172" transform="rotate(-31.2889 127.003 112.153)" fill="#FFC0C1"/>
<ellipse cx="11.7409" cy="152.931" rx="8.51118" ry="8.77172" transform="rotate(-31.2889 11.7409 152.931)" fill="#FFC0C1"/>
<ellipse cx="35.4906" cy="138.497" rx="8.51118" ry="8.77172" transform="rotate(-31.2889 35.4906 138.497)" fill="#FFC0C1"/>
<ellipse cx="84.4066" cy="196.576" rx="8.51118" ry="8.77172" transform="rotate(-31.2889 84.4066 196.576)" fill="#FFC0C1"/>
<ellipse cx="54.94" cy="185.217" rx="8.51118" ry="8.77172" transform="rotate(-31.2889 54.94 185.217)" fill="#FFC0C1"/>
<ellipse cx="10.9268" cy="182.694" rx="8.51118" ry="8.77172" transform="rotate(-31.2889 10.9268 182.694)" fill="#FFC0C1"/>
<ellipse cx="34.6763" cy="168.26" rx="8.51118" ry="8.77172" transform="rotate(-31.2889 34.6763 168.26)" fill="#FFC0C1"/>
<ellipse cx="58.426" cy="153.827" rx="8.51118" ry="8.77172" transform="rotate(-31.2889 58.426 153.827)" fill="#FFC0C1"/>
<ellipse cx="128.483" cy="52.7111" rx="8.51118" ry="8.77172" transform="rotate(-31.2889 128.483 52.7111)" fill="#FFC0C1"/>
<ellipse cx="99.0162" cy="41.3516" rx="8.51118" ry="8.77172" transform="rotate(-31.2889 99.0162 41.3516)" fill="#FFC0C1"/>
<ellipse cx="122.766" cy="26.918" rx="8.51118" ry="8.77172" transform="rotate(-31.2889 122.766 26.918)" fill="#FFC0C1"/>
<ellipse cx="146.515" cy="12.4844" rx="8.51118" ry="8.77172" transform="rotate(-31.2889 146.515 12.4844)" fill="#FFC0C1"/>
<ellipse cx="102.502" cy="9.96155" rx="8.51118" ry="8.77172" transform="rotate(-31.2889 102.502 9.96155)" fill="#FFC0C1"/>
<ellipse cx="8.31794" cy="37.9325" rx="8.51118" ry="8.77172" transform="rotate(-31.2889 8.31794 37.9325)" fill="#FFC0C1"/>
<ellipse cx="32.0675" cy="23.4989" rx="8.51118" ry="8.77172" transform="rotate(-31.2889 32.0675 23.4989)" fill="#FFC0C1"/>
<ellipse cx="55.8171" cy="9.06531" rx="8.51118" ry="8.77172" transform="rotate(-31.2889 55.8171 9.06531)" fill="#FFC0C1"/>
<ellipse cx="57.234" cy="96.0119" rx="8.51118" ry="8.77172" transform="rotate(-31.2889 57.234 96.0119)" fill="#FFC0C1"/>
<ellipse cx="80.9835" cy="81.5783" rx="8.51118" ry="8.77172" transform="rotate(-31.2889 80.9835 81.5783)" fill="#FFC0C1"/>
<ellipse cx="104.733" cy="67.1492" rx="8.51118" ry="8.77172" transform="rotate(-31.2889 104.733 67.1492)" fill="#FFC0C1"/>
<ellipse cx="27.7674" cy="84.6523" rx="8.51118" ry="8.77172" transform="rotate(-31.2889 27.7674 84.6523)" fill="#FFC0C1"/>
<ellipse cx="51.517" cy="70.2188" rx="8.51118" ry="8.77172" transform="rotate(-31.2889 51.517 70.2188)" fill="#FFC0C1"/>
<ellipse cx="75.2666" cy="55.7852" rx="8.51118" ry="8.77172" transform="rotate(-31.2889 75.2666 55.7852)" fill="#FFC0C1"/>
<ellipse cx="31.2534" cy="53.2668" rx="8.51118" ry="8.77172" transform="rotate(-31.2889 31.2534 53.2668)" fill="#FFC0C1"/>
<ellipse cx="55.003" cy="38.8332" rx="8.51118" ry="8.77172" transform="rotate(-31.2889 55.003 38.8332)" fill="#FFC0C1"/>
<ellipse cx="78.7525" cy="24.3996" rx="8.51118" ry="8.77172" transform="rotate(-31.2889 78.7525 24.3996)" fill="#FFC0C1"/>
</g>
<mask id="path-89-inside-4_1331_1787" fill="white">
<path d="M62.0827 8.81404C96.3697 3.9467 129.761 39.4227 136.664 88.0514C143.568 136.68 121.37 180.047 87.0828 184.915C52.7957 189.782 19.4039 154.307 12.5002 105.678C5.59665 57.0495 27.7956 13.6816 62.0827 8.81404ZM67.1328 44.4147C53.078 46.41 45.0178 71.511 49.1302 100.479C53.2427 129.447 67.9707 151.314 82.0255 149.319C96.0803 147.323 104.14 122.222 100.027 93.2536C95.9145 64.2855 81.1876 42.4195 67.1328 44.4147Z"/>
</mask>
<path d="M62.0827 8.81404L61.3503 3.65484L61.3503 3.65485L62.0827 8.81404ZM136.664 88.0514L141.824 87.3189L141.824 87.3189L136.664 88.0514ZM87.0828 184.915L87.8152 190.074L87.8153 190.074L87.0828 184.915ZM12.5002 105.678L7.34105 106.411L7.34105 106.411L12.5002 105.678ZM67.1328 44.4147L66.4004 39.2555L66.4004 39.2555L67.1328 44.4147ZM49.1302 100.479L43.971 101.212L43.971 101.212L49.1302 100.479ZM82.0255 149.319L82.758 154.478L82.758 154.478L82.0255 149.319ZM100.027 93.2536L105.186 92.5211L105.186 92.5211L100.027 93.2536ZM62.0827 8.81404L62.8151 13.9732C77.8299 11.8418 93.1602 18.4634 105.848 31.9432C118.524 45.4105 128.186 65.4062 131.505 88.7838L136.664 88.0514L141.824 87.3189C138.239 62.0679 127.754 40.0112 113.437 24.8002C99.1313 9.60161 80.6226 0.918981 61.3503 3.65484L62.0827 8.81404ZM136.664 88.0514L131.505 88.7838C134.824 112.161 131.108 134.056 122.681 150.519C114.247 166.997 101.365 177.624 86.3504 179.755L87.0828 184.915L87.8153 190.074C107.087 187.338 122.448 173.847 131.959 155.268C141.477 136.673 145.408 112.57 141.824 87.3189L136.664 88.0514ZM87.0828 184.915L86.3504 179.755C71.3355 181.887 56.005 175.265 43.3171 161.786C30.641 148.319 20.9783 128.324 17.6594 104.946L12.5002 105.678L7.34105 106.411C10.9258 131.662 21.4108 153.718 35.7283 168.929C50.0341 184.127 68.543 192.81 87.8152 190.074L87.0828 184.915ZM12.5002 105.678L17.6594 104.946C14.3406 81.5682 18.0564 59.6732 26.4835 43.2101C34.9184 26.7316 47.8003 16.1048 62.8151 13.9732L62.0827 8.81404L61.3503 3.65485C42.078 6.39084 26.7169 19.8818 17.2064 38.4614C7.68815 57.0562 3.75627 81.1596 7.34105 106.411L12.5002 105.678ZM67.1328 44.4147L66.4004 39.2555C56.2842 40.6916 49.783 50.0708 46.3574 60.7389C42.8101 71.7859 41.8287 86.1213 43.971 101.212L49.1302 100.479L54.2894 99.7467C52.3192 85.8688 53.3118 73.1696 56.2802 63.9252C59.3703 54.3019 63.9266 50.133 67.8652 49.5739L67.1328 44.4147ZM49.1302 100.479L43.971 101.212C46.1133 116.302 51.0457 129.798 57.5275 139.421C63.7869 148.715 72.6417 155.914 82.758 154.478L82.0255 149.319L81.2931 144.16C77.3545 144.719 71.8179 141.983 66.1715 133.599C60.7474 125.546 56.2596 113.625 54.2894 99.7467L49.1302 100.479ZM82.0255 149.319L82.758 154.478C92.8743 153.042 99.3752 143.662 102.8 132.994C106.347 121.947 107.329 107.611 105.186 92.5211L100.027 93.2536L94.8679 93.986C96.8381 107.864 95.8458 120.563 92.8776 129.808C89.7877 139.432 85.2316 143.601 81.2931 144.16L82.0255 149.319ZM100.027 93.2536L105.186 92.5211C103.044 77.431 98.1118 63.9352 91.6303 54.3119C85.3711 45.0187 76.5166 37.8194 66.4004 39.2555L67.1328 44.4147L67.8652 49.5739C71.8038 49.0148 77.3401 51.7508 82.9862 60.1339C88.4101 68.1868 92.8977 80.1081 94.8679 93.986L100.027 93.2536Z" fill="#F6B7B9" mask="url(#path-89-inside-4_1331_1787)"/>
</g>
<defs>
<filter id="filter0_d_1331_1787" x="11.2421" y="8.36679" width="134.711" height="185.024" filterUnits="userSpaceOnUse" color-interpolation-filters="sRGB">
<feFlood flood-opacity="0" result="BackgroundImageFix"/>
<feColorMatrix in="SourceAlpha" type="matrix" values="0 0 0 0 0 0 0 0 0 0 0 0 0 0 0 0 0 0 127 0" result="hardAlpha"/>
<feOffset dx="8.03011" dy="8.03011"/>
<feComposite in2="hardAlpha" operator="out"/>
<feColorMatrix type="matrix" values="0 0 0 0 0.92549 0 0 0 0 0.580392 0 0 0 0 0.588235 0 0 0 1 0"/>
<feBlend mode="normal" in2="BackgroundImageFix" result="effect1_dropShadow_1331_1787"/>
<feBlend mode="normal" in="SourceGraphic" in2="effect1_dropShadow_1331_1787" result="shape"/>
</filter>
</defs>
</svg>
