<svg width="202" height="413" viewBox="0 0 202 413" fill="none" xmlns="http://www.w3.org/2000/svg">
<g clip-path="url(#clip0_3131_1738)">
<rect width="202" height="413" rx="40.1484" fill="#9EE7E5"/>
<path d="M217.999 -117C243.515 -117 264.2 -96.0472 264.2 -70.2008C264.2 -63.5819 262.843 -57.2841 260.397 -51.5769C268.794 -63.2862 282.419 -70.8996 297.8 -70.8996C323.316 -70.8995 344 -49.9467 344 -24.1004C344 -1.01671 327.5 18.1636 305.796 22C327.5 25.8364 344 45.0172 344 68.1009C344 93.9464 323.316 114.899 297.8 114.899C282.419 114.899 268.794 107.286 260.397 95.5769C262.843 101.284 264.2 107.582 264.2 114.201C264.2 140.047 243.515 161 217.999 161C192.484 161 171.8 140.047 171.8 114.201C171.8 107.582 173.156 101.284 175.603 95.5769C167.206 107.286 153.58 114.899 138.2 114.899C112.684 114.899 92.0001 93.9465 92 68.1009C92 45.0172 108.499 25.8364 130.203 22C108.499 18.1636 92 -1.01675 92 -24.1004C92 -49.9468 112.684 -70.8996 138.2 -70.8996C153.58 -70.8996 167.206 -63.2862 175.603 -51.5769C173.156 -57.2841 171.8 -63.5819 171.8 -70.2008C171.8 -96.0471 192.484 -117 217.999 -117Z" fill="#CFF3F2"/>
<path d="M25.9992 175C51.5148 175 72.1996 195.953 72.1996 221.799C72.1995 228.418 70.8428 234.716 68.3968 240.423C76.7938 228.714 90.4188 221.1 105.8 221.1C131.316 221.1 152 242.053 152 267.9C152 290.983 135.5 310.164 113.796 314C135.5 317.836 152 337.017 152 360.101C152 385.946 131.316 406.899 105.8 406.899C90.4187 406.899 76.7938 399.286 68.3968 387.577C70.8428 393.284 72.1995 399.582 72.1996 406.201C72.1996 432.047 51.5148 453 25.9992 453C0.484192 453 -20.2001 432.047 -20.2001 406.201C-20.2001 399.582 -18.8436 393.284 -16.3968 387.577C-24.7942 399.286 -38.4195 406.899 -53.8002 406.899C-79.3156 406.899 -99.9999 385.946 -100 360.101C-100 337.017 -83.501 317.836 -61.7969 314C-83.501 310.164 -100 290.983 -100 267.9C-100 242.053 -79.3157 221.1 -53.8002 221.1C-38.4196 221.1 -24.7942 228.714 -16.3968 240.423C-18.8435 234.716 -20.2001 228.418 -20.2001 221.799C-20.2001 195.953 0.484192 175 25.9992 175Z" fill="#CFF3F2"/>
<g clip-path="url(#clip1_3131_1738)">
<path d="M35.5311 228.07C53.4068 238.648 47.8846 243.923 43.2661 251.727C38.6476 259.531 36.3191 266.695 18.8062 256.331C9.91581 251.069 6.45275 240.478 11.0712 232.674C15.6897 224.87 26.6408 222.808 35.5311 228.07Z" fill="white"/>
<path d="M61.7335 229.878C61.7335 239.731 58.2967 239.789 54.0573 239.789C49.8179 239.789 46.3811 239.731 46.3811 229.878C46.3811 220.024 51.0859 212.037 54.0573 212.037C57.0287 212.037 61.7335 220.024 61.7335 229.878Z" fill="#6A5B3D"/>
<path d="M154.439 229.878C154.439 239.731 151.002 239.789 146.762 239.789C142.523 239.789 139.086 239.731 139.086 229.878C139.086 220.024 143.791 212.037 146.762 212.037C149.734 212.037 154.439 220.024 154.439 229.878Z" fill="#6A5B3D"/>
<path d="M166.976 228.07C149.1 238.648 154.622 243.923 159.241 251.727C163.859 259.531 166.188 266.695 183.701 256.331C192.591 251.069 196.054 240.478 191.436 232.674C186.817 224.87 175.866 222.808 166.976 228.07Z" fill="#123041"/>
<path d="M171.386 237.088C162.477 242.36 164.784 244.236 166.536 247.197C168.288 250.158 169.003 252.976 177.732 247.81C182.163 245.188 184.335 240.662 182.582 237.701C180.83 234.74 175.817 234.465 171.386 237.088Z" fill="#FFC0C1"/>
<path d="M30.5895 237.088C39.4989 242.36 37.1921 244.236 35.4398 247.197C33.6874 250.158 32.9724 252.976 24.2438 247.81C19.8127 245.188 17.6412 240.662 19.3935 237.701C21.1458 234.74 26.1584 234.465 30.5895 237.088Z" fill="#FFC0C1"/>
<path d="M173.081 343.511C159.676 350.804 135.954 341.6 125.768 336.087C125.163 334.926 124.155 331.908 124.972 329.118C125.994 325.631 161.937 319.052 170.454 319.037C178.971 319.021 189.838 334.394 173.081 343.511Z" fill="#E7EAEE"/>
<path d="M134.997 411.299C139.232 409.567 143.356 386.495 142.52 375.009L101.842 381.501C101.006 390.823 100.95 409.834 102.956 411.299C105.464 413.13 129.703 413.463 134.997 411.299Z" fill="#E7EAEE"/>
<path d="M138.176 385.743C150.837 377.324 133.723 324.807 121.357 318.192C108.991 311.577 88.8785 312.579 80.0457 318.192C71.2128 323.804 49.3854 377.123 62.0457 385.743C74.706 394.362 125.516 394.162 138.176 385.743Z" fill="white"/>
<path fill-rule="evenodd" clip-rule="evenodd" d="M63.0921 350.52C66.307 351.926 69.09 354.078 70.2962 357.294C73.1305 364.852 82.8921 368.119 87.4192 368.808C87.4192 368.808 98.7211 372.795 102.181 378.847C104.342 382.628 104.443 388.966 104.344 392.073C87.1456 392.513 68.9401 390.436 62.0462 385.742C55.6713 381.402 58.0405 365.729 63.0921 350.52Z" fill="#123041"/>
<path d="M65.822 411.299C61.587 409.567 57.4634 386.495 58.2993 375.009L98.9773 381.501C99.8132 390.823 99.8689 409.834 97.8629 411.299C95.3553 413.13 71.1157 413.463 65.822 411.299Z" fill="#123041"/>
<path d="M40.4787 360.373C40.2168 345.114 59.3531 328.344 68.954 321.866C70.2632 321.866 73.4054 322.37 75.5001 324.385C78.1185 326.904 67.3175 361.812 63.3899 369.369C59.4623 376.927 40.806 379.446 40.4787 360.373Z" fill="white"/>
<path d="M133.771 366.693C133.771 382.445 120.288 386.228 103.657 386.228C87.0252 386.228 73.5425 382.445 73.5425 366.693C73.5425 345.987 87.0252 334.266 103.657 334.266C120.288 334.266 133.771 345.987 133.771 366.693Z" fill="#FFC0C1"/>
<path d="M103.403 380.914C103.525 380.914 103.645 380.891 103.757 380.846C103.87 380.8 103.972 380.733 104.058 380.648L108.16 376.522C108.311 376.347 108.389 376.121 108.38 375.89C108.372 375.66 108.275 375.441 108.111 375.278C107.947 375.114 107.727 375.019 107.495 375.01C107.263 375.001 107.036 375.079 106.86 375.229L102.749 379.309C102.663 379.395 102.594 379.496 102.547 379.608C102.5 379.719 102.476 379.839 102.476 379.96C102.476 380.081 102.5 380.201 102.547 380.313C102.594 380.425 102.663 380.526 102.749 380.611C102.832 380.703 102.933 380.777 103.045 380.829C103.158 380.881 103.28 380.91 103.403 380.914Z" fill="#FF8D8D"/>
<path d="M107.461 380.914C107.582 380.914 107.701 380.891 107.812 380.846C107.924 380.8 108.025 380.733 108.111 380.649C108.196 380.563 108.264 380.462 108.311 380.351C108.357 380.239 108.381 380.12 108.381 379.999C108.381 379.878 108.357 379.759 108.311 379.647C108.264 379.536 108.196 379.435 108.111 379.35L104.041 375.28C103.956 375.194 103.855 375.126 103.743 375.079C103.632 375.033 103.512 375.009 103.392 375.009C103.271 375.009 103.151 375.033 103.04 375.079C102.929 375.126 102.827 375.194 102.742 375.28C102.572 375.451 102.476 375.683 102.476 375.924C102.476 376.166 102.572 376.398 102.742 376.569L106.821 380.649C106.991 380.818 107.221 380.913 107.461 380.914Z" fill="#FF8D8D"/>
<path d="M175.105 289.096C175.105 319.914 141.312 330.133 100.239 330.133C59.1663 330.133 25.1241 319.914 25.1241 289.096C25.1241 236.549 59.1663 218.533 100.239 218.533C141.312 218.533 175.105 234.047 175.105 289.096Z" fill="white"/>
<path d="M105.46 218.622C141.057 219.828 170.124 233.872 174.526 277.189C154.709 278.8 151.216 263.723 144.824 257.823C138.319 251.818 124.808 255.071 114.299 246.564C107.857 241.349 105.805 228.454 105.46 218.622Z" fill="#123041"/>
<path d="M75.9052 305.451C75.9052 293.319 85.7395 283.485 97.8709 283.485H108.854C120.985 283.485 130.819 293.319 130.819 305.451C130.819 313.538 124.263 320.094 116.176 320.094H90.5489C82.4614 320.094 75.9052 313.538 75.9052 305.451Z" fill="#FFC0C1"/>
<path d="M91.8475 300.018V306.513" stroke="#123041" stroke-width="5.90476" stroke-linecap="round"/>
<path d="M115.466 300.018L115.466 306.513" stroke="#123041" stroke-width="5.90476" stroke-linecap="round"/>
<path d="M46.3811 306.514H55.2382" stroke="#FFC0C1" stroke-width="11.8095" stroke-linecap="round"/>
<path d="M152.076 306.514H160.933" stroke="#FFC0C1" stroke-width="11.8095" stroke-linecap="round"/>
<path d="M69.9112 293.715C69.9112 293.715 68.1989 291.751 64.3461 291.751C60.4933 291.751 58.781 293.715 58.781 293.715" stroke="#123041" stroke-width="6.98056" stroke-linecap="round"/>
<path d="M149.035 293.715C149.035 293.715 147.322 291.751 143.47 291.751C139.617 291.751 137.904 293.715 137.904 293.715" stroke="#123041" stroke-width="6.98056" stroke-linecap="round"/>
</g>
</g>
<defs>
<clipPath id="clip0_3131_1738">
<rect width="202" height="413" rx="40.1484" fill="white"/>
</clipPath>
<clipPath id="clip1_3131_1738">
<rect width="186" height="210.8" fill="white" transform="translate(8 202)"/>
</clipPath>
</defs>
</svg>
