<svg width="122" height="242" viewBox="0 0 122 242" fill="none" xmlns="http://www.w3.org/2000/svg">
<g clip-path="url(#clip0_3131_1774)">
<mask id="mask0_3131_1774" style="mask-type:luminance" maskUnits="userSpaceOnUse" x="0" y="0" width="242" height="242">
<path d="M121.82 0L0 120.022L120.022 241.842L241.842 121.82L121.82 0Z" fill="white"/>
</mask>
<g mask="url(#mask0_3131_1774)">
<path d="M53.3884 87.0291C48.1016 66.0946 67.2812 47.198 88.1344 52.7957L88.8918 52.9991C98.5127 55.5808 108.782 52.9112 115.926 45.9702L116.489 45.4232C131.975 30.3775 157.93 37.5392 163.509 58.398L163.711 59.1555C166.285 68.7782 173.732 76.337 183.316 79.0535L184.07 79.2671C204.844 85.1559 211.619 111.214 196.345 126.475L195.789 127.029C188.743 134.07 185.921 144.298 188.359 153.956L188.551 154.716C193.839 175.651 174.659 194.547 153.805 188.95L153.048 188.746C143.428 186.165 133.158 188.834 126.014 195.775L125.451 196.322C109.965 211.368 84.0107 204.206 78.4309 183.347L78.2286 182.59C75.6547 172.968 68.2075 165.409 58.6242 162.692L57.8697 162.478C37.0966 156.59 30.3215 130.532 45.5957 115.27L46.1505 114.716C53.197 107.676 56.0193 97.4472 53.5804 87.7894L53.3884 87.0291Z" fill="#FFE6EE"/>
</g>
</g>
<defs>
<clipPath id="clip0_3131_1774">
<rect width="171.013" height="171.013" fill="white" transform="translate(0 120.022) rotate(-44.5742)"/>
</clipPath>
</defs>
</svg>
