<svg width="469" height="334" viewBox="0 0 469 334" fill="none" xmlns="http://www.w3.org/2000/svg">
<g clip-path="url(#clip0_3131_1540)">
<rect width="610.465" height="310.823" rx="40.1484" fill="#AFD157"/>
<g clip-path="url(#clip1_3131_1540)">
<path d="M263.73 72.0654C215.879 72.0654 177.089 108.431 177.089 153.291C177.089 198.152 215.879 234.517 263.73 234.517C215.879 234.517 177.089 270.882 177.089 315.743C177.089 360.603 215.879 396.969 263.73 396.969C311.581 396.969 350.371 360.603 350.371 315.743C350.371 360.603 389.16 396.969 437.011 396.969C484.862 396.969 523.652 360.603 523.652 315.743C523.652 270.882 484.862 234.517 437.011 234.517C484.862 234.517 523.652 198.152 523.652 153.291C523.652 108.431 484.862 72.0654 437.011 72.0654C389.16 72.0654 350.371 108.431 350.371 153.291C350.371 108.431 311.581 72.0654 263.73 72.0654Z" fill="#C7E8AB"/>
</g>
<path d="M377.425 87.0212C371.122 83.0945 373.105 73.4451 380.446 72.3228L390.117 70.8444C392.425 70.4916 394.464 69.148 395.698 67.1662L400.871 58.8625C404.797 52.559 414.447 54.5422 415.569 61.8834L417.048 71.5542C417.4 73.8622 418.744 75.9009 420.726 77.1354L429.029 82.3082C435.333 86.2348 433.35 95.8842 426.009 97.0065L416.338 98.485C414.03 98.8378 411.991 100.181 410.757 102.163L405.584 110.467C401.657 116.77 392.008 114.787 390.885 107.446L389.407 97.7752C389.054 95.4672 387.711 93.4285 385.729 92.1939L377.425 87.0212Z" fill="white"/>
<path d="M435.912 45.4342C431.29 45.0049 429.697 39.0578 433.485 36.3752L438.882 32.5528C440.073 31.7094 440.836 30.3879 440.971 28.9348L441.582 22.3494C442.012 17.7277 447.959 16.1342 450.641 19.9221L454.464 25.3194C455.307 26.5103 456.629 27.2733 458.082 27.4083L464.667 28.0199C469.289 28.4491 470.882 34.3963 467.094 37.0788L461.697 40.9012C460.506 41.7446 459.743 43.0662 459.608 44.5192L458.997 51.1046C458.567 55.7263 452.62 57.3198 449.938 53.532L446.115 48.1346C445.272 46.9438 443.95 46.1808 442.497 46.0458L435.912 45.4342Z" fill="white"/>
</g>
<path d="M267.6 320.083C267.968 327.172 279.876 332.412 293.596 331.699C307.316 330.987 317.652 324.591 317.284 317.503C316.661 305.496 306.553 296.396 291.122 297.197C275.69 297.998 266.954 307.662 267.6 320.083Z" fill="#5BB42B"/>
<path d="M171.413 320.083C171.781 327.172 183.69 332.412 197.41 331.699C211.13 330.987 221.466 324.591 221.098 317.503C220.474 305.496 210.367 296.396 194.936 297.197C179.504 297.998 170.768 307.662 171.413 320.083Z" fill="#5BB42B"/>
<ellipse cx="170.853" cy="213.881" rx="33.1443" ry="35.7172" transform="rotate(-28.6896 170.853 213.881)" fill="#5BB42B"/>
<ellipse cx="33.1443" cy="35.7172" rx="33.1443" ry="35.7172" transform="matrix(-0.877234 -0.480064 -0.480064 0.877234 361.074 197.537)" fill="#5BB42B"/>
<path d="M350.172 271.242C350.172 314.976 304.817 314.968 246.231 314.968C187.646 314.968 136.24 314.976 136.24 271.242C136.24 208.417 184.798 181.468 243.383 181.468C301.969 181.468 350.172 203.441 350.172 271.242Z" fill="#5BB42B"/>
<path d="M158.628 256.095H172.725" stroke="#A1DC3C" stroke-width="16.5839" stroke-linecap="round"/>
<path d="M312.029 256.095H326.125" stroke="#A1DC3C" stroke-width="16.5839" stroke-linecap="round"/>
<path d="M311.323 224.586L317.956 226.245" stroke="#123041" stroke-width="12.4379" stroke-linecap="round"/>
<path d="M183.627 225.415L176.994 227.074" stroke="#123041" stroke-width="12.4379" stroke-linecap="round"/>
<path d="M278.984 228.317C277.188 229.561 272.268 232.048 266.961 232.048C260.328 232.048 257.84 226.244 250.792 226.244C243.744 226.244 241.256 232.048 234.623 232.048C229.316 232.048 224.396 229.561 222.599 228.317" stroke="#4B890D" stroke-width="4.14596" stroke-linecap="round"/>
<defs>
<clipPath id="clip0_3131_1540">
<rect width="610.465" height="310.823" rx="40.1484" fill="white"/>
</clipPath>
<clipPath id="clip1_3131_1540">
<rect x="176" y="70.4375" width="348.305" height="326.536" rx="32.6536" fill="white"/>
</clipPath>
</defs>
</svg>
