<svg width="113" height="199" viewBox="0 0 113 199" fill="none" xmlns="http://www.w3.org/2000/svg">
<path fill-rule="evenodd" clip-rule="evenodd" d="M82.8878 99.3836C87.3217 98.8513 91.7326 97.4294 95.8565 95.0484C111.96 85.7512 117.59 65.3547 108.431 49.4917C99.2727 33.629 78.794 28.3063 62.6907 37.6036C58.5668 39.9845 55.1298 43.0933 52.4521 46.6675C56.7334 37.2348 56.5863 26.0254 51.0656 16.4633C41.9071 0.600295 21.4283 -4.72219 5.32497 4.57506C-9.05711 12.8786 -15.0851 30.0354 -9.68486 44.9089C-19.8655 32.7954 -37.738 29.4375 -52.1201 37.741C-68.2229 47.038 -73.853 67.4344 -64.6945 83.2974C-59.1738 92.8595 -49.54 98.5918 -39.2304 99.6004C-43.6646 100.132 -48.0755 101.554 -52.1995 103.935C-68.3023 113.232 -73.9324 133.629 -64.774 149.492C-55.6155 165.355 -35.1365 170.677 -19.0337 161.38C-14.9097 158.999 -11.4727 155.89 -8.79478 152.317C-13.0762 161.749 -12.9289 172.958 -7.4079 182.521C1.7506 198.384 22.2296 203.706 38.3324 194.409C52.7145 186.106 58.7423 168.948 53.342 154.075C63.5228 166.188 81.3954 169.547 95.7775 161.243C111.881 151.946 117.511 131.55 108.352 115.687C102.831 106.124 93.1972 100.392 82.8878 99.3836ZM-5.07244 146.028C-2.39453 142.454 1.04243 139.345 5.16644 136.964C19.5485 128.661 37.4208 132.018 47.6015 144.132C42.2013 129.258 48.2294 112.102 62.6115 103.798C66.7354 101.417 71.1463 99.9953 75.5802 99.463C65.2708 98.4546 55.6368 92.7227 50.1158 83.16C44.5952 73.5982 44.4481 62.3887 48.7294 52.9561C46.0517 56.5303 42.6148 59.639 38.4908 62.02C24.1087 70.3235 6.23648 66.9654 -3.94421 54.852C1.45601 69.7254 -4.57212 86.8824 -18.9542 95.1859C-23.0782 97.5669 -27.4891 98.9891 -31.9232 99.5209C-21.6137 100.53 -11.979 106.261 -6.45844 115.823C-0.937441 125.386 -0.79104 136.595 -5.07244 146.028Z" fill="#FFEEC9"/>
</svg>
