<svg width="407" height="649" viewBox="0 0 407 649" fill="none" xmlns="http://www.w3.org/2000/svg">
<g opacity="0.5">
<path d="M203.615 339.405C319.447 391.194 303.254 433.671 303.254 433.671L-20.0347 289.125L-1.50906 247.691C-1.50906 247.691 148.953 314.964 203.615 339.405Z" fill="#D0E5EB"/>
<circle cx="-77.3178" cy="263.512" r="56.665" transform="rotate(114.09 -77.3178 263.512)" stroke="#EB6371" stroke-width="41.3223"/>
<path d="M48.3269 454.705C61.2647 580.926 106.676 578.839 106.676 578.839L70.5662 226.554L25.4157 231.182C25.4157 231.182 42.2214 395.139 48.3269 454.705Z" fill="#E5EEF1"/>
<circle cx="77.3261" cy="77.3261" r="56.665" transform="matrix(0.994788 -0.101966 -0.101966 -0.994788 -4.86438 248.94)" stroke="#FA9DB2" stroke-width="41.3223"/>
<path d="M71.4836 305.148C69.2656 310.246 65.4774 314.62 60.6651 317.006C55.8644 319.387 50.0167 319.803 43.6231 316.944L-19.7891 288.592L-1.71155 248.16L61.7006 276.513C67.8838 279.277 71.4249 283.888 72.879 289.069C74.3362 294.262 73.7015 300.051 71.4836 305.148Z" fill="#EB6371" stroke="#EB6371" stroke-width="0.826446"/>
<path d="M79.4817 312.754C81.6548 333.767 36.3309 336.892 34.3848 318.024C29.5735 271.376 25.3213 230.444 25.3213 230.444L70.4798 225.769C70.4798 225.769 77.2501 291.176 79.4817 312.754Z" fill="#FA9DB2"/>
<circle cx="55.0078" cy="297.441" r="6.19834" transform="rotate(24.09 55.0078 297.441)" fill="#E5EEF1"/>
<path d="M203.867 389.232L142.674 361.872L137.277 309.741L198.471 337.102L203.867 389.232Z" fill="#E5EEF1"/>
</g>
</svg>
