<svg width="479" height="482" viewBox="0 0 479 482" fill="none" xmlns="http://www.w3.org/2000/svg">
<g clip-path="url(#clip0_1331_1695)">
<path d="M82.7039 215.058C107.966 210.629 107.02 220.01 108.953 231.039C110.886 242.068 114.454 250.657 89.7047 254.996C77.141 257.198 65.3889 250.043 63.4557 239.014C61.5224 227.986 70.1402 217.26 82.7039 215.058Z" fill="#EAF3F7"/>
<path d="M103.37 193.449C111.281 202.692 108.104 205.506 104.127 208.909C100.151 212.313 96.8798 215.018 88.9691 205.775C81.0583 196.532 79.0587 185.262 81.8461 182.876C84.6334 180.491 95.4597 184.206 103.37 193.449Z" fill="#6A5B3D"/>
<path d="M198.292 127.084C205.083 137.178 201.602 139.607 197.259 142.529C192.916 145.45 189.355 147.759 182.564 137.665C175.773 127.571 175.088 116.145 178.132 114.097C181.176 112.049 191.501 116.99 198.292 127.084Z" fill="#9C8866"/>
<path d="M200.906 129.982C192.631 154.257 202.046 154.771 212.644 158.384C223.242 161.996 231.178 166.847 239.285 143.064C243.4 130.991 238.145 118.275 227.547 114.663C216.949 111.05 205.022 117.909 200.906 129.982Z" fill="#1F0D2D"/>
<path d="M212.842 134.072C208.717 146.171 212.387 146.078 216.408 147.449C220.43 148.82 223.363 150.889 227.403 139.036C229.454 133.018 227.858 127.029 223.837 125.658C219.816 124.288 214.893 128.054 212.842 134.072Z" fill="#FFC0C1"/>
<path d="M85.31 227.492C97.9007 225.285 97.2428 228.896 97.9763 233.081C98.7098 237.265 100.301 240.483 87.9662 242.645C81.7043 243.742 76.0334 241.24 75.2999 237.056C74.5664 232.871 79.0481 228.589 85.31 227.492Z" fill="#FFAAAB"/>
<path d="M325.886 201.067C298.245 193.475 261.084 224.768 247.103 235.985C246.837 237.76 247.136 242.16 250.456 245.56C254.605 249.81 317.788 242.446 332.613 239.167C352.948 234.668 352.976 208.508 325.886 201.067Z" fill="url(#paint0_linear_1331_1695)"/>
<path d="M242.757 361.135C220.863 363.437 176.959 294.519 184.033 275.55C191.107 256.581 216.582 230.557 240.85 230.879C265.119 231.201 317.883 252.894 327.531 287.177C333.605 308.763 264.652 358.833 242.757 361.135Z" fill="#F3FAFD"/>
<path d="M219.215 244.88C223.729 242.612 228.706 240.726 234.177 239.332C265.227 231.424 320.279 248.232 327.136 284.516C327.597 286.954 327.298 289.816 326.377 292.988C323.213 290.094 315.954 277.607 306.424 267.879C287.186 248.242 279.326 246.815 254.765 246.049C238.937 245.556 220.976 246.465 219.215 244.88Z" fill="white"/>
<path d="M181.042 278.112C188.597 258.731 207.307 236.404 239.822 231.761C254.714 229.635 255.816 230.66 281.191 242.391C251.01 238.685 201.681 272.372 202.854 295.349C203.874 315.339 213.228 328.879 233.313 334.83C251.328 340.167 261.155 353.412 250.99 358.921C247.858 360.126 245.071 360.893 242.757 361.137C227.847 362.704 202.729 331.241 190.456 305.018C189.563 306.065 188.66 307.128 187.748 308.209C187.631 308.347 187.515 308.482 187.4 308.614C181.534 295.971 178.586 284.411 181.042 278.112Z" fill="url(#paint1_linear_1331_1695)"/>
<path fill-rule="evenodd" clip-rule="evenodd" d="M206.523 332.166C211.449 330.668 216.484 330.393 220.857 332.521C232.362 338.12 241.8 332.581 254.26 326.622C266.72 320.663 273.653 319.752 284.342 322.895C287.584 323.848 290.713 325.897 293.399 328.137C271.522 344.663 247.434 357.858 234.845 356.596C224.65 355.573 214.767 345.578 206.523 332.166Z" fill="#1F0D2D"/>
<path d="M281.912 393.345C259.173 392.987 228.131 367.817 215.16 344.231L280.503 322.211C307.278 330.86 316.449 341.972 313.814 366.04C312.544 377.647 292.539 393.513 281.912 393.345Z" fill="#1F0D2D"/>
<path fill-rule="evenodd" clip-rule="evenodd" d="M219.998 342.601C231.559 348.648 244.492 353.842 271.832 355.011C266.66 365.549 269.8 392.374 295.549 388.348C290.88 391.295 286.139 393.226 282.428 393.341C282.255 393.343 282.082 393.342 281.911 393.339C281.571 393.334 281.23 393.324 280.887 393.312C258.25 392.234 227.938 367.465 215.161 344.232L219.998 342.601Z" fill="url(#paint2_linear_1331_1695)"/>
<path fill-rule="evenodd" clip-rule="evenodd" d="M219.998 342.601C231.559 348.648 244.492 353.842 271.832 355.011C266.66 365.549 269.8 392.374 295.549 388.348C290.88 391.295 286.139 393.226 282.428 393.341C282.255 393.343 282.082 393.342 281.911 393.339C281.571 393.334 281.23 393.324 280.887 393.312C258.25 392.234 227.938 367.465 215.161 344.232L219.998 342.601Z" fill="url(#paint3_linear_1331_1695)" fill-opacity="0.2"/>
<path d="M219.913 305.621C227.845 313.696 243.62 305.367 260.73 292.701C277.839 280.034 289.804 267.827 281.872 259.753C271.445 249.139 251.673 253.399 234.564 266.065C217.454 278.731 209.486 295.007 219.913 305.621Z" fill="#FFAAAB"/>
<path d="M183.616 280.003C183.524 280.081 183.421 280.148 183.312 280.2C183.203 280.252 183.09 280.288 182.981 280.306L177.716 281.13C177.509 281.15 177.332 281.102 177.218 280.996C177.104 280.889 177.062 280.732 177.101 280.555C177.14 280.379 177.257 280.196 177.428 280.044C177.599 279.891 177.812 279.78 178.024 279.733L183.272 278.882C183.382 278.864 183.487 278.865 183.581 278.884C183.675 278.902 183.756 278.939 183.819 278.992C183.882 279.045 183.927 279.113 183.95 279.192C183.973 279.27 183.974 279.359 183.953 279.451C183.938 279.544 183.901 279.641 183.843 279.736C183.785 279.831 183.707 279.921 183.616 280.003Z" fill="#FF8D8D"/>
<path d="M180.542 282.602C180.451 282.679 180.348 282.745 180.24 282.797C180.132 282.848 180.02 282.884 179.911 282.902C179.802 282.919 179.697 282.919 179.604 282.9C179.51 282.881 179.43 282.844 179.366 282.791C179.303 282.738 179.259 282.671 179.236 282.592C179.213 282.514 179.211 282.426 179.232 282.334L180.185 277.949C180.205 277.857 180.246 277.763 180.306 277.671C180.366 277.579 180.444 277.492 180.536 277.415C180.627 277.338 180.73 277.272 180.839 277.221C180.948 277.169 181.06 277.134 181.169 277.117C181.388 277.083 181.581 277.123 181.708 277.229C181.834 277.334 181.883 277.497 181.844 277.681L180.888 282.076C180.847 282.259 180.723 282.448 180.542 282.602Z" fill="#FF8D8D"/>
<path d="M262.102 172.801C283.105 204.16 263.874 225.875 225.346 258.851C186.818 291.826 144.477 316.758 120.409 287.285C82.1323 240.412 84.1999 190.053 137.223 152.683C178.676 123.469 224.278 116.327 262.102 172.801Z" fill="white"/>
<path fill-rule="evenodd" clip-rule="evenodd" d="M98.8938 198.022C99.5623 200.441 100.127 203.485 100.557 207.215C111.401 301.351 159.24 289.007 221.891 247.774C238.883 236.59 250.374 230.393 257.459 227.897C249.622 237.447 238.632 247.48 225.346 258.851C186.437 292.152 147.101 316.849 118.845 288.521C91.6455 261.252 86.1745 227.841 98.8938 198.022Z" fill="#EAF3F7"/>
<path fill-rule="evenodd" clip-rule="evenodd" d="M98.8938 198.022C99.5623 200.441 100.127 203.485 100.557 207.215C111.401 301.351 159.24 289.007 221.891 247.774C238.883 236.59 250.374 230.393 257.459 227.897C249.622 237.447 238.632 247.48 225.346 258.851C186.437 292.152 147.101 316.849 118.845 288.521C91.6455 261.252 86.1745 227.841 98.8938 198.022Z" fill="url(#paint4_linear_1331_1695)" fill-opacity="0.2"/>
<path fill-rule="evenodd" clip-rule="evenodd" d="M136.21 153.546C171.302 127.632 210.962 116.576 247.579 154.319C230.63 170.533 215.577 159.559 205.021 159.162C194.098 158.752 184.035 172.651 167.348 173.108C156.946 173.393 144.426 162.588 136.21 153.546Z" fill="#1F0D2D"/>
<path d="M223.901 188.393L229.831 198.438" stroke="#123041" stroke-width="10.9361" stroke-linecap="round"/>
<path d="M148.533 242.167L154.463 252.212" stroke="#123041" stroke-width="10.9361" stroke-linecap="round"/>
<path d="M239.745 220.408C231.301 208.036 214.427 204.852 202.055 213.296L190.854 220.94C178.482 229.384 175.298 246.259 183.742 258.631C189.371 266.879 200.621 269.002 208.869 263.372L235.003 245.535C243.251 239.906 245.374 228.656 239.745 220.408Z" fill="#FFC0C1"/>
<path d="M238.015 217.874C230.527 206.902 215.561 204.078 204.589 211.566L190.854 220.94C178.482 229.384 175.298 246.259 183.742 258.631C189.371 266.879 200.621 269.002 208.869 263.372L232.469 247.265C242.117 240.68 244.6 227.522 238.015 217.874Z" fill="#FFC0C1"/>
<path d="M225.956 226.125L230.477 232.75" stroke="#123041" stroke-width="7.29072" stroke-linecap="round"/>
<path d="M201.868 242.565L206.389 249.189" stroke="#123041" stroke-width="7.29071" stroke-linecap="round"/>
<path d="M265.751 192.915L257.042 199.529" stroke="#FFC0C1" stroke-width="14.5814" stroke-linecap="round"/>
<path d="M155.737 275.458L147.028 282.073" stroke="#FFAAAB" stroke-width="14.5814" stroke-linecap="round"/>
<path d="M374.905 293.231C373.839 264.329 317.731 251.465 309.072 259.138C300.412 266.812 305.764 301.986 305.764 301.986C322.403 314.493 328.974 332.388 344.934 333.52C361.605 334.703 375.836 318.468 374.905 293.231Z" fill="white"/>
<path d="M305.076 266.209C316.956 275.626 326.509 277.558 348.388 277.023C332.167 293.412 334.086 310.771 340.557 321.766C343.891 327.431 348.511 330.781 352.826 332.746C350.296 333.44 347.648 333.713 344.933 333.52C333.148 332.684 320.606 324.601 308.15 315.394C305.644 311.771 303.559 307.901 302.071 303.939C299.866 298.069 299.315 292.219 299.604 286.937L304.464 267.453C304.832 266.659 305.067 266.224 305.076 266.209Z" fill="url(#paint5_linear_1331_1695)"/>
<path d="M154.215 369.424C137.125 336.968 161.916 303.978 175.46 289.781C177.604 288.352 183.185 285.579 188.361 285.913C194.83 286.331 209.882 340.441 207.5 357.605C205.551 371.65 168.106 395.803 154.215 369.424Z" fill="white"/>
<path fill-rule="evenodd" clip-rule="evenodd" d="M150.73 319.054C155.571 306.757 163.755 296.939 171.055 291.302C181.297 283.394 188.885 285.163 190.229 286.728C191.114 287.758 192.24 289.897 193.496 292.826C189.712 291.654 183.048 287.526 178.16 290.006C166.236 296.055 157.679 319.108 156.657 328.755C154.721 347.018 169.747 373.78 197.06 371.912C184.354 381.842 163.572 387.27 153.603 368.501C145.305 352.877 145.068 337.775 148.76 324.858C149.348 322.884 150.009 320.948 150.73 319.054Z" fill="url(#paint6_linear_1331_1695)"/>
<path fill-rule="evenodd" clip-rule="evenodd" d="M150.73 319.054C155.571 306.757 163.755 296.939 171.055 291.302C181.297 283.394 188.885 285.163 190.229 286.728C191.114 287.758 192.24 289.897 193.496 292.826C189.712 291.654 183.048 287.526 178.16 290.006C166.236 296.055 157.679 319.108 156.657 328.755C154.721 347.018 169.747 373.78 197.06 371.912C184.354 381.842 163.572 387.27 153.603 368.501C145.305 352.877 145.068 337.775 148.76 324.858C149.348 322.884 150.009 320.948 150.73 319.054Z" fill="url(#paint7_linear_1331_1695)" fill-opacity="0.2"/>
<path fill-rule="evenodd" clip-rule="evenodd" d="M158.07 305.341C163.075 297.223 169.332 291.032 175.617 288.067C180.261 285.877 183.74 284.804 188.362 285.422C190.615 285.724 193.931 292.575 197.187 302.086C182.698 290.763 171.582 292.938 158.07 305.341Z" fill="#DAEAF1"/>
<path fill-rule="evenodd" clip-rule="evenodd" d="M181.183 253.967C180.333 251.974 180.948 249.46 183.071 249.027C184.799 248.675 186.665 249.076 188.134 250.283L195.319 256.187C196.703 257.325 198.53 257.793 200.274 257.384C217.768 253.283 230.47 244.312 240.422 231.73C241.356 230.549 242.932 231.47 242.735 232.963C242.086 237.884 239.426 242.518 235.003 245.537L208.869 263.373C200.621 269.003 189.371 266.879 183.741 258.631C182.72 257.135 181.869 255.572 181.183 253.967Z" fill="#FFAAAB"/>
</g>
<defs>
<linearGradient id="paint0_linear_1331_1695" x1="316.39" y1="208.633" x2="216.069" y2="221.241" gradientUnits="userSpaceOnUse">
<stop stop-color="#EAF3F7"/>
<stop offset="1" stop-color="#D7E9F1"/>
</linearGradient>
<linearGradient id="paint1_linear_1331_1695" x1="210.297" y1="241.5" x2="292.833" y2="232.234" gradientUnits="userSpaceOnUse">
<stop stop-color="#DBEBF1"/>
<stop offset="1" stop-color="white"/>
</linearGradient>
<linearGradient id="paint2_linear_1331_1695" x1="248.961" y1="377.492" x2="256.932" y2="345.712" gradientUnits="userSpaceOnUse">
<stop stop-color="#1F1E60"/>
<stop offset="1" stop-color="#1F0D2D"/>
</linearGradient>
<linearGradient id="paint3_linear_1331_1695" x1="241.65" y1="362.11" x2="238.005" y2="386.531" gradientUnits="userSpaceOnUse">
<stop stop-color="#1F0D2D"/>
<stop offset="1" stop-color="#56BBD8"/>
</linearGradient>
<linearGradient id="paint4_linear_1331_1695" x1="122.039" y1="265.543" x2="117.083" y2="287.261" gradientUnits="userSpaceOnUse">
<stop stop-color="white"/>
<stop offset="1" stop-color="#56BBD8"/>
</linearGradient>
<linearGradient id="paint5_linear_1331_1695" x1="323.766" y1="333.439" x2="346.086" y2="263.975" gradientUnits="userSpaceOnUse">
<stop stop-color="#DBEBF1"/>
<stop offset="1" stop-color="white"/>
</linearGradient>
<linearGradient id="paint6_linear_1331_1695" x1="158.705" y1="375.536" x2="160.546" y2="299.763" gradientUnits="userSpaceOnUse">
<stop stop-color="#EAF3F7"/>
<stop offset="1" stop-color="white"/>
</linearGradient>
<linearGradient id="paint7_linear_1331_1695" x1="156.666" y1="339.31" x2="150.912" y2="358.299" gradientUnits="userSpaceOnUse">
<stop stop-color="white"/>
<stop offset="1" stop-color="#56BBD8"/>
</linearGradient>
<clipPath id="clip0_1331_1695">
<rect width="323.206" height="357.81" fill="white" transform="translate(0 210.161) rotate(-40.5596)"/>
</clipPath>
</defs>
</svg>
